<svg xmlns="http://www.w3.org/2000/svg" xmlns:xlink="http://www.w3.org/1999/xlink" width="500" zoomAndPan="magnify" viewBox="0 0 375 374.999991" height="500" preserveAspectRatio="xMidYMid meet" version="1.0"><defs><clipPath id="8fd83a14ac"><path d="M 56.261719 56.261719 L 318.738281 56.261719 L 318.738281 318.738281 L 56.261719 318.738281 Z M 56.261719 56.261719 " clip-rule="nonzero"/></clipPath><clipPath id="4db728e033"><path d="M 187.5 56.261719 C 115.019531 56.261719 56.261719 115.019531 56.261719 187.5 C 56.261719 259.980469 115.019531 318.738281 187.5 318.738281 C 259.980469 318.738281 318.738281 259.980469 318.738281 187.5 C 318.738281 115.019531 259.980469 56.261719 187.5 56.261719 Z M 187.5 56.261719 " clip-rule="nonzero"/></clipPath><clipPath id="dbb3e7bf16"><path d="M 77.335938 78.152344 L 297.664062 78.152344 L 297.664062 298.480469 L 77.335938 298.480469 Z M 77.335938 78.152344 " clip-rule="nonzero"/></clipPath><clipPath id="c26da88362"><path d="M 187.5 78.152344 C 126.65625 78.152344 77.335938 127.472656 77.335938 188.316406 C 77.335938 249.160156 126.65625 298.480469 187.5 298.480469 C 248.34375 298.480469 297.664062 249.160156 297.664062 188.316406 C 297.664062 127.472656 248.34375 78.152344 187.5 78.152344 Z M 187.5 78.152344 " clip-rule="nonzero"/></clipPath><clipPath id="20a5dbedd0"><path d="M 77.335938 78.152344 L 297.660156 78.152344 L 297.660156 298.476562 L 77.335938 298.476562 Z M 77.335938 78.152344 " clip-rule="nonzero"/></clipPath><clipPath id="451caa6ab0"><path d="M 187.496094 78.152344 C 126.65625 78.152344 77.335938 127.472656 77.335938 188.3125 C 77.335938 249.15625 126.65625 298.476562 187.496094 298.476562 C 248.339844 298.476562 297.660156 249.15625 297.660156 188.3125 C 297.660156 127.472656 248.339844 78.152344 187.496094 78.152344 Z M 187.496094 78.152344 " clip-rule="nonzero"/></clipPath><clipPath id="0c803f2085"><path d="M 115.367188 102 L 258 102 L 258 274 L 115.367188 274 Z M 115.367188 102 " clip-rule="nonzero"/></clipPath></defs><g clip-path="url(#8fd83a14ac)"><g clip-path="url(#4db728e033)"><path fill="#ac3637" d="M 56.261719 56.261719 L 318.738281 56.261719 L 318.738281 318.738281 L 56.261719 318.738281 Z M 56.261719 56.261719 " fill-opacity="1" fill-rule="nonzero"/></g></g><g clip-path="url(#dbb3e7bf16)"><g clip-path="url(#c26da88362)"><path fill="#ffcc00" d="M 77.335938 78.152344 L 297.664062 78.152344 L 297.664062 298.480469 L 77.335938 298.480469 Z M 77.335938 78.152344 " fill-opacity="1" fill-rule="nonzero"/></g></g><g clip-path="url(#20a5dbedd0)"><g clip-path="url(#451caa6ab0)"><path stroke-linecap="butt" transform="matrix(0.75, 0, 0, 0.75, 77.335159, 78.151987)" fill="none" stroke-linejoin="miter" d="M 146.881256 0.000475843 C 65.761459 0.000475843 0.0010385 65.760897 0.0010385 146.880694 C 0.0010385 228.005699 65.761459 293.76612 146.881256 293.76612 C 228.006262 293.76612 293.766683 228.005699 293.766683 146.880694 C 293.766683 65.760897 228.006262 0.000475843 146.881256 0.000475843 Z M 146.881256 0.000475843 " stroke="#ffffff" stroke-width="8" stroke-opacity="1" stroke-miterlimit="4"/></g></g><g clip-path="url(#0c803f2085)"><path fill="#ac3637" d="M 250.765625 158.25 C 248.980469 161.96875 245.738281 164.660156 241.480469 164.828125 C 237.09375 165.003906 233.988281 161.980469 230.582031 159.679688 C 222.859375 154.46875 214.570312 150.117188 206.007812 146.457031 C 186.773438 138.242188 165.988281 133.136719 145.042969 132.386719 C 137.707031 132.125 126.980469 134.675781 123.851562 125.65625 C 122.769531 122.535156 123.078125 119.03125 124.929688 116.265625 C 127.136719 112.972656 130.492188 112.019531 134.230469 111.503906 C 153.976562 108.796875 174.480469 111.804688 193.449219 117.476562 C 213.296875 123.417969 232.945312 132.796875 248.183594 147.074219 C 251.820312 150.484375 257.304688 145.019531 253.660156 141.601562 C 238.394531 127.292969 219.078125 117.589844 199.300781 111.191406 C 178.046875 104.316406 154.9375 100.867188 132.683594 103.964844 C 123.328125 105.265625 115.65625 111.664062 115.480469 121.683594 C 115.359375 128.757812 119.449219 135.269531 125.582031 138.324219 C 125.925781 138.574219 126.332031 138.765625 126.796875 138.878906 C 128.015625 139.371094 129.296875 139.734375 130.636719 139.949219 C 135.660156 140.734375 141.019531 139.953125 146.109375 140.175781 C 151.867188 140.425781 157.605469 141.019531 163.289062 141.960938 C 175.316406 143.953125 187.152344 147.234375 198.5 151.6875 C 209.523438 156.007812 220.144531 161.585938 229.753906 168.515625 C 231.433594 169.726562 233.234375 170.640625 235.089844 171.273438 C 231.769531 174.839844 228.453125 178.40625 225.136719 181.976562 C 224.0625 176.726562 220.332031 172.238281 214.777344 170.578125 C 206.980469 168.25 198.523438 173.007812 196.253906 180.761719 C 193.964844 188.570312 198.65625 197.011719 206.4375 199.285156 C 207.164062 199.5 207.890625 199.652344 208.613281 199.75 C 208.324219 200.054688 208.039062 200.367188 207.753906 200.671875 C 191.132812 218.546875 174.515625 236.417969 157.902344 254.285156 C 155.808594 256.535156 153.71875 258.785156 151.628906 261.035156 C 149.765625 250.4375 147.90625 239.84375 146.050781 229.246094 C 142.425781 208.59375 138.800781 187.945312 135.175781 167.300781 C 134.339844 162.53125 133.503906 157.769531 132.667969 153 C 131.808594 148.101562 124.34375 150.175781 125.199219 155.058594 C 127.484375 168.085938 129.773438 181.113281 132.058594 194.140625 C 135.683594 214.789062 139.304688 235.441406 142.933594 256.085938 C 143.765625 260.851562 144.605469 265.617188 145.441406 270.382812 C 145.945312 273.261719 150.046875 274.097656 151.910156 272.089844 C 162.390625 260.820312 172.871094 249.546875 183.351562 238.277344 C 199.96875 220.40625 216.589844 202.535156 233.203125 184.664062 C 237.027344 180.554688 240.847656 176.445312 244.671875 172.335938 C 244.78125 172.214844 244.886719 172.085938 244.980469 171.960938 C 250.160156 170.921875 254.828125 167.636719 257.457031 162.15625 C 259.601562 157.6875 252.925781 153.753906 250.765625 158.25 Z M 203.714844 182.820312 C 206.464844 173.949219 219.78125 178.019531 217.488281 187.046875 C 214.496094 195.890625 200.976562 191.664062 203.714844 182.820312 Z M 203.714844 182.820312 " fill-opacity="1" fill-rule="nonzero"/></g><path fill="#ac3637" d="M 163.421875 147.875 C 155.625 145.546875 147.167969 150.304688 144.898438 158.058594 C 142.613281 165.863281 147.300781 174.304688 155.082031 176.582031 C 162.820312 178.847656 170.402344 174.4375 173.28125 167.273438 C 173.414062 167.011719 173.527344 166.71875 173.609375 166.398438 C 173.714844 166.082031 173.78125 165.78125 173.8125 165.492188 C 175.289062 157.863281 171.097656 150.167969 163.421875 147.875 Z M 152.367188 160.117188 C 155.117188 151.246094 168.433594 155.316406 166.140625 164.34375 C 163.148438 173.183594 149.625 168.960938 152.367188 160.117188 Z M 152.367188 160.117188 " fill-opacity="1" fill-rule="nonzero"/><path fill="#ac3637" d="M 156.625 213.195312 C 156.625 221.320312 163.449219 228.144531 171.574219 228.144531 C 179.613281 228.144531 185.71875 221.828125 186.457031 214.128906 C 186.511719 213.839844 186.535156 213.53125 186.519531 213.199219 C 186.535156 212.867188 186.511719 212.558594 186.457031 212.273438 C 185.71875 204.554688 179.617188 198.28125 171.570312 198.253906 C 163.449219 198.214844 156.625 205.09375 156.625 213.195312 Z M 178.777344 213.195312 C 178.421875 222.507812 164.371094 222.472656 164.371094 213.195312 C 164.371094 203.929688 178.417969 203.867188 178.777344 213.195312 Z M 178.777344 213.195312 " fill-opacity="1" fill-rule="nonzero"/></svg>