<svg xmlns="http://www.w3.org/2000/svg" xmlns:xlink="http://www.w3.org/1999/xlink" width="500" zoomAndPan="magnify" viewBox="0 0 375 374.999991" height="500" preserveAspectRatio="xMidYMid meet" version="1.0"><defs><clipPath id="cfaa2faf40"><path d="M 35.144531 35.144531 L 339.644531 35.144531 L 339.644531 339.644531 L 35.144531 339.644531 Z M 35.144531 35.144531 " clip-rule="nonzero"/></clipPath></defs><g clip-path="url(#cfaa2faf40)"><path fill="#ffc54c" d="M 339.644531 187.394531 C 339.644531 189.882812 339.582031 192.375 339.460938 194.863281 C 339.335938 197.351562 339.152344 199.835938 338.910156 202.316406 C 338.664062 204.796875 338.359375 207.269531 337.996094 209.734375 C 337.628906 212.199219 337.203125 214.652344 336.71875 217.09375 C 336.230469 219.539062 335.683594 221.96875 335.082031 224.386719 C 334.476562 226.804688 333.808594 229.203125 333.085938 231.589844 C 332.363281 233.972656 331.582031 236.339844 330.742188 238.683594 C 329.902344 241.03125 329.007812 243.355469 328.054688 245.65625 C 327.101562 247.957031 326.089844 250.234375 325.023438 252.488281 C 323.960938 254.742188 322.839844 256.964844 321.664062 259.164062 C 320.492188 261.359375 319.261719 263.527344 317.980469 265.664062 C 316.699219 267.800781 315.367188 269.90625 313.984375 271.976562 C 312.601562 274.050781 311.164062 276.085938 309.679688 278.089844 C 308.195312 280.089844 306.664062 282.054688 305.082031 283.980469 C 303.503906 285.90625 301.875 287.792969 300.203125 289.636719 C 298.527344 291.484375 296.8125 293.289062 295.050781 295.050781 C 293.289062 296.8125 291.484375 298.53125 289.636719 300.203125 C 287.792969 301.875 285.90625 303.503906 283.980469 305.082031 C 282.054688 306.664062 280.089844 308.195312 278.089844 309.679688 C 276.085938 311.164062 274.050781 312.601562 271.976562 313.984375 C 269.90625 315.367188 267.800781 316.699219 265.664062 317.980469 C 263.527344 319.261719 261.359375 320.492188 259.164062 321.664062 C 256.964844 322.839844 254.742188 323.960938 252.488281 325.023438 C 250.234375 326.089844 247.957031 327.101562 245.65625 328.054688 C 243.355469 329.007812 241.03125 329.902344 238.683594 330.742188 C 236.339844 331.582031 233.972656 332.363281 231.589844 333.085938 C 229.203125 333.808594 226.804688 334.476562 224.386719 335.082031 C 221.96875 335.683594 219.539062 336.230469 217.09375 336.71875 C 214.652344 337.203125 212.195312 337.628906 209.734375 337.996094 C 207.269531 338.359375 204.796875 338.664062 202.316406 338.910156 C 199.835938 339.152344 197.351562 339.335938 194.863281 339.460938 C 192.375 339.582031 189.882812 339.644531 187.394531 339.644531 C 184.902344 339.644531 182.410156 339.582031 179.921875 339.460938 C 177.433594 339.335938 174.949219 339.152344 172.46875 338.910156 C 169.988281 338.664062 167.519531 338.359375 165.054688 337.996094 C 162.589844 337.628906 160.132812 337.203125 157.691406 336.71875 C 155.246094 336.230469 152.816406 335.6875 150.398438 335.082031 C 147.980469 334.476562 145.582031 333.808594 143.195312 333.085938 C 140.8125 332.363281 138.449219 331.582031 136.101562 330.742188 C 133.753906 329.902344 131.429688 329.007812 129.128906 328.054688 C 126.828125 327.101562 124.550781 326.089844 122.296875 325.023438 C 120.046875 323.960938 117.820312 322.839844 115.621094 321.664062 C 113.425781 320.492188 111.257812 319.261719 109.121094 317.980469 C 106.984375 316.699219 104.878906 315.367188 102.808594 313.984375 C 100.734375 312.601562 98.699219 311.164062 96.699219 309.679688 C 94.695312 308.195312 92.734375 306.664062 90.804688 305.082031 C 88.878906 303.503906 86.996094 301.875 85.148438 300.203125 C 83.300781 298.53125 81.496094 296.8125 79.734375 295.050781 C 77.972656 293.289062 76.257812 291.484375 74.582031 289.636719 C 72.910156 287.792969 71.28125 285.90625 69.703125 283.980469 C 68.121094 282.054688 66.589844 280.089844 65.105469 278.089844 C 63.621094 276.085938 62.1875 274.050781 60.800781 271.976562 C 59.417969 269.90625 58.085938 267.800781 56.804688 265.664062 C 55.523438 263.527344 54.292969 261.359375 53.121094 259.164062 C 51.945312 256.964844 50.824219 254.742188 49.761719 252.488281 C 48.695312 250.234375 47.6875 247.957031 46.730469 245.65625 C 45.777344 243.355469 44.882812 241.03125 44.042969 238.683594 C 43.203125 236.339844 42.421875 233.972656 41.699219 231.589844 C 40.976562 229.203125 40.3125 226.804688 39.707031 224.386719 C 39.101562 221.96875 38.554688 219.539062 38.066406 217.09375 C 37.582031 214.652344 37.15625 212.199219 36.789062 209.734375 C 36.425781 207.269531 36.121094 204.796875 35.875 202.316406 C 35.632812 199.835938 35.449219 197.351562 35.328125 194.863281 C 35.203125 192.375 35.144531 189.882812 35.144531 187.394531 C 35.144531 184.902344 35.203125 182.410156 35.328125 179.921875 C 35.449219 177.433594 35.632812 174.949219 35.875 172.46875 C 36.121094 169.988281 36.425781 167.519531 36.789062 165.054688 C 37.15625 162.589844 37.582031 160.132812 38.066406 157.691406 C 38.554688 155.246094 39.101562 152.816406 39.707031 150.398438 C 40.3125 147.980469 40.976562 145.582031 41.699219 143.195312 C 42.421875 140.8125 43.203125 138.449219 44.042969 136.101562 C 44.882812 133.753906 45.777344 131.429688 46.730469 129.128906 C 47.6875 126.828125 48.695312 124.550781 49.761719 122.296875 C 50.824219 120.046875 51.945312 117.820312 53.121094 115.621094 C 54.292969 113.425781 55.523438 111.257812 56.804688 109.121094 C 58.085938 106.984375 59.417969 104.878906 60.800781 102.808594 C 62.1875 100.734375 63.621094 98.699219 65.105469 96.699219 C 66.589844 94.695312 68.121094 92.734375 69.703125 90.804688 C 71.28125 88.878906 72.910156 86.996094 74.582031 85.148438 C 76.257812 83.300781 77.972656 81.496094 79.734375 79.734375 C 81.496094 77.972656 83.300781 76.257812 85.148438 74.582031 C 86.996094 72.910156 88.878906 71.28125 90.804688 69.703125 C 92.734375 68.121094 94.695312 66.589844 96.699219 65.105469 C 98.699219 63.621094 100.734375 62.1875 102.808594 60.800781 C 104.878906 59.417969 106.984375 58.085938 109.121094 56.804688 C 111.257812 55.523438 113.425781 54.296875 115.621094 53.121094 C 117.820312 51.945312 120.046875 50.824219 122.296875 49.761719 C 124.550781 48.695312 126.828125 47.6875 129.128906 46.730469 C 131.429688 45.777344 133.753906 44.882812 136.101562 44.042969 C 138.449219 43.203125 140.8125 42.421875 143.195312 41.699219 C 145.582031 40.976562 147.980469 40.3125 150.398438 39.707031 C 152.816406 39.101562 155.246094 38.554688 157.691406 38.066406 C 160.132812 37.582031 162.589844 37.15625 165.054688 36.789062 C 167.519531 36.425781 169.988281 36.121094 172.46875 35.875 C 174.949219 35.632812 177.433594 35.449219 179.921875 35.328125 C 182.410156 35.203125 184.902344 35.144531 187.394531 35.144531 C 189.882812 35.144531 192.375 35.203125 194.863281 35.328125 C 197.351562 35.449219 199.835938 35.632812 202.316406 35.875 C 204.796875 36.121094 207.269531 36.425781 209.734375 36.789062 C 212.195312 37.15625 214.652344 37.582031 217.09375 38.066406 C 219.539062 38.554688 221.96875 39.101562 224.386719 39.707031 C 226.804688 40.3125 229.203125 40.976562 231.589844 41.699219 C 233.972656 42.421875 236.339844 43.203125 238.683594 44.042969 C 241.03125 44.882812 243.355469 45.777344 245.65625 46.730469 C 247.957031 47.6875 250.234375 48.695312 252.488281 49.761719 C 254.742188 50.824219 256.964844 51.945312 259.164062 53.121094 C 261.359375 54.296875 263.527344 55.523438 265.664062 56.804688 C 267.800781 58.085938 269.90625 59.417969 271.976562 60.800781 C 274.050781 62.1875 276.085938 63.621094 278.089844 65.105469 C 280.089844 66.589844 282.054688 68.121094 283.980469 69.703125 C 285.90625 71.28125 287.792969 72.910156 289.636719 74.582031 C 291.484375 76.257812 293.289062 77.972656 295.050781 79.734375 C 296.8125 81.496094 298.527344 83.300781 300.203125 85.148438 C 301.875 86.996094 303.503906 88.878906 305.082031 90.804688 C 306.664062 92.734375 308.195312 94.695312 309.679688 96.699219 C 311.164062 98.699219 312.601562 100.734375 313.984375 102.808594 C 315.367188 104.878906 316.699219 106.984375 317.980469 109.121094 C 319.261719 111.257812 320.492188 113.425781 321.664062 115.621094 C 322.839844 117.820312 323.960938 120.046875 325.023438 122.296875 C 326.089844 124.550781 327.101562 126.828125 328.054688 129.128906 C 329.007812 131.429688 329.902344 133.753906 330.742188 136.101562 C 331.582031 138.449219 332.363281 140.8125 333.085938 143.195312 C 333.808594 145.582031 334.476562 147.980469 335.078125 150.398438 C 335.683594 152.816406 336.230469 155.246094 336.71875 157.691406 C 337.203125 160.132812 337.628906 162.589844 337.996094 165.054688 C 338.359375 167.519531 338.664062 169.988281 338.910156 172.46875 C 339.152344 174.949219 339.335938 177.433594 339.460938 179.921875 C 339.582031 182.410156 339.644531 184.902344 339.644531 187.394531 Z M 339.644531 187.394531 " fill-opacity="1" fill-rule="nonzero"/></g><path fill="#eb3323" d="M 316.265625 211.019531 L 318.15625 207.742188 C 319.046875 206.199219 319.832031 204.609375 320.511719 202.964844 C 321.191406 201.324219 321.761719 199.644531 322.222656 197.925781 C 322.683594 196.207031 323.027344 194.46875 323.261719 192.703125 C 323.492188 190.941406 323.609375 189.171875 323.609375 187.394531 C 323.609375 185.613281 323.492188 183.84375 323.261719 182.082031 C 323.027344 180.316406 322.683594 178.578125 322.222656 176.859375 C 321.761719 175.144531 321.191406 173.460938 320.511719 171.820312 C 319.832031 170.175781 319.046875 168.585938 318.15625 167.046875 L 316.265625 163.765625 C 314.476562 160.671875 313.121094 157.402344 312.199219 153.953125 C 311.273438 150.5 310.8125 146.992188 310.8125 143.417969 L 310.8125 139.632812 C 310.8125 137.855469 310.695312 136.082031 310.464844 134.320312 C 310.230469 132.558594 309.886719 130.816406 309.425781 129.097656 C 308.964844 127.382812 308.394531 125.703125 307.714844 124.058594 C 307.035156 122.417969 306.25 120.824219 305.359375 119.285156 C 304.46875 117.746094 303.484375 116.269531 302.402344 114.859375 C 301.320312 113.449219 300.148438 112.113281 298.890625 110.855469 C 297.636719 109.597656 296.300781 108.429688 294.890625 107.347656 C 293.480469 106.265625 292.003906 105.277344 290.464844 104.390625 L 287.183594 102.496094 C 284.09375 100.710938 281.28125 98.554688 278.757812 96.027344 C 276.230469 93.503906 274.074219 90.695312 272.289062 87.601562 L 270.394531 84.320312 C 269.507812 82.78125 268.519531 81.304688 267.4375 79.894531 C 266.355469 78.484375 265.1875 77.152344 263.929688 75.894531 C 262.671875 74.636719 261.335938 73.464844 259.925781 72.382812 C 258.515625 71.300781 257.039062 70.316406 255.5 69.425781 C 253.960938 68.535156 252.371094 67.753906 250.726562 67.070312 C 249.085938 66.390625 247.402344 65.820312 245.6875 65.359375 C 243.96875 64.898438 242.226562 64.554688 240.464844 64.320312 C 238.703125 64.089844 236.933594 63.972656 235.152344 63.972656 L 231.367188 63.972656 C 227.796875 63.972656 224.285156 63.511719 220.835938 62.585938 C 217.382812 61.664062 214.113281 60.308594 211.019531 58.523438 L 207.742188 56.628906 C 206.199219 55.738281 204.609375 54.953125 202.964844 54.273438 C 201.324219 53.59375 199.644531 53.023438 197.925781 52.5625 C 196.207031 52.101562 194.46875 51.757812 192.703125 51.523438 C 190.941406 51.292969 189.171875 51.175781 187.394531 51.175781 C 185.613281 51.175781 183.84375 51.292969 182.082031 51.523438 C 180.316406 51.757812 178.578125 52.101562 176.859375 52.5625 C 175.144531 53.023438 173.460938 53.59375 171.820312 54.273438 C 170.175781 54.953125 168.585938 55.738281 167.046875 56.628906 L 163.765625 58.523438 C 160.671875 60.308594 157.402344 61.664062 153.953125 62.585938 C 150.5 63.511719 146.992188 63.972656 143.417969 63.972656 L 139.632812 63.972656 C 137.855469 63.972656 136.082031 64.089844 134.320312 64.320312 C 132.558594 64.554688 130.816406 64.898438 129.097656 65.359375 C 127.382812 65.820312 125.703125 66.390625 124.058594 67.070312 C 122.414062 67.753906 120.824219 68.535156 119.285156 69.425781 C 117.746094 70.316406 116.269531 71.300781 114.859375 72.382812 C 113.449219 73.464844 112.113281 74.636719 110.855469 75.894531 C 109.597656 77.152344 108.429688 78.484375 107.347656 79.894531 C 106.265625 81.304688 105.277344 82.78125 104.390625 84.320312 L 102.496094 87.601562 C 100.710938 90.695312 98.554688 93.503906 96.027344 96.027344 C 93.503906 98.554688 90.695312 100.710938 87.601562 102.496094 L 84.320312 104.390625 C 82.78125 105.277344 81.304688 106.265625 79.894531 107.347656 C 78.484375 108.429688 77.152344 109.597656 75.894531 110.855469 C 74.636719 112.113281 73.464844 113.449219 72.382812 114.859375 C 71.300781 116.269531 70.316406 117.746094 69.425781 119.285156 C 68.535156 120.824219 67.753906 122.417969 67.070312 124.058594 C 66.390625 125.703125 65.820312 127.382812 65.359375 129.097656 C 64.898438 130.816406 64.554688 132.558594 64.320312 134.320312 C 64.089844 136.082031 63.972656 137.855469 63.972656 139.632812 L 63.972656 143.417969 C 63.972656 146.992188 63.511719 150.5 62.585938 153.953125 C 61.664062 157.402344 60.308594 160.671875 58.523438 163.765625 L 56.628906 167.046875 C 55.738281 168.585938 54.953125 170.175781 54.273438 171.820312 C 53.59375 173.460938 53.023438 175.144531 52.5625 176.859375 C 52.101562 178.578125 51.757812 180.316406 51.523438 182.082031 C 51.292969 183.84375 51.175781 185.613281 51.175781 187.394531 C 51.175781 189.171875 51.292969 190.941406 51.523438 192.703125 C 51.757812 194.46875 52.101562 196.207031 52.5625 197.925781 C 53.023438 199.644531 53.59375 201.324219 54.273438 202.964844 C 54.953125 204.609375 55.738281 206.199219 56.628906 207.742188 L 58.523438 211.019531 C 60.308594 214.113281 61.664062 217.382812 62.585938 220.835938 C 63.511719 224.285156 63.972656 227.796875 63.972656 231.367188 L 63.972656 235.152344 C 63.972656 236.933594 64.089844 238.703125 64.320312 240.464844 C 64.554688 242.226562 64.898438 243.96875 65.359375 245.6875 C 65.820312 247.402344 66.390625 249.085938 67.070312 250.726562 C 67.753906 252.371094 68.535156 253.960938 69.425781 255.5 C 70.316406 257.042969 71.300781 258.515625 72.382812 259.925781 C 73.464844 261.335938 74.636719 262.671875 75.894531 263.929688 C 77.152344 265.1875 78.484375 266.355469 79.894531 267.4375 C 81.304688 268.523438 82.78125 269.507812 84.320312 270.394531 L 87.601562 272.289062 C 90.695312 274.074219 93.503906 276.230469 96.027344 278.757812 C 98.554688 281.28125 100.710938 284.09375 102.496094 287.183594 L 104.390625 290.464844 C 105.277344 292.003906 106.265625 293.480469 107.347656 294.890625 C 108.429688 296.300781 109.597656 297.636719 110.855469 298.894531 C 112.113281 300.148438 113.449219 301.320312 114.859375 302.402344 C 116.269531 303.484375 117.746094 304.46875 119.285156 305.359375 C 120.824219 306.25 122.414062 307.035156 124.058594 307.714844 C 125.703125 308.394531 127.382812 308.964844 129.097656 309.425781 C 130.816406 309.886719 132.558594 310.230469 134.320312 310.464844 C 136.082031 310.695312 137.855469 310.8125 139.632812 310.8125 L 143.417969 310.8125 C 146.992188 310.8125 150.5 311.273438 153.953125 312.199219 C 157.402344 313.121094 160.671875 314.476562 163.765625 316.265625 L 167.046875 318.15625 C 168.585938 319.046875 170.175781 319.832031 171.820312 320.511719 C 173.460938 321.191406 175.144531 321.761719 176.859375 322.222656 C 178.578125 322.683594 180.316406 323.027344 182.082031 323.261719 C 183.84375 323.492188 185.613281 323.609375 187.394531 323.609375 C 189.171875 323.609375 190.941406 323.492188 192.703125 323.261719 C 194.46875 323.027344 196.207031 322.683594 197.925781 322.222656 C 199.644531 321.761719 201.324219 321.191406 202.964844 320.511719 C 204.609375 319.832031 206.199219 319.046875 207.742188 318.15625 L 211.019531 316.265625 C 214.113281 314.476562 217.382812 313.121094 220.835938 312.199219 C 224.285156 311.273438 227.796875 310.8125 231.367188 310.8125 L 235.152344 310.8125 C 236.933594 310.8125 238.703125 310.695312 240.464844 310.464844 C 242.226562 310.230469 243.96875 309.886719 245.6875 309.425781 C 247.402344 308.964844 249.085938 308.394531 250.726562 307.714844 C 252.371094 307.035156 253.960938 306.25 255.5 305.359375 C 257.039062 304.472656 258.515625 303.484375 259.925781 302.402344 C 261.335938 301.320312 262.671875 300.148438 263.929688 298.894531 C 265.1875 297.636719 266.355469 296.300781 267.4375 294.890625 C 268.523438 293.480469 269.507812 292.003906 270.394531 290.464844 L 272.289062 287.183594 C 274.074219 284.09375 276.230469 281.28125 278.757812 278.757812 C 281.28125 276.230469 284.09375 274.074219 287.183594 272.289062 L 290.464844 270.394531 C 292.003906 269.507812 293.480469 268.523438 294.890625 267.4375 C 296.300781 266.355469 297.636719 265.1875 298.890625 263.929688 C 300.148438 262.671875 301.320312 261.335938 302.402344 259.925781 C 303.484375 258.515625 304.46875 257.042969 305.359375 255.5 C 306.25 253.960938 307.035156 252.371094 307.714844 250.726562 C 308.394531 249.085938 308.964844 247.402344 309.425781 245.6875 C 309.886719 243.96875 310.230469 242.226562 310.464844 240.464844 C 310.695312 238.703125 310.8125 236.933594 310.8125 235.152344 L 310.8125 231.367188 C 310.8125 227.796875 311.273438 224.285156 312.199219 220.835938 C 313.121094 217.382812 314.476562 214.113281 316.265625 211.019531 Z M 316.265625 211.019531 " fill-opacity="1" fill-rule="nonzero"/><path fill="#fcef9e" d="M 171.699219 308.539062 C 171.652344 308.523438 171.660156 308.523438 171.699219 308.539062 Z M 113.054688 285.25 C 113.007812 285.152344 112.945312 285.046875 112.894531 284.949219 C 111.378906 282.855469 113.058594 285.253906 113.054688 285.25 Z M 75.296875 235.289062 C 75.308594 235.164062 75.308594 235.03125 75.316406 234.910156 C 75.113281 232.457031 75.296875 235.292969 75.296875 235.289062 Z M 140.171875 73.824219 C 140.277344 73.832031 140.390625 73.832031 140.492188 73.84375 C 143.164062 73.628906 140.167969 73.820312 140.171875 73.824219 Z M 172.570312 308.855469 L 172.527344 308.839844 Z M 236.316406 301.914062 C 236.207031 301.902344 236.085938 301.902344 235.972656 301.894531 C 233.367188 302.09375 236.324219 301.914062 236.316406 301.914062 Z M 172.527344 308.839844 L 172.242188 308.734375 C 172.363281 308.78125 172.46875 308.820312 172.527344 308.839844 Z M 172.242188 308.734375 L 172.230469 308.730469 Z M 172.230469 308.730469 C 171.921875 308.621094 171.761719 308.5625 171.699219 308.539062 C 171.785156 308.570312 172.019531 308.65625 172.230469 308.730469 Z M 310.183594 202.4375 C 307.402344 206.738281 309.601562 203.4375 309.597656 203.445312 C 304.488281 212.007812 302.65625 218.867188 302.257812 228.128906 C 302.230469 228.769531 302.320312 229.867188 302.296875 230.539062 C 302.085938 236.378906 300.984375 241.503906 298.382812 246.742188 C 295.777344 251.914062 292.160156 256.238281 287.53125 259.714844 C 287.007812 260.121094 285.898438 261.027344 285.453125 261.296875 C 278.984375 265.199219 270.640625 277.566406 268.496094 281.929688 C 267.777344 283.398438 267.585938 283.699219 267.597656 283.585938 C 263.015625 295.503906 244.640625 301.261719 237.675781 301.765625 C 236.9375 301.820312 236.390625 301.859375 235.972656 301.894531 C 227.65625 301.167969 214.574219 305.652344 210.214844 307.867188 C 206.902344 309.550781 209.371094 308.238281 209.367188 308.238281 C 197.734375 314.761719 182.894531 314.011719 172.570312 308.855469 C 165.214844 305.183594 151.480469 302.242188 146.433594 302.617188 C 143.246094 302.855469 144.746094 302.597656 145.285156 302.511719 C 132.808594 304.777344 117.957031 292 113.882812 286.324219 C 113.453125 285.726562 113.136719 285.285156 112.894531 284.949219 C 109.210938 277.6875 98.667969 269.261719 94.582031 266.863281 C 93.632812 266.304688 93.199219 266.035156 93.046875 265.921875 C 81.699219 261.125 75.988281 243.421875 75.453125 236.617188 C 75.394531 235.867188 75.351562 235.320312 75.316406 234.910156 C 75.949219 226.546875 70.808594 213.734375 68.375 209.507812 C 68.035156 208.960938 67.730469 208.398438 67.457031 207.816406 C 60.003906 198.066406 63.089844 180.050781 65.867188 173.734375 C 68.003906 168.871094 66.359375 172.628906 66.363281 172.621094 C 70.957031 163.308594 72.539062 155.960938 72.671875 146.304688 C 72.679688 145.636719 72.566406 144.511719 72.582031 143.847656 C 72.710938 138.007812 73.761719 132.78125 76.554688 127.652344 C 79.34375 122.519531 83.320312 118.605469 88 115.226562 C 88.535156 114.84375 89.722656 113.992188 90.183594 113.746094 C 96.871094 110.203125 105.746094 98.375 108.050781 94.078125 C 108.328125 93.519531 108.636719 92.976562 108.980469 92.453125 C 113.640625 80.574219 131.773438 74.511719 138.796875 73.972656 C 139.527344 73.917969 140.074219 73.875 140.492188 73.84375 C 148.933594 74.570312 162.519531 70.222656 166.949219 67.953125 C 168.074219 67.375 168.542969 67.15625 168.683594 67.109375 C 178.675781 60.117188 196.914062 63.175781 203.195312 65.988281 C 203.875 66.292969 204.371094 66.515625 204.75 66.683594 C 211.550781 71.050781 224.722656 72.738281 229.414062 72.683594 C 230.019531 72.660156 230.625 72.667969 231.230469 72.707031 C 243.671875 71.023438 258.171875 83.75 262.28125 89.34375 C 262.722656 89.941406 263.046875 90.382812 263.296875 90.71875 C 267.320312 98.222656 278.414062 107.628906 282.636719 110.328125 C 283.609375 110.953125 284.054688 111.257812 284.210938 111.382812 C 295.792969 116.867188 301.644531 135.457031 302.265625 142.609375 C 302.738281 148.105469 302.351562 143.933594 302.355469 143.945312 C 302.960938 152.976562 304.609375 162.972656 309.273438 169.320312 C 309.402344 169.523438 309.496094 169.675781 309.570312 169.800781 C 309.429688 169.570312 309.273438 169.320312 309.273438 169.320312 C 315.820312 178.226562 313.894531 196.695312 310.183594 202.4375 Z M 128.15625 146.472656 L 187.992188 121.832031 C 187.539062 120.925781 187.042969 120.042969 186.507812 119.1875 C 185.972656 118.328125 185.394531 117.496094 184.78125 116.691406 C 184.167969 115.886719 183.515625 115.113281 182.828125 114.371094 C 182.144531 113.628906 181.421875 112.917969 180.667969 112.242188 C 179.917969 111.566406 179.132812 110.925781 178.320312 110.324219 C 177.507812 109.71875 176.667969 109.15625 175.800781 108.632812 C 174.9375 108.109375 174.046875 107.625 173.136719 107.183594 C 172.226562 106.742188 171.296875 106.347656 170.347656 105.992188 C 169.398438 105.636719 168.4375 105.328125 167.460938 105.0625 C 166.484375 104.800781 165.496094 104.582031 164.5 104.410156 C 163.5 104.238281 162.496094 104.113281 161.488281 104.035156 C 160.480469 103.960938 159.46875 103.929688 158.457031 103.945312 C 157.445312 103.960938 156.4375 104.027344 155.429688 104.136719 C 154.421875 104.25 153.425781 104.40625 152.433594 104.609375 C 151.441406 104.816406 150.464844 105.066406 149.496094 105.363281 C 148.527344 105.660156 147.574219 106 146.640625 106.386719 C 145.703125 106.769531 144.789062 107.199219 143.890625 107.671875 C 142.996094 108.140625 142.125 108.652344 141.277344 109.207031 C 140.429688 109.757812 139.609375 110.351562 138.816406 110.980469 C 138.023438 111.609375 137.261719 112.273438 136.53125 112.976562 C 135.800781 113.675781 135.105469 114.410156 134.445312 115.175781 C 133.78125 115.941406 133.15625 116.734375 132.570312 117.558594 C 131.984375 118.382812 131.4375 119.234375 130.929688 120.109375 C 130.421875 120.984375 129.953125 121.882812 129.53125 122.800781 C 129.105469 123.722656 128.726562 124.65625 128.390625 125.613281 C 128.054688 126.566406 127.765625 127.535156 127.519531 128.515625 C 127.273438 129.5 127.074219 130.492188 126.921875 131.492188 C 126.769531 132.492188 126.664062 133.496094 126.605469 134.507812 C 126.546875 135.519531 126.535156 136.527344 126.570312 137.539062 C 126.605469 138.550781 126.6875 139.558594 126.820312 140.5625 C 126.949219 141.566406 127.125 142.5625 127.351562 143.550781 C 127.574219 144.535156 127.84375 145.511719 128.15625 146.472656 Z M 148.246094 244.449219 L 113.863281 189.625 C 113.046875 190.226562 112.261719 190.863281 111.507812 191.535156 C 110.75 192.210938 110.03125 192.917969 109.339844 193.65625 C 108.652344 194.398438 107.996094 195.171875 107.382812 195.972656 C 106.765625 196.777344 106.1875 197.605469 105.648438 198.460938 C 105.105469 199.316406 104.609375 200.199219 104.152344 201.101562 C 103.695312 202.003906 103.28125 202.925781 102.910156 203.867188 C 102.539062 204.808594 102.214844 205.765625 101.933594 206.738281 C 101.652344 207.710938 101.417969 208.695312 101.226562 209.6875 C 101.039062 210.683594 100.894531 211.683594 100.800781 212.691406 C 100.703125 213.699219 100.65625 214.710938 100.65625 215.722656 C 100.65625 216.734375 100.699219 217.742188 100.792969 218.75 C 100.886719 219.757812 101.027344 220.761719 101.214844 221.753906 C 101.402344 222.75 101.636719 223.734375 101.914062 224.707031 C 102.195312 225.679688 102.519531 226.636719 102.886719 227.578125 C 103.257812 228.523438 103.667969 229.445312 104.125 230.347656 C 104.578125 231.253906 105.078125 232.132812 105.613281 232.992188 C 106.152344 233.847656 106.726562 234.679688 107.34375 235.480469 C 107.960938 236.285156 108.609375 237.058594 109.296875 237.800781 C 109.988281 238.542969 110.707031 239.253906 111.460938 239.925781 C 112.214844 240.601562 113 241.242188 113.8125 241.84375 C 114.628906 242.445312 115.46875 243.007812 116.335938 243.53125 C 117.199219 244.054688 118.089844 244.535156 119 244.972656 C 119.914062 245.414062 120.84375 245.808594 121.792969 246.164062 C 122.742188 246.515625 123.703125 246.824219 124.679688 247.085938 C 125.660156 247.347656 126.644531 247.566406 127.644531 247.734375 C 128.640625 247.90625 129.644531 248.03125 130.652344 248.105469 C 131.664062 248.183594 132.671875 248.210938 133.6875 248.191406 C 134.699219 248.175781 135.707031 248.109375 136.710938 247.996094 C 137.71875 247.882812 138.714844 247.726562 139.707031 247.519531 C 140.699219 247.3125 141.675781 247.0625 142.644531 246.761719 C 143.613281 246.464844 144.5625 246.125 145.5 245.738281 C 146.433594 245.351562 147.347656 244.921875 148.246094 244.449219 Z M 202.269531 177.402344 C 201.667969 176.585938 201.027344 175.804688 200.351562 175.050781 C 199.675781 174.296875 198.96875 173.578125 198.222656 172.890625 C 197.480469 172.203125 196.707031 171.550781 195.902344 170.9375 C 195.101562 170.324219 194.269531 169.746094 193.410156 169.210938 C 192.554688 168.671875 191.671875 168.175781 190.769531 167.722656 C 189.863281 167.265625 188.941406 166.855469 188 166.488281 C 187.054688 166.121094 186.097656 165.796875 185.125 165.515625 C 184.152344 165.238281 183.167969 165.007812 182.175781 164.820312 C 181.179688 164.632812 180.179688 164.492188 179.171875 164.398438 C 178.164062 164.308594 177.152344 164.261719 176.140625 164.261719 C 175.128906 164.265625 174.117188 164.3125 173.113281 164.410156 C 172.105469 164.503906 171.101562 164.648438 170.109375 164.835938 C 169.113281 165.027344 168.132812 165.261719 167.160156 165.542969 C 166.1875 165.824219 165.230469 166.148438 164.289062 166.519531 C 163.347656 166.890625 162.425781 167.304688 161.523438 167.761719 C 160.621094 168.21875 159.738281 168.71875 158.882812 169.257812 L 197.382812 221.273438 C 198.148438 220.613281 198.882812 219.917969 199.582031 219.1875 C 200.285156 218.457031 200.949219 217.695312 201.578125 216.902344 C 202.207031 216.109375 202.800781 215.292969 203.351562 214.445312 C 203.90625 213.597656 204.417969 212.726562 204.890625 211.828125 C 205.363281 210.933594 205.792969 210.019531 206.175781 209.082031 C 206.5625 208.148438 206.90625 207.195312 207.203125 206.226562 C 207.5 205.261719 207.75 204.28125 207.957031 203.289062 C 208.160156 202.300781 208.320312 201.300781 208.429688 200.296875 C 208.542969 199.289062 208.609375 198.28125 208.625 197.269531 C 208.644531 196.257812 208.613281 195.246094 208.539062 194.238281 C 208.460938 193.230469 208.335938 192.226562 208.167969 191.226562 C 207.996094 190.230469 207.777344 189.242188 207.515625 188.265625 C 207.253906 187.289062 206.945312 186.324219 206.589844 185.378906 C 206.238281 184.429688 205.84375 183.5 205.402344 182.585938 C 204.960938 181.675781 204.480469 180.789062 203.957031 179.921875 C 203.433594 179.054688 202.871094 178.214844 202.269531 177.402344 Z M 254.234375 229.417969 L 202.21875 267.917969 C 202.878906 268.683594 203.574219 269.417969 204.304688 270.121094 C 205.035156 270.820312 205.792969 271.484375 206.585938 272.117188 C 207.378906 272.746094 208.199219 273.339844 209.046875 273.890625 C 209.894531 274.445312 210.765625 274.957031 211.660156 275.429688 C 212.554688 275.902344 213.472656 276.332031 214.40625 276.714844 C 215.34375 277.101562 216.292969 277.445312 217.261719 277.742188 C 218.230469 278.039062 219.207031 278.289062 220.199219 278.496094 C 221.191406 278.699219 222.1875 278.859375 223.195312 278.972656 C 224.199219 279.085938 225.210938 279.148438 226.222656 279.167969 C 227.234375 279.183594 228.242188 279.15625 229.253906 279.078125 C 230.261719 279 231.265625 278.875 232.261719 278.707031 C 233.261719 278.535156 234.25 278.316406 235.226562 278.054688 C 236.203125 277.792969 237.167969 277.484375 238.113281 277.128906 C 239.0625 276.777344 239.992188 276.378906 240.902344 275.9375 C 241.816406 275.5 242.703125 275.015625 243.570312 274.492188 C 244.4375 273.96875 245.277344 273.40625 246.089844 272.804688 C 246.902344 272.203125 247.6875 271.5625 248.441406 270.890625 C 249.195312 270.214844 249.914062 269.503906 250.601562 268.761719 C 251.289062 268.019531 251.941406 267.246094 252.554688 266.441406 C 253.171875 265.636719 253.746094 264.804688 254.285156 263.949219 C 254.820312 263.089844 255.316406 262.210938 255.773438 261.304688 C 256.226562 260.402344 256.640625 259.476562 257.007812 258.535156 C 257.375 257.59375 257.699219 256.636719 257.976562 255.660156 C 258.257812 254.6875 258.488281 253.703125 258.675781 252.710938 C 258.863281 251.714844 259.003906 250.714844 259.097656 249.707031 C 259.1875 248.699219 259.234375 247.6875 259.234375 246.675781 C 259.230469 245.664062 259.183594 244.65625 259.085938 243.648438 C 258.992188 242.640625 258.847656 241.636719 258.660156 240.644531 C 258.46875 239.648438 258.234375 238.667969 257.953125 237.695312 C 257.667969 236.722656 257.34375 235.765625 256.972656 234.824219 C 256.601562 233.882812 256.1875 232.960938 255.730469 232.058594 C 255.269531 231.15625 254.773438 230.273438 254.234375 229.417969 Z M 262.660156 139.496094 C 262.058594 138.683594 261.417969 137.902344 260.742188 137.148438 C 260.066406 136.394531 259.359375 135.675781 258.613281 134.988281 C 257.871094 134.300781 257.097656 133.648438 256.292969 133.035156 C 255.488281 132.417969 254.660156 131.84375 253.800781 131.304688 C 252.945312 130.769531 252.0625 130.273438 251.160156 129.820312 C 250.253906 129.363281 249.332031 128.953125 248.386719 128.585938 C 247.445312 128.214844 246.488281 127.894531 245.515625 127.613281 C 244.542969 127.335938 243.558594 127.101562 242.5625 126.917969 C 241.570312 126.730469 240.566406 126.589844 239.558594 126.496094 C 238.550781 126.402344 237.542969 126.359375 236.53125 126.359375 C 235.519531 126.359375 234.507812 126.410156 233.5 126.503906 C 232.492188 126.601562 231.492188 126.742188 230.5 126.933594 C 229.503906 127.121094 228.523438 127.359375 227.550781 127.640625 C 226.578125 127.921875 225.621094 128.246094 224.679688 128.617188 C 223.738281 128.988281 222.816406 129.402344 221.914062 129.859375 C 221.007812 130.316406 220.128906 130.816406 219.273438 131.355469 L 257.773438 183.371094 C 258.539062 182.707031 259.273438 182.011719 259.972656 181.28125 C 260.671875 180.554688 261.339844 179.792969 261.96875 179 C 262.597656 178.207031 263.191406 177.386719 263.742188 176.539062 C 264.296875 175.691406 264.808594 174.820312 265.28125 173.925781 C 265.753906 173.03125 266.179688 172.117188 266.566406 171.179688 C 266.953125 170.246094 267.292969 169.292969 267.589844 168.324219 C 267.886719 167.359375 268.140625 166.378906 268.34375 165.386719 C 268.550781 164.398438 268.710938 163.398438 268.820312 162.394531 C 268.933594 161.386719 269 160.378906 269.015625 159.367188 C 269.035156 158.355469 269.003906 157.34375 268.925781 156.335938 C 268.851562 155.324219 268.726562 154.320312 268.554688 153.324219 C 268.386719 152.328125 268.167969 151.339844 267.90625 150.363281 C 267.644531 149.386719 267.335938 148.421875 266.980469 147.472656 C 266.628906 146.527344 266.230469 145.59375 265.792969 144.683594 C 265.351562 143.773438 264.871094 142.882812 264.347656 142.019531 C 263.824219 141.152344 263.261719 140.3125 262.660156 139.496094 Z M 309.757812 170.101562 L 309.609375 169.863281 Z M 204.445312 66.496094 C 204.539062 66.558594 204.652344 66.617188 204.75 66.683594 C 207.078125 67.710938 204.4375 66.492188 204.445312 66.496094 Z M 263.128906 90.417969 C 263.179688 90.519531 263.242188 90.621094 263.296875 90.71875 C 264.835938 92.796875 263.125 90.414062 263.128906 90.417969 Z M 263.128906 90.417969 " fill-opacity="1" fill-rule="nonzero"/><path fill="#571d1d" d="M 105.792969 120.324219 C 105.136719 120.324219 104.488281 120.386719 103.84375 120.515625 C 103.199219 120.644531 102.574219 120.832031 101.96875 121.085938 C 101.363281 121.335938 100.785156 121.644531 100.238281 122.007812 C 99.695312 122.371094 99.191406 122.785156 98.726562 123.25 C 98.261719 123.714844 97.847656 124.21875 97.480469 124.765625 C 97.117188 125.3125 96.808594 125.886719 96.558594 126.492188 C 96.308594 127.101562 96.117188 127.726562 95.988281 128.371094 C 95.863281 129.011719 95.796875 129.664062 95.796875 130.320312 C 95.796875 130.976562 95.863281 131.625 95.988281 132.269531 C 96.117188 132.914062 96.308594 133.539062 96.558594 134.144531 C 96.808594 134.75 97.117188 135.328125 97.480469 135.871094 C 97.847656 136.417969 98.261719 136.921875 98.726562 137.386719 C 99.191406 137.851562 99.695312 138.265625 100.238281 138.628906 C 100.785156 138.996094 101.363281 139.304688 101.96875 139.554688 C 102.574219 139.804688 103.199219 139.996094 103.84375 140.121094 C 104.488281 140.25 105.136719 140.316406 105.792969 140.316406 C 106.449219 140.316406 107.101562 140.25 107.742188 140.121094 C 108.386719 139.996094 109.011719 139.804688 109.617188 139.554688 C 110.226562 139.304688 110.800781 138.996094 111.347656 138.628906 C 111.894531 138.265625 112.398438 137.851562 112.863281 137.386719 C 113.324219 136.921875 113.738281 136.417969 114.105469 135.871094 C 114.46875 135.328125 114.777344 134.75 115.027344 134.144531 C 115.28125 133.539062 115.46875 132.914062 115.597656 132.269531 C 115.726562 131.625 115.789062 130.976562 115.789062 130.320312 C 115.789062 129.664062 115.726562 129.011719 115.597656 128.371094 C 115.46875 127.726562 115.28125 127.101562 115.027344 126.492188 C 114.777344 125.886719 114.46875 125.3125 114.105469 124.765625 C 113.738281 124.21875 113.324219 123.714844 112.863281 123.25 C 112.398438 122.785156 111.894531 122.371094 111.347656 122.007812 C 110.800781 121.644531 110.226562 121.335938 109.617188 121.085938 C 109.011719 120.832031 108.386719 120.644531 107.742188 120.515625 C 107.101562 120.386719 106.449219 120.324219 105.792969 120.324219 Z M 105.792969 134.78125 C 105.5 134.78125 105.210938 134.75 104.921875 134.695312 C 104.636719 134.636719 104.359375 134.550781 104.085938 134.441406 C 103.816406 134.328125 103.558594 134.191406 103.316406 134.027344 C 103.074219 133.867188 102.847656 133.679688 102.640625 133.472656 C 102.433594 133.265625 102.246094 133.042969 102.085938 132.796875 C 101.921875 132.554688 101.785156 132.296875 101.671875 132.027344 C 101.5625 131.757812 101.476562 131.476562 101.417969 131.191406 C 101.363281 130.902344 101.332031 130.613281 101.332031 130.320312 C 101.332031 130.027344 101.363281 129.738281 101.417969 129.449219 C 101.476562 129.164062 101.5625 128.882812 101.671875 128.613281 C 101.785156 128.34375 101.921875 128.085938 102.085938 127.839844 C 102.246094 127.597656 102.433594 127.371094 102.640625 127.164062 C 102.847656 126.957031 103.070312 126.773438 103.316406 126.609375 C 103.558594 126.449219 103.816406 126.3125 104.085938 126.199219 C 104.355469 126.085938 104.636719 126.003906 104.921875 125.945312 C 105.210938 125.886719 105.5 125.859375 105.792969 125.859375 C 106.085938 125.859375 106.375 125.886719 106.664062 125.945312 C 106.949219 126.003906 107.230469 126.085938 107.5 126.199219 C 107.769531 126.3125 108.027344 126.449219 108.269531 126.609375 C 108.515625 126.773438 108.738281 126.957031 108.945312 127.164062 C 109.152344 127.371094 109.339844 127.597656 109.5 127.839844 C 109.664062 128.085938 109.800781 128.339844 109.914062 128.613281 C 110.027344 128.882812 110.109375 129.160156 110.167969 129.449219 C 110.226562 129.734375 110.253906 130.027344 110.253906 130.320312 C 110.253906 130.613281 110.222656 130.902344 110.167969 131.1875 C 110.109375 131.476562 110.023438 131.753906 109.914062 132.023438 C 109.800781 132.296875 109.664062 132.550781 109.5 132.796875 C 109.335938 133.039062 109.152344 133.265625 108.945312 133.472656 C 108.738281 133.679688 108.515625 133.863281 108.269531 134.027344 C 108.027344 134.1875 107.769531 134.328125 107.5 134.4375 C 107.230469 134.550781 106.949219 134.636719 106.664062 134.691406 C 106.375 134.75 106.085938 134.777344 105.792969 134.78125 Z M 196.386719 134.78125 C 195.730469 134.78125 195.082031 134.84375 194.4375 134.972656 C 193.792969 135.101562 193.167969 135.289062 192.5625 135.539062 C 191.957031 135.792969 191.378906 136.097656 190.835938 136.464844 C 190.289062 136.828125 189.785156 137.242188 189.320312 137.707031 C 188.855469 138.171875 188.441406 138.675781 188.078125 139.222656 C 187.710938 139.769531 187.40625 140.34375 187.152344 140.949219 C 186.902344 141.554688 186.710938 142.179688 186.585938 142.824219 C 186.457031 143.46875 186.390625 144.117188 186.390625 144.777344 C 186.390625 145.433594 186.457031 146.082031 186.585938 146.726562 C 186.710938 147.371094 186.902344 147.996094 187.152344 148.601562 C 187.40625 149.207031 187.710938 149.78125 188.078125 150.328125 C 188.441406 150.875 188.855469 151.378906 189.320312 151.84375 C 189.785156 152.308594 190.289062 152.722656 190.835938 153.085938 C 191.378906 153.453125 191.957031 153.757812 192.5625 154.011719 C 193.167969 154.261719 193.792969 154.449219 194.4375 154.578125 C 195.082031 154.707031 195.730469 154.769531 196.386719 154.769531 C 197.042969 154.769531 197.695312 154.707031 198.339844 154.578125 C 198.980469 154.449219 199.605469 154.261719 200.214844 154.011719 C 200.820312 153.757812 201.394531 153.453125 201.941406 153.085938 C 202.488281 152.722656 202.992188 152.308594 203.457031 151.84375 C 203.921875 151.378906 204.335938 150.875 204.699219 150.328125 C 205.0625 149.78125 205.371094 149.207031 205.621094 148.601562 C 205.875 147.996094 206.0625 147.371094 206.191406 146.726562 C 206.320312 146.082031 206.382812 145.433594 206.382812 144.777344 C 206.382812 144.117188 206.320312 143.46875 206.191406 142.824219 C 206.0625 142.179688 205.875 141.554688 205.621094 140.949219 C 205.371094 140.34375 205.0625 139.769531 204.699219 139.222656 C 204.335938 138.675781 203.921875 138.171875 203.457031 137.707031 C 202.992188 137.242188 202.488281 136.828125 201.941406 136.464844 C 201.394531 136.097656 200.820312 135.792969 200.214844 135.539062 C 199.605469 135.289062 198.980469 135.101562 198.339844 134.972656 C 197.695312 134.84375 197.042969 134.78125 196.386719 134.78125 Z M 196.386719 149.234375 C 196.09375 149.234375 195.804688 149.207031 195.519531 149.148438 C 195.230469 149.09375 194.953125 149.007812 194.679688 148.894531 C 194.410156 148.785156 194.152344 148.648438 193.910156 148.484375 C 193.667969 148.320312 193.441406 148.136719 193.234375 147.929688 C 193.027344 147.722656 192.84375 147.496094 192.679688 147.253906 C 192.515625 147.011719 192.378906 146.753906 192.265625 146.484375 C 192.15625 146.210938 192.070312 145.933594 192.011719 145.644531 C 191.957031 145.359375 191.929688 145.070312 191.929688 144.777344 C 191.929688 144.484375 191.957031 144.191406 192.011719 143.90625 C 192.070312 143.617188 192.15625 143.339844 192.265625 143.070312 C 192.378906 142.796875 192.515625 142.542969 192.679688 142.296875 C 192.84375 142.054688 193.027344 141.828125 193.234375 141.621094 C 193.441406 141.414062 193.667969 141.230469 193.910156 141.066406 C 194.152344 140.90625 194.410156 140.765625 194.679688 140.65625 C 194.953125 140.542969 195.230469 140.457031 195.519531 140.402344 C 195.804688 140.34375 196.09375 140.316406 196.386719 140.316406 C 196.679688 140.316406 196.96875 140.34375 197.257812 140.402344 C 197.546875 140.457031 197.824219 140.542969 198.09375 140.65625 C 198.363281 140.765625 198.621094 140.902344 198.867188 141.066406 C 199.109375 141.230469 199.335938 141.414062 199.542969 141.621094 C 199.75 141.828125 199.933594 142.054688 200.097656 142.296875 C 200.257812 142.539062 200.398438 142.796875 200.507812 143.070312 C 200.621094 143.339844 200.707031 143.617188 200.761719 143.90625 C 200.820312 144.191406 200.847656 144.480469 200.847656 144.773438 C 200.847656 145.066406 200.820312 145.359375 200.761719 145.644531 C 200.703125 145.933594 200.621094 146.210938 200.507812 146.480469 C 200.394531 146.75 200.257812 147.007812 200.09375 147.253906 C 199.933594 147.496094 199.746094 147.71875 199.539062 147.925781 C 199.332031 148.132812 199.109375 148.320312 198.863281 148.480469 C 198.621094 148.644531 198.363281 148.78125 198.09375 148.894531 C 197.824219 149.007812 197.546875 149.089844 197.257812 149.148438 C 196.972656 149.207031 196.679688 149.234375 196.386719 149.234375 Z M 279.019531 195.800781 C 278.363281 195.800781 277.714844 195.867188 277.070312 195.992188 C 276.425781 196.121094 275.800781 196.3125 275.195312 196.5625 C 274.589844 196.8125 274.011719 197.121094 273.46875 197.484375 C 272.921875 197.851562 272.417969 198.265625 271.953125 198.730469 C 271.488281 199.195312 271.074219 199.699219 270.710938 200.242188 C 270.34375 200.789062 270.035156 201.367188 269.785156 201.972656 C 269.535156 202.578125 269.34375 203.203125 269.214844 203.847656 C 269.089844 204.492188 269.023438 205.140625 269.023438 205.796875 C 269.023438 206.453125 269.089844 207.105469 269.214844 207.746094 C 269.34375 208.390625 269.535156 209.015625 269.785156 209.621094 C 270.035156 210.230469 270.34375 210.804688 270.710938 211.351562 C 271.074219 211.898438 271.488281 212.402344 271.953125 212.867188 C 272.417969 213.328125 272.921875 213.742188 273.46875 214.109375 C 274.011719 214.472656 274.589844 214.78125 275.195312 215.03125 C 275.800781 215.285156 276.425781 215.472656 277.070312 215.601562 C 277.714844 215.730469 278.363281 215.792969 279.019531 215.792969 C 279.675781 215.792969 280.328125 215.730469 280.96875 215.601562 C 281.613281 215.472656 282.238281 215.285156 282.84375 215.03125 C 283.453125 214.78125 284.027344 214.472656 284.574219 214.109375 C 285.121094 213.742188 285.625 213.328125 286.089844 212.867188 C 286.550781 212.402344 286.96875 211.898438 287.332031 211.351562 C 287.695312 210.804688 288.003906 210.230469 288.253906 209.621094 C 288.507812 209.015625 288.695312 208.390625 288.824219 207.746094 C 288.953125 207.105469 289.015625 206.453125 289.015625 205.796875 C 289.015625 205.140625 288.953125 204.492188 288.824219 203.847656 C 288.695312 203.203125 288.507812 202.578125 288.253906 201.972656 C 288.003906 201.367188 287.695312 200.789062 287.332031 200.242188 C 286.96875 199.699219 286.550781 199.195312 286.089844 198.730469 C 285.625 198.265625 285.121094 197.851562 284.574219 197.484375 C 284.027344 197.121094 283.453125 196.8125 282.84375 196.5625 C 282.238281 196.3125 281.613281 196.121094 280.96875 195.992188 C 280.328125 195.867188 279.675781 195.800781 279.019531 195.800781 Z M 279.019531 210.257812 C 278.726562 210.257812 278.4375 210.230469 278.152344 210.171875 C 277.863281 210.113281 277.585938 210.03125 277.3125 209.917969 C 277.042969 209.804688 276.785156 209.667969 276.542969 209.507812 C 276.300781 209.34375 276.074219 209.160156 275.867188 208.953125 C 275.660156 208.746094 275.476562 208.519531 275.3125 208.277344 C 275.148438 208.03125 275.011719 207.773438 274.898438 207.503906 C 274.789062 207.234375 274.703125 206.957031 274.644531 206.667969 C 274.589844 206.378906 274.558594 206.089844 274.558594 205.796875 C 274.558594 205.503906 274.589844 205.214844 274.644531 204.925781 C 274.703125 204.640625 274.789062 204.363281 274.898438 204.089844 C 275.011719 203.820312 275.148438 203.5625 275.3125 203.320312 C 275.472656 203.078125 275.660156 202.851562 275.867188 202.644531 C 276.074219 202.4375 276.296875 202.25 276.542969 202.089844 C 276.785156 201.925781 277.042969 201.789062 277.3125 201.675781 C 277.582031 201.566406 277.863281 201.480469 278.148438 201.421875 C 278.4375 201.367188 278.726562 201.335938 279.019531 201.335938 C 279.3125 201.335938 279.601562 201.367188 279.890625 201.421875 C 280.175781 201.480469 280.457031 201.566406 280.726562 201.675781 C 280.996094 201.789062 281.253906 201.925781 281.496094 202.089844 C 281.742188 202.25 281.964844 202.4375 282.175781 202.644531 C 282.382812 202.851562 282.566406 203.074219 282.730469 203.320312 C 282.890625 203.5625 283.027344 203.820312 283.140625 204.089844 C 283.253906 204.359375 283.335938 204.640625 283.394531 204.925781 C 283.453125 205.214844 283.480469 205.503906 283.480469 205.796875 C 283.480469 206.089844 283.453125 206.378906 283.394531 206.667969 C 283.335938 206.953125 283.25 207.234375 283.140625 207.503906 C 283.027344 207.773438 282.890625 208.03125 282.726562 208.273438 C 282.566406 208.515625 282.378906 208.742188 282.171875 208.949219 C 281.964844 209.15625 281.742188 209.339844 281.496094 209.503906 C 281.253906 209.667969 280.996094 209.804688 280.726562 209.917969 C 280.457031 210.027344 280.175781 210.113281 279.890625 210.171875 C 279.601562 210.226562 279.3125 210.257812 279.019531 210.257812 Z M 144.746094 261.875 C 144.089844 261.875 143.441406 261.941406 142.796875 262.066406 C 142.152344 262.195312 141.527344 262.386719 140.921875 262.636719 C 140.3125 262.886719 139.738281 263.195312 139.191406 263.558594 C 138.648438 263.925781 138.140625 264.339844 137.679688 264.804688 C 137.214844 265.265625 136.800781 265.773438 136.433594 266.316406 C 136.070312 266.863281 135.761719 267.441406 135.511719 268.046875 C 135.261719 268.652344 135.070312 269.277344 134.941406 269.921875 C 134.8125 270.566406 134.75 271.214844 134.75 271.871094 C 134.75 272.527344 134.8125 273.179688 134.941406 273.820312 C 135.070312 274.464844 135.261719 275.089844 135.511719 275.695312 C 135.761719 276.304688 136.070312 276.878906 136.433594 277.425781 C 136.800781 277.96875 137.214844 278.476562 137.679688 278.941406 C 138.140625 279.402344 138.648438 279.816406 139.191406 280.183594 C 139.738281 280.546875 140.3125 280.855469 140.921875 281.105469 C 141.527344 281.359375 142.152344 281.546875 142.796875 281.675781 C 143.441406 281.804688 144.089844 281.867188 144.746094 281.867188 C 145.402344 281.867188 146.050781 281.804688 146.695312 281.675781 C 147.339844 281.546875 147.964844 281.359375 148.570312 281.105469 C 149.175781 280.855469 149.753906 280.546875 150.300781 280.183594 C 150.84375 279.816406 151.351562 279.402344 151.8125 278.941406 C 152.277344 278.476562 152.691406 277.96875 153.058594 277.425781 C 153.421875 276.878906 153.730469 276.304688 153.980469 275.695312 C 154.230469 275.089844 154.421875 274.464844 154.550781 273.820312 C 154.675781 273.179688 154.742188 272.527344 154.742188 271.871094 C 154.742188 271.214844 154.675781 270.566406 154.550781 269.921875 C 154.421875 269.277344 154.230469 268.652344 153.980469 268.046875 C 153.730469 267.441406 153.421875 266.863281 153.058594 266.316406 C 152.691406 265.773438 152.277344 265.265625 151.8125 264.804688 C 151.351562 264.339844 150.84375 263.925781 150.300781 263.558594 C 149.753906 263.195312 149.175781 262.886719 148.570312 262.636719 C 147.964844 262.386719 147.339844 262.195312 146.695312 262.066406 C 146.050781 261.941406 145.402344 261.875 144.746094 261.875 Z M 144.746094 276.332031 C 144.453125 276.332031 144.164062 276.304688 143.875 276.246094 C 143.589844 276.1875 143.308594 276.105469 143.039062 275.992188 C 142.769531 275.878906 142.511719 275.742188 142.269531 275.582031 C 142.023438 275.417969 141.800781 275.234375 141.59375 275.027344 C 141.386719 274.820312 141.199219 274.59375 141.039062 274.351562 C 140.875 274.105469 140.738281 273.847656 140.625 273.578125 C 140.511719 273.308594 140.429688 273.027344 140.371094 272.742188 C 140.3125 272.453125 140.285156 272.164062 140.285156 271.871094 C 140.285156 271.578125 140.3125 271.289062 140.371094 271 C 140.429688 270.714844 140.511719 270.4375 140.625 270.164062 C 140.738281 269.894531 140.875 269.636719 141.039062 269.394531 C 141.199219 269.148438 141.382812 268.925781 141.589844 268.71875 C 141.800781 268.511719 142.023438 268.324219 142.269531 268.164062 C 142.511719 268 142.769531 267.863281 143.039062 267.75 C 143.308594 267.640625 143.589844 267.554688 143.875 267.496094 C 144.164062 267.441406 144.453125 267.410156 144.746094 267.410156 C 145.039062 267.410156 145.328125 267.441406 145.617188 267.496094 C 145.902344 267.554688 146.183594 267.640625 146.453125 267.75 C 146.722656 267.863281 146.980469 268 147.222656 268.164062 C 147.46875 268.324219 147.691406 268.511719 147.898438 268.71875 C 148.105469 268.925781 148.292969 269.148438 148.453125 269.394531 C 148.617188 269.636719 148.753906 269.894531 148.867188 270.164062 C 148.976562 270.433594 149.0625 270.714844 149.121094 271 C 149.175781 271.289062 149.207031 271.578125 149.207031 271.871094 C 149.207031 272.164062 149.175781 272.453125 149.121094 272.742188 C 149.0625 273.027344 148.976562 273.308594 148.867188 273.578125 C 148.753906 273.847656 148.617188 274.105469 148.453125 274.347656 C 148.289062 274.589844 148.105469 274.816406 147.898438 275.023438 C 147.691406 275.230469 147.464844 275.414062 147.222656 275.578125 C 146.980469 275.742188 146.722656 275.878906 146.453125 275.992188 C 146.183594 276.101562 145.902344 276.1875 145.617188 276.246094 C 145.328125 276.300781 145.039062 276.332031 144.746094 276.332031 Z M 149.207031 185.804688 C 148.550781 185.804688 147.898438 185.871094 147.257812 185.996094 C 146.613281 186.125 145.988281 186.316406 145.382812 186.566406 C 144.773438 186.816406 144.199219 187.125 143.652344 187.492188 C 143.105469 187.855469 142.601562 188.269531 142.136719 188.734375 C 141.675781 189.199219 141.257812 189.703125 140.894531 190.25 C 140.53125 190.792969 140.222656 191.371094 139.972656 191.976562 C 139.71875 192.582031 139.53125 193.207031 139.402344 193.851562 C 139.273438 194.496094 139.210938 195.144531 139.210938 195.800781 C 139.210938 196.457031 139.273438 197.109375 139.402344 197.75 C 139.53125 198.394531 139.71875 199.019531 139.972656 199.625 C 140.222656 200.234375 140.53125 200.808594 140.894531 201.355469 C 141.257812 201.902344 141.675781 202.40625 142.136719 202.871094 C 142.601562 203.332031 143.105469 203.75 143.652344 204.113281 C 144.199219 204.476562 144.773438 204.785156 145.382812 205.035156 C 145.988281 205.289062 146.613281 205.476562 147.257812 205.605469 C 147.898438 205.734375 148.550781 205.796875 149.207031 205.796875 C 149.863281 205.796875 150.511719 205.734375 151.15625 205.605469 C 151.800781 205.476562 152.425781 205.289062 153.03125 205.035156 C 153.636719 204.785156 154.214844 204.476562 154.757812 204.113281 C 155.304688 203.75 155.808594 203.332031 156.273438 202.871094 C 156.738281 202.40625 157.152344 201.902344 157.515625 201.355469 C 157.882812 200.808594 158.191406 200.234375 158.441406 199.625 C 158.691406 199.019531 158.882812 198.394531 159.011719 197.75 C 159.136719 197.109375 159.203125 196.457031 159.203125 195.800781 C 159.203125 195.144531 159.136719 194.496094 159.011719 193.851562 C 158.882812 193.207031 158.691406 192.582031 158.441406 191.976562 C 158.191406 191.371094 157.882812 190.792969 157.515625 190.25 C 157.152344 189.703125 156.738281 189.199219 156.273438 188.734375 C 155.808594 188.269531 155.304688 187.855469 154.757812 187.492188 C 154.214844 187.125 153.636719 186.816406 153.03125 186.566406 C 152.425781 186.316406 151.800781 186.125 151.15625 185.996094 C 150.511719 185.871094 149.863281 185.804688 149.207031 185.804688 Z M 149.207031 200.261719 C 148.914062 200.261719 148.625 200.234375 148.335938 200.175781 C 148.050781 200.117188 147.769531 200.035156 147.5 199.921875 C 147.230469 199.808594 146.972656 199.671875 146.726562 199.511719 C 146.484375 199.347656 146.257812 199.164062 146.050781 198.957031 C 145.84375 198.75 145.660156 198.523438 145.496094 198.28125 C 145.335938 198.035156 145.199219 197.78125 145.085938 197.507812 C 144.972656 197.238281 144.890625 196.960938 144.832031 196.671875 C 144.773438 196.386719 144.746094 196.09375 144.746094 195.800781 C 144.746094 195.507812 144.773438 195.21875 144.832031 194.933594 C 144.886719 194.644531 144.972656 194.367188 145.085938 194.09375 C 145.199219 193.824219 145.335938 193.566406 145.496094 193.324219 C 145.660156 193.082031 145.84375 192.855469 146.050781 192.648438 C 146.257812 192.441406 146.484375 192.257812 146.726562 192.09375 C 146.972656 191.929688 147.226562 191.792969 147.5 191.679688 C 147.769531 191.570312 148.046875 191.484375 148.335938 191.425781 C 148.621094 191.371094 148.914062 191.339844 149.207031 191.339844 C 149.5 191.339844 149.789062 191.371094 150.074219 191.425781 C 150.363281 191.484375 150.640625 191.570312 150.914062 191.679688 C 151.183594 191.792969 151.441406 191.929688 151.683594 192.09375 C 151.925781 192.253906 152.152344 192.441406 152.359375 192.648438 C 152.566406 192.855469 152.75 193.078125 152.914062 193.324219 C 153.078125 193.566406 153.214844 193.824219 153.328125 194.09375 C 153.4375 194.363281 153.523438 194.644531 153.582031 194.929688 C 153.636719 195.21875 153.667969 195.507812 153.667969 195.800781 C 153.664062 196.09375 153.636719 196.382812 153.578125 196.671875 C 153.523438 196.957031 153.4375 197.238281 153.324219 197.507812 C 153.214844 197.777344 153.074219 198.035156 152.914062 198.277344 C 152.75 198.519531 152.566406 198.746094 152.359375 198.953125 C 152.152344 199.160156 151.925781 199.34375 151.683594 199.507812 C 151.441406 199.671875 151.183594 199.808594 150.914062 199.921875 C 150.640625 200.03125 150.363281 200.117188 150.078125 200.175781 C 149.789062 200.234375 149.5 200.261719 149.207031 200.261719 Z M 178.808594 274.675781 C 178.152344 274.675781 177.503906 274.738281 176.859375 274.867188 C 176.214844 274.996094 175.589844 275.183594 174.984375 275.4375 C 174.378906 275.6875 173.804688 275.996094 173.257812 276.359375 C 172.710938 276.726562 172.207031 277.140625 171.742188 277.601562 C 171.277344 278.066406 170.863281 278.574219 170.5 279.117188 C 170.132812 279.664062 169.828125 280.238281 169.574219 280.847656 C 169.324219 281.453125 169.132812 282.078125 169.007812 282.722656 C 168.878906 283.363281 168.816406 284.015625 168.816406 284.671875 C 168.816406 285.328125 168.878906 285.976562 169.007812 286.621094 C 169.132812 287.265625 169.324219 287.890625 169.574219 288.496094 C 169.828125 289.101562 170.132812 289.679688 170.5 290.226562 C 170.863281 290.769531 171.277344 291.277344 171.742188 291.738281 C 172.207031 292.203125 172.710938 292.617188 173.257812 292.984375 C 173.804688 293.347656 174.378906 293.65625 174.984375 293.90625 C 175.589844 294.15625 176.214844 294.347656 176.859375 294.476562 C 177.503906 294.601562 178.152344 294.667969 178.808594 294.667969 C 179.464844 294.667969 180.117188 294.601562 180.761719 294.476562 C 181.402344 294.347656 182.027344 294.15625 182.636719 293.90625 C 183.242188 293.65625 183.816406 293.347656 184.363281 292.984375 C 184.910156 292.617188 185.414062 292.203125 185.878906 291.738281 C 186.34375 291.277344 186.757812 290.769531 187.121094 290.226562 C 187.484375 289.679688 187.792969 289.101562 188.046875 288.496094 C 188.296875 287.890625 188.484375 287.265625 188.613281 286.621094 C 188.742188 285.976562 188.804688 285.328125 188.804688 284.671875 C 188.804688 284.015625 188.742188 283.363281 188.613281 282.722656 C 188.484375 282.078125 188.296875 281.453125 188.046875 280.847656 C 187.792969 280.238281 187.484375 279.664062 187.121094 279.117188 C 186.757812 278.574219 186.34375 278.066406 185.878906 277.601562 C 185.414062 277.140625 184.910156 276.726562 184.363281 276.359375 C 183.816406 275.996094 183.242188 275.6875 182.636719 275.4375 C 182.027344 275.183594 181.402344 274.996094 180.761719 274.867188 C 180.117188 274.738281 179.464844 274.675781 178.808594 274.675781 Z M 178.8125 289.132812 C 178.519531 289.132812 178.226562 289.101562 177.941406 289.046875 C 177.652344 288.988281 177.375 288.90625 177.105469 288.792969 C 176.832031 288.679688 176.578125 288.542969 176.332031 288.378906 C 176.089844 288.21875 175.863281 288.03125 175.65625 287.824219 C 175.449219 287.617188 175.265625 287.394531 175.101562 287.148438 C 174.9375 286.90625 174.800781 286.648438 174.691406 286.378906 C 174.578125 286.109375 174.492188 285.828125 174.4375 285.542969 C 174.378906 285.253906 174.351562 284.964844 174.351562 284.671875 C 174.351562 284.378906 174.378906 284.089844 174.4375 283.800781 C 174.492188 283.515625 174.578125 283.234375 174.691406 282.964844 C 174.800781 282.695312 174.9375 282.4375 175.101562 282.195312 C 175.265625 281.949219 175.449219 281.726562 175.65625 281.519531 C 175.863281 281.3125 176.089844 281.125 176.332031 280.964844 C 176.574219 280.800781 176.832031 280.664062 177.101562 280.550781 C 177.375 280.4375 177.652344 280.355469 177.941406 280.296875 C 178.226562 280.238281 178.515625 280.210938 178.808594 280.210938 C 179.101562 280.210938 179.394531 280.238281 179.679688 280.296875 C 179.96875 280.355469 180.246094 280.4375 180.515625 280.550781 C 180.789062 280.664062 181.042969 280.800781 181.289062 280.964844 C 181.53125 281.125 181.757812 281.308594 181.964844 281.515625 C 182.171875 281.726562 182.355469 281.949219 182.519531 282.195312 C 182.679688 282.4375 182.820312 282.695312 182.929688 282.964844 C 183.042969 283.234375 183.128906 283.515625 183.183594 283.800781 C 183.242188 284.089844 183.269531 284.378906 183.269531 284.671875 C 183.269531 284.964844 183.242188 285.253906 183.183594 285.542969 C 183.125 285.828125 183.042969 286.105469 182.929688 286.378906 C 182.816406 286.648438 182.679688 286.90625 182.515625 287.148438 C 182.355469 287.390625 182.167969 287.617188 181.964844 287.824219 C 181.757812 288.03125 181.53125 288.214844 181.289062 288.378906 C 181.042969 288.542969 180.785156 288.679688 180.515625 288.789062 C 180.246094 288.902344 179.96875 288.988281 179.679688 289.046875 C 179.394531 289.101562 179.101562 289.132812 178.8125 289.132812 Z M 218.011719 225.292969 C 217.355469 225.292969 216.707031 225.355469 216.0625 225.484375 C 215.417969 225.613281 214.792969 225.800781 214.1875 226.050781 C 213.582031 226.304688 213.003906 226.613281 212.460938 226.976562 C 211.914062 227.339844 211.410156 227.753906 210.945312 228.21875 C 210.480469 228.683594 210.066406 229.1875 209.703125 229.734375 C 209.335938 230.28125 209.027344 230.855469 208.777344 231.460938 C 208.527344 232.070312 208.335938 232.695312 208.207031 233.335938 C 208.082031 233.980469 208.015625 234.632812 208.015625 235.289062 C 208.015625 235.945312 208.082031 236.59375 208.207031 237.238281 C 208.335938 237.882812 208.527344 238.507812 208.777344 239.113281 C 209.027344 239.71875 209.335938 240.296875 209.703125 240.839844 C 210.066406 241.386719 210.480469 241.890625 210.945312 242.355469 C 211.410156 242.820312 211.914062 243.234375 212.460938 243.597656 C 213.003906 243.964844 213.582031 244.269531 214.1875 244.523438 C 214.792969 244.773438 215.417969 244.964844 216.0625 245.089844 C 216.707031 245.21875 217.355469 245.28125 218.011719 245.28125 C 218.667969 245.28125 219.320312 245.21875 219.960938 245.089844 C 220.605469 244.964844 221.230469 244.773438 221.835938 244.523438 C 222.445312 244.269531 223.019531 243.964844 223.566406 243.597656 C 224.113281 243.234375 224.617188 242.820312 225.082031 242.355469 C 225.542969 241.890625 225.960938 241.386719 226.324219 240.839844 C 226.6875 240.296875 226.996094 239.71875 227.246094 239.113281 C 227.5 238.507812 227.6875 237.882812 227.816406 237.238281 C 227.945312 236.59375 228.007812 235.945312 228.007812 235.289062 C 228.007812 234.632812 227.945312 233.980469 227.816406 233.335938 C 227.6875 232.695312 227.5 232.070312 227.246094 231.460938 C 226.996094 230.855469 226.6875 230.28125 226.324219 229.734375 C 225.960938 229.1875 225.542969 228.683594 225.082031 228.21875 C 224.617188 227.753906 224.113281 227.339844 223.566406 226.976562 C 223.019531 226.613281 222.445312 226.304688 221.835938 226.050781 C 221.230469 225.800781 220.605469 225.613281 219.960938 225.484375 C 219.320312 225.355469 218.667969 225.292969 218.011719 225.292969 Z M 218.011719 239.746094 C 217.71875 239.746094 217.429688 239.71875 217.144531 239.660156 C 216.855469 239.605469 216.578125 239.519531 216.304688 239.410156 C 216.035156 239.296875 215.777344 239.160156 215.535156 238.996094 C 215.292969 238.832031 215.066406 238.648438 214.859375 238.441406 C 214.652344 238.234375 214.46875 238.007812 214.304688 237.765625 C 214.140625 237.523438 214.003906 237.265625 213.890625 236.996094 C 213.78125 236.722656 213.695312 236.445312 213.636719 236.15625 C 213.582031 235.871094 213.550781 235.582031 213.550781 235.289062 C 213.550781 234.996094 213.582031 234.703125 213.636719 234.417969 C 213.695312 234.128906 213.78125 233.851562 213.890625 233.582031 C 214.003906 233.308594 214.140625 233.054688 214.304688 232.808594 C 214.464844 232.566406 214.652344 232.339844 214.859375 232.132812 C 215.066406 231.925781 215.289062 231.742188 215.535156 231.578125 C 215.777344 231.417969 216.035156 231.277344 216.304688 231.167969 C 216.574219 231.054688 216.855469 230.96875 217.140625 230.914062 C 217.429688 230.855469 217.71875 230.828125 218.011719 230.828125 C 218.304688 230.828125 218.59375 230.855469 218.882812 230.914062 C 219.167969 230.96875 219.449219 231.054688 219.71875 231.167969 C 219.988281 231.277344 220.246094 231.417969 220.492188 231.578125 C 220.734375 231.742188 220.960938 231.925781 221.167969 232.132812 C 221.375 232.339844 221.558594 232.566406 221.722656 232.808594 C 221.882812 233.050781 222.019531 233.308594 222.132812 233.582031 C 222.246094 233.851562 222.328125 234.128906 222.386719 234.417969 C 222.445312 234.703125 222.472656 234.996094 222.472656 235.289062 C 222.472656 235.578125 222.445312 235.871094 222.386719 236.15625 C 222.328125 236.445312 222.246094 236.722656 222.132812 236.992188 C 222.019531 237.261719 221.882812 237.519531 221.71875 237.765625 C 221.558594 238.007812 221.371094 238.234375 221.164062 238.441406 C 220.957031 238.648438 220.734375 238.832031 220.488281 238.996094 C 220.246094 239.15625 219.988281 239.292969 219.71875 239.40625 C 219.449219 239.519531 219.167969 239.605469 218.882812 239.660156 C 218.59375 239.71875 218.304688 239.746094 218.011719 239.746094 Z M 218.011719 239.746094 " fill-opacity="1" fill-rule="nonzero"/><path fill="#ffde4c" d="M 106.945312 152.96875 C 104.339844 152.070312 102.195312 150.535156 100.511719 148.355469 L 81.371094 167.222656 C 82.804688 168.796875 84.347656 170.246094 86.007812 171.574219 C 87.664062 172.902344 89.414062 174.09375 91.261719 175.148438 C 93.105469 176.203125 95.019531 177.109375 97.007812 177.863281 C 98.992188 178.621094 101.027344 179.214844 103.105469 179.652344 C 105.183594 180.089844 107.285156 180.363281 109.40625 180.46875 C 111.53125 180.578125 113.648438 180.519531 115.761719 180.296875 C 117.875 180.074219 119.957031 179.6875 122.007812 179.136719 C 124.0625 178.589844 126.058594 177.882812 128 177.019531 L 116.785156 152.664062 C 115.21875 153.316406 113.585938 153.667969 111.894531 153.71875 C 110.199219 153.773438 108.546875 153.523438 106.945312 152.96875 Z M 97.019531 160.773438 C 95.226562 162.917969 93.21875 164.835938 90.992188 166.527344 C 92.332031 164.074219 93.929688 161.800781 95.78125 159.703125 C 97.578125 157.5625 99.585938 155.644531 101.808594 153.949219 C 100.464844 156.398438 98.871094 158.675781 97.019531 160.773438 Z M 103.753906 168.652344 C 103.871094 166.527344 104.292969 164.46875 105.019531 162.46875 C 105.683594 160.449219 106.621094 158.566406 107.835938 156.820312 C 107.714844 158.945312 107.292969 161.003906 106.566406 163.003906 C 105.90625 165.023438 104.96875 166.90625 103.753906 168.652344 Z M 120.628906 176.292969 C 119.0625 173.347656 117.777344 170.28125 116.78125 167.097656 C 115.710938 163.9375 114.949219 160.703125 114.488281 157.394531 C 116.058594 160.339844 117.339844 163.40625 118.335938 166.59375 C 119.402344 169.753906 120.164062 172.988281 120.628906 176.292969 Z M 227.210938 208.984375 C 228.6875 211.308594 229.40625 213.847656 229.367188 216.601562 L 256.09375 213.777344 C 255.953125 211.65625 255.648438 209.5625 255.179688 207.488281 C 254.710938 205.417969 254.085938 203.390625 253.300781 201.417969 C 252.515625 199.441406 251.582031 197.542969 250.5 195.710938 C 249.417969 193.882812 248.199219 192.152344 246.847656 190.511719 C 245.492188 188.875 244.019531 187.351562 242.429688 185.945312 C 240.835938 184.539062 239.144531 183.261719 237.351562 182.121094 C 235.5625 180.976562 233.691406 179.980469 231.746094 179.128906 C 229.796875 178.28125 227.796875 177.585938 225.738281 177.050781 L 219.328125 203.085938 C 220.957031 203.554688 222.453125 204.296875 223.808594 205.3125 C 225.167969 206.328125 226.300781 207.550781 227.210938 208.984375 Z M 239.832031 209.070312 C 242.574219 208.511719 245.339844 208.261719 248.136719 208.324219 C 245.558594 209.410156 242.894531 210.191406 240.140625 210.675781 C 237.398438 211.230469 234.632812 211.476562 231.835938 211.417969 C 234.414062 210.339844 237.082031 209.554688 239.832031 209.070312 Z M 239.480469 198.710938 C 238.066406 200.296875 236.453125 201.644531 234.636719 202.753906 C 232.859375 203.921875 230.953125 204.808594 228.917969 205.417969 C 230.332031 203.832031 231.949219 202.484375 233.761719 201.371094 C 235.535156 200.203125 237.445312 199.316406 239.480469 198.710938 Z M 231.050781 182.214844 C 230.441406 185.496094 229.53125 188.691406 228.328125 191.804688 C 227.191406 194.941406 225.773438 197.949219 224.074219 200.820312 C 224.679688 197.539062 225.585938 194.339844 226.796875 191.230469 C 227.933594 188.09375 229.351562 185.085938 231.050781 182.214844 Z M 168.3125 254.421875 C 169.789062 256.746094 170.507812 259.289062 170.464844 262.039062 L 197.191406 259.21875 C 197.054688 257.097656 196.75 255 196.28125 252.929688 C 195.8125 250.855469 195.1875 248.832031 194.402344 246.859375 C 193.617188 244.882812 192.683594 242.980469 191.601562 241.152344 C 190.519531 239.324219 189.300781 237.589844 187.949219 235.953125 C 186.59375 234.316406 185.121094 232.792969 183.53125 231.386719 C 181.9375 229.976562 180.246094 228.703125 178.453125 227.558594 C 176.664062 226.417969 174.792969 225.421875 172.847656 224.570312 C 170.898438 223.71875 168.898438 223.027344 166.839844 222.492188 L 160.429688 248.527344 C 162.058594 248.996094 163.550781 249.734375 164.910156 250.75 C 166.269531 251.765625 167.402344 252.992188 168.3125 254.421875 Z M 180.933594 254.507812 C 183.675781 253.949219 186.441406 253.703125 189.238281 253.765625 C 186.660156 254.847656 183.992188 255.632812 181.238281 256.117188 C 178.5 256.671875 175.730469 256.917969 172.9375 256.859375 C 175.515625 255.78125 178.183594 254.996094 180.933594 254.507812 Z M 180.582031 244.152344 C 179.167969 245.738281 177.554688 247.085938 175.738281 248.195312 C 173.960938 249.359375 172.054688 250.25 170.015625 250.855469 C 171.433594 249.273438 173.050781 247.925781 174.863281 246.8125 C 176.636719 245.644531 178.542969 244.753906 180.582031 244.152344 Z M 172.152344 227.652344 C 171.542969 230.933594 170.632812 234.132812 169.429688 237.246094 C 168.292969 240.382812 166.875 243.386719 165.171875 246.261719 C 165.78125 242.976562 166.6875 239.78125 167.898438 236.667969 C 169.035156 233.53125 170.453125 230.527344 172.152344 227.652344 Z M 211.082031 114.789062 C 213.519531 116.070312 215.40625 117.914062 216.742188 120.324219 L 238.519531 104.574219 C 237.34375 102.804688 236.039062 101.136719 234.601562 99.574219 C 233.164062 98.007812 231.613281 96.566406 229.949219 95.242188 C 228.285156 93.921875 226.53125 92.734375 224.679688 91.6875 C 222.832031 90.640625 220.914062 89.742188 218.925781 88.996094 C 216.933594 88.25 214.898438 87.660156 212.820312 87.230469 C 210.738281 86.804688 208.636719 86.539062 206.511719 86.441406 C 204.390625 86.339844 202.273438 86.40625 200.160156 86.636719 C 198.046875 86.871094 195.96875 87.265625 193.917969 87.820312 L 201.3125 113.597656 C 202.957031 113.191406 204.621094 113.089844 206.304688 113.296875 C 207.988281 113.5 209.582031 114 211.082031 114.789062 Z M 222.074219 108.582031 C 224.171875 106.734375 226.449219 105.140625 228.90625 103.804688 C 227.210938 106.027344 225.289062 108.03125 223.140625 109.824219 C 221.039062 111.667969 218.761719 113.261719 216.308594 114.597656 C 218.007812 112.378906 219.929688 110.375 222.074219 108.582031 Z M 216.617188 99.773438 C 216.179688 101.851562 215.449219 103.824219 214.425781 105.691406 C 213.464844 107.585938 212.253906 109.304688 210.789062 110.84375 C 211.230469 108.765625 211.957031 106.792969 212.976562 104.925781 C 213.9375 103.027344 215.148438 101.308594 216.617188 99.773438 Z M 201.09375 89.65625 C 202.195312 92.808594 203 96.03125 203.503906 99.332031 C 204.078125 102.621094 204.34375 105.933594 204.300781 109.269531 C 203.191406 106.121094 202.390625 102.894531 201.886719 99.59375 C 201.316406 96.308594 201.050781 92.996094 201.09375 89.65625 Z M 201.09375 89.65625 " fill-opacity="1" fill-rule="nonzero"/></svg>