<svg xmlns="http://www.w3.org/2000/svg" xmlns:xlink="http://www.w3.org/1999/xlink" width="500" zoomAndPan="magnify" viewBox="0 0 375 374.999991" height="500" preserveAspectRatio="xMidYMid meet" version="1.0"><defs><clipPath id="de534d2011"><path d="M 37.5 37.5 L 337.5 37.5 L 337.5 337.5 L 37.5 337.5 Z M 37.5 37.5 " clip-rule="nonzero"/></clipPath></defs><g clip-path="url(#de534d2011)"><path fill="#ffc54c" d="M 337.5 187.5 C 337.5 189.953125 337.441406 192.410156 337.320312 194.859375 C 337.199219 197.3125 337.019531 199.757812 336.777344 202.203125 C 336.535156 204.644531 336.238281 207.082031 335.875 209.507812 C 335.515625 211.9375 335.097656 214.355469 334.617188 216.761719 C 334.140625 219.171875 333.601562 221.566406 333.003906 223.945312 C 332.40625 226.328125 331.753906 228.695312 331.039062 231.042969 C 330.328125 233.390625 329.558594 235.722656 328.730469 238.035156 C 327.90625 240.34375 327.019531 242.632812 326.082031 244.902344 C 325.140625 247.171875 324.148438 249.414062 323.097656 251.632812 C 322.046875 253.851562 320.945312 256.042969 319.789062 258.210938 C 318.632812 260.375 317.421875 262.511719 316.160156 264.617188 C 314.898438 266.722656 313.585938 268.792969 312.21875 270.835938 C 310.855469 272.875 309.445312 274.882812 307.980469 276.855469 C 306.519531 278.828125 305.007812 280.761719 303.453125 282.660156 C 301.894531 284.554688 300.292969 286.414062 298.644531 288.234375 C 296.992188 290.050781 295.300781 291.832031 293.566406 293.566406 C 291.832031 295.300781 290.054688 296.992188 288.234375 298.644531 C 286.414062 300.292969 284.554688 301.894531 282.660156 303.453125 C 280.761719 305.007812 278.828125 306.519531 276.855469 307.980469 C 274.882812 309.445312 272.875 310.855469 270.835938 312.21875 C 268.792969 313.585938 266.722656 314.898438 264.617188 316.160156 C 262.511719 317.421875 260.375 318.632812 258.210938 319.789062 C 256.042969 320.945312 253.851562 322.046875 251.632812 323.097656 C 249.414062 324.148438 247.171875 325.140625 244.902344 326.082031 C 242.632812 327.019531 240.34375 327.90625 238.035156 328.730469 C 235.722656 329.558594 233.390625 330.328125 231.042969 331.039062 C 228.695312 331.753906 226.328125 332.40625 223.945312 333.003906 C 221.566406 333.601562 219.171875 334.140625 216.761719 334.617188 C 214.355469 335.097656 211.9375 335.515625 209.507812 335.875 C 207.082031 336.238281 204.644531 336.535156 202.203125 336.777344 C 199.757812 337.019531 197.3125 337.199219 194.859375 337.320312 C 192.410156 337.441406 189.953125 337.5 187.5 337.5 C 185.046875 337.5 182.589844 337.441406 180.140625 337.320312 C 177.6875 337.199219 175.242188 337.019531 172.796875 336.777344 C 170.355469 336.535156 167.917969 336.238281 165.492188 335.875 C 163.0625 335.515625 160.644531 335.097656 158.238281 334.617188 C 155.828125 334.140625 153.433594 333.601562 151.054688 333.003906 C 148.671875 332.40625 146.304688 331.753906 143.957031 331.039062 C 141.609375 330.328125 139.277344 329.558594 136.964844 328.730469 C 134.65625 327.90625 132.367188 327.019531 130.097656 326.082031 C 127.828125 325.140625 125.585938 324.148438 123.367188 323.097656 C 121.148438 322.046875 118.957031 320.945312 116.789062 319.789062 C 114.625 318.632812 112.488281 317.421875 110.382812 316.160156 C 108.277344 314.898438 106.207031 313.585938 104.164062 312.21875 C 102.125 310.855469 100.117188 309.445312 98.144531 307.980469 C 96.171875 306.519531 94.238281 305.007812 92.339844 303.453125 C 90.445312 301.894531 88.585938 300.292969 86.765625 298.644531 C 84.945312 296.992188 83.167969 295.300781 81.433594 293.566406 C 79.699219 291.832031 78.007812 290.050781 76.355469 288.234375 C 74.707031 286.414062 73.105469 284.554688 71.546875 282.660156 C 69.992188 280.761719 68.480469 278.828125 67.019531 276.855469 C 65.554688 274.882812 64.144531 272.875 62.78125 270.835938 C 61.414062 268.792969 60.101562 266.722656 58.839844 264.617188 C 57.578125 262.511719 56.367188 260.375 55.210938 258.210938 C 54.054688 256.042969 52.953125 253.851562 51.902344 251.632812 C 50.851562 249.414062 49.859375 247.171875 48.917969 244.902344 C 47.980469 242.632812 47.09375 240.34375 46.269531 238.035156 C 45.441406 235.722656 44.671875 233.390625 43.957031 231.042969 C 43.246094 228.695312 42.589844 226.328125 41.996094 223.945312 C 41.398438 221.566406 40.859375 219.171875 40.382812 216.761719 C 39.902344 214.355469 39.484375 211.9375 39.125 209.507812 C 38.761719 207.082031 38.464844 204.644531 38.222656 202.203125 C 37.980469 199.757812 37.800781 197.3125 37.679688 194.859375 C 37.558594 192.410156 37.5 189.953125 37.5 187.5 C 37.5 185.046875 37.558594 182.589844 37.679688 180.140625 C 37.800781 177.6875 37.980469 175.242188 38.222656 172.796875 C 38.464844 170.355469 38.761719 167.917969 39.125 165.492188 C 39.484375 163.0625 39.902344 160.644531 40.382812 158.238281 C 40.859375 155.828125 41.398438 153.433594 41.996094 151.054688 C 42.589844 148.671875 43.246094 146.304688 43.957031 143.957031 C 44.671875 141.609375 45.441406 139.277344 46.269531 136.964844 C 47.09375 134.65625 47.980469 132.367188 48.917969 130.097656 C 49.859375 127.828125 50.851562 125.585938 51.902344 123.367188 C 52.953125 121.148438 54.054688 118.957031 55.210938 116.789062 C 56.367188 114.625 57.578125 112.488281 58.839844 110.382812 C 60.101562 108.277344 61.414062 106.207031 62.78125 104.164062 C 64.144531 102.125 65.554688 100.117188 67.019531 98.144531 C 68.480469 96.171875 69.992188 94.238281 71.546875 92.339844 C 73.105469 90.445312 74.707031 88.585938 76.355469 86.765625 C 78.007812 84.945312 79.699219 83.167969 81.433594 81.433594 C 83.167969 79.699219 84.945312 78.007812 86.765625 76.355469 C 88.585938 74.707031 90.445312 73.105469 92.339844 71.546875 C 94.238281 69.992188 96.171875 68.480469 98.144531 67.019531 C 100.117188 65.554688 102.125 64.144531 104.164062 62.78125 C 106.207031 61.414062 108.277344 60.101562 110.382812 58.839844 C 112.488281 57.578125 114.625 56.367188 116.789062 55.210938 C 118.957031 54.054688 121.148438 52.953125 123.367188 51.902344 C 125.585938 50.851562 127.828125 49.859375 130.097656 48.917969 C 132.367188 47.980469 134.65625 47.09375 136.964844 46.269531 C 139.277344 45.441406 141.609375 44.671875 143.957031 43.957031 C 146.304688 43.246094 148.671875 42.589844 151.054688 41.996094 C 153.433594 41.398438 155.828125 40.859375 158.238281 40.382812 C 160.644531 39.902344 163.0625 39.484375 165.492188 39.125 C 167.917969 38.761719 170.355469 38.464844 172.796875 38.222656 C 175.242188 37.980469 177.6875 37.800781 180.140625 37.679688 C 182.589844 37.558594 185.046875 37.5 187.5 37.5 C 189.953125 37.5 192.410156 37.558594 194.859375 37.679688 C 197.3125 37.800781 199.757812 37.980469 202.203125 38.222656 C 204.644531 38.464844 207.082031 38.761719 209.507812 39.125 C 211.9375 39.484375 214.355469 39.902344 216.761719 40.382812 C 219.171875 40.859375 221.566406 41.398438 223.945312 41.996094 C 226.328125 42.589844 228.695312 43.246094 231.042969 43.957031 C 233.390625 44.671875 235.722656 45.441406 238.035156 46.269531 C 240.34375 47.09375 242.632812 47.980469 244.902344 48.917969 C 247.171875 49.859375 249.414062 50.851562 251.632812 51.902344 C 253.851562 52.953125 256.042969 54.054688 258.210938 55.210938 C 260.375 56.367188 262.511719 57.578125 264.617188 58.839844 C 266.722656 60.101562 268.792969 61.414062 270.835938 62.78125 C 272.875 64.144531 274.882812 65.554688 276.855469 67.019531 C 278.828125 68.480469 280.761719 69.992188 282.660156 71.546875 C 284.554688 73.105469 286.414062 74.707031 288.234375 76.355469 C 290.054688 78.007812 291.832031 79.699219 293.566406 81.433594 C 295.300781 83.167969 296.992188 84.945312 298.644531 86.765625 C 300.292969 88.585938 301.894531 90.445312 303.453125 92.339844 C 305.007812 94.238281 306.519531 96.171875 307.980469 98.144531 C 309.445312 100.117188 310.855469 102.125 312.21875 104.164062 C 313.585938 106.207031 314.898438 108.277344 316.160156 110.382812 C 317.421875 112.488281 318.632812 114.625 319.789062 116.789062 C 320.945312 118.957031 322.046875 121.148438 323.097656 123.367188 C 324.148438 125.585938 325.140625 127.828125 326.082031 130.097656 C 327.019531 132.367188 327.90625 134.65625 328.730469 136.964844 C 329.558594 139.277344 330.328125 141.609375 331.039062 143.957031 C 331.753906 146.304688 332.40625 148.671875 333.003906 151.054688 C 333.601562 153.433594 334.140625 155.828125 334.617188 158.238281 C 335.097656 160.644531 335.515625 163.0625 335.875 165.492188 C 336.238281 167.917969 336.535156 170.355469 336.777344 172.796875 C 337.019531 175.242188 337.199219 177.6875 337.320312 180.140625 C 337.441406 182.589844 337.5 185.046875 337.5 187.5 Z M 337.5 187.5 " fill-opacity="1" fill-rule="nonzero"/></g><path fill="#eb3323" d="M 314.4375 210.777344 L 316.304688 207.546875 C 317.179688 206.03125 317.953125 204.460938 318.621094 202.84375 C 319.292969 201.222656 319.855469 199.570312 320.308594 197.878906 C 320.761719 196.183594 321.101562 194.46875 321.332031 192.734375 C 321.558594 190.996094 321.675781 189.25 321.675781 187.5 C 321.675781 185.75 321.558594 184.003906 321.332031 182.265625 C 321.101562 180.53125 320.761719 178.816406 320.308594 177.125 C 319.855469 175.429688 319.292969 173.777344 318.621094 172.15625 C 317.953125 170.539062 317.179688 168.96875 316.304688 167.453125 L 314.4375 164.222656 C 312.679688 161.175781 311.34375 157.953125 310.433594 154.550781 C 309.519531 151.152344 309.066406 147.695312 309.066406 144.175781 L 309.066406 140.445312 C 309.066406 138.691406 308.953125 136.949219 308.722656 135.210938 C 308.496094 133.476562 308.152344 131.761719 307.699219 130.066406 C 307.246094 128.375 306.683594 126.71875 306.015625 125.101562 C 305.34375 123.484375 304.570312 121.914062 303.695312 120.398438 C 302.820312 118.882812 301.847656 117.425781 300.78125 116.039062 C 299.714844 114.648438 298.5625 113.332031 297.324219 112.09375 C 296.085938 110.855469 294.769531 109.703125 293.378906 108.636719 C 291.988281 107.570312 290.535156 106.597656 289.019531 105.722656 L 285.789062 103.859375 C 282.742188 102.097656 279.972656 99.972656 277.484375 97.484375 C 274.996094 94.996094 272.871094 92.230469 271.113281 89.183594 L 269.246094 85.953125 C 268.371094 84.433594 267.402344 82.980469 266.335938 81.589844 C 265.269531 80.199219 264.113281 78.886719 262.875 77.648438 C 261.636719 76.410156 260.324219 75.257812 258.933594 74.191406 C 257.542969 73.125 256.089844 72.152344 254.574219 71.277344 C 253.054688 70.402344 251.488281 69.628906 249.867188 68.957031 C 248.25 68.285156 246.59375 67.722656 244.902344 67.269531 C 243.210938 66.816406 241.496094 66.476562 239.757812 66.246094 C 238.023438 66.019531 236.277344 65.90625 234.527344 65.90625 L 230.796875 65.90625 C 227.277344 65.90625 223.816406 65.449219 220.417969 64.539062 C 217.019531 63.628906 213.796875 62.292969 210.75 60.535156 L 207.519531 58.667969 C 206 57.792969 204.433594 57.019531 202.8125 56.347656 C 201.195312 55.679688 199.539062 55.117188 197.847656 54.664062 C 196.15625 54.210938 194.441406 53.867188 192.703125 53.640625 C 190.96875 53.410156 189.222656 53.296875 187.472656 53.296875 C 185.71875 53.296875 183.976562 53.410156 182.238281 53.640625 C 180.5 53.867188 178.785156 54.210938 177.09375 54.664062 C 175.402344 55.117188 173.746094 55.679688 172.128906 56.347656 C 170.507812 57.019531 168.941406 57.792969 167.425781 58.667969 L 164.195312 60.535156 C 161.144531 62.292969 157.921875 63.628906 154.523438 64.539062 C 151.125 65.449219 147.664062 65.90625 144.148438 65.90625 L 140.417969 65.90625 C 138.664062 65.90625 136.917969 66.019531 135.183594 66.246094 C 133.445312 66.476562 131.730469 66.816406 130.039062 67.269531 C 128.347656 67.722656 126.691406 68.285156 125.074219 68.957031 C 123.453125 69.628906 121.886719 70.402344 120.371094 71.277344 C 118.851562 72.152344 117.398438 73.125 116.007812 74.191406 C 114.617188 75.257812 113.304688 76.410156 112.066406 77.648438 C 110.828125 78.886719 109.675781 80.203125 108.609375 81.589844 C 107.542969 82.980469 106.570312 84.433594 105.695312 85.953125 L 103.828125 89.183594 C 102.070312 92.230469 99.945312 94.996094 97.457031 97.484375 C 94.96875 99.972656 92.199219 102.097656 89.152344 103.859375 L 85.921875 105.722656 C 84.40625 106.597656 82.953125 107.570312 81.5625 108.636719 C 80.171875 109.703125 78.859375 110.855469 77.621094 112.09375 C 76.378906 113.332031 75.226562 114.648438 74.160156 116.039062 C 73.09375 117.425781 72.125 118.882812 71.246094 120.398438 C 70.371094 121.914062 69.597656 123.484375 68.929688 125.101562 C 68.257812 126.71875 67.695312 128.375 67.242188 130.066406 C 66.789062 131.761719 66.449219 133.476562 66.21875 135.210938 C 65.992188 136.949219 65.875 138.691406 65.875 140.445312 L 65.875 144.175781 C 65.875 147.695312 65.421875 151.152344 64.511719 154.550781 C 63.597656 157.953125 62.265625 161.175781 60.503906 164.222656 L 58.640625 167.453125 C 57.761719 168.96875 56.988281 170.539062 56.320312 172.15625 C 55.648438 173.777344 55.085938 175.429688 54.632812 177.125 C 54.179688 178.816406 53.839844 180.53125 53.609375 182.265625 C 53.382812 184.003906 53.269531 185.75 53.269531 187.5 C 53.269531 189.25 53.382812 190.996094 53.609375 192.734375 C 53.839844 194.46875 54.179688 196.183594 54.632812 197.878906 C 55.085938 199.570312 55.648438 201.222656 56.320312 202.84375 C 56.988281 204.460938 57.761719 206.03125 58.640625 207.546875 L 60.503906 210.777344 C 62.265625 213.824219 63.597656 217.046875 64.511719 220.449219 C 65.421875 223.847656 65.875 227.304688 65.875 230.824219 L 65.875 234.554688 C 65.875 236.308594 65.992188 238.050781 66.21875 239.789062 C 66.449219 241.523438 66.789062 243.238281 67.242188 244.933594 C 67.695312 246.625 68.257812 248.28125 68.929688 249.898438 C 69.597656 251.515625 70.371094 253.085938 71.246094 254.601562 C 72.125 256.117188 73.09375 257.574219 74.160156 258.960938 C 75.226562 260.351562 76.378906 261.667969 77.621094 262.90625 C 78.859375 264.144531 80.171875 265.296875 81.5625 266.363281 C 82.953125 267.429688 84.40625 268.402344 85.921875 269.277344 L 89.152344 271.140625 C 92.199219 272.902344 94.96875 275.027344 97.457031 277.515625 C 99.945312 280.003906 102.070312 282.769531 103.828125 285.816406 L 105.695312 289.046875 C 106.570312 290.566406 107.542969 292.019531 108.609375 293.410156 C 109.675781 294.796875 110.828125 296.113281 112.066406 297.351562 C 113.304688 298.589844 114.617188 299.742188 116.007812 300.808594 C 117.398438 301.875 118.851562 302.847656 120.371094 303.722656 C 121.886719 304.597656 123.453125 305.371094 125.074219 306.042969 C 126.691406 306.714844 128.347656 307.277344 130.039062 307.730469 C 131.730469 308.183594 133.445312 308.523438 135.183594 308.753906 C 136.917969 308.980469 138.664062 309.09375 140.417969 309.09375 L 144.148438 309.09375 C 147.664062 309.09375 151.125 309.550781 154.523438 310.460938 C 157.921875 311.371094 161.144531 312.707031 164.195312 314.464844 L 167.425781 316.332031 C 168.941406 317.207031 170.507812 317.980469 172.128906 318.652344 C 173.746094 319.320312 175.402344 319.882812 177.09375 320.335938 C 178.785156 320.789062 180.5 321.132812 182.238281 321.359375 C 183.976562 321.589844 185.71875 321.703125 187.472656 321.703125 C 189.222656 321.703125 190.96875 321.589844 192.703125 321.359375 C 194.441406 321.132812 196.15625 320.789062 197.847656 320.335938 C 199.539062 319.882812 201.195312 319.320312 202.8125 318.652344 C 204.433594 317.980469 206 317.207031 207.519531 316.332031 L 210.75 314.464844 C 213.796875 312.707031 217.019531 311.371094 220.417969 310.460938 C 223.816406 309.550781 227.277344 309.09375 230.796875 309.09375 L 234.527344 309.09375 C 236.277344 309.09375 238.023438 308.980469 239.757812 308.753906 C 241.496094 308.523438 243.210938 308.183594 244.902344 307.730469 C 246.59375 307.277344 248.25 306.714844 249.867188 306.042969 C 251.488281 305.371094 253.054688 304.597656 254.574219 303.722656 C 256.089844 302.847656 257.542969 301.875 258.933594 300.808594 C 260.324219 299.742188 261.636719 298.589844 262.875 297.351562 C 264.113281 296.113281 265.269531 294.800781 266.335938 293.410156 C 267.402344 292.019531 268.371094 290.566406 269.246094 289.046875 L 271.113281 285.816406 C 272.871094 282.769531 274.996094 280.003906 277.484375 277.515625 C 279.972656 275.027344 282.742188 272.902344 285.789062 271.140625 L 289.019531 269.277344 C 290.535156 268.402344 291.988281 267.429688 293.378906 266.363281 C 294.769531 265.296875 296.085938 264.144531 297.324219 262.90625 C 298.5625 261.667969 299.714844 260.351562 300.78125 258.960938 C 301.847656 257.574219 302.820312 256.117188 303.695312 254.601562 C 304.570312 253.085938 305.34375 251.515625 306.015625 249.898438 C 306.683594 248.28125 307.246094 246.625 307.699219 244.933594 C 308.152344 243.238281 308.496094 241.523438 308.722656 239.789062 C 308.953125 238.050781 309.066406 236.308594 309.066406 234.554688 L 309.066406 230.824219 C 309.066406 227.304688 309.519531 223.847656 310.433594 220.449219 C 311.34375 217.046875 312.679688 213.824219 314.4375 210.777344 Z M 314.4375 210.777344 " fill-opacity="1" fill-rule="nonzero"/><path fill="#fcef9e" d="M 162.957031 131.003906 C 156.21875 135.964844 152.132812 125.902344 152.132812 125.902344 C 152.132812 125.902344 147.8125 136.472656 143.785156 137.167969 C 139.753906 137.867188 134.023438 131.539062 134.023438 131.539062 C 134.023438 131.539062 128.019531 125.472656 128.933594 121.488281 C 129.847656 117.503906 140.636719 113.765625 140.636719 113.765625 C 140.636719 113.765625 130.945312 109.246094 136.128906 102.679688 C 146.253906 89.851562 161.140625 105.832031 161.140625 105.832031 C 161.140625 105.832031 176.308594 121.175781 162.957031 131.003906 Z M 198.386719 218.507812 C 198.386719 218.507812 218.683594 210.441406 210.40625 196.347656 C 206.171875 189.132812 198.441406 196.519531 198.441406 196.519531 C 198.441406 196.519531 198.875 185.113281 195.496094 182.8125 C 192.117188 180.511719 184.28125 183.90625 184.28125 183.90625 C 184.28125 183.90625 176.304688 186.949219 175.492188 190.953125 C 174.679688 194.960938 182.957031 202.824219 182.957031 202.824219 C 182.957031 202.824219 172.097656 202.976562 174.273438 211.054688 C 178.582031 227.070312 198.386719 218.507812 198.386719 218.507812 Z M 214.78125 118.488281 C 215.8125 126.792969 225.925781 122.839844 225.925781 122.839844 C 225.925781 122.839844 221.222656 133.242188 223.488281 136.644531 C 225.753906 140.050781 234.285156 139.863281 234.285156 139.863281 C 234.285156 139.863281 242.820312 140.050781 245.085938 136.644531 C 247.347656 133.242188 242.648438 122.839844 242.648438 122.839844 C 242.648438 122.839844 252.589844 126.769531 253.792969 118.488281 C 256.144531 102.316406 234.308594 102.496094 234.308594 102.496094 C 234.308594 102.496094 212.734375 102.03125 214.78125 118.488281 Z M 254.109375 198.710938 C 255.140625 207.015625 265.253906 203.0625 265.253906 203.0625 C 265.253906 203.0625 260.550781 213.464844 262.816406 216.871094 C 265.082031 220.273438 273.613281 220.085938 273.613281 220.085938 C 273.613281 220.085938 282.148438 220.273438 284.414062 216.871094 C 286.675781 213.464844 281.976562 203.0625 281.976562 203.0625 C 281.976562 203.0625 291.917969 206.992188 293.121094 198.710938 C 295.472656 182.539062 273.632812 182.71875 273.632812 182.71875 C 273.632812 182.71875 252.0625 182.253906 254.109375 198.710938 Z M 167.972656 265.691406 C 169.003906 273.996094 179.121094 270.042969 179.121094 270.042969 C 179.121094 270.042969 174.417969 280.445312 176.679688 283.851562 C 178.945312 287.253906 187.480469 287.066406 187.480469 287.066406 C 187.480469 287.066406 196.015625 287.253906 198.277344 283.851562 C 200.542969 280.445312 195.839844 270.042969 195.839844 270.042969 C 195.839844 270.042969 205.78125 273.972656 206.988281 265.691406 C 209.339844 249.519531 187.5 249.699219 187.5 249.699219 C 187.5 249.699219 165.929688 249.234375 167.972656 265.691406 Z M 81.988281 193.519531 C 83.019531 201.824219 93.132812 197.871094 93.132812 197.871094 C 93.132812 197.871094 88.429688 208.273438 90.695312 211.679688 C 92.960938 215.085938 101.492188 214.894531 101.492188 214.894531 C 101.492188 214.894531 110.027344 215.085938 112.292969 211.679688 C 114.554688 208.273438 109.855469 197.871094 109.855469 197.871094 C 109.855469 197.871094 119.796875 201.800781 121 193.519531 C 123.351562 177.347656 101.511719 177.53125 101.511719 177.53125 C 101.511719 177.53125 79.941406 177.066406 81.988281 193.519531 Z M 81.988281 193.519531 " fill-opacity="1" fill-rule="nonzero"/><path fill="#571d1d" d="M 266.554688 143.964844 C 265.90625 143.964844 265.265625 144.027344 264.632812 144.15625 C 264 144.28125 263.382812 144.46875 262.785156 144.714844 C 262.1875 144.960938 261.621094 145.265625 261.082031 145.625 C 260.546875 145.984375 260.046875 146.394531 259.589844 146.851562 C 259.132812 147.308594 258.726562 147.804688 258.367188 148.34375 C 258.007812 148.878906 257.703125 149.449219 257.457031 150.042969 C 257.207031 150.640625 257.023438 151.257812 256.894531 151.890625 C 256.769531 152.527344 256.707031 153.167969 256.707031 153.8125 C 256.707031 154.460938 256.769531 155.101562 256.894531 155.734375 C 257.023438 156.367188 257.207031 156.984375 257.457031 157.582031 C 257.703125 158.179688 258.007812 158.746094 258.367188 159.285156 C 258.726562 159.824219 259.132812 160.320312 259.589844 160.777344 C 260.046875 161.234375 260.546875 161.644531 261.082031 162.003906 C 261.621094 162.359375 262.1875 162.664062 262.785156 162.910156 C 263.382812 163.160156 264 163.347656 264.632812 163.472656 C 265.265625 163.597656 265.90625 163.660156 266.554688 163.660156 C 267.199219 163.660156 267.839844 163.597656 268.476562 163.472656 C 269.109375 163.347656 269.726562 163.160156 270.324219 162.910156 C 270.921875 162.664062 271.488281 162.359375 272.027344 162.003906 C 272.5625 161.644531 273.0625 161.234375 273.519531 160.777344 C 273.976562 160.320312 274.382812 159.824219 274.742188 159.285156 C 275.101562 158.746094 275.40625 158.179688 275.652344 157.582031 C 275.902344 156.984375 276.085938 156.367188 276.214844 155.734375 C 276.339844 155.101562 276.402344 154.460938 276.402344 153.8125 C 276.402344 153.167969 276.339844 152.527344 276.214844 151.890625 C 276.085938 151.257812 275.902344 150.640625 275.652344 150.042969 C 275.40625 149.449219 275.101562 148.878906 274.742188 148.34375 C 274.382812 147.804688 273.976562 147.308594 273.519531 146.851562 C 273.0625 146.394531 272.5625 145.984375 272.027344 145.625 C 271.488281 145.265625 270.921875 144.960938 270.324219 144.714844 C 269.726562 144.46875 269.109375 144.28125 268.476562 144.15625 C 267.839844 144.027344 267.203125 143.964844 266.554688 143.964844 Z M 266.554688 158.207031 C 266.265625 158.207031 265.980469 158.179688 265.699219 158.125 C 265.414062 158.066406 265.140625 157.984375 264.875 157.875 C 264.605469 157.761719 264.351562 157.628906 264.113281 157.46875 C 263.875 157.308594 263.652344 157.125 263.449219 156.921875 C 263.242188 156.71875 263.0625 156.496094 262.902344 156.253906 C 262.742188 156.015625 262.605469 155.761719 262.496094 155.496094 C 262.382812 155.230469 262.300781 154.953125 262.246094 154.671875 C 262.1875 154.386719 262.160156 154.101562 262.160156 153.8125 C 262.160156 153.527344 262.1875 153.238281 262.246094 152.957031 C 262.300781 152.671875 262.382812 152.398438 262.496094 152.132812 C 262.605469 151.867188 262.742188 151.613281 262.902344 151.371094 C 263.0625 151.132812 263.242188 150.910156 263.445312 150.707031 C 263.652344 150.503906 263.871094 150.320312 264.113281 150.160156 C 264.351562 150 264.605469 149.863281 264.871094 149.753906 C 265.140625 149.644531 265.414062 149.558594 265.695312 149.503906 C 265.980469 149.449219 266.265625 149.417969 266.554688 149.417969 C 266.84375 149.417969 267.128906 149.449219 267.410156 149.503906 C 267.695312 149.558594 267.96875 149.644531 268.234375 149.753906 C 268.503906 149.863281 268.753906 150 268.996094 150.160156 C 269.234375 150.320312 269.457031 150.503906 269.660156 150.707031 C 269.867188 150.910156 270.046875 151.132812 270.207031 151.371094 C 270.367188 151.613281 270.503906 151.863281 270.613281 152.132812 C 270.722656 152.398438 270.808594 152.671875 270.863281 152.957031 C 270.921875 153.238281 270.949219 153.523438 270.949219 153.8125 C 270.949219 154.101562 270.921875 154.386719 270.863281 154.671875 C 270.808594 154.953125 270.722656 155.226562 270.613281 155.496094 C 270.503906 155.761719 270.367188 156.015625 270.207031 156.253906 C 270.046875 156.492188 269.863281 156.714844 269.660156 156.917969 C 269.457031 157.125 269.234375 157.304688 268.996094 157.464844 C 268.753906 157.625 268.503906 157.761719 268.234375 157.871094 C 267.96875 157.984375 267.695312 158.066406 267.410156 158.121094 C 267.128906 158.179688 266.84375 158.207031 266.554688 158.207031 Z M 238.703125 258.535156 C 238.054688 258.535156 237.414062 258.597656 236.78125 258.726562 C 236.144531 258.851562 235.53125 259.039062 234.933594 259.285156 C 234.335938 259.53125 233.769531 259.835938 233.230469 260.195312 C 232.691406 260.554688 232.195312 260.960938 231.738281 261.421875 C 231.28125 261.878906 230.871094 262.375 230.511719 262.914062 C 230.152344 263.449219 229.851562 264.015625 229.601562 264.613281 C 229.355469 265.210938 229.167969 265.828125 229.042969 266.460938 C 228.917969 267.097656 228.851562 267.738281 228.851562 268.382812 C 228.851562 269.03125 228.917969 269.671875 229.042969 270.304688 C 229.167969 270.9375 229.355469 271.554688 229.601562 272.152344 C 229.851562 272.75 230.152344 273.316406 230.511719 273.855469 C 230.871094 274.394531 231.28125 274.890625 231.738281 275.347656 C 232.195312 275.804688 232.691406 276.210938 233.230469 276.570312 C 233.769531 276.929688 234.335938 277.234375 234.933594 277.480469 C 235.53125 277.730469 236.144531 277.917969 236.78125 278.042969 C 237.414062 278.167969 238.054688 278.230469 238.703125 278.230469 C 239.347656 278.230469 239.988281 278.167969 240.621094 278.042969 C 241.257812 277.917969 241.871094 277.730469 242.46875 277.480469 C 243.066406 277.234375 243.636719 276.929688 244.171875 276.570312 C 244.710938 276.210938 245.207031 275.804688 245.664062 275.347656 C 246.121094 274.890625 246.53125 274.394531 246.890625 273.855469 C 247.25 273.316406 247.550781 272.75 247.800781 272.152344 C 248.046875 271.554688 248.234375 270.9375 248.359375 270.304688 C 248.484375 269.671875 248.550781 269.03125 248.550781 268.382812 C 248.550781 267.738281 248.484375 267.097656 248.359375 266.460938 C 248.234375 265.828125 248.046875 265.210938 247.800781 264.613281 C 247.550781 264.015625 247.25 263.449219 246.890625 262.914062 C 246.53125 262.375 246.121094 261.878906 245.664062 261.421875 C 245.207031 260.960938 244.710938 260.554688 244.171875 260.195312 C 243.636719 259.835938 243.066406 259.53125 242.46875 259.285156 C 241.871094 259.039062 241.257812 258.851562 240.621094 258.726562 C 239.988281 258.597656 239.347656 258.535156 238.703125 258.535156 Z M 238.703125 272.777344 C 238.414062 272.777344 238.128906 272.75 237.84375 272.695312 C 237.5625 272.636719 237.285156 272.554688 237.019531 272.445312 C 236.753906 272.332031 236.5 272.199219 236.261719 272.039062 C 236.019531 271.878906 235.796875 271.695312 235.59375 271.492188 C 235.390625 271.289062 235.207031 271.066406 235.046875 270.824219 C 234.886719 270.585938 234.753906 270.332031 234.640625 270.066406 C 234.53125 269.800781 234.449219 269.523438 234.390625 269.242188 C 234.335938 268.957031 234.308594 268.671875 234.308594 268.382812 C 234.308594 268.09375 234.335938 267.808594 234.390625 267.527344 C 234.449219 267.242188 234.53125 266.96875 234.640625 266.703125 C 234.75 266.4375 234.886719 266.183594 235.046875 265.941406 C 235.207031 265.703125 235.390625 265.480469 235.59375 265.277344 C 235.796875 265.074219 236.019531 264.890625 236.257812 264.730469 C 236.5 264.570312 236.753906 264.433594 237.019531 264.324219 C 237.285156 264.214844 237.5625 264.128906 237.84375 264.074219 C 238.125 264.019531 238.414062 263.988281 238.699219 263.988281 C 238.988281 263.988281 239.273438 264.019531 239.558594 264.074219 C 239.839844 264.128906 240.117188 264.214844 240.382812 264.324219 C 240.648438 264.433594 240.902344 264.570312 241.140625 264.730469 C 241.382812 264.890625 241.605469 265.074219 241.808594 265.277344 C 242.011719 265.480469 242.195312 265.703125 242.355469 265.941406 C 242.515625 266.183594 242.652344 266.433594 242.761719 266.703125 C 242.871094 266.96875 242.953125 267.242188 243.011719 267.527344 C 243.066406 267.808594 243.09375 268.09375 243.09375 268.382812 C 243.09375 268.671875 243.066406 268.957031 243.011719 269.242188 C 242.953125 269.523438 242.871094 269.796875 242.757812 270.0625 C 242.648438 270.332031 242.515625 270.582031 242.355469 270.824219 C 242.191406 271.0625 242.011719 271.285156 241.808594 271.488281 C 241.601562 271.691406 241.382812 271.875 241.140625 272.035156 C 240.902344 272.195312 240.648438 272.332031 240.382812 272.441406 C 240.117188 272.550781 239.839844 272.636719 239.558594 272.691406 C 239.277344 272.75 238.988281 272.777344 238.703125 272.777344 Z M 148.644531 158.207031 C 148 158.207031 147.359375 158.269531 146.726562 158.398438 C 146.089844 158.523438 145.476562 158.710938 144.878906 158.957031 C 144.28125 159.203125 143.710938 159.507812 143.175781 159.867188 C 142.636719 160.226562 142.140625 160.636719 141.683594 161.09375 C 141.226562 161.550781 140.816406 162.046875 140.457031 162.585938 C 140.097656 163.121094 139.796875 163.691406 139.546875 164.289062 C 139.300781 164.886719 139.113281 165.5 138.988281 166.136719 C 138.859375 166.769531 138.796875 167.410156 138.796875 168.054688 C 138.796875 168.703125 138.859375 169.34375 138.988281 169.976562 C 139.113281 170.613281 139.300781 171.226562 139.546875 171.824219 C 139.796875 172.421875 140.097656 172.988281 140.457031 173.527344 C 140.816406 174.066406 141.226562 174.5625 141.683594 175.019531 C 142.140625 175.476562 142.636719 175.886719 143.175781 176.246094 C 143.710938 176.605469 144.28125 176.90625 144.878906 177.15625 C 145.476562 177.402344 146.089844 177.589844 146.726562 177.714844 C 147.359375 177.839844 148 177.902344 148.644531 177.902344 C 149.292969 177.902344 149.933594 177.839844 150.566406 177.714844 C 151.203125 177.589844 151.816406 177.402344 152.414062 177.15625 C 153.011719 176.90625 153.578125 176.605469 154.117188 176.246094 C 154.65625 175.886719 155.152344 175.476562 155.609375 175.019531 C 156.066406 174.5625 156.476562 174.066406 156.835938 173.527344 C 157.195312 172.988281 157.496094 172.421875 157.746094 171.824219 C 157.992188 171.226562 158.179688 170.613281 158.304688 169.976562 C 158.429688 169.34375 158.496094 168.703125 158.496094 168.054688 C 158.496094 167.410156 158.429688 166.769531 158.304688 166.136719 C 158.179688 165.5 157.992188 164.886719 157.746094 164.289062 C 157.496094 163.691406 157.195312 163.121094 156.835938 162.585938 C 156.476562 162.046875 156.066406 161.550781 155.609375 161.09375 C 155.152344 160.636719 154.65625 160.226562 154.117188 159.867188 C 153.578125 159.507812 153.011719 159.207031 152.414062 158.957031 C 151.816406 158.710938 151.203125 158.523438 150.566406 158.398438 C 149.933594 158.269531 149.292969 158.207031 148.644531 158.207031 Z M 148.648438 172.449219 C 148.359375 172.449219 148.070312 172.421875 147.789062 172.367188 C 147.507812 172.308594 147.230469 172.226562 146.964844 172.117188 C 146.699219 172.003906 146.445312 171.871094 146.207031 171.710938 C 145.964844 171.550781 145.742188 171.367188 145.539062 171.164062 C 145.335938 170.960938 145.152344 170.738281 144.992188 170.496094 C 144.832031 170.257812 144.695312 170.003906 144.585938 169.738281 C 144.476562 169.472656 144.394531 169.195312 144.335938 168.914062 C 144.28125 168.628906 144.253906 168.34375 144.253906 168.054688 C 144.25 167.769531 144.28125 167.480469 144.335938 167.199219 C 144.390625 166.917969 144.476562 166.640625 144.585938 166.375 C 144.695312 166.109375 144.832031 165.855469 144.992188 165.613281 C 145.152344 165.375 145.335938 165.152344 145.539062 164.949219 C 145.742188 164.746094 145.964844 164.5625 146.203125 164.402344 C 146.445312 164.242188 146.699219 164.105469 146.964844 163.996094 C 147.230469 163.886719 147.503906 163.804688 147.789062 163.746094 C 148.070312 163.691406 148.355469 163.660156 148.644531 163.660156 C 148.933594 163.660156 149.21875 163.691406 149.503906 163.746094 C 149.785156 163.800781 150.0625 163.886719 150.328125 163.996094 C 150.59375 164.105469 150.847656 164.242188 151.085938 164.402344 C 151.328125 164.5625 151.550781 164.746094 151.753906 164.949219 C 151.957031 165.152344 152.140625 165.375 152.300781 165.613281 C 152.460938 165.855469 152.59375 166.109375 152.707031 166.375 C 152.816406 166.640625 152.898438 166.914062 152.957031 167.199219 C 153.011719 167.480469 153.039062 167.765625 153.039062 168.054688 C 153.039062 168.34375 153.011719 168.628906 152.957031 168.914062 C 152.898438 169.195312 152.816406 169.46875 152.703125 169.738281 C 152.59375 170.003906 152.457031 170.257812 152.296875 170.496094 C 152.136719 170.734375 151.957031 170.957031 151.753906 171.160156 C 151.546875 171.367188 151.328125 171.546875 151.085938 171.707031 C 150.847656 171.867188 150.59375 172.003906 150.328125 172.113281 C 150.0625 172.226562 149.785156 172.308594 149.503906 172.363281 C 149.21875 172.421875 148.933594 172.449219 148.648438 172.449219 Z M 234.308594 163.660156 C 233.660156 163.660156 233.019531 163.726562 232.386719 163.851562 C 231.75 163.976562 231.136719 164.164062 230.539062 164.410156 C 229.941406 164.660156 229.375 164.960938 228.835938 165.320312 C 228.296875 165.679688 227.800781 166.089844 227.34375 166.546875 C 226.886719 167.003906 226.476562 167.5 226.117188 168.039062 C 225.757812 168.574219 225.457031 169.144531 225.207031 169.742188 C 224.960938 170.339844 224.773438 170.953125 224.648438 171.589844 C 224.523438 172.222656 224.457031 172.863281 224.457031 173.511719 C 224.457031 174.15625 224.523438 174.796875 224.648438 175.429688 C 224.773438 176.066406 224.960938 176.679688 225.207031 177.277344 C 225.457031 177.875 225.757812 178.445312 226.117188 178.980469 C 226.476562 179.519531 226.886719 180.015625 227.34375 180.472656 C 227.800781 180.929688 228.296875 181.339844 228.835938 181.699219 C 229.375 182.058594 229.941406 182.359375 230.539062 182.609375 C 231.136719 182.855469 231.75 183.042969 232.386719 183.167969 C 233.019531 183.292969 233.660156 183.359375 234.308594 183.359375 C 234.953125 183.359375 235.59375 183.292969 236.226562 183.167969 C 236.863281 183.042969 237.476562 182.855469 238.074219 182.609375 C 238.671875 182.359375 239.242188 182.058594 239.777344 181.699219 C 240.316406 181.339844 240.8125 180.929688 241.269531 180.472656 C 241.726562 180.015625 242.136719 179.519531 242.496094 178.980469 C 242.855469 178.445312 243.15625 177.875 243.40625 177.277344 C 243.652344 176.679688 243.839844 176.066406 243.964844 175.429688 C 244.09375 174.796875 244.15625 174.15625 244.15625 173.511719 C 244.15625 172.863281 244.09375 172.222656 243.964844 171.589844 C 243.839844 170.953125 243.652344 170.339844 243.40625 169.742188 C 243.15625 169.144531 242.855469 168.574219 242.496094 168.039062 C 242.136719 167.5 241.726562 167.003906 241.269531 166.546875 C 240.8125 166.089844 240.316406 165.679688 239.777344 165.320312 C 239.242188 164.960938 238.671875 164.660156 238.074219 164.410156 C 237.476562 164.164062 236.863281 163.976562 236.226562 163.851562 C 235.59375 163.726562 234.953125 163.660156 234.308594 163.660156 Z M 234.308594 177.902344 C 234.019531 177.902344 233.734375 177.875 233.449219 177.820312 C 233.167969 177.761719 232.890625 177.679688 232.625 177.570312 C 232.359375 177.460938 232.105469 177.324219 231.867188 177.164062 C 231.625 177.003906 231.402344 176.820312 231.199219 176.617188 C 230.996094 176.414062 230.8125 176.191406 230.652344 175.953125 C 230.492188 175.710938 230.359375 175.457031 230.246094 175.191406 C 230.136719 174.925781 230.054688 174.652344 229.996094 174.367188 C 229.941406 174.085938 229.914062 173.796875 229.914062 173.511719 C 229.914062 173.222656 229.941406 172.9375 229.996094 172.652344 C 230.054688 172.371094 230.136719 172.09375 230.246094 171.828125 C 230.359375 171.5625 230.492188 171.308594 230.652344 171.070312 C 230.8125 170.828125 230.996094 170.605469 231.199219 170.402344 C 231.402344 170.199219 231.625 170.015625 231.867188 169.855469 C 232.105469 169.695312 232.359375 169.5625 232.625 169.449219 C 232.890625 169.339844 233.167969 169.257812 233.449219 169.199219 C 233.730469 169.144531 234.019531 169.117188 234.304688 169.117188 C 234.59375 169.117188 234.882812 169.144531 235.164062 169.199219 C 235.445312 169.257812 235.722656 169.339844 235.988281 169.449219 C 236.253906 169.558594 236.507812 169.695312 236.746094 169.855469 C 236.988281 170.015625 237.210938 170.199219 237.414062 170.402344 C 237.617188 170.605469 237.800781 170.828125 237.960938 171.066406 C 238.121094 171.308594 238.257812 171.5625 238.367188 171.828125 C 238.476562 172.09375 238.558594 172.371094 238.617188 172.652344 C 238.671875 172.933594 238.703125 173.222656 238.703125 173.507812 C 238.699219 173.796875 238.671875 174.082031 238.617188 174.367188 C 238.558594 174.648438 238.476562 174.925781 238.367188 175.191406 C 238.253906 175.457031 238.121094 175.710938 237.960938 175.949219 C 237.800781 176.191406 237.617188 176.410156 237.414062 176.617188 C 237.210938 176.820312 236.988281 177 236.746094 177.160156 C 236.507812 177.320312 236.253906 177.457031 235.988281 177.566406 C 235.722656 177.679688 235.445312 177.761719 235.164062 177.820312 C 234.882812 177.875 234.597656 177.902344 234.308594 177.902344 Z M 238.703125 220.085938 C 238.054688 220.085938 237.414062 220.152344 236.78125 220.277344 C 236.144531 220.402344 235.53125 220.589844 234.933594 220.835938 C 234.335938 221.085938 233.769531 221.386719 233.230469 221.746094 C 232.691406 222.105469 232.195312 222.515625 231.738281 222.972656 C 231.28125 223.429688 230.871094 223.925781 230.511719 224.464844 C 230.152344 225 229.851562 225.570312 229.601562 226.167969 C 229.355469 226.765625 229.167969 227.378906 229.042969 228.015625 C 228.917969 228.648438 228.851562 229.289062 228.851562 229.933594 C 228.851562 230.582031 228.917969 231.222656 229.042969 231.855469 C 229.167969 232.492188 229.355469 233.105469 229.601562 233.703125 C 229.851562 234.300781 230.152344 234.871094 230.511719 235.40625 C 230.871094 235.945312 231.28125 236.441406 231.738281 236.898438 C 232.195312 237.355469 232.691406 237.765625 233.230469 238.125 C 233.765625 238.484375 234.335938 238.785156 234.933594 239.035156 C 235.53125 239.28125 236.144531 239.46875 236.78125 239.59375 C 237.414062 239.71875 238.054688 239.785156 238.703125 239.785156 C 239.347656 239.785156 239.988281 239.71875 240.621094 239.59375 C 241.257812 239.46875 241.871094 239.28125 242.46875 239.035156 C 243.066406 238.785156 243.636719 238.484375 244.171875 238.125 C 244.710938 237.765625 245.207031 237.355469 245.664062 236.898438 C 246.121094 236.441406 246.53125 235.945312 246.890625 235.40625 C 247.25 234.871094 247.550781 234.300781 247.800781 233.703125 C 248.046875 233.105469 248.234375 232.492188 248.359375 231.855469 C 248.484375 231.222656 248.550781 230.582031 248.550781 229.933594 C 248.550781 229.289062 248.484375 228.648438 248.359375 228.015625 C 248.234375 227.378906 248.046875 226.765625 247.800781 226.167969 C 247.550781 225.570312 247.25 225 246.890625 224.464844 C 246.53125 223.925781 246.121094 223.429688 245.664062 222.972656 C 245.207031 222.515625 244.710938 222.105469 244.171875 221.746094 C 243.636719 221.386719 243.066406 221.085938 242.46875 220.835938 C 241.871094 220.589844 241.257812 220.402344 240.621094 220.277344 C 239.988281 220.152344 239.347656 220.085938 238.703125 220.085938 Z M 238.703125 234.328125 C 238.414062 234.328125 238.128906 234.300781 237.84375 234.246094 C 237.5625 234.1875 237.285156 234.105469 237.019531 233.996094 C 236.753906 233.886719 236.5 233.75 236.261719 233.589844 C 236.019531 233.429688 235.796875 233.246094 235.59375 233.042969 C 235.390625 232.839844 235.207031 232.617188 235.046875 232.378906 C 234.886719 232.136719 234.753906 231.882812 234.640625 231.617188 C 234.53125 231.351562 234.449219 231.074219 234.390625 230.792969 C 234.335938 230.511719 234.308594 230.222656 234.308594 229.9375 C 234.308594 229.648438 234.335938 229.363281 234.390625 229.078125 C 234.449219 228.796875 234.53125 228.519531 234.640625 228.253906 C 234.75 227.988281 234.886719 227.734375 235.046875 227.496094 C 235.207031 227.253906 235.390625 227.03125 235.59375 226.828125 C 235.796875 226.625 236.019531 226.441406 236.257812 226.28125 C 236.5 226.121094 236.753906 225.988281 237.019531 225.875 C 237.285156 225.765625 237.5625 225.683594 237.84375 225.625 C 238.125 225.570312 238.414062 225.542969 238.699219 225.542969 C 238.988281 225.542969 239.273438 225.570312 239.558594 225.625 C 239.839844 225.683594 240.117188 225.765625 240.382812 225.875 C 240.648438 225.984375 240.902344 226.121094 241.140625 226.28125 C 241.382812 226.441406 241.605469 226.625 241.808594 226.828125 C 242.011719 227.03125 242.195312 227.253906 242.355469 227.492188 C 242.515625 227.734375 242.648438 227.988281 242.761719 228.253906 C 242.871094 228.519531 242.953125 228.796875 243.011719 229.078125 C 243.066406 229.359375 243.09375 229.648438 243.09375 229.933594 C 243.09375 230.222656 243.066406 230.507812 243.011719 230.792969 C 242.953125 231.074219 242.871094 231.351562 242.757812 231.617188 C 242.648438 231.882812 242.515625 232.136719 242.355469 232.375 C 242.191406 232.613281 242.011719 232.835938 241.808594 233.042969 C 241.601562 233.246094 241.382812 233.425781 241.140625 233.585938 C 240.902344 233.746094 240.648438 233.882812 240.382812 233.992188 C 240.117188 234.105469 239.839844 234.1875 239.558594 234.246094 C 239.277344 234.300781 238.988281 234.328125 238.703125 234.328125 Z M 128.230469 246.308594 C 127.585938 246.308594 126.945312 246.371094 126.3125 246.5 C 125.675781 246.625 125.0625 246.8125 124.464844 247.058594 C 123.867188 247.304688 123.296875 247.609375 122.761719 247.96875 C 122.222656 248.328125 121.726562 248.738281 121.269531 249.195312 C 120.8125 249.652344 120.402344 250.148438 120.042969 250.6875 C 119.683594 251.222656 119.382812 251.792969 119.132812 252.390625 C 118.886719 252.984375 118.699219 253.601562 118.574219 254.238281 C 118.445312 254.871094 118.382812 255.511719 118.382812 256.15625 C 118.382812 256.804688 118.445312 257.445312 118.574219 258.078125 C 118.699219 258.714844 118.886719 259.328125 119.132812 259.925781 C 119.382812 260.523438 119.683594 261.089844 120.042969 261.628906 C 120.402344 262.167969 120.8125 262.664062 121.269531 263.121094 C 121.726562 263.578125 122.222656 263.988281 122.761719 264.347656 C 123.296875 264.707031 123.867188 265.007812 124.464844 265.257812 C 125.0625 265.503906 125.675781 265.691406 126.3125 265.816406 C 126.945312 265.941406 127.585938 266.003906 128.230469 266.003906 C 128.878906 266.003906 129.519531 265.941406 130.152344 265.816406 C 130.789062 265.691406 131.402344 265.503906 132 265.257812 C 132.597656 265.007812 133.164062 264.707031 133.703125 264.347656 C 134.242188 263.988281 134.738281 263.578125 135.195312 263.121094 C 135.652344 262.664062 136.0625 262.167969 136.421875 261.628906 C 136.78125 261.089844 137.082031 260.523438 137.332031 259.925781 C 137.578125 259.328125 137.765625 258.714844 137.890625 258.078125 C 138.015625 257.445312 138.082031 256.804688 138.082031 256.15625 C 138.082031 255.511719 138.015625 254.871094 137.890625 254.238281 C 137.765625 253.601562 137.578125 252.984375 137.332031 252.390625 C 137.082031 251.792969 136.78125 251.222656 136.421875 250.6875 C 136.0625 250.148438 135.652344 249.652344 135.195312 249.195312 C 134.738281 248.738281 134.242188 248.328125 133.703125 247.96875 C 133.164062 247.609375 132.597656 247.304688 132 247.058594 C 131.402344 246.8125 130.789062 246.625 130.152344 246.5 C 129.519531 246.371094 128.878906 246.308594 128.230469 246.308594 Z M 128.234375 260.550781 C 127.945312 260.550781 127.660156 260.523438 127.375 260.46875 C 127.09375 260.410156 126.816406 260.328125 126.550781 260.21875 C 126.285156 260.105469 126.03125 259.972656 125.792969 259.8125 C 125.550781 259.652344 125.328125 259.46875 125.125 259.265625 C 124.921875 259.0625 124.738281 258.839844 124.578125 258.597656 C 124.417969 258.359375 124.28125 258.105469 124.171875 257.839844 C 124.0625 257.574219 123.980469 257.296875 123.921875 257.015625 C 123.867188 256.730469 123.839844 256.445312 123.839844 256.15625 C 123.839844 255.871094 123.867188 255.582031 123.921875 255.300781 C 123.980469 255.019531 124.0625 254.742188 124.171875 254.476562 C 124.28125 254.210938 124.417969 253.957031 124.578125 253.714844 C 124.738281 253.476562 124.921875 253.253906 125.125 253.050781 C 125.328125 252.847656 125.550781 252.664062 125.789062 252.503906 C 126.03125 252.34375 126.285156 252.207031 126.550781 252.097656 C 126.816406 251.988281 127.089844 251.902344 127.375 251.847656 C 127.65625 251.792969 127.941406 251.761719 128.230469 251.761719 C 128.519531 251.761719 128.804688 251.792969 129.089844 251.847656 C 129.371094 251.902344 129.648438 251.988281 129.914062 252.097656 C 130.179688 252.207031 130.433594 252.34375 130.671875 252.503906 C 130.914062 252.664062 131.136719 252.847656 131.339844 253.050781 C 131.542969 253.253906 131.726562 253.476562 131.886719 253.714844 C 132.046875 253.957031 132.179688 254.210938 132.292969 254.476562 C 132.402344 254.742188 132.484375 255.015625 132.542969 255.300781 C 132.597656 255.582031 132.625 255.867188 132.625 256.15625 C 132.625 256.445312 132.597656 256.730469 132.542969 257.015625 C 132.484375 257.296875 132.402344 257.570312 132.289062 257.839844 C 132.179688 258.105469 132.042969 258.359375 131.882812 258.597656 C 131.722656 258.835938 131.542969 259.058594 131.339844 259.261719 C 131.132812 259.46875 130.914062 259.648438 130.671875 259.808594 C 130.433594 259.96875 130.179688 260.105469 129.914062 260.214844 C 129.648438 260.328125 129.371094 260.410156 129.089844 260.464844 C 128.804688 260.523438 128.519531 260.550781 128.234375 260.550781 Z M 197.347656 82.796875 C 196.703125 82.796875 196.0625 82.863281 195.425781 82.988281 C 194.792969 83.113281 194.175781 83.300781 193.578125 83.546875 C 192.980469 83.796875 192.414062 84.097656 191.875 84.457031 C 191.339844 84.816406 190.839844 85.226562 190.382812 85.683594 C 189.925781 86.140625 189.519531 86.636719 189.160156 87.175781 C 188.800781 87.714844 188.496094 88.28125 188.25 88.878906 C 188.003906 89.476562 187.816406 90.089844 187.6875 90.726562 C 187.5625 91.359375 187.5 92 187.5 92.648438 C 187.5 93.292969 187.5625 93.933594 187.6875 94.566406 C 187.816406 95.203125 188.003906 95.816406 188.25 96.414062 C 188.496094 97.011719 188.800781 97.582031 189.160156 98.117188 C 189.519531 98.65625 189.925781 99.152344 190.382812 99.609375 C 190.839844 100.066406 191.339844 100.476562 191.875 100.835938 C 192.414062 101.195312 192.980469 101.496094 193.578125 101.746094 C 194.175781 101.992188 194.792969 102.179688 195.425781 102.304688 C 196.0625 102.433594 196.703125 102.496094 197.347656 102.496094 C 197.996094 102.496094 198.636719 102.433594 199.269531 102.304688 C 199.902344 102.179688 200.519531 101.992188 201.117188 101.746094 C 201.714844 101.496094 202.28125 101.195312 202.820312 100.835938 C 203.355469 100.476562 203.855469 100.066406 204.3125 99.609375 C 204.769531 99.152344 205.175781 98.65625 205.535156 98.117188 C 205.894531 97.582031 206.199219 97.011719 206.445312 96.414062 C 206.695312 95.816406 206.878906 95.203125 207.007812 94.566406 C 207.132812 93.933594 207.195312 93.292969 207.195312 92.648438 C 207.195312 92 207.132812 91.359375 207.007812 90.726562 C 206.878906 90.089844 206.695312 89.476562 206.445312 88.878906 C 206.199219 88.28125 205.894531 87.714844 205.535156 87.175781 C 205.175781 86.636719 204.769531 86.140625 204.3125 85.683594 C 203.855469 85.226562 203.355469 84.816406 202.820312 84.457031 C 202.28125 84.097656 201.714844 83.796875 201.117188 83.546875 C 200.519531 83.300781 199.902344 83.113281 199.269531 82.988281 C 198.636719 82.863281 197.996094 82.796875 197.347656 82.796875 Z M 197.347656 97.042969 C 197.058594 97.042969 196.773438 97.011719 196.492188 96.957031 C 196.207031 96.902344 195.933594 96.816406 195.667969 96.707031 C 195.398438 96.597656 195.148438 96.460938 194.90625 96.300781 C 194.667969 96.140625 194.445312 95.957031 194.242188 95.753906 C 194.035156 95.550781 193.855469 95.328125 193.695312 95.089844 C 193.535156 94.847656 193.398438 94.59375 193.289062 94.328125 C 193.179688 94.0625 193.09375 93.789062 193.039062 93.503906 C 192.980469 93.222656 192.953125 92.9375 192.953125 92.648438 C 192.953125 92.359375 192.980469 92.074219 193.039062 91.789062 C 193.09375 91.507812 193.179688 91.230469 193.289062 90.964844 C 193.398438 90.699219 193.535156 90.445312 193.695312 90.207031 C 193.855469 89.964844 194.035156 89.742188 194.242188 89.539062 C 194.445312 89.335938 194.667969 89.152344 194.90625 88.992188 C 195.144531 88.832031 195.398438 88.699219 195.667969 88.585938 C 195.933594 88.476562 196.207031 88.394531 196.492188 88.335938 C 196.773438 88.28125 197.058594 88.253906 197.347656 88.253906 C 197.636719 88.253906 197.921875 88.28125 198.203125 88.335938 C 198.488281 88.394531 198.761719 88.476562 199.03125 88.585938 C 199.296875 88.699219 199.550781 88.832031 199.789062 88.992188 C 200.027344 89.152344 200.25 89.335938 200.453125 89.539062 C 200.660156 89.742188 200.839844 89.964844 201 90.207031 C 201.160156 90.445312 201.296875 90.699219 201.40625 90.964844 C 201.519531 91.230469 201.601562 91.507812 201.65625 91.789062 C 201.714844 92.074219 201.742188 92.359375 201.742188 92.648438 C 201.742188 92.933594 201.714844 93.222656 201.65625 93.503906 C 201.601562 93.785156 201.515625 94.0625 201.40625 94.328125 C 201.296875 94.59375 201.160156 94.847656 201 95.085938 C 200.839844 95.328125 200.65625 95.546875 200.453125 95.753906 C 200.25 95.957031 200.027344 96.136719 199.789062 96.300781 C 199.546875 96.460938 199.296875 96.59375 199.027344 96.707031 C 198.761719 96.816406 198.488281 96.898438 198.207031 96.957031 C 197.921875 97.011719 197.636719 97.039062 197.347656 97.042969 Z M 104.824219 139.570312 C 104.175781 139.570312 103.535156 139.632812 102.902344 139.761719 C 102.269531 139.886719 101.652344 140.074219 101.054688 140.320312 C 100.457031 140.570312 99.890625 140.871094 99.351562 141.230469 C 98.8125 141.589844 98.316406 142 97.859375 142.457031 C 97.402344 142.914062 96.992188 143.410156 96.632812 143.949219 C 96.277344 144.484375 95.972656 145.054688 95.722656 145.652344 C 95.476562 146.25 95.289062 146.863281 95.164062 147.5 C 95.039062 148.132812 94.976562 148.773438 94.976562 149.417969 C 94.976562 150.066406 95.039062 150.707031 95.164062 151.339844 C 95.289062 151.976562 95.476562 152.589844 95.722656 153.1875 C 95.972656 153.785156 96.277344 154.351562 96.632812 154.890625 C 96.992188 155.429688 97.402344 155.925781 97.859375 156.382812 C 98.316406 156.839844 98.8125 157.25 99.351562 157.609375 C 99.890625 157.96875 100.457031 158.269531 101.054688 158.519531 C 101.652344 158.765625 102.265625 158.953125 102.902344 159.078125 C 103.535156 159.203125 104.175781 159.265625 104.824219 159.265625 C 105.46875 159.265625 106.109375 159.203125 106.746094 159.078125 C 107.378906 158.953125 107.996094 158.765625 108.589844 158.519531 C 109.1875 158.269531 109.757812 157.96875 110.292969 157.609375 C 110.832031 157.25 111.328125 156.839844 111.785156 156.382812 C 112.242188 155.925781 112.652344 155.429688 113.011719 154.890625 C 113.371094 154.351562 113.675781 153.785156 113.921875 153.1875 C 114.167969 152.589844 114.355469 151.976562 114.480469 151.339844 C 114.609375 150.707031 114.671875 150.066406 114.671875 149.417969 C 114.671875 148.773438 114.609375 148.132812 114.480469 147.5 C 114.355469 146.863281 114.167969 146.25 113.921875 145.652344 C 113.675781 145.054688 113.371094 144.484375 113.011719 143.949219 C 112.652344 143.410156 112.242188 142.914062 111.785156 142.457031 C 111.328125 142 110.832031 141.589844 110.292969 141.230469 C 109.757812 140.871094 109.1875 140.570312 108.589844 140.320312 C 107.996094 140.074219 107.378906 139.886719 106.746094 139.761719 C 106.109375 139.632812 105.46875 139.570312 104.824219 139.570312 Z M 104.824219 153.8125 C 104.535156 153.8125 104.25 153.785156 103.964844 153.730469 C 103.683594 153.671875 103.410156 153.589844 103.140625 153.480469 C 102.875 153.367188 102.621094 153.234375 102.382812 153.074219 C 102.140625 152.914062 101.921875 152.730469 101.714844 152.527344 C 101.511719 152.324219 101.328125 152.101562 101.167969 151.859375 C 101.007812 151.621094 100.875 151.367188 100.761719 151.101562 C 100.652344 150.835938 100.570312 150.558594 100.511719 150.277344 C 100.457031 149.996094 100.429688 149.707031 100.429688 149.417969 C 100.429688 149.132812 100.457031 148.84375 100.511719 148.5625 C 100.570312 148.28125 100.652344 148.003906 100.761719 147.738281 C 100.875 147.472656 101.007812 147.21875 101.167969 146.980469 C 101.328125 146.738281 101.511719 146.515625 101.714844 146.3125 C 101.917969 146.109375 102.140625 145.925781 102.382812 145.765625 C 102.621094 145.605469 102.875 145.46875 103.140625 145.359375 C 103.40625 145.25 103.683594 145.167969 103.964844 145.109375 C 104.25 145.054688 104.535156 145.023438 104.824219 145.023438 C 105.109375 145.023438 105.398438 145.054688 105.679688 145.109375 C 105.964844 145.164062 106.238281 145.25 106.503906 145.359375 C 106.769531 145.46875 107.023438 145.605469 107.265625 145.765625 C 107.503906 145.925781 107.726562 146.109375 107.929688 146.3125 C 108.132812 146.515625 108.316406 146.738281 108.476562 146.976562 C 108.636719 147.21875 108.773438 147.472656 108.882812 147.738281 C 108.992188 148.003906 109.078125 148.277344 109.132812 148.5625 C 109.1875 148.84375 109.21875 149.128906 109.21875 149.417969 C 109.21875 149.707031 109.1875 149.992188 109.132812 150.277344 C 109.074219 150.558594 108.992188 150.832031 108.882812 151.101562 C 108.769531 151.367188 108.636719 151.621094 108.476562 151.859375 C 108.316406 152.097656 108.132812 152.320312 107.929688 152.523438 C 107.726562 152.730469 107.503906 152.910156 107.261719 153.070312 C 107.023438 153.230469 106.769531 153.367188 106.503906 153.476562 C 106.238281 153.589844 105.964844 153.671875 105.679688 153.726562 C 105.398438 153.785156 105.113281 153.8125 104.824219 153.8125 Z M 187.5 139.570312 C 186.851562 139.570312 186.214844 139.632812 185.578125 139.761719 C 184.945312 139.886719 184.328125 140.074219 183.730469 140.320312 C 183.132812 140.570312 182.566406 140.871094 182.027344 141.230469 C 181.492188 141.589844 180.992188 142 180.535156 142.457031 C 180.078125 142.914062 179.671875 143.410156 179.3125 143.949219 C 178.953125 144.484375 178.648438 145.054688 178.402344 145.652344 C 178.152344 146.25 177.96875 146.863281 177.839844 147.5 C 177.714844 148.132812 177.652344 148.773438 177.652344 149.417969 C 177.652344 150.066406 177.714844 150.707031 177.839844 151.339844 C 177.96875 151.976562 178.152344 152.589844 178.402344 153.1875 C 178.648438 153.785156 178.953125 154.351562 179.3125 154.890625 C 179.671875 155.429688 180.078125 155.925781 180.535156 156.382812 C 180.992188 156.839844 181.492188 157.25 182.027344 157.609375 C 182.566406 157.96875 183.132812 158.269531 183.730469 158.519531 C 184.328125 158.765625 184.945312 158.953125 185.578125 159.078125 C 186.214844 159.203125 186.851562 159.265625 187.5 159.265625 C 188.148438 159.265625 188.785156 159.203125 189.421875 159.078125 C 190.054688 158.953125 190.671875 158.765625 191.269531 158.519531 C 191.867188 158.269531 192.433594 157.96875 192.972656 157.609375 C 193.507812 157.25 194.007812 156.839844 194.464844 156.382812 C 194.921875 155.925781 195.328125 155.429688 195.6875 154.890625 C 196.046875 154.351562 196.351562 153.785156 196.597656 153.1875 C 196.847656 152.589844 197.03125 151.976562 197.160156 151.339844 C 197.285156 150.707031 197.347656 150.066406 197.347656 149.417969 C 197.347656 148.773438 197.285156 148.132812 197.160156 147.5 C 197.03125 146.863281 196.847656 146.25 196.597656 145.652344 C 196.351562 145.054688 196.046875 144.484375 195.6875 143.949219 C 195.328125 143.410156 194.921875 142.914062 194.464844 142.457031 C 194.007812 142 193.507812 141.589844 192.972656 141.230469 C 192.433594 140.871094 191.867188 140.570312 191.269531 140.320312 C 190.671875 140.074219 190.054688 139.886719 189.421875 139.761719 C 188.785156 139.632812 188.148438 139.570312 187.5 139.570312 Z M 187.5 153.8125 C 187.210938 153.8125 186.925781 153.785156 186.644531 153.730469 C 186.359375 153.671875 186.085938 153.589844 185.820312 153.480469 C 185.550781 153.367188 185.296875 153.234375 185.058594 153.074219 C 184.820312 152.914062 184.597656 152.730469 184.394531 152.527344 C 184.1875 152.324219 184.007812 152.101562 183.847656 151.859375 C 183.6875 151.621094 183.550781 151.367188 183.441406 151.101562 C 183.328125 150.835938 183.246094 150.558594 183.191406 150.277344 C 183.132812 149.996094 183.105469 149.707031 183.105469 149.417969 C 183.105469 149.132812 183.132812 148.84375 183.191406 148.5625 C 183.246094 148.28125 183.328125 148.003906 183.441406 147.738281 C 183.550781 147.472656 183.6875 147.21875 183.847656 146.976562 C 184.007812 146.738281 184.1875 146.515625 184.390625 146.3125 C 184.597656 146.109375 184.820312 145.925781 185.058594 145.765625 C 185.296875 145.605469 185.550781 145.46875 185.816406 145.359375 C 186.085938 145.25 186.359375 145.167969 186.640625 145.109375 C 186.925781 145.054688 187.210938 145.023438 187.5 145.023438 C 187.789062 145.023438 188.074219 145.054688 188.355469 145.109375 C 188.640625 145.164062 188.914062 145.25 189.179688 145.359375 C 189.449219 145.46875 189.699219 145.605469 189.941406 145.765625 C 190.179688 145.925781 190.402344 146.109375 190.605469 146.3125 C 190.8125 146.515625 190.992188 146.738281 191.152344 146.976562 C 191.3125 147.21875 191.449219 147.472656 191.558594 147.738281 C 191.671875 148.003906 191.753906 148.277344 191.808594 148.5625 C 191.867188 148.84375 191.894531 149.128906 191.894531 149.417969 C 191.894531 149.707031 191.867188 149.992188 191.808594 150.277344 C 191.753906 150.558594 191.667969 150.832031 191.558594 151.101562 C 191.449219 151.367188 191.3125 151.621094 191.152344 151.859375 C 190.992188 152.097656 190.808594 152.320312 190.605469 152.523438 C 190.402344 152.730469 190.179688 152.910156 189.941406 153.070312 C 189.699219 153.230469 189.449219 153.367188 189.179688 153.476562 C 188.914062 153.589844 188.640625 153.671875 188.355469 153.726562 C 188.074219 153.785156 187.789062 153.8125 187.5 153.8125 Z M 147.582031 198.890625 C 146.933594 198.890625 146.292969 198.953125 145.660156 199.078125 C 145.027344 199.203125 144.410156 199.390625 143.8125 199.640625 C 143.214844 199.886719 142.648438 200.191406 142.109375 200.550781 C 141.570312 200.910156 141.074219 201.316406 140.617188 201.773438 C 140.160156 202.230469 139.75 202.730469 139.390625 203.265625 C 139.035156 203.804688 138.730469 204.371094 138.484375 204.96875 C 138.234375 205.566406 138.046875 206.183594 137.921875 206.816406 C 137.796875 207.449219 137.734375 208.089844 137.734375 208.738281 C 137.734375 209.382812 137.796875 210.023438 137.921875 210.660156 C 138.046875 211.292969 138.234375 211.910156 138.484375 212.507812 C 138.730469 213.105469 139.035156 213.671875 139.390625 214.210938 C 139.75 214.746094 140.160156 215.246094 140.617188 215.703125 C 141.074219 216.160156 141.570312 216.566406 142.109375 216.925781 C 142.648438 217.285156 143.214844 217.589844 143.8125 217.835938 C 144.410156 218.082031 145.027344 218.269531 145.660156 218.398438 C 146.292969 218.523438 146.933594 218.585938 147.582031 218.585938 C 148.226562 218.585938 148.867188 218.523438 149.503906 218.398438 C 150.136719 218.269531 150.753906 218.082031 151.351562 217.835938 C 151.945312 217.589844 152.515625 217.285156 153.050781 216.925781 C 153.589844 216.566406 154.085938 216.160156 154.542969 215.703125 C 155 215.246094 155.410156 214.746094 155.769531 214.210938 C 156.128906 213.671875 156.433594 213.105469 156.679688 212.507812 C 156.925781 211.910156 157.113281 211.292969 157.238281 210.660156 C 157.367188 210.023438 157.429688 209.382812 157.429688 208.738281 C 157.429688 208.089844 157.367188 207.449219 157.238281 206.816406 C 157.113281 206.183594 156.925781 205.566406 156.679688 204.96875 C 156.433594 204.371094 156.128906 203.804688 155.769531 203.265625 C 155.410156 202.730469 155 202.230469 154.542969 201.773438 C 154.085938 201.316406 153.589844 200.910156 153.050781 200.550781 C 152.515625 200.191406 151.945312 199.886719 151.351562 199.640625 C 150.753906 199.390625 150.136719 199.203125 149.503906 199.078125 C 148.867188 198.953125 148.226562 198.890625 147.582031 198.890625 Z M 147.582031 213.132812 C 147.292969 213.132812 147.007812 213.105469 146.722656 213.046875 C 146.441406 212.992188 146.167969 212.90625 145.898438 212.796875 C 145.632812 212.6875 145.378906 212.550781 145.140625 212.390625 C 144.898438 212.230469 144.679688 212.050781 144.472656 211.84375 C 144.269531 211.640625 144.085938 211.417969 143.925781 211.179688 C 143.765625 210.941406 143.632812 210.6875 143.519531 210.417969 C 143.410156 210.152344 143.328125 209.878906 143.269531 209.59375 C 143.214844 209.3125 143.1875 209.027344 143.1875 208.738281 C 143.1875 208.449219 143.214844 208.164062 143.269531 207.882812 C 143.328125 207.597656 143.410156 207.324219 143.519531 207.054688 C 143.632812 206.789062 143.765625 206.535156 143.925781 206.296875 C 144.085938 206.058594 144.269531 205.835938 144.472656 205.632812 C 144.675781 205.425781 144.898438 205.246094 145.140625 205.085938 C 145.378906 204.925781 145.632812 204.789062 145.898438 204.679688 C 146.164062 204.566406 146.441406 204.484375 146.722656 204.429688 C 147.007812 204.371094 147.292969 204.34375 147.582031 204.34375 C 147.867188 204.34375 148.15625 204.371094 148.4375 204.429688 C 148.722656 204.484375 148.996094 204.566406 149.261719 204.679688 C 149.527344 204.789062 149.78125 204.921875 150.023438 205.085938 C 150.261719 205.246094 150.484375 205.425781 150.6875 205.628906 C 150.890625 205.835938 151.074219 206.054688 151.234375 206.296875 C 151.394531 206.535156 151.53125 206.789062 151.640625 207.054688 C 151.75 207.324219 151.835938 207.597656 151.890625 207.878906 C 151.945312 208.164062 151.976562 208.449219 151.976562 208.738281 C 151.976562 209.027344 151.945312 209.3125 151.890625 209.59375 C 151.832031 209.878906 151.75 210.152344 151.640625 210.417969 C 151.527344 210.683594 151.394531 210.9375 151.234375 211.179688 C 151.074219 211.417969 150.890625 211.640625 150.6875 211.84375 C 150.484375 212.046875 150.261719 212.230469 150.019531 212.390625 C 149.78125 212.550781 149.527344 212.6875 149.261719 212.796875 C 148.996094 212.90625 148.722656 212.992188 148.4375 213.046875 C 148.15625 213.101562 147.871094 213.132812 147.582031 213.132812 Z M 147.582031 213.132812 " fill-opacity="1" fill-rule="nonzero"/></svg>