<svg xmlns="http://www.w3.org/2000/svg" xmlns:xlink="http://www.w3.org/1999/xlink" width="500" zoomAndPan="magnify" viewBox="0 0 375 374.999991" height="500" preserveAspectRatio="xMidYMid meet" version="1.0"><defs><clipPath id="62df06bc57"><path d="M 41.921875 41.921875 L 332.921875 41.921875 L 332.921875 332.921875 L 41.921875 332.921875 Z M 41.921875 41.921875 " clip-rule="nonzero"/></clipPath></defs><g clip-path="url(#62df06bc57)"><path fill="#ffc54c" d="M 332.921875 187.421875 C 332.921875 189.804688 332.863281 192.183594 332.746094 194.5625 C 332.628906 196.941406 332.457031 199.316406 332.222656 201.683594 C 331.988281 204.054688 331.699219 206.417969 331.347656 208.773438 C 331 211.128906 330.589844 213.472656 330.128906 215.808594 C 329.664062 218.144531 329.140625 220.464844 328.5625 222.777344 C 327.984375 225.085938 327.347656 227.378906 326.65625 229.660156 C 325.964844 231.9375 325.21875 234.199219 324.417969 236.441406 C 323.617188 238.683594 322.757812 240.902344 321.847656 243.101562 C 320.9375 245.304688 319.972656 247.480469 318.953125 249.632812 C 317.933594 251.785156 316.863281 253.910156 315.742188 256.011719 C 314.621094 258.109375 313.445312 260.183594 312.222656 262.226562 C 311 264.265625 309.722656 266.277344 308.402344 268.257812 C 307.078125 270.238281 305.707031 272.183594 304.289062 274.097656 C 302.871094 276.007812 301.40625 277.886719 299.894531 279.726562 C 298.386719 281.566406 296.832031 283.371094 295.230469 285.132812 C 293.632812 286.898438 291.992188 288.625 290.308594 290.308594 C 288.625 291.992188 286.898438 293.632812 285.132812 295.230469 C 283.371094 296.832031 281.566406 298.386719 279.726562 299.894531 C 277.886719 301.40625 276.007812 302.871094 274.097656 304.289062 C 272.183594 305.707031 270.238281 307.078125 268.257812 308.402344 C 266.277344 309.722656 264.265625 311 262.226562 312.222656 C 260.183594 313.445312 258.109375 314.621094 256.011719 315.742188 C 253.910156 316.863281 251.785156 317.933594 249.632812 318.953125 C 247.480469 319.972656 245.304688 320.9375 243.101562 321.847656 C 240.902344 322.757812 238.683594 323.617188 236.441406 324.417969 C 234.199219 325.21875 231.9375 325.964844 229.660156 326.65625 C 227.378906 327.347656 225.085938 327.984375 222.777344 328.5625 C 220.464844 329.140625 218.144531 329.664062 215.808594 330.128906 C 213.472656 330.589844 211.128906 331 208.773438 331.347656 C 206.417969 331.699219 204.054688 331.988281 201.683594 332.222656 C 199.316406 332.457031 196.941406 332.628906 194.5625 332.746094 C 192.183594 332.863281 189.804688 332.921875 187.421875 332.921875 C 185.042969 332.921875 182.660156 332.863281 180.285156 332.746094 C 177.90625 332.628906 175.53125 332.457031 173.160156 332.222656 C 170.792969 331.988281 168.429688 331.699219 166.074219 331.347656 C 163.71875 331 161.371094 330.589844 159.039062 330.128906 C 156.703125 329.664062 154.378906 329.140625 152.070312 328.5625 C 149.757812 327.984375 147.464844 327.347656 145.1875 326.65625 C 142.90625 325.964844 140.648438 325.21875 138.40625 324.417969 C 136.164062 323.617188 133.941406 322.757812 131.742188 321.847656 C 129.542969 320.9375 127.367188 319.972656 125.214844 318.953125 C 123.0625 317.933594 120.933594 316.863281 118.835938 315.742188 C 116.734375 314.621094 114.664062 313.445312 112.621094 312.222656 C 110.578125 311 108.566406 309.722656 106.585938 308.402344 C 104.609375 307.078125 102.660156 305.707031 100.75 304.289062 C 98.835938 302.871094 96.960938 301.40625 95.117188 299.894531 C 93.277344 298.386719 91.476562 296.832031 89.710938 295.230469 C 87.945312 293.632812 86.222656 291.992188 84.539062 290.308594 C 82.855469 288.625 81.214844 286.898438 79.613281 285.132812 C 78.015625 283.371094 76.460938 281.566406 74.949219 279.726562 C 73.4375 277.886719 71.976562 276.007812 70.554688 274.097656 C 69.136719 272.183594 67.765625 270.238281 66.445312 268.257812 C 65.121094 266.277344 63.847656 264.265625 62.625 262.226562 C 61.398438 260.183594 60.226562 258.109375 59.101562 256.011719 C 57.980469 253.910156 56.910156 251.785156 55.890625 249.632812 C 54.875 247.480469 53.910156 245.304688 53 243.101562 C 52.085938 240.902344 51.230469 238.683594 50.429688 236.441406 C 49.625 234.199219 48.878906 231.9375 48.1875 229.660156 C 47.496094 227.378906 46.863281 225.085938 46.285156 222.777344 C 45.703125 220.464844 45.183594 218.144531 44.71875 215.808594 C 44.253906 213.472656 43.847656 211.128906 43.496094 208.773438 C 43.148438 206.417969 42.855469 204.054688 42.625 201.683594 C 42.390625 199.316406 42.214844 196.941406 42.097656 194.5625 C 41.980469 192.183594 41.921875 189.804688 41.921875 187.421875 C 41.921875 185.042969 41.980469 182.660156 42.097656 180.285156 C 42.214844 177.90625 42.390625 175.53125 42.625 173.160156 C 42.855469 170.792969 43.148438 168.429688 43.496094 166.074219 C 43.847656 163.71875 44.253906 161.371094 44.71875 159.039062 C 45.183594 156.703125 45.703125 154.378906 46.285156 152.070312 C 46.863281 149.757812 47.496094 147.464844 48.1875 145.1875 C 48.878906 142.90625 49.625 140.648438 50.429688 138.40625 C 51.230469 136.164062 52.085938 133.941406 53 131.742188 C 53.910156 129.542969 54.875 127.367188 55.890625 125.214844 C 56.910156 123.0625 57.980469 120.933594 59.101562 118.835938 C 60.226562 116.734375 61.398438 114.664062 62.625 112.621094 C 63.847656 110.578125 65.121094 108.566406 66.445312 106.585938 C 67.765625 104.609375 69.136719 102.660156 70.554688 100.75 C 71.976562 98.835938 73.4375 96.960938 74.949219 95.117188 C 76.460938 93.277344 78.015625 91.476562 79.613281 89.710938 C 81.214844 87.945312 82.855469 86.222656 84.539062 84.539062 C 86.222656 82.855469 87.945312 81.214844 89.710938 79.613281 C 91.476562 78.015625 93.277344 76.460938 95.117188 74.949219 C 96.960938 73.4375 98.835938 71.976562 100.75 70.554688 C 102.660156 69.136719 104.609375 67.765625 106.585938 66.445312 C 108.566406 65.121094 110.578125 63.847656 112.621094 62.625 C 114.664062 61.398438 116.734375 60.226562 118.835938 59.101562 C 120.933594 57.980469 123.0625 56.910156 125.214844 55.890625 C 127.367188 54.875 129.542969 53.910156 131.742188 53 C 133.941406 52.085938 136.164062 51.230469 138.40625 50.429688 C 140.648438 49.625 142.90625 48.878906 145.1875 48.1875 C 147.464844 47.496094 149.757812 46.863281 152.070312 46.285156 C 154.378906 45.703125 156.703125 45.183594 159.039062 44.71875 C 161.371094 44.253906 163.71875 43.847656 166.074219 43.496094 C 168.429688 43.148438 170.792969 42.855469 173.160156 42.625 C 175.53125 42.390625 177.90625 42.214844 180.285156 42.097656 C 182.660156 41.980469 185.042969 41.921875 187.421875 41.921875 C 189.804688 41.921875 192.183594 41.980469 194.5625 42.097656 C 196.941406 42.214844 199.316406 42.390625 201.683594 42.625 C 204.054688 42.855469 206.417969 43.148438 208.773438 43.496094 C 211.128906 43.847656 213.472656 44.253906 215.808594 44.71875 C 218.144531 45.183594 220.464844 45.703125 222.777344 46.285156 C 225.085938 46.863281 227.378906 47.496094 229.660156 48.1875 C 231.9375 48.878906 234.199219 49.625 236.441406 50.429688 C 238.683594 51.230469 240.902344 52.085938 243.101562 53 C 245.304688 53.910156 247.480469 54.875 249.632812 55.890625 C 251.785156 56.910156 253.910156 57.980469 256.011719 59.101562 C 258.109375 60.226562 260.183594 61.398438 262.226562 62.625 C 264.265625 63.847656 266.277344 65.121094 268.257812 66.445312 C 270.238281 67.765625 272.183594 69.136719 274.097656 70.554688 C 276.007812 71.976562 277.886719 73.4375 279.726562 74.949219 C 281.566406 76.460938 283.371094 78.015625 285.132812 79.613281 C 286.898438 81.214844 288.625 82.855469 290.308594 84.539062 C 291.992188 86.222656 293.632812 87.945312 295.230469 89.710938 C 296.832031 91.476562 298.386719 93.277344 299.894531 95.117188 C 301.40625 96.960938 302.871094 98.835938 304.289062 100.75 C 305.707031 102.660156 307.078125 104.609375 308.402344 106.585938 C 309.722656 108.566406 311 110.578125 312.222656 112.621094 C 313.445312 114.664062 314.621094 116.734375 315.742188 118.835938 C 316.863281 120.933594 317.933594 123.0625 318.953125 125.214844 C 319.972656 127.367188 320.9375 129.542969 321.847656 131.742188 C 322.757812 133.941406 323.617188 136.164062 324.417969 138.40625 C 325.21875 140.648438 325.964844 142.90625 326.65625 145.1875 C 327.347656 147.464844 327.984375 149.757812 328.5625 152.070312 C 329.140625 154.378906 329.664062 156.703125 330.128906 159.039062 C 330.589844 161.371094 331 163.71875 331.347656 166.074219 C 331.699219 168.429688 331.988281 170.792969 332.222656 173.160156 C 332.457031 175.53125 332.628906 177.90625 332.746094 180.285156 C 332.863281 182.660156 332.921875 185.042969 332.921875 187.421875 Z M 332.921875 187.421875 " fill-opacity="1" fill-rule="nonzero"/></g><path fill="#eb3323" d="M 310.582031 210.003906 L 312.390625 206.867188 C 313.238281 205.398438 313.988281 203.875 314.640625 202.304688 C 315.289062 200.734375 315.835938 199.128906 316.273438 197.488281 C 316.714844 195.847656 317.046875 194.183594 317.265625 192.5 C 317.488281 190.8125 317.601562 189.121094 317.601562 187.421875 C 317.601562 185.722656 317.488281 184.03125 317.265625 182.347656 C 317.046875 180.660156 316.714844 179 316.273438 177.355469 C 315.835938 175.714844 315.289062 174.109375 314.640625 172.539062 C 313.988281 170.96875 313.238281 169.449219 312.390625 167.976562 L 310.582031 164.84375 C 308.875 161.886719 307.578125 158.761719 306.695312 155.464844 C 305.8125 152.167969 305.371094 148.8125 305.371094 145.398438 L 305.371094 141.78125 C 305.371094 140.082031 305.257812 138.386719 305.039062 136.703125 C 304.816406 135.019531 304.484375 133.355469 304.042969 131.714844 C 303.605469 130.074219 303.058594 128.46875 302.410156 126.898438 C 301.757812 125.328125 301.007812 123.804688 300.160156 122.335938 C 299.308594 120.863281 298.367188 119.453125 297.332031 118.105469 C 296.300781 116.757812 295.179688 115.480469 293.980469 114.28125 C 292.777344 113.078125 291.503906 111.960938 290.15625 110.925781 C 288.804688 109.890625 287.394531 108.949219 285.925781 108.097656 L 282.789062 106.289062 C 279.835938 104.582031 277.148438 102.523438 274.734375 100.109375 C 272.324219 97.695312 270.261719 95.011719 268.554688 92.054688 L 266.746094 88.921875 C 265.898438 87.449219 264.953125 86.039062 263.921875 84.691406 C 262.886719 83.34375 261.769531 82.066406 260.566406 80.867188 C 259.363281 79.664062 258.089844 78.546875 256.742188 77.511719 C 255.394531 76.476562 253.984375 75.535156 252.511719 74.6875 C 251.039062 73.835938 249.519531 73.085938 247.949219 72.4375 C 246.378906 71.785156 244.773438 71.242188 243.132812 70.800781 C 241.492188 70.359375 239.828125 70.03125 238.140625 69.808594 C 236.457031 69.585938 234.765625 69.476562 233.066406 69.476562 L 229.449219 69.476562 C 226.035156 69.476562 222.679688 69.035156 219.382812 68.152344 C 216.085938 67.265625 212.957031 65.972656 210.003906 64.265625 L 206.867188 62.457031 C 205.398438 61.605469 203.875 60.855469 202.304688 60.207031 C 200.734375 59.554688 199.128906 59.011719 197.488281 58.570312 C 195.847656 58.132812 194.183594 57.800781 192.5 57.578125 C 190.8125 57.355469 189.121094 57.246094 187.421875 57.246094 C 185.722656 57.246094 184.03125 57.355469 182.347656 57.578125 C 180.660156 57.800781 179 58.132812 177.355469 58.570312 C 175.714844 59.011719 174.109375 59.554688 172.539062 60.207031 C 170.96875 60.855469 169.449219 61.605469 167.976562 62.457031 L 164.84375 64.265625 C 161.886719 65.972656 158.761719 67.265625 155.464844 68.152344 C 152.167969 69.035156 148.8125 69.476562 145.398438 69.476562 L 141.78125 69.476562 C 140.082031 69.476562 138.386719 69.585938 136.703125 69.808594 C 135.019531 70.03125 133.355469 70.359375 131.714844 70.800781 C 130.074219 71.242188 128.464844 71.785156 126.898438 72.4375 C 125.328125 73.085938 123.804688 73.835938 122.335938 74.6875 C 120.863281 75.535156 119.453125 76.476562 118.105469 77.511719 C 116.757812 78.546875 115.480469 79.664062 114.28125 80.867188 C 113.078125 82.066406 111.960938 83.34375 110.925781 84.691406 C 109.890625 86.039062 108.949219 87.449219 108.097656 88.921875 L 106.289062 92.054688 C 104.582031 95.011719 102.523438 97.695312 100.109375 100.109375 C 97.695312 102.523438 95.011719 104.582031 92.054688 106.289062 L 88.921875 108.097656 C 87.449219 108.949219 86.039062 109.890625 84.691406 110.925781 C 83.34375 111.960938 82.066406 113.078125 80.867188 114.28125 C 79.664062 115.480469 78.546875 116.757812 77.511719 118.105469 C 76.476562 119.453125 75.535156 120.863281 74.6875 122.335938 C 73.835938 123.804688 73.085938 125.328125 72.4375 126.898438 C 71.785156 128.46875 71.242188 130.074219 70.800781 131.714844 C 70.359375 133.355469 70.03125 135.019531 69.808594 136.703125 C 69.585938 138.386719 69.476562 140.082031 69.476562 141.78125 L 69.476562 145.398438 C 69.476562 148.8125 69.035156 152.167969 68.152344 155.464844 C 67.265625 158.761719 65.972656 161.886719 64.265625 164.84375 L 62.457031 167.976562 C 61.605469 169.449219 60.855469 170.96875 60.207031 172.539062 C 59.554688 174.109375 59.011719 175.714844 58.570312 177.355469 C 58.132812 179 57.800781 180.660156 57.578125 182.347656 C 57.355469 184.03125 57.246094 185.722656 57.246094 187.421875 C 57.246094 189.121094 57.355469 190.8125 57.578125 192.5 C 57.800781 194.183594 58.132812 195.847656 58.570312 197.488281 C 59.011719 199.128906 59.554688 200.734375 60.207031 202.304688 C 60.855469 203.875 61.605469 205.398438 62.457031 206.867188 L 64.265625 210.003906 C 65.972656 212.957031 67.265625 216.085938 68.152344 219.382812 C 69.035156 222.679688 69.476562 226.035156 69.476562 229.449219 L 69.476562 233.066406 C 69.476562 234.765625 69.585938 236.457031 69.808594 238.140625 C 70.03125 239.828125 70.359375 241.492188 70.800781 243.132812 C 71.242188 244.773438 71.785156 246.378906 72.4375 247.949219 C 73.085938 249.519531 73.835938 251.039062 74.6875 252.511719 C 75.535156 253.984375 76.476562 255.394531 77.511719 256.742188 C 78.546875 258.089844 79.664062 259.363281 80.867188 260.566406 C 82.066406 261.769531 83.34375 262.886719 84.691406 263.921875 C 86.039062 264.953125 87.449219 265.898438 88.921875 266.746094 L 92.054688 268.554688 C 95.011719 270.261719 97.695312 272.324219 100.109375 274.734375 C 102.523438 277.148438 104.582031 279.835938 106.289062 282.789062 L 108.097656 285.925781 C 108.949219 287.394531 109.890625 288.804688 110.925781 290.15625 C 111.960938 291.503906 113.078125 292.777344 114.28125 293.980469 C 115.480469 295.179688 116.757812 296.300781 118.105469 297.332031 C 119.453125 298.367188 120.863281 299.308594 122.335938 300.160156 C 123.804688 301.007812 125.328125 301.757812 126.898438 302.410156 C 128.464844 303.058594 130.074219 303.605469 131.714844 304.046875 C 133.355469 304.484375 135.019531 304.816406 136.703125 305.039062 C 138.386719 305.257812 140.082031 305.371094 141.78125 305.371094 L 145.398438 305.371094 C 148.8125 305.371094 152.167969 305.8125 155.464844 306.695312 C 158.761719 307.578125 161.886719 308.875 164.84375 310.582031 L 167.976562 312.390625 C 169.449219 313.238281 170.96875 313.988281 172.539062 314.640625 C 174.109375 315.289062 175.714844 315.835938 177.355469 316.273438 C 179 316.714844 180.660156 317.046875 182.347656 317.265625 C 184.03125 317.488281 185.722656 317.601562 187.421875 317.601562 C 189.121094 317.601562 190.8125 317.488281 192.5 317.265625 C 194.183594 317.046875 195.847656 316.714844 197.488281 316.273438 C 199.128906 315.835938 200.734375 315.289062 202.304688 314.640625 C 203.875 313.988281 205.398438 313.238281 206.867188 312.390625 L 210.003906 310.582031 C 212.957031 308.875 216.085938 307.578125 219.382812 306.695312 C 222.679688 305.8125 226.035156 305.371094 229.449219 305.371094 L 233.066406 305.371094 C 234.765625 305.371094 236.457031 305.257812 238.140625 305.039062 C 239.828125 304.816406 241.492188 304.484375 243.132812 304.046875 C 244.773438 303.605469 246.378906 303.058594 247.949219 302.410156 C 249.519531 301.757812 251.039062 301.007812 252.511719 300.160156 C 253.984375 299.308594 255.394531 298.367188 256.742188 297.332031 C 258.089844 296.300781 259.363281 295.179688 260.566406 293.980469 C 261.769531 292.777344 262.886719 291.503906 263.921875 290.15625 C 264.953125 288.804688 265.898438 287.394531 266.746094 285.925781 L 268.554688 282.789062 C 270.261719 279.835938 272.324219 277.148438 274.734375 274.738281 C 277.148438 272.324219 279.835938 270.261719 282.789062 268.554688 L 285.925781 266.746094 C 287.394531 265.898438 288.804688 264.953125 290.15625 263.921875 C 291.503906 262.886719 292.777344 261.769531 293.980469 260.566406 C 295.179688 259.363281 296.300781 258.089844 297.332031 256.742188 C 298.367188 255.394531 299.308594 253.984375 300.160156 252.511719 C 301.007812 251.039062 301.757812 249.519531 302.410156 247.949219 C 303.058594 246.378906 303.605469 244.773438 304.042969 243.132812 C 304.484375 241.492188 304.816406 239.828125 305.039062 238.140625 C 305.257812 236.457031 305.371094 234.765625 305.371094 233.066406 L 305.371094 229.449219 C 305.371094 226.035156 305.8125 222.679688 306.695312 219.382812 C 307.578125 216.085938 308.875 212.957031 310.582031 210.003906 Z M 310.582031 210.003906 " fill-opacity="1" fill-rule="nonzero"/><path fill="#fcef9e" d="M 162.976562 214.851562 C 171.363281 214.726562 175.777344 219.457031 182.546875 221.207031 C 187.75 222.550781 189.40625 224.054688 194.925781 223.183594 C 202.359375 222.011719 206.449219 220.242188 215.746094 219.5625 C 224.3125 218.933594 237.148438 220.695312 237.742188 232.230469 C 238.332031 243.761719 234.667969 251.597656 229.683594 260.992188 C 227.390625 265.304688 224.75 269.410156 221.617188 272.53125 C 218.484375 275.648438 213.9375 278.628906 210.613281 279.816406 C 199.003906 283.953125 189.550781 283.945312 177.671875 282.011719 C 167.277344 280.320312 156.273438 278.253906 147.171875 271.914062 C 139.886719 266.839844 134.414062 259.34375 133.507812 250.101562 C 131.632812 230.949219 144.140625 215.132812 162.976562 214.851562 Z M 287.304688 163.070312 C 284.824219 153.839844 278.9375 151.714844 273.566406 145.757812 C 269.4375 141.175781 265.34375 140 261.617188 134.800781 C 256.601562 127.804688 253.804688 122.121094 248.265625 113.960938 C 243.15625 106.441406 236.414062 99.386719 225 101.988281 C 215.023438 104.261719 208.46875 110.34375 202.84375 119.238281 C 200.261719 123.320312 198.46875 130.445312 197.71875 134.753906 C 196.96875 139.0625 197.761719 147.40625 198.707031 150.535156 C 202.007812 161.457031 202.875 164.9375 210.039062 174.363281 C 216.300781 182.605469 224.542969 192.214844 234.132812 199.089844 C 241.816406 204.601562 252.722656 207.925781 263.320312 205.5625 C 285.273438 200.667969 292.875 183.800781 287.304688 163.070312 Z M 168.246094 110.8125 C 161.117188 104.378906 149.230469 106.207031 140.980469 108.769531 C 125.832031 113.472656 111.347656 122.945312 103.800781 137.425781 C 100.230469 144.273438 98.355469 151.925781 97.003906 159.578125 C 95.15625 170.058594 94.246094 180.894531 96.308594 191.304688 C 97.210938 195.847656 98.746094 200.398438 101.746094 203.816406 C 105.117188 207.660156 110 209.6875 114.867188 210.917969 C 120.296875 212.285156 126.300781 212.734375 131.253906 209.996094 C 139.003906 205.707031 141.363281 195.613281 144.753906 187.1875 C 145.921875 184.273438 147.300781 181.457031 148.882812 178.746094 C 150.46875 176.035156 152.242188 173.453125 154.210938 171 C 156.175781 168.550781 158.308594 166.257812 160.613281 164.125 C 162.917969 161.988281 165.363281 160.035156 167.957031 158.257812 C 173.148438 154.75 179.476562 151.164062 180.4375 144.8125 C 180.644531 142.902344 180.546875 141.011719 180.140625 139.132812 C 178.574219 130.179688 175.09375 116.992188 168.246094 110.8125 Z M 168.246094 110.8125 " fill-opacity="1" fill-rule="nonzero"/><path fill="#8eb327" d="M 144.398438 117.632812 C 145.125 94.03125 168.285156 95.171875 168.285156 95.171875 C 167.535156 119.613281 144.398438 117.632812 144.398438 117.632812 Z M 170.378906 172.003906 C 170.378906 172.003906 156.488281 153.4375 137.84375 167.925781 C 137.84375 167.925781 151.070312 187.011719 170.378906 172.003906 Z M 252.574219 125.980469 C 252.574219 125.980469 229.484375 123.824219 227.722656 147.371094 C 227.722656 147.371094 250.75 150.367188 252.574219 125.980469 Z M 235.410156 179.265625 C 235.410156 179.265625 212.316406 181.382812 214.902344 204.851562 C 214.902344 204.851562 238.089844 203.574219 235.410156 179.265625 Z M 166.589844 225.449219 C 166.589844 225.449219 143.496094 227.566406 146.085938 251.035156 C 146.085938 251.035156 169.269531 249.757812 166.589844 225.449219 Z M 292.433594 188.25 C 292.433594 188.25 269.34375 190.367188 271.929688 213.835938 C 271.929688 213.835938 295.113281 212.558594 292.433594 188.25 Z M 252.035156 270.886719 C 252.035156 270.886719 237.191406 253.074219 219.332031 268.515625 C 219.332031 268.515625 233.535156 286.886719 252.035156 270.886719 Z M 99.761719 118.75 C 99.761719 118.75 118.328125 132.644531 132.128906 113.484375 C 132.128906 113.484375 114.054688 98.90625 99.761719 118.75 Z M 176.878906 259.113281 C 176.878906 259.113281 161.105469 276.109375 178.703125 291.851562 C 178.703125 291.851562 195.105469 275.414062 176.878906 259.113281 Z M 113.632812 192.636719 C 113.632812 192.636719 92.546875 182.988281 83.117188 204.636719 C 83.117188 204.636719 103.867188 215.058594 113.632812 192.636719 Z M 113.632812 192.636719 " fill-opacity="1" fill-rule="nonzero"/><path fill="#571d1d" d="M 137.84375 133.246094 C 137.21875 133.246094 136.597656 133.308594 135.980469 133.429688 C 135.367188 133.550781 134.769531 133.734375 134.1875 133.972656 C 133.609375 134.214844 133.058594 134.507812 132.539062 134.855469 C 132.015625 135.207031 131.535156 135.601562 131.089844 136.042969 C 130.648438 136.488281 130.25 136.972656 129.902344 137.492188 C 129.554688 138.015625 129.257812 138.5625 129.019531 139.144531 C 128.78125 139.722656 128.597656 140.320312 128.476562 140.9375 C 128.351562 141.550781 128.292969 142.171875 128.292969 142.800781 C 128.292969 143.425781 128.351562 144.046875 128.476562 144.664062 C 128.597656 145.277344 128.78125 145.875 129.019531 146.457031 C 129.257812 147.035156 129.554688 147.585938 129.902344 148.105469 C 130.25 148.628906 130.648438 149.109375 131.089844 149.554688 C 131.535156 149.996094 132.015625 150.394531 132.539062 150.742188 C 133.058594 151.089844 133.609375 151.386719 134.1875 151.625 C 134.769531 151.863281 135.367188 152.046875 135.980469 152.167969 C 136.597656 152.289062 137.21875 152.351562 137.84375 152.351562 C 138.472656 152.351562 139.09375 152.289062 139.707031 152.167969 C 140.324219 152.046875 140.921875 151.863281 141.5 151.625 C 142.078125 151.386719 142.628906 151.089844 143.152344 150.742188 C 143.671875 150.394531 144.15625 149.996094 144.601562 149.554688 C 145.042969 149.109375 145.4375 148.628906 145.789062 148.105469 C 146.136719 147.585938 146.429688 147.035156 146.671875 146.457031 C 146.910156 145.875 147.089844 145.277344 147.214844 144.664062 C 147.335938 144.046875 147.398438 143.425781 147.398438 142.800781 C 147.398438 142.171875 147.335938 141.550781 147.214844 140.9375 C 147.089844 140.320312 146.910156 139.722656 146.671875 139.144531 C 146.429688 138.5625 146.136719 138.015625 145.789062 137.492188 C 145.4375 136.972656 145.042969 136.488281 144.601562 136.042969 C 144.15625 135.601562 143.671875 135.207031 143.152344 134.855469 C 142.628906 134.507812 142.078125 134.214844 141.5 133.972656 C 140.921875 133.734375 140.324219 133.554688 139.707031 133.429688 C 139.09375 133.308594 138.472656 133.246094 137.84375 133.246094 Z M 137.84375 147.0625 C 137.566406 147.0625 137.289062 147.035156 137.011719 146.980469 C 136.738281 146.925781 136.472656 146.84375 136.214844 146.738281 C 135.957031 146.628906 135.710938 146.5 135.476562 146.34375 C 135.246094 146.1875 135.027344 146.011719 134.832031 145.8125 C 134.632812 145.617188 134.457031 145.402344 134.300781 145.167969 C 134.144531 144.933594 134.015625 144.691406 133.90625 144.429688 C 133.800781 144.171875 133.71875 143.90625 133.664062 143.632812 C 133.609375 143.355469 133.582031 143.078125 133.582031 142.800781 C 133.582031 142.519531 133.609375 142.242188 133.664062 141.96875 C 133.71875 141.695312 133.800781 141.425781 133.90625 141.167969 C 134.015625 140.910156 134.144531 140.664062 134.300781 140.433594 C 134.457031 140.199219 134.632812 139.984375 134.832031 139.785156 C 135.027344 139.589844 135.242188 139.410156 135.476562 139.253906 C 135.710938 139.101562 135.953125 138.96875 136.214844 138.863281 C 136.472656 138.753906 136.738281 138.671875 137.011719 138.617188 C 137.289062 138.566406 137.566406 138.539062 137.84375 138.539062 C 138.125 138.539062 138.402344 138.5625 138.675781 138.617188 C 138.949219 138.671875 139.21875 138.753906 139.476562 138.863281 C 139.734375 138.96875 139.980469 139.101562 140.210938 139.253906 C 140.445312 139.410156 140.660156 139.585938 140.859375 139.785156 C 141.054688 139.984375 141.234375 140.199219 141.390625 140.429688 C 141.542969 140.664062 141.675781 140.910156 141.78125 141.167969 C 141.890625 141.425781 141.972656 141.691406 142.023438 141.96875 C 142.078125 142.242188 142.105469 142.519531 142.105469 142.800781 C 142.105469 143.078125 142.078125 143.355469 142.023438 143.628906 C 141.96875 143.90625 141.890625 144.171875 141.78125 144.429688 C 141.675781 144.6875 141.542969 144.933594 141.386719 145.167969 C 141.230469 145.398438 141.054688 145.613281 140.859375 145.8125 C 140.660156 146.011719 140.445312 146.1875 140.210938 146.34375 C 139.980469 146.496094 139.734375 146.628906 139.476562 146.734375 C 139.21875 146.84375 138.949219 146.925781 138.675781 146.980469 C 138.402344 147.035156 138.125 147.0625 137.84375 147.0625 Z M 204.140625 144.179688 C 203.515625 144.179688 202.894531 144.238281 202.277344 144.363281 C 201.664062 144.484375 201.066406 144.664062 200.488281 144.90625 C 199.90625 145.144531 199.355469 145.4375 198.835938 145.789062 C 198.3125 146.136719 197.832031 146.53125 197.386719 146.976562 C 196.945312 147.417969 196.546875 147.902344 196.199219 148.421875 C 195.851562 148.945312 195.554688 149.496094 195.316406 150.074219 C 195.078125 150.65625 194.894531 151.25 194.773438 151.867188 C 194.652344 152.480469 194.589844 153.101562 194.589844 153.730469 C 194.589844 154.359375 194.652344 154.980469 194.773438 155.59375 C 194.894531 156.210938 195.078125 156.808594 195.316406 157.386719 C 195.554688 157.964844 195.851562 158.515625 196.199219 159.039062 C 196.546875 159.558594 196.945312 160.042969 197.386719 160.484375 C 197.832031 160.929688 198.3125 161.324219 198.835938 161.671875 C 199.355469 162.023438 199.90625 162.316406 200.488281 162.554688 C 201.066406 162.796875 201.664062 162.976562 202.277344 163.101562 C 202.894531 163.222656 203.515625 163.28125 204.140625 163.28125 C 204.769531 163.28125 205.390625 163.222656 206.003906 163.101562 C 206.621094 162.976562 207.21875 162.796875 207.796875 162.554688 C 208.378906 162.316406 208.925781 162.023438 209.449219 161.671875 C 209.972656 161.324219 210.453125 160.929688 210.898438 160.484375 C 211.339844 160.042969 211.734375 159.558594 212.085938 159.039062 C 212.433594 158.515625 212.726562 157.964844 212.96875 157.386719 C 213.207031 156.808594 213.390625 156.210938 213.511719 155.59375 C 213.632812 154.980469 213.695312 154.359375 213.695312 153.730469 C 213.695312 153.101562 213.632812 152.480469 213.511719 151.867188 C 213.390625 151.25 213.207031 150.65625 212.96875 150.074219 C 212.726562 149.496094 212.433594 148.945312 212.085938 148.421875 C 211.738281 147.902344 211.339844 147.417969 210.898438 146.976562 C 210.453125 146.53125 209.972656 146.136719 209.449219 145.789062 C 208.925781 145.4375 208.378906 145.144531 207.796875 144.90625 C 207.21875 144.664062 206.621094 144.484375 206.003906 144.363281 C 205.390625 144.238281 204.769531 144.179688 204.140625 144.179688 Z M 204.140625 157.992188 C 203.863281 157.992188 203.585938 157.964844 203.3125 157.910156 C 203.035156 157.855469 202.769531 157.777344 202.511719 157.667969 C 202.253906 157.5625 202.007812 157.429688 201.773438 157.273438 C 201.542969 157.121094 201.324219 156.941406 201.128906 156.746094 C 200.929688 156.546875 200.753906 156.332031 200.597656 156.097656 C 200.441406 155.867188 200.3125 155.621094 200.203125 155.363281 C 200.097656 155.105469 200.015625 154.835938 199.960938 154.5625 C 199.90625 154.289062 199.878906 154.011719 199.878906 153.730469 C 199.878906 153.449219 199.90625 153.175781 199.960938 152.898438 C 200.015625 152.625 200.097656 152.359375 200.203125 152.101562 C 200.3125 151.839844 200.441406 151.59375 200.597656 151.363281 C 200.753906 151.128906 200.929688 150.914062 201.128906 150.71875 C 201.324219 150.519531 201.539062 150.34375 201.773438 150.1875 C 202.007812 150.03125 202.253906 149.898438 202.511719 149.792969 C 202.769531 149.6875 203.035156 149.605469 203.308594 149.550781 C 203.585938 149.496094 203.863281 149.46875 204.140625 149.46875 C 204.421875 149.46875 204.699219 149.496094 204.972656 149.550781 C 205.246094 149.605469 205.515625 149.683594 205.773438 149.792969 C 206.03125 149.898438 206.277344 150.03125 206.511719 150.1875 C 206.742188 150.34375 206.957031 150.519531 207.15625 150.714844 C 207.355469 150.914062 207.53125 151.128906 207.6875 151.363281 C 207.839844 151.59375 207.972656 151.839844 208.078125 152.097656 C 208.1875 152.359375 208.269531 152.625 208.324219 152.898438 C 208.378906 153.171875 208.40625 153.449219 208.40625 153.730469 C 208.402344 154.011719 208.375 154.289062 208.320312 154.5625 C 208.265625 154.835938 208.1875 155.101562 208.078125 155.359375 C 207.972656 155.617188 207.839844 155.863281 207.683594 156.097656 C 207.527344 156.328125 207.351562 156.546875 207.15625 156.742188 C 206.957031 156.941406 206.742188 157.117188 206.507812 157.273438 C 206.277344 157.429688 206.03125 157.558594 205.773438 157.667969 C 205.515625 157.773438 205.246094 157.855469 204.972656 157.910156 C 204.699219 157.964844 204.421875 157.992188 204.140625 157.992188 Z M 190.113281 77.757812 C 189.484375 77.757812 188.863281 77.820312 188.25 77.941406 C 187.632812 78.066406 187.035156 78.246094 186.457031 78.484375 C 185.878906 78.726562 185.328125 79.019531 184.804688 79.367188 C 184.285156 79.71875 183.800781 80.113281 183.359375 80.558594 C 182.914062 81 182.519531 81.484375 182.167969 82.003906 C 181.820312 82.527344 181.527344 83.078125 181.285156 83.65625 C 181.046875 84.234375 180.867188 84.832031 180.742188 85.449219 C 180.621094 86.0625 180.558594 86.683594 180.558594 87.3125 C 180.558594 87.9375 180.621094 88.558594 180.742188 89.175781 C 180.867188 89.789062 181.046875 90.386719 181.285156 90.96875 C 181.527344 91.546875 181.820312 92.097656 182.167969 92.617188 C 182.519531 93.140625 182.914062 93.621094 183.359375 94.066406 C 183.800781 94.511719 184.285156 94.90625 184.804688 95.253906 C 185.328125 95.601562 185.878906 95.898438 186.457031 96.136719 C 187.035156 96.378906 187.632812 96.558594 188.25 96.679688 C 188.863281 96.804688 189.484375 96.863281 190.113281 96.863281 C 190.738281 96.863281 191.359375 96.804688 191.976562 96.679688 C 192.589844 96.558594 193.1875 96.378906 193.769531 96.136719 C 194.347656 95.898438 194.898438 95.601562 195.417969 95.253906 C 195.941406 94.90625 196.421875 94.511719 196.867188 94.066406 C 197.3125 93.621094 197.707031 93.140625 198.054688 92.617188 C 198.402344 92.097656 198.699219 91.546875 198.9375 90.96875 C 199.179688 90.386719 199.359375 89.789062 199.480469 89.175781 C 199.605469 88.558594 199.664062 87.9375 199.664062 87.3125 C 199.664062 86.683594 199.605469 86.0625 199.480469 85.449219 C 199.359375 84.832031 199.179688 84.234375 198.9375 83.65625 C 198.699219 83.078125 198.402344 82.527344 198.054688 82.003906 C 197.707031 81.484375 197.3125 81 196.867188 80.558594 C 196.421875 80.113281 195.941406 79.71875 195.417969 79.367188 C 194.898438 79.019531 194.347656 78.726562 193.769531 78.484375 C 193.1875 78.246094 192.589844 78.066406 191.976562 77.941406 C 191.359375 77.820312 190.738281 77.757812 190.113281 77.757812 Z M 190.113281 91.574219 C 189.832031 91.574219 189.554688 91.546875 189.28125 91.492188 C 189.007812 91.4375 188.738281 91.355469 188.480469 91.25 C 188.222656 91.144531 187.976562 91.011719 187.746094 90.855469 C 187.511719 90.699219 187.296875 90.523438 187.097656 90.324219 C 186.902344 90.128906 186.722656 89.914062 186.570312 89.679688 C 186.414062 89.449219 186.28125 89.203125 186.175781 88.941406 C 186.066406 88.683594 185.988281 88.417969 185.933594 88.144531 C 185.878906 87.871094 185.851562 87.59375 185.851562 87.3125 C 185.851562 87.03125 185.878906 86.753906 185.933594 86.480469 C 185.988281 86.207031 186.066406 85.941406 186.175781 85.679688 C 186.28125 85.421875 186.414062 85.175781 186.566406 84.945312 C 186.722656 84.710938 186.898438 84.496094 187.097656 84.296875 C 187.296875 84.101562 187.511719 83.921875 187.742188 83.769531 C 187.976562 83.613281 188.222656 83.480469 188.480469 83.375 C 188.738281 83.265625 189.007812 83.1875 189.28125 83.132812 C 189.554688 83.078125 189.832031 83.050781 190.113281 83.050781 C 190.390625 83.050781 190.667969 83.078125 190.945312 83.132812 C 191.21875 83.1875 191.484375 83.265625 191.742188 83.375 C 192 83.480469 192.246094 83.613281 192.480469 83.765625 C 192.714844 83.921875 192.929688 84.101562 193.125 84.296875 C 193.324219 84.496094 193.5 84.710938 193.65625 84.945312 C 193.8125 85.175781 193.941406 85.421875 194.050781 85.679688 C 194.15625 85.9375 194.238281 86.207031 194.292969 86.480469 C 194.347656 86.753906 194.375 87.03125 194.375 87.3125 C 194.375 87.589844 194.347656 87.867188 194.292969 88.144531 C 194.238281 88.417969 194.15625 88.683594 194.050781 88.941406 C 193.941406 89.199219 193.8125 89.445312 193.65625 89.679688 C 193.5 89.910156 193.324219 90.125 193.125 90.324219 C 192.925781 90.523438 192.710938 90.699219 192.480469 90.855469 C 192.246094 91.007812 192 91.140625 191.742188 91.25 C 191.484375 91.355469 191.21875 91.4375 190.945312 91.492188 C 190.667969 91.546875 190.390625 91.574219 190.113281 91.574219 Z M 257.378906 155.421875 C 256.75 155.421875 256.128906 155.480469 255.511719 155.605469 C 254.898438 155.726562 254.300781 155.90625 253.722656 156.148438 C 253.140625 156.386719 252.589844 156.679688 252.070312 157.03125 C 251.546875 157.378906 251.066406 157.773438 250.621094 158.21875 C 250.179688 158.660156 249.78125 159.144531 249.433594 159.664062 C 249.085938 160.1875 248.792969 160.738281 248.550781 161.316406 C 248.3125 161.898438 248.128906 162.492188 248.007812 163.109375 C 247.886719 163.722656 247.824219 164.34375 247.824219 164.972656 C 247.824219 165.601562 247.886719 166.222656 248.007812 166.835938 C 248.128906 167.453125 248.3125 168.050781 248.550781 168.628906 C 248.792969 169.207031 249.085938 169.757812 249.433594 170.28125 C 249.78125 170.800781 250.179688 171.285156 250.621094 171.726562 C 251.066406 172.171875 251.546875 172.566406 252.070312 172.914062 C 252.589844 173.265625 253.140625 173.558594 253.722656 173.796875 C 254.300781 174.039062 254.898438 174.21875 255.511719 174.34375 C 256.128906 174.464844 256.75 174.527344 257.378906 174.527344 C 258.003906 174.527344 258.625 174.464844 259.242188 174.34375 C 259.855469 174.21875 260.453125 174.039062 261.03125 173.796875 C 261.613281 173.558594 262.164062 173.265625 262.683594 172.914062 C 263.207031 172.566406 263.6875 172.171875 264.132812 171.726562 C 264.574219 171.285156 264.972656 170.800781 265.320312 170.28125 C 265.667969 169.757812 265.960938 169.207031 266.203125 168.628906 C 266.441406 168.050781 266.625 167.453125 266.746094 166.835938 C 266.867188 166.222656 266.929688 165.601562 266.929688 164.972656 C 266.929688 164.34375 266.867188 163.722656 266.746094 163.109375 C 266.625 162.492188 266.441406 161.898438 266.203125 161.316406 C 265.960938 160.738281 265.667969 160.1875 265.320312 159.664062 C 264.972656 159.144531 264.574219 158.660156 264.132812 158.21875 C 263.6875 157.773438 263.207031 157.378906 262.683594 157.03125 C 262.164062 156.679688 261.613281 156.386719 261.03125 156.148438 C 260.453125 155.90625 259.855469 155.726562 259.242188 155.605469 C 258.625 155.480469 258.003906 155.421875 257.378906 155.421875 Z M 257.378906 169.234375 C 257.097656 169.234375 256.820312 169.207031 256.546875 169.152344 C 256.269531 169.097656 256.003906 169.019531 255.746094 168.910156 C 255.488281 168.804688 255.242188 168.671875 255.007812 168.515625 C 254.777344 168.363281 254.5625 168.183594 254.363281 167.988281 C 254.164062 167.789062 253.988281 167.574219 253.832031 167.339844 C 253.679688 167.109375 253.546875 166.863281 253.4375 166.605469 C 253.332031 166.347656 253.25 166.078125 253.195312 165.804688 C 253.140625 165.53125 253.113281 165.253906 253.113281 164.972656 C 253.113281 164.695312 253.140625 164.417969 253.195312 164.140625 C 253.25 163.867188 253.332031 163.601562 253.4375 163.34375 C 253.546875 163.082031 253.675781 162.835938 253.832031 162.605469 C 253.988281 162.371094 254.164062 162.15625 254.363281 161.960938 C 254.5625 161.761719 254.777344 161.585938 255.007812 161.429688 C 255.242188 161.273438 255.488281 161.140625 255.746094 161.035156 C 256.003906 160.929688 256.269531 160.847656 256.546875 160.792969 C 256.820312 160.738281 257.097656 160.710938 257.375 160.710938 C 257.65625 160.710938 257.933594 160.738281 258.207031 160.792969 C 258.484375 160.847656 258.75 160.929688 259.007812 161.035156 C 259.265625 161.140625 259.511719 161.273438 259.746094 161.429688 C 259.976562 161.585938 260.191406 161.761719 260.390625 161.957031 C 260.589844 162.15625 260.765625 162.371094 260.921875 162.605469 C 261.078125 162.835938 261.207031 163.082031 261.316406 163.339844 C 261.421875 163.601562 261.503906 163.867188 261.558594 164.140625 C 261.613281 164.414062 261.640625 164.691406 261.640625 164.972656 C 261.640625 165.253906 261.613281 165.53125 261.558594 165.804688 C 261.503906 166.078125 261.421875 166.34375 261.3125 166.601562 C 261.207031 166.863281 261.074219 167.105469 260.917969 167.339844 C 260.765625 167.570312 260.585938 167.789062 260.390625 167.984375 C 260.191406 168.183594 259.976562 168.359375 259.746094 168.515625 C 259.511719 168.671875 259.265625 168.800781 259.007812 168.910156 C 258.75 169.015625 258.484375 169.097656 258.207031 169.152344 C 257.933594 169.207031 257.65625 169.234375 257.378906 169.234375 Z M 261.640625 222.398438 C 261.011719 222.398438 260.390625 222.460938 259.777344 222.582031 C 259.160156 222.703125 258.5625 222.886719 257.984375 223.125 C 257.40625 223.367188 256.855469 223.660156 256.332031 224.007812 C 255.8125 224.359375 255.328125 224.753906 254.886719 225.195312 C 254.441406 225.640625 254.046875 226.121094 253.695312 226.644531 C 253.347656 227.167969 253.054688 227.714844 252.8125 228.296875 C 252.574219 228.875 252.394531 229.472656 252.269531 230.089844 C 252.148438 230.703125 252.085938 231.324219 252.085938 231.953125 C 252.085938 232.578125 252.148438 233.199219 252.269531 233.816406 C 252.394531 234.429688 252.574219 235.027344 252.8125 235.605469 C 253.054688 236.1875 253.347656 236.738281 253.695312 237.257812 C 254.046875 237.78125 254.441406 238.261719 254.886719 238.707031 C 255.328125 239.148438 255.8125 239.546875 256.332031 239.894531 C 256.855469 240.242188 257.40625 240.539062 257.984375 240.777344 C 258.5625 241.015625 259.160156 241.199219 259.777344 241.320312 C 260.390625 241.441406 261.011719 241.503906 261.640625 241.503906 C 262.265625 241.503906 262.886719 241.441406 263.503906 241.320312 C 264.117188 241.199219 264.714844 241.015625 265.296875 240.777344 C 265.875 240.539062 266.425781 240.242188 266.945312 239.894531 C 267.46875 239.546875 267.949219 239.148438 268.394531 238.707031 C 268.835938 238.261719 269.234375 237.78125 269.582031 237.257812 C 269.929688 236.738281 270.226562 236.1875 270.464844 235.605469 C 270.707031 235.027344 270.886719 234.429688 271.007812 233.816406 C 271.132812 233.199219 271.191406 232.578125 271.191406 231.953125 C 271.191406 231.324219 271.132812 230.703125 271.007812 230.089844 C 270.886719 229.472656 270.707031 228.875 270.464844 228.296875 C 270.226562 227.714844 269.929688 227.167969 269.582031 226.644531 C 269.234375 226.121094 268.835938 225.640625 268.394531 225.195312 C 267.949219 224.753906 267.46875 224.359375 266.945312 224.007812 C 266.425781 223.660156 265.875 223.367188 265.296875 223.125 C 264.714844 222.886719 264.117188 222.703125 263.503906 222.582031 C 262.886719 222.460938 262.265625 222.398438 261.640625 222.398438 Z M 261.640625 236.214844 C 261.359375 236.214844 261.082031 236.1875 260.808594 236.132812 C 260.535156 236.078125 260.265625 235.996094 260.007812 235.890625 C 259.75 235.78125 259.503906 235.652344 259.273438 235.496094 C 259.039062 235.339844 258.824219 235.164062 258.625 234.964844 C 258.429688 234.769531 258.25 234.554688 258.09375 234.320312 C 257.941406 234.085938 257.808594 233.84375 257.703125 233.582031 C 257.59375 233.324219 257.511719 233.058594 257.460938 232.785156 C 257.40625 232.507812 257.378906 232.230469 257.378906 231.953125 C 257.378906 231.671875 257.40625 231.394531 257.457031 231.121094 C 257.511719 230.847656 257.59375 230.578125 257.703125 230.320312 C 257.808594 230.0625 257.941406 229.816406 258.09375 229.585938 C 258.25 229.351562 258.425781 229.136719 258.625 228.9375 C 258.824219 228.738281 259.039062 228.5625 259.269531 228.40625 C 259.503906 228.253906 259.75 228.121094 260.007812 228.015625 C 260.265625 227.90625 260.53125 227.824219 260.808594 227.769531 C 261.082031 227.714844 261.359375 227.6875 261.640625 227.6875 C 261.917969 227.6875 262.195312 227.714844 262.472656 227.769531 C 262.746094 227.824219 263.011719 227.90625 263.269531 228.015625 C 263.527344 228.121094 263.773438 228.253906 264.007812 228.40625 C 264.238281 228.5625 264.457031 228.738281 264.652344 228.9375 C 264.851562 229.136719 265.027344 229.351562 265.183594 229.582031 C 265.339844 229.816406 265.46875 230.0625 265.578125 230.320312 C 265.683594 230.578125 265.765625 230.84375 265.820312 231.121094 C 265.875 231.394531 265.902344 231.671875 265.902344 231.953125 C 265.902344 232.230469 265.875 232.507812 265.820312 232.78125 C 265.765625 233.058594 265.683594 233.324219 265.578125 233.582031 C 265.46875 233.839844 265.335938 234.085938 265.183594 234.320312 C 265.027344 234.550781 264.851562 234.765625 264.652344 234.964844 C 264.453125 235.160156 264.238281 235.339844 264.007812 235.496094 C 263.773438 235.648438 263.527344 235.78125 263.269531 235.886719 C 263.011719 235.996094 262.746094 236.078125 262.472656 236.132812 C 262.195312 236.1875 261.917969 236.214844 261.640625 236.214844 Z M 142.105469 265.929688 C 141.480469 265.929688 140.859375 265.992188 140.242188 266.113281 C 139.628906 266.234375 139.03125 266.417969 138.453125 266.65625 C 137.871094 266.898438 137.320312 267.191406 136.800781 267.539062 C 136.277344 267.886719 135.796875 268.285156 135.351562 268.726562 C 134.910156 269.171875 134.511719 269.652344 134.164062 270.175781 C 133.816406 270.695312 133.523438 271.246094 133.28125 271.828125 C 133.042969 272.40625 132.859375 273.003906 132.738281 273.617188 C 132.617188 274.234375 132.554688 274.855469 132.554688 275.480469 C 132.554688 276.109375 132.617188 276.730469 132.738281 277.34375 C 132.859375 277.960938 133.042969 278.558594 133.28125 279.136719 C 133.523438 279.71875 133.816406 280.269531 134.164062 280.789062 C 134.511719 281.3125 134.910156 281.792969 135.351562 282.238281 C 135.796875 282.679688 136.277344 283.078125 136.800781 283.425781 C 137.320312 283.773438 137.871094 284.066406 138.453125 284.308594 C 139.03125 284.546875 139.628906 284.730469 140.242188 284.851562 C 140.859375 284.972656 141.480469 285.035156 142.105469 285.035156 C 142.734375 285.035156 143.355469 284.972656 143.972656 284.851562 C 144.585938 284.730469 145.183594 284.546875 145.761719 284.308594 C 146.34375 284.066406 146.894531 283.773438 147.414062 283.425781 C 147.9375 283.078125 148.417969 282.679688 148.863281 282.238281 C 149.304688 281.792969 149.703125 281.3125 150.050781 280.789062 C 150.398438 280.269531 150.691406 279.71875 150.933594 279.136719 C 151.171875 278.558594 151.355469 277.960938 151.476562 277.34375 C 151.597656 276.730469 151.660156 276.109375 151.660156 275.480469 C 151.660156 274.855469 151.597656 274.234375 151.476562 273.617188 C 151.355469 273.003906 151.171875 272.40625 150.933594 271.828125 C 150.691406 271.246094 150.398438 270.695312 150.050781 270.175781 C 149.703125 269.652344 149.304688 269.171875 148.863281 268.726562 C 148.417969 268.285156 147.9375 267.886719 147.414062 267.539062 C 146.894531 267.191406 146.34375 266.898438 145.761719 266.65625 C 145.183594 266.417969 144.585938 266.234375 143.972656 266.113281 C 143.355469 265.992188 142.734375 265.929688 142.105469 265.929688 Z M 142.109375 279.746094 C 141.828125 279.746094 141.550781 279.71875 141.277344 279.664062 C 141 279.609375 140.734375 279.527344 140.476562 279.421875 C 140.21875 279.3125 139.972656 279.183594 139.738281 279.027344 C 139.507812 278.871094 139.292969 278.695312 139.09375 278.496094 C 138.894531 278.296875 138.71875 278.082031 138.5625 277.851562 C 138.40625 277.617188 138.277344 277.371094 138.167969 277.113281 C 138.0625 276.855469 137.980469 276.589844 137.925781 276.3125 C 137.871094 276.039062 137.84375 275.761719 137.84375 275.484375 C 137.84375 275.203125 137.871094 274.925781 137.925781 274.652344 C 137.980469 274.375 138.0625 274.109375 138.167969 273.851562 C 138.277344 273.59375 138.40625 273.347656 138.5625 273.113281 C 138.71875 272.882812 138.894531 272.667969 139.09375 272.46875 C 139.289062 272.269531 139.507812 272.09375 139.738281 271.9375 C 139.972656 271.78125 140.21875 271.652344 140.476562 271.542969 C 140.734375 271.4375 141 271.355469 141.273438 271.300781 C 141.550781 271.246094 141.828125 271.21875 142.105469 271.21875 C 142.386719 271.21875 142.664062 271.246094 142.9375 271.300781 C 143.214844 271.355469 143.480469 271.4375 143.738281 271.542969 C 143.996094 271.652344 144.242188 271.78125 144.476562 271.9375 C 144.707031 272.09375 144.921875 272.269531 145.121094 272.46875 C 145.320312 272.664062 145.496094 272.882812 145.652344 273.113281 C 145.808594 273.347656 145.9375 273.59375 146.046875 273.851562 C 146.152344 274.109375 146.234375 274.375 146.289062 274.648438 C 146.34375 274.925781 146.371094 275.203125 146.371094 275.480469 C 146.371094 275.761719 146.34375 276.039062 146.285156 276.3125 C 146.230469 276.585938 146.152344 276.855469 146.042969 277.113281 C 145.9375 277.371094 145.804688 277.617188 145.648438 277.847656 C 145.496094 278.082031 145.316406 278.296875 145.121094 278.496094 C 144.921875 278.691406 144.707031 278.867188 144.472656 279.023438 C 144.242188 279.179688 143.996094 279.3125 143.738281 279.417969 C 143.480469 279.527344 143.214844 279.605469 142.9375 279.660156 C 142.664062 279.714844 142.386719 279.746094 142.109375 279.746094 Z M 208.40625 232.953125 C 207.777344 232.953125 207.15625 233.015625 206.539062 233.136719 C 205.925781 233.257812 205.328125 233.441406 204.75 233.679688 C 204.167969 233.921875 203.617188 234.214844 203.097656 234.5625 C 202.574219 234.910156 202.09375 235.308594 201.648438 235.75 C 201.207031 236.195312 200.808594 236.675781 200.460938 237.199219 C 200.113281 237.71875 199.820312 238.269531 199.578125 238.851562 C 199.339844 239.429688 199.15625 240.027344 199.035156 240.640625 C 198.914062 241.257812 198.851562 241.878906 198.851562 242.507812 C 198.851562 243.132812 198.914062 243.753906 199.035156 244.371094 C 199.15625 244.984375 199.339844 245.582031 199.578125 246.160156 C 199.820312 246.742188 200.113281 247.292969 200.460938 247.8125 C 200.808594 248.335938 201.207031 248.816406 201.648438 249.261719 C 202.09375 249.703125 202.574219 250.101562 203.097656 250.449219 C 203.617188 250.796875 204.167969 251.089844 204.75 251.332031 C 205.328125 251.570312 205.925781 251.753906 206.539062 251.875 C 207.15625 251.996094 207.777344 252.058594 208.40625 252.058594 C 209.03125 252.058594 209.652344 251.996094 210.269531 251.875 C 210.882812 251.753906 211.480469 251.570312 212.058594 251.332031 C 212.640625 251.089844 213.191406 250.796875 213.710938 250.449219 C 214.234375 250.101562 214.714844 249.703125 215.160156 249.261719 C 215.601562 248.816406 216 248.335938 216.347656 247.8125 C 216.695312 247.292969 216.988281 246.742188 217.230469 246.160156 C 217.46875 245.582031 217.652344 244.984375 217.773438 244.371094 C 217.894531 243.753906 217.957031 243.132812 217.957031 242.507812 C 217.957031 241.878906 217.894531 241.257812 217.773438 240.640625 C 217.652344 240.027344 217.46875 239.429688 217.230469 238.851562 C 216.988281 238.269531 216.695312 237.71875 216.347656 237.199219 C 216 236.675781 215.601562 236.195312 215.160156 235.75 C 214.714844 235.308594 214.234375 234.910156 213.710938 234.5625 C 213.191406 234.214844 212.640625 233.921875 212.058594 233.679688 C 211.480469 233.441406 210.882812 233.257812 210.269531 233.136719 C 209.652344 233.015625 209.03125 232.953125 208.40625 232.953125 Z M 208.40625 246.769531 C 208.125 246.769531 207.847656 246.742188 207.574219 246.6875 C 207.296875 246.632812 207.03125 246.550781 206.773438 246.445312 C 206.515625 246.335938 206.269531 246.207031 206.035156 246.050781 C 205.804688 245.894531 205.589844 245.71875 205.390625 245.519531 C 205.191406 245.324219 205.015625 245.105469 204.859375 244.875 C 204.703125 244.640625 204.574219 244.394531 204.464844 244.136719 C 204.359375 243.878906 204.277344 243.613281 204.222656 243.335938 C 204.167969 243.0625 204.140625 242.785156 204.140625 242.507812 C 204.140625 242.226562 204.167969 241.949219 204.222656 241.675781 C 204.277344 241.398438 204.359375 241.132812 204.464844 240.875 C 204.574219 240.617188 204.703125 240.371094 204.859375 240.136719 C 205.015625 239.90625 205.191406 239.691406 205.390625 239.492188 C 205.589844 239.292969 205.804688 239.117188 206.035156 238.960938 C 206.269531 238.804688 206.515625 238.675781 206.773438 238.566406 C 207.03125 238.460938 207.296875 238.378906 207.574219 238.324219 C 207.847656 238.269531 208.125 238.242188 208.402344 238.242188 C 208.683594 238.242188 208.960938 238.269531 209.234375 238.324219 C 209.511719 238.378906 209.777344 238.460938 210.035156 238.566406 C 210.292969 238.675781 210.539062 238.804688 210.773438 238.960938 C 211.003906 239.117188 211.21875 239.292969 211.417969 239.492188 C 211.617188 239.691406 211.792969 239.90625 211.949219 240.136719 C 212.105469 240.371094 212.234375 240.617188 212.34375 240.875 C 212.449219 241.132812 212.53125 241.398438 212.585938 241.675781 C 212.640625 241.949219 212.667969 242.226562 212.667969 242.503906 C 212.667969 242.785156 212.640625 243.0625 212.585938 243.335938 C 212.53125 243.609375 212.449219 243.878906 212.339844 244.136719 C 212.234375 244.394531 212.101562 244.640625 211.945312 244.871094 C 211.792969 245.105469 211.613281 245.320312 211.417969 245.519531 C 211.21875 245.714844 211.003906 245.894531 210.773438 246.046875 C 210.539062 246.203125 210.292969 246.335938 210.035156 246.441406 C 209.777344 246.550781 209.511719 246.628906 209.234375 246.6875 C 208.960938 246.742188 208.683594 246.769531 208.40625 246.769531 Z M 184.757812 187.230469 C 184.128906 187.230469 183.507812 187.289062 182.894531 187.414062 C 182.277344 187.535156 181.683594 187.714844 181.101562 187.957031 C 180.523438 188.195312 179.972656 188.488281 179.449219 188.839844 C 178.929688 189.1875 178.445312 189.582031 178.003906 190.027344 C 177.558594 190.46875 177.164062 190.953125 176.816406 191.472656 C 176.464844 191.996094 176.171875 192.546875 175.933594 193.125 C 175.691406 193.707031 175.511719 194.300781 175.390625 194.917969 C 175.265625 195.53125 175.207031 196.152344 175.207031 196.78125 C 175.207031 197.410156 175.265625 198.03125 175.390625 198.644531 C 175.511719 199.261719 175.691406 199.859375 175.933594 200.4375 C 176.171875 201.015625 176.464844 201.566406 176.816406 202.089844 C 177.164062 202.609375 177.558594 203.09375 178.003906 203.535156 C 178.445312 203.980469 178.929688 204.375 179.449219 204.722656 C 179.972656 205.074219 180.523438 205.367188 181.101562 205.605469 C 181.683594 205.847656 182.277344 206.027344 182.894531 206.152344 C 183.507812 206.273438 184.128906 206.335938 184.757812 206.335938 C 185.386719 206.335938 186.007812 206.273438 186.621094 206.152344 C 187.238281 206.027344 187.835938 205.847656 188.414062 205.605469 C 188.992188 205.367188 189.542969 205.074219 190.066406 204.722656 C 190.585938 204.375 191.070312 203.980469 191.511719 203.535156 C 191.957031 203.09375 192.351562 202.609375 192.699219 202.089844 C 193.050781 201.566406 193.34375 201.015625 193.582031 200.4375 C 193.824219 199.859375 194.003906 199.261719 194.128906 198.644531 C 194.25 198.03125 194.3125 197.410156 194.3125 196.78125 C 194.3125 196.152344 194.25 195.53125 194.128906 194.917969 C 194.003906 194.300781 193.824219 193.707031 193.582031 193.125 C 193.34375 192.546875 193.050781 191.996094 192.699219 191.472656 C 192.351562 190.953125 191.957031 190.46875 191.511719 190.027344 C 191.070312 189.582031 190.585938 189.1875 190.066406 188.839844 C 189.542969 188.488281 188.992188 188.195312 188.414062 187.957031 C 187.835938 187.714844 187.238281 187.535156 186.621094 187.414062 C 186.007812 187.289062 185.386719 187.230469 184.757812 187.230469 Z M 184.757812 201.042969 C 184.476562 201.042969 184.199219 201.015625 183.925781 200.960938 C 183.652344 200.90625 183.386719 200.828125 183.128906 200.71875 C 182.867188 200.613281 182.621094 200.480469 182.390625 200.324219 C 182.15625 200.171875 181.941406 199.992188 181.742188 199.796875 C 181.546875 199.597656 181.371094 199.382812 181.214844 199.148438 C 181.058594 198.917969 180.925781 198.671875 180.820312 198.414062 C 180.710938 198.15625 180.632812 197.886719 180.578125 197.613281 C 180.523438 197.339844 180.496094 197.0625 180.496094 196.78125 C 180.496094 196.503906 180.523438 196.226562 180.578125 195.949219 C 180.632812 195.675781 180.710938 195.410156 180.820312 195.152344 C 180.925781 194.890625 181.058594 194.644531 181.214844 194.414062 C 181.367188 194.179688 181.546875 193.964844 181.742188 193.769531 C 181.941406 193.570312 182.15625 193.394531 182.390625 193.238281 C 182.621094 193.082031 182.867188 192.949219 183.125 192.84375 C 183.386719 192.738281 183.652344 192.65625 183.925781 192.601562 C 184.199219 192.546875 184.476562 192.519531 184.757812 192.519531 C 185.039062 192.519531 185.316406 192.546875 185.589844 192.601562 C 185.863281 192.65625 186.128906 192.738281 186.390625 192.84375 C 186.648438 192.949219 186.894531 193.082031 187.125 193.238281 C 187.359375 193.394531 187.574219 193.570312 187.773438 193.765625 C 187.96875 193.964844 188.144531 194.179688 188.300781 194.414062 C 188.457031 194.644531 188.589844 194.890625 188.695312 195.148438 C 188.804688 195.410156 188.882812 195.675781 188.9375 195.949219 C 188.992188 196.222656 189.019531 196.5 189.019531 196.78125 C 189.019531 197.0625 188.992188 197.339844 188.9375 197.613281 C 188.882812 197.886719 188.800781 198.152344 188.695312 198.410156 C 188.585938 198.671875 188.457031 198.914062 188.300781 199.148438 C 188.144531 199.378906 187.96875 199.597656 187.769531 199.792969 C 187.574219 199.992188 187.359375 200.167969 187.125 200.324219 C 186.890625 200.480469 186.648438 200.609375 186.386719 200.71875 C 186.128906 200.824219 185.863281 200.90625 185.589844 200.960938 C 185.316406 201.015625 185.039062 201.042969 184.757812 201.042969 Z M 100.25 228.691406 C 99.621094 228.691406 99 228.75 98.386719 228.875 C 97.769531 228.996094 97.171875 229.179688 96.59375 229.417969 C 96.015625 229.65625 95.464844 229.953125 94.941406 230.300781 C 94.421875 230.648438 93.9375 231.046875 93.496094 231.488281 C 93.050781 231.933594 92.65625 232.414062 92.308594 232.9375 C 91.957031 233.457031 91.664062 234.007812 91.425781 234.585938 C 91.183594 235.167969 91.003906 235.765625 90.878906 236.378906 C 90.757812 236.996094 90.695312 237.617188 90.695312 238.242188 C 90.695312 238.871094 90.757812 239.492188 90.878906 240.105469 C 91.003906 240.722656 91.183594 241.320312 91.425781 241.898438 C 91.664062 242.476562 91.957031 243.027344 92.308594 243.550781 C 92.65625 244.070312 93.050781 244.554688 93.496094 245 C 93.9375 245.441406 94.421875 245.835938 94.941406 246.1875 C 95.464844 246.535156 96.015625 246.828125 96.59375 247.070312 C 97.171875 247.308594 97.769531 247.488281 98.386719 247.613281 C 99 247.734375 99.621094 247.796875 100.25 247.796875 C 100.875 247.796875 101.5 247.734375 102.113281 247.613281 C 102.730469 247.488281 103.324219 247.308594 103.90625 247.070312 C 104.484375 246.828125 105.035156 246.535156 105.558594 246.1875 C 106.078125 245.835938 106.5625 245.441406 107.003906 245 C 107.449219 244.554688 107.84375 244.070312 108.191406 243.550781 C 108.539062 243.027344 108.835938 242.476562 109.074219 241.898438 C 109.316406 241.320312 109.496094 240.722656 109.617188 240.105469 C 109.742188 239.492188 109.800781 238.871094 109.800781 238.242188 C 109.800781 237.617188 109.742188 236.996094 109.617188 236.378906 C 109.496094 235.765625 109.316406 235.167969 109.074219 234.585938 C 108.835938 234.007812 108.539062 233.457031 108.191406 232.9375 C 107.84375 232.414062 107.449219 231.933594 107.003906 231.488281 C 106.5625 231.046875 106.078125 230.648438 105.558594 230.300781 C 105.035156 229.953125 104.484375 229.65625 103.90625 229.417969 C 103.324219 229.179688 102.730469 228.996094 102.113281 228.875 C 101.5 228.75 100.878906 228.691406 100.25 228.691406 Z M 100.25 242.503906 C 99.96875 242.507812 99.691406 242.480469 99.417969 242.425781 C 99.144531 242.371094 98.878906 242.289062 98.617188 242.179688 C 98.359375 242.074219 98.113281 241.941406 97.882812 241.789062 C 97.648438 241.632812 97.433594 241.457031 97.234375 241.257812 C 97.039062 241.058594 96.859375 240.84375 96.707031 240.613281 C 96.550781 240.378906 96.417969 240.132812 96.3125 239.875 C 96.203125 239.617188 96.125 239.351562 96.070312 239.074219 C 96.015625 238.800781 95.988281 238.523438 95.988281 238.242188 C 95.988281 237.964844 96.015625 237.6875 96.070312 237.414062 C 96.125 237.136719 96.203125 236.871094 96.3125 236.613281 C 96.417969 236.355469 96.550781 236.109375 96.707031 235.875 C 96.859375 235.644531 97.039062 235.425781 97.234375 235.230469 C 97.433594 235.03125 97.648438 234.855469 97.882812 234.699219 C 98.113281 234.542969 98.359375 234.414062 98.617188 234.304688 C 98.875 234.199219 99.144531 234.117188 99.417969 234.0625 C 99.691406 234.007812 99.96875 233.980469 100.25 233.980469 C 100.527344 233.980469 100.804688 234.007812 101.082031 234.0625 C 101.355469 234.117188 101.621094 234.199219 101.878906 234.304688 C 102.140625 234.414062 102.382812 234.542969 102.617188 234.699219 C 102.851562 234.855469 103.066406 235.03125 103.261719 235.230469 C 103.460938 235.425781 103.636719 235.640625 103.792969 235.875 C 103.949219 236.109375 104.082031 236.351562 104.1875 236.613281 C 104.292969 236.871094 104.375 237.136719 104.429688 237.410156 C 104.484375 237.6875 104.511719 237.964844 104.511719 238.242188 C 104.511719 238.523438 104.484375 238.800781 104.429688 239.074219 C 104.375 239.347656 104.292969 239.613281 104.1875 239.875 C 104.078125 240.132812 103.949219 240.378906 103.792969 240.609375 C 103.636719 240.84375 103.460938 241.058594 103.261719 241.253906 C 103.066406 241.453125 102.847656 241.628906 102.617188 241.785156 C 102.382812 241.941406 102.140625 242.074219 101.878906 242.179688 C 101.621094 242.289062 101.355469 242.367188 101.082031 242.421875 C 100.808594 242.476562 100.53125 242.503906 100.25 242.507812 Z M 218.171875 101.125 C 217.542969 101.125 216.921875 101.1875 216.308594 101.308594 C 215.691406 101.433594 215.09375 101.613281 214.515625 101.855469 C 213.9375 102.09375 213.386719 102.386719 212.863281 102.738281 C 212.34375 103.085938 211.859375 103.480469 211.417969 103.925781 C 210.972656 104.367188 210.578125 104.851562 210.230469 105.371094 C 209.878906 105.894531 209.585938 106.445312 209.347656 107.023438 C 209.105469 107.601562 208.925781 108.199219 208.800781 108.816406 C 208.679688 109.429688 208.617188 110.050781 208.617188 110.679688 C 208.617188 111.308594 208.679688 111.929688 208.800781 112.542969 C 208.925781 113.160156 209.105469 113.753906 209.347656 114.335938 C 209.585938 114.914062 209.878906 115.464844 210.230469 115.988281 C 210.578125 116.507812 210.972656 116.992188 211.417969 117.433594 C 211.859375 117.878906 212.34375 118.273438 212.863281 118.621094 C 213.386719 118.972656 213.9375 119.265625 214.515625 119.503906 C 215.09375 119.746094 215.691406 119.925781 216.308594 120.046875 C 216.921875 120.171875 217.542969 120.230469 218.171875 120.230469 C 218.800781 120.230469 219.421875 120.171875 220.035156 120.046875 C 220.652344 119.925781 221.246094 119.746094 221.828125 119.503906 C 222.40625 119.265625 222.957031 118.972656 223.480469 118.621094 C 224 118.273438 224.484375 117.878906 224.925781 117.433594 C 225.371094 116.992188 225.765625 116.507812 226.113281 115.988281 C 226.460938 115.464844 226.757812 114.914062 226.996094 114.335938 C 227.238281 113.753906 227.417969 113.160156 227.539062 112.542969 C 227.664062 111.929688 227.722656 111.308594 227.722656 110.679688 C 227.722656 110.050781 227.664062 109.429688 227.539062 108.816406 C 227.417969 108.199219 227.238281 107.601562 226.996094 107.023438 C 226.757812 106.445312 226.464844 105.894531 226.113281 105.371094 C 225.765625 104.851562 225.371094 104.367188 224.925781 103.925781 C 224.484375 103.480469 224 103.085938 223.480469 102.738281 C 222.957031 102.386719 222.40625 102.09375 221.828125 101.855469 C 221.246094 101.613281 220.652344 101.433594 220.035156 101.308594 C 219.421875 101.1875 218.800781 101.125 218.171875 101.125 Z M 218.171875 114.941406 C 217.890625 114.941406 217.613281 114.914062 217.339844 114.859375 C 217.066406 114.804688 216.800781 114.726562 216.539062 114.617188 C 216.28125 114.511719 216.035156 114.378906 215.804688 114.222656 C 215.570312 114.070312 215.355469 113.890625 215.15625 113.695312 C 214.960938 113.496094 214.785156 113.28125 214.628906 113.046875 C 214.472656 112.816406 214.339844 112.570312 214.234375 112.3125 C 214.125 112.050781 214.046875 111.785156 213.992188 111.511719 C 213.9375 111.238281 213.910156 110.960938 213.910156 110.679688 C 213.910156 110.398438 213.9375 110.121094 213.992188 109.847656 C 214.046875 109.574219 214.125 109.308594 214.234375 109.050781 C 214.339844 108.789062 214.472656 108.542969 214.628906 108.3125 C 214.78125 108.078125 214.960938 107.863281 215.15625 107.664062 C 215.355469 107.46875 215.570312 107.292969 215.804688 107.136719 C 216.035156 106.980469 216.28125 106.847656 216.539062 106.742188 C 216.796875 106.632812 217.066406 106.554688 217.339844 106.5 C 217.613281 106.445312 217.890625 106.417969 218.171875 106.417969 C 218.453125 106.417969 218.726562 106.445312 219.003906 106.5 C 219.277344 106.554688 219.542969 106.632812 219.800781 106.742188 C 220.0625 106.847656 220.308594 106.980469 220.539062 107.136719 C 220.773438 107.289062 220.988281 107.46875 221.183594 107.664062 C 221.382812 107.863281 221.558594 108.078125 221.714844 108.3125 C 221.871094 108.542969 222.003906 108.789062 222.109375 109.046875 C 222.214844 109.308594 222.296875 109.574219 222.351562 109.847656 C 222.40625 110.121094 222.433594 110.398438 222.433594 110.679688 C 222.433594 110.960938 222.40625 111.234375 222.351562 111.511719 C 222.296875 111.785156 222.214844 112.050781 222.109375 112.308594 C 222 112.566406 221.871094 112.8125 221.714844 113.046875 C 221.558594 113.277344 221.382812 113.496094 221.183594 113.691406 C 220.988281 113.890625 220.769531 114.066406 220.539062 114.222656 C 220.304688 114.378906 220.0625 114.507812 219.800781 114.617188 C 219.542969 114.722656 219.277344 114.804688 219.003906 114.859375 C 218.730469 114.914062 218.453125 114.941406 218.171875 114.941406 Z M 135.425781 196.78125 C 134.796875 196.78125 134.175781 196.84375 133.5625 196.964844 C 132.945312 197.085938 132.351562 197.269531 131.769531 197.507812 C 131.191406 197.75 130.640625 198.042969 130.117188 198.390625 C 129.597656 198.738281 129.113281 199.136719 128.671875 199.578125 C 128.226562 200.023438 127.832031 200.503906 127.484375 201.027344 C 127.132812 201.546875 126.839844 202.097656 126.601562 202.679688 C 126.359375 203.257812 126.179688 203.855469 126.058594 204.46875 C 125.933594 205.085938 125.875 205.707031 125.875 206.335938 C 125.875 206.960938 125.933594 207.582031 126.058594 208.199219 C 126.179688 208.8125 126.359375 209.410156 126.601562 209.988281 C 126.839844 210.570312 127.132812 211.121094 127.484375 211.640625 C 127.832031 212.164062 128.226562 212.644531 128.671875 213.089844 C 129.113281 213.53125 129.597656 213.929688 130.117188 214.277344 C 130.640625 214.625 131.191406 214.917969 131.769531 215.160156 C 132.351562 215.398438 132.945312 215.582031 133.5625 215.703125 C 134.175781 215.824219 134.796875 215.886719 135.425781 215.886719 C 136.054688 215.886719 136.675781 215.824219 137.289062 215.703125 C 137.90625 215.582031 138.503906 215.398438 139.082031 215.160156 C 139.660156 214.917969 140.210938 214.625 140.734375 214.277344 C 141.253906 213.929688 141.738281 213.53125 142.179688 213.089844 C 142.625 212.644531 143.019531 212.164062 143.367188 211.640625 C 143.71875 211.121094 144.011719 210.570312 144.25 209.988281 C 144.492188 209.410156 144.671875 208.8125 144.796875 208.199219 C 144.917969 207.582031 144.980469 206.960938 144.980469 206.335938 C 144.980469 205.707031 144.917969 205.085938 144.796875 204.46875 C 144.671875 203.855469 144.492188 203.257812 144.25 202.679688 C 144.011719 202.097656 143.71875 201.546875 143.367188 201.027344 C 143.019531 200.503906 142.625 200.023438 142.179688 199.578125 C 141.738281 199.136719 141.253906 198.738281 140.734375 198.390625 C 140.210938 198.042969 139.660156 197.75 139.082031 197.507812 C 138.503906 197.269531 137.90625 197.085938 137.289062 196.964844 C 136.675781 196.84375 136.054688 196.78125 135.425781 196.78125 Z M 135.425781 210.597656 C 135.144531 210.597656 134.871094 210.570312 134.59375 210.515625 C 134.320312 210.460938 134.054688 210.378906 133.796875 210.273438 C 133.535156 210.164062 133.289062 210.035156 133.058594 209.878906 C 132.824219 209.722656 132.609375 209.546875 132.414062 209.347656 C 132.214844 209.152344 132.039062 208.933594 131.882812 208.703125 C 131.726562 208.46875 131.59375 208.222656 131.488281 207.964844 C 131.382812 207.707031 131.300781 207.441406 131.246094 207.167969 C 131.191406 206.890625 131.164062 206.613281 131.164062 206.335938 C 131.164062 206.054688 131.191406 205.777344 131.246094 205.503906 C 131.300781 205.226562 131.378906 204.960938 131.488281 204.703125 C 131.59375 204.445312 131.726562 204.199219 131.882812 203.964844 C 132.035156 203.734375 132.214844 203.519531 132.410156 203.320312 C 132.609375 203.121094 132.824219 202.945312 133.058594 202.789062 C 133.289062 202.636719 133.535156 202.503906 133.792969 202.394531 C 134.054688 202.289062 134.320312 202.207031 134.59375 202.152344 C 134.867188 202.097656 135.144531 202.070312 135.425781 202.070312 C 135.707031 202.070312 135.984375 202.097656 136.257812 202.152344 C 136.53125 202.207031 136.796875 202.289062 137.058594 202.394531 C 137.316406 202.503906 137.5625 202.632812 137.792969 202.789062 C 138.027344 202.945312 138.242188 203.121094 138.441406 203.320312 C 138.636719 203.519531 138.8125 203.734375 138.96875 203.964844 C 139.125 204.199219 139.257812 204.445312 139.363281 204.703125 C 139.472656 204.960938 139.550781 205.226562 139.605469 205.503906 C 139.660156 205.777344 139.6875 206.054688 139.6875 206.332031 C 139.6875 206.613281 139.660156 206.890625 139.605469 207.164062 C 139.550781 207.441406 139.46875 207.707031 139.363281 207.964844 C 139.253906 208.222656 139.125 208.46875 138.96875 208.699219 C 138.8125 208.933594 138.636719 209.148438 138.4375 209.347656 C 138.242188 209.542969 138.027344 209.722656 137.792969 209.875 C 137.558594 210.03125 137.316406 210.164062 137.054688 210.269531 C 136.796875 210.378906 136.53125 210.457031 136.257812 210.515625 C 135.984375 210.570312 135.707031 210.597656 135.425781 210.597656 Z M 98.375 152.84375 C 97.746094 152.84375 97.125 152.902344 96.511719 153.027344 C 95.894531 153.148438 95.296875 153.328125 94.71875 153.570312 C 94.140625 153.808594 93.589844 154.105469 93.066406 154.453125 C 92.546875 154.800781 92.0625 155.195312 91.621094 155.640625 C 91.175781 156.085938 90.78125 156.566406 90.433594 157.089844 C 90.082031 157.609375 89.789062 158.160156 89.550781 158.738281 C 89.308594 159.320312 89.128906 159.917969 89.003906 160.53125 C 88.882812 161.148438 88.820312 161.769531 88.820312 162.394531 C 88.820312 163.023438 88.882812 163.644531 89.003906 164.257812 C 89.128906 164.875 89.308594 165.472656 89.550781 166.050781 C 89.789062 166.628906 90.082031 167.179688 90.433594 167.703125 C 90.78125 168.222656 91.175781 168.707031 91.621094 169.148438 C 92.0625 169.59375 92.546875 169.988281 93.066406 170.339844 C 93.589844 170.6875 94.140625 170.980469 94.71875 171.222656 C 95.296875 171.460938 95.894531 171.640625 96.511719 171.765625 C 97.125 171.886719 97.746094 171.949219 98.375 171.949219 C 99.003906 171.949219 99.625 171.886719 100.238281 171.765625 C 100.855469 171.640625 101.449219 171.460938 102.03125 171.222656 C 102.609375 170.980469 103.160156 170.6875 103.683594 170.339844 C 104.203125 169.988281 104.6875 169.59375 105.128906 169.148438 C 105.574219 168.707031 105.96875 168.222656 106.316406 167.703125 C 106.664062 167.179688 106.960938 166.628906 107.199219 166.050781 C 107.441406 165.472656 107.621094 164.875 107.742188 164.257812 C 107.867188 163.644531 107.925781 163.023438 107.925781 162.394531 C 107.925781 161.769531 107.867188 161.148438 107.742188 160.53125 C 107.621094 159.917969 107.441406 159.320312 107.199219 158.738281 C 106.960938 158.160156 106.664062 157.609375 106.316406 157.089844 C 105.96875 156.566406 105.574219 156.085938 105.128906 155.640625 C 104.6875 155.195312 104.203125 154.800781 103.683594 154.453125 C 103.160156 154.105469 102.609375 153.808594 102.03125 153.570312 C 101.449219 153.328125 100.855469 153.148438 100.238281 153.027344 C 99.625 152.902344 99.003906 152.84375 98.375 152.84375 Z M 98.375 166.65625 C 98.09375 166.65625 97.816406 166.628906 97.542969 166.574219 C 97.269531 166.523438 97.003906 166.441406 96.742188 166.332031 C 96.484375 166.226562 96.238281 166.09375 96.007812 165.941406 C 95.773438 165.785156 95.558594 165.609375 95.359375 165.410156 C 95.164062 165.210938 94.984375 164.996094 94.832031 164.765625 C 94.675781 164.53125 94.542969 164.285156 94.4375 164.027344 C 94.328125 163.769531 94.25 163.5 94.195312 163.226562 C 94.140625 162.953125 94.113281 162.675781 94.113281 162.394531 C 94.113281 162.117188 94.140625 161.839844 94.195312 161.5625 C 94.25 161.289062 94.328125 161.023438 94.4375 160.765625 C 94.542969 160.507812 94.675781 160.261719 94.832031 160.027344 C 94.984375 159.796875 95.164062 159.578125 95.359375 159.382812 C 95.558594 159.183594 95.773438 159.007812 96.007812 158.851562 C 96.238281 158.695312 96.484375 158.566406 96.742188 158.457031 C 97 158.351562 97.269531 158.269531 97.542969 158.214844 C 97.816406 158.160156 98.09375 158.132812 98.375 158.132812 C 98.652344 158.132812 98.929688 158.160156 99.207031 158.214844 C 99.480469 158.269531 99.746094 158.351562 100.003906 158.457031 C 100.265625 158.566406 100.511719 158.695312 100.742188 158.851562 C 100.976562 159.007812 101.191406 159.183594 101.386719 159.382812 C 101.585938 159.578125 101.761719 159.792969 101.917969 160.027344 C 102.074219 160.261719 102.207031 160.503906 102.3125 160.765625 C 102.417969 161.023438 102.5 161.289062 102.554688 161.5625 C 102.609375 161.839844 102.636719 162.117188 102.636719 162.394531 C 102.636719 162.675781 102.609375 162.953125 102.554688 163.226562 C 102.5 163.5 102.417969 163.765625 102.3125 164.027344 C 102.203125 164.285156 102.074219 164.53125 101.917969 164.761719 C 101.761719 164.996094 101.585938 165.210938 101.386719 165.40625 C 101.191406 165.605469 100.972656 165.78125 100.742188 165.9375 C 100.507812 166.09375 100.265625 166.226562 100.003906 166.332031 C 99.746094 166.4375 99.480469 166.519531 99.207031 166.574219 C 98.933594 166.628906 98.65625 166.65625 98.375 166.65625 Z M 98.375 166.65625 " fill-opacity="1" fill-rule="nonzero"/></svg>