<svg xmlns="http://www.w3.org/2000/svg" xmlns:xlink="http://www.w3.org/1999/xlink" width="500" zoomAndPan="magnify" viewBox="0 0 375 374.999991" height="500" preserveAspectRatio="xMidYMid meet" version="1.0"><defs><clipPath id="3ed71d561e"><path d="M 37.5 37.5 L 337.5 37.5 L 337.5 337.5 L 37.5 337.5 Z M 37.5 37.5 " clip-rule="nonzero"/></clipPath></defs><g clip-path="url(#3ed71d561e)"><path fill="#ffc54c" d="M 337.5 187.5 C 337.5 189.953125 337.441406 192.410156 337.320312 194.859375 C 337.199219 197.3125 337.019531 199.757812 336.777344 202.203125 C 336.535156 204.644531 336.238281 207.082031 335.875 209.507812 C 335.515625 211.9375 335.097656 214.355469 334.617188 216.761719 C 334.140625 219.171875 333.601562 221.566406 333.003906 223.945312 C 332.40625 226.328125 331.753906 228.695312 331.039062 231.042969 C 330.328125 233.390625 329.558594 235.722656 328.730469 238.035156 C 327.90625 240.34375 327.019531 242.632812 326.082031 244.902344 C 325.140625 247.171875 324.148438 249.414062 323.097656 251.632812 C 322.046875 253.851562 320.945312 256.042969 319.789062 258.210938 C 318.632812 260.375 317.421875 262.511719 316.160156 264.617188 C 314.898438 266.722656 313.585938 268.792969 312.21875 270.835938 C 310.855469 272.875 309.445312 274.882812 307.980469 276.855469 C 306.519531 278.828125 305.007812 280.761719 303.453125 282.660156 C 301.894531 284.554688 300.292969 286.414062 298.644531 288.234375 C 296.992188 290.050781 295.300781 291.832031 293.566406 293.566406 C 291.832031 295.300781 290.054688 296.992188 288.234375 298.644531 C 286.414062 300.292969 284.554688 301.894531 282.660156 303.453125 C 280.761719 305.007812 278.828125 306.519531 276.855469 307.980469 C 274.882812 309.445312 272.875 310.855469 270.835938 312.21875 C 268.792969 313.585938 266.722656 314.898438 264.617188 316.160156 C 262.511719 317.421875 260.375 318.632812 258.210938 319.789062 C 256.042969 320.945312 253.851562 322.046875 251.632812 323.097656 C 249.414062 324.148438 247.171875 325.140625 244.902344 326.082031 C 242.632812 327.019531 240.34375 327.90625 238.035156 328.730469 C 235.722656 329.558594 233.390625 330.328125 231.042969 331.039062 C 228.695312 331.753906 226.328125 332.40625 223.945312 333.003906 C 221.566406 333.601562 219.171875 334.140625 216.761719 334.617188 C 214.355469 335.097656 211.9375 335.515625 209.507812 335.875 C 207.082031 336.238281 204.644531 336.535156 202.203125 336.777344 C 199.757812 337.019531 197.3125 337.199219 194.859375 337.320312 C 192.410156 337.441406 189.953125 337.5 187.5 337.5 C 185.046875 337.5 182.589844 337.441406 180.140625 337.320312 C 177.6875 337.199219 175.242188 337.019531 172.796875 336.777344 C 170.355469 336.535156 167.917969 336.238281 165.492188 335.875 C 163.0625 335.515625 160.644531 335.097656 158.238281 334.617188 C 155.828125 334.140625 153.433594 333.601562 151.054688 333.003906 C 148.671875 332.40625 146.304688 331.753906 143.957031 331.039062 C 141.609375 330.328125 139.277344 329.558594 136.964844 328.730469 C 134.65625 327.90625 132.367188 327.019531 130.097656 326.082031 C 127.828125 325.140625 125.585938 324.148438 123.367188 323.097656 C 121.148438 322.046875 118.957031 320.945312 116.789062 319.789062 C 114.625 318.632812 112.488281 317.421875 110.382812 316.160156 C 108.277344 314.898438 106.207031 313.585938 104.164062 312.21875 C 102.125 310.855469 100.117188 309.445312 98.144531 307.980469 C 96.171875 306.519531 94.238281 305.007812 92.339844 303.453125 C 90.445312 301.894531 88.585938 300.292969 86.765625 298.644531 C 84.945312 296.992188 83.167969 295.300781 81.433594 293.566406 C 79.699219 291.832031 78.007812 290.050781 76.355469 288.234375 C 74.707031 286.414062 73.105469 284.554688 71.546875 282.660156 C 69.992188 280.761719 68.480469 278.828125 67.019531 276.855469 C 65.554688 274.882812 64.144531 272.875 62.78125 270.835938 C 61.414062 268.792969 60.101562 266.722656 58.839844 264.617188 C 57.578125 262.511719 56.367188 260.375 55.210938 258.210938 C 54.054688 256.042969 52.953125 253.851562 51.902344 251.632812 C 50.851562 249.414062 49.859375 247.171875 48.917969 244.902344 C 47.980469 242.632812 47.09375 240.34375 46.269531 238.035156 C 45.441406 235.722656 44.671875 233.390625 43.957031 231.042969 C 43.246094 228.695312 42.589844 226.328125 41.996094 223.945312 C 41.398438 221.566406 40.859375 219.171875 40.382812 216.761719 C 39.902344 214.355469 39.484375 211.9375 39.125 209.507812 C 38.761719 207.082031 38.464844 204.644531 38.222656 202.203125 C 37.980469 199.757812 37.800781 197.3125 37.679688 194.859375 C 37.558594 192.410156 37.5 189.953125 37.5 187.5 C 37.5 185.046875 37.558594 182.589844 37.679688 180.140625 C 37.800781 177.6875 37.980469 175.242188 38.222656 172.796875 C 38.464844 170.355469 38.761719 167.917969 39.125 165.492188 C 39.484375 163.0625 39.902344 160.644531 40.382812 158.238281 C 40.859375 155.828125 41.398438 153.433594 41.996094 151.054688 C 42.589844 148.671875 43.246094 146.304688 43.957031 143.957031 C 44.671875 141.609375 45.441406 139.277344 46.269531 136.964844 C 47.09375 134.65625 47.980469 132.367188 48.917969 130.097656 C 49.859375 127.828125 50.851562 125.585938 51.902344 123.367188 C 52.953125 121.148438 54.054688 118.957031 55.210938 116.789062 C 56.367188 114.625 57.578125 112.488281 58.839844 110.382812 C 60.101562 108.277344 61.414062 106.207031 62.78125 104.164062 C 64.144531 102.125 65.554688 100.117188 67.019531 98.144531 C 68.480469 96.171875 69.992188 94.238281 71.546875 92.339844 C 73.105469 90.445312 74.707031 88.585938 76.355469 86.765625 C 78.007812 84.945312 79.699219 83.167969 81.433594 81.433594 C 83.167969 79.699219 84.945312 78.007812 86.765625 76.355469 C 88.585938 74.707031 90.445312 73.105469 92.339844 71.546875 C 94.238281 69.992188 96.171875 68.480469 98.144531 67.019531 C 100.117188 65.554688 102.125 64.144531 104.164062 62.78125 C 106.207031 61.414062 108.277344 60.101562 110.382812 58.839844 C 112.488281 57.578125 114.625 56.367188 116.789062 55.210938 C 118.957031 54.054688 121.148438 52.953125 123.367188 51.902344 C 125.585938 50.851562 127.828125 49.859375 130.097656 48.917969 C 132.367188 47.980469 134.65625 47.09375 136.964844 46.269531 C 139.277344 45.441406 141.609375 44.671875 143.957031 43.957031 C 146.304688 43.246094 148.671875 42.589844 151.054688 41.996094 C 153.433594 41.398438 155.828125 40.859375 158.238281 40.382812 C 160.644531 39.902344 163.0625 39.484375 165.492188 39.125 C 167.917969 38.761719 170.355469 38.464844 172.796875 38.222656 C 175.242188 37.980469 177.6875 37.800781 180.140625 37.679688 C 182.589844 37.558594 185.046875 37.5 187.5 37.5 C 189.953125 37.5 192.410156 37.558594 194.859375 37.679688 C 197.3125 37.800781 199.757812 37.980469 202.203125 38.222656 C 204.644531 38.464844 207.082031 38.761719 209.507812 39.125 C 211.9375 39.484375 214.355469 39.902344 216.761719 40.382812 C 219.171875 40.859375 221.566406 41.398438 223.945312 41.996094 C 226.328125 42.589844 228.695312 43.246094 231.042969 43.957031 C 233.390625 44.671875 235.722656 45.441406 238.035156 46.269531 C 240.34375 47.09375 242.632812 47.980469 244.902344 48.917969 C 247.171875 49.859375 249.414062 50.851562 251.632812 51.902344 C 253.851562 52.953125 256.042969 54.054688 258.210938 55.210938 C 260.375 56.367188 262.511719 57.578125 264.617188 58.839844 C 266.722656 60.101562 268.792969 61.414062 270.835938 62.78125 C 272.875 64.144531 274.882812 65.554688 276.855469 67.019531 C 278.828125 68.480469 280.761719 69.992188 282.660156 71.546875 C 284.554688 73.105469 286.414062 74.707031 288.234375 76.355469 C 290.054688 78.007812 291.832031 79.699219 293.566406 81.433594 C 295.300781 83.167969 296.992188 84.945312 298.644531 86.765625 C 300.292969 88.585938 301.894531 90.445312 303.453125 92.339844 C 305.007812 94.238281 306.519531 96.171875 307.980469 98.144531 C 309.445312 100.117188 310.855469 102.125 312.21875 104.164062 C 313.585938 106.207031 314.898438 108.277344 316.160156 110.382812 C 317.421875 112.488281 318.632812 114.625 319.789062 116.789062 C 320.945312 118.957031 322.046875 121.148438 323.097656 123.367188 C 324.148438 125.585938 325.140625 127.828125 326.082031 130.097656 C 327.019531 132.367188 327.90625 134.65625 328.730469 136.964844 C 329.558594 139.277344 330.328125 141.609375 331.039062 143.957031 C 331.753906 146.304688 332.40625 148.671875 333.003906 151.054688 C 333.601562 153.433594 334.140625 155.828125 334.617188 158.238281 C 335.097656 160.644531 335.515625 163.0625 335.875 165.492188 C 336.238281 167.917969 336.535156 170.355469 336.777344 172.796875 C 337.019531 175.242188 337.199219 177.6875 337.320312 180.140625 C 337.441406 182.589844 337.5 185.046875 337.5 187.5 Z M 337.5 187.5 " fill-opacity="1" fill-rule="nonzero"/></g><path fill="#eb3323" d="M 314.464844 210.777344 L 316.332031 207.546875 C 317.207031 206.03125 317.980469 204.460938 318.652344 202.84375 C 319.320312 201.222656 319.882812 199.570312 320.335938 197.878906 C 320.789062 196.183594 321.132812 194.46875 321.359375 192.734375 C 321.589844 190.996094 321.703125 189.25 321.703125 187.5 C 321.703125 185.75 321.589844 184.003906 321.359375 182.265625 C 321.132812 180.53125 320.789062 178.816406 320.335938 177.125 C 319.882812 175.429688 319.320312 173.777344 318.652344 172.15625 C 317.980469 170.539062 317.207031 168.96875 316.332031 167.453125 L 314.464844 164.222656 C 312.707031 161.175781 311.371094 157.953125 310.460938 154.550781 C 309.550781 151.152344 309.09375 147.695312 309.09375 144.175781 L 309.09375 140.445312 C 309.09375 138.691406 308.980469 136.949219 308.753906 135.210938 C 308.523438 133.476562 308.183594 131.761719 307.730469 130.066406 C 307.277344 128.375 306.714844 126.71875 306.042969 125.101562 C 305.371094 123.484375 304.597656 121.914062 303.722656 120.398438 C 302.847656 118.882812 301.875 117.425781 300.808594 116.039062 C 299.742188 114.648438 298.589844 113.332031 297.351562 112.09375 C 296.113281 110.855469 294.796875 109.703125 293.410156 108.636719 C 292.019531 107.570312 290.566406 106.597656 289.046875 105.722656 L 285.816406 103.859375 C 282.769531 102.097656 280.003906 99.972656 277.515625 97.484375 C 275.027344 94.996094 272.902344 92.230469 271.140625 89.183594 L 269.277344 85.953125 C 268.402344 84.433594 267.429688 82.980469 266.363281 81.589844 C 265.296875 80.199219 264.144531 78.886719 262.90625 77.648438 C 261.667969 76.410156 260.351562 75.257812 258.960938 74.191406 C 257.574219 73.125 256.117188 72.152344 254.601562 71.277344 C 253.085938 70.402344 251.515625 69.628906 249.898438 68.957031 C 248.28125 68.285156 246.625 67.722656 244.933594 67.269531 C 243.238281 66.816406 241.523438 66.476562 239.789062 66.246094 C 238.050781 66.019531 236.308594 65.90625 234.554688 65.90625 L 230.824219 65.90625 C 227.304688 65.90625 223.847656 65.449219 220.445312 64.539062 C 217.046875 63.628906 213.824219 62.292969 210.777344 60.535156 L 207.546875 58.667969 C 206.03125 57.792969 204.460938 57.019531 202.84375 56.347656 C 201.222656 55.679688 199.570312 55.117188 197.875 54.664062 C 196.183594 54.210938 194.46875 53.867188 192.734375 53.640625 C 190.996094 53.410156 189.25 53.296875 187.5 53.296875 C 185.746094 53.296875 184.003906 53.410156 182.265625 53.640625 C 180.53125 53.867188 178.816406 54.210938 177.121094 54.664062 C 175.429688 55.117188 173.777344 55.679688 172.15625 56.347656 C 170.539062 57.019531 168.96875 57.792969 167.453125 58.667969 L 164.222656 60.535156 C 161.175781 62.292969 157.953125 63.628906 154.554688 64.539062 C 151.152344 65.449219 147.695312 65.90625 144.175781 65.90625 L 140.445312 65.90625 C 138.691406 65.90625 136.949219 66.019531 135.210938 66.246094 C 133.476562 66.476562 131.761719 66.816406 130.066406 67.269531 C 128.375 67.722656 126.71875 68.285156 125.101562 68.957031 C 123.484375 69.628906 121.914062 70.402344 120.398438 71.277344 C 118.882812 72.152344 117.425781 73.125 116.039062 74.191406 C 114.648438 75.257812 113.332031 76.410156 112.09375 77.648438 C 110.855469 78.886719 109.703125 80.203125 108.636719 81.589844 C 107.570312 82.980469 106.597656 84.433594 105.722656 85.953125 L 103.859375 89.183594 C 102.097656 92.230469 99.972656 94.996094 97.484375 97.484375 C 94.996094 99.972656 92.230469 102.097656 89.183594 103.859375 L 85.953125 105.722656 C 84.433594 106.597656 82.980469 107.570312 81.589844 108.636719 C 80.203125 109.703125 78.886719 110.855469 77.648438 112.09375 C 76.410156 113.332031 75.257812 114.648438 74.191406 116.039062 C 73.125 117.425781 72.152344 118.882812 71.277344 120.398438 C 70.402344 121.914062 69.628906 123.484375 68.957031 125.101562 C 68.285156 126.71875 67.722656 128.375 67.269531 130.066406 C 66.816406 131.761719 66.476562 133.476562 66.246094 135.210938 C 66.019531 136.949219 65.90625 138.691406 65.90625 140.445312 L 65.90625 144.175781 C 65.90625 147.695312 65.449219 151.152344 64.539062 154.550781 C 63.628906 157.953125 62.292969 161.175781 60.535156 164.222656 L 58.667969 167.453125 C 57.792969 168.96875 57.019531 170.539062 56.347656 172.15625 C 55.679688 173.777344 55.117188 175.429688 54.664062 177.125 C 54.210938 178.816406 53.867188 180.53125 53.640625 182.265625 C 53.410156 184.003906 53.296875 185.75 53.296875 187.5 C 53.296875 189.25 53.410156 190.996094 53.640625 192.734375 C 53.867188 194.46875 54.210938 196.183594 54.664062 197.878906 C 55.117188 199.570312 55.679688 201.222656 56.347656 202.84375 C 57.019531 204.460938 57.792969 206.03125 58.667969 207.546875 L 60.535156 210.777344 C 62.292969 213.824219 63.628906 217.046875 64.539062 220.449219 C 65.449219 223.847656 65.90625 227.304688 65.90625 230.824219 L 65.90625 234.554688 C 65.90625 236.308594 66.019531 238.050781 66.246094 239.789062 C 66.476562 241.523438 66.816406 243.238281 67.269531 244.933594 C 67.722656 246.625 68.285156 248.28125 68.957031 249.898438 C 69.628906 251.515625 70.402344 253.085938 71.277344 254.601562 C 72.152344 256.117188 73.125 257.574219 74.191406 258.960938 C 75.257812 260.351562 76.410156 261.667969 77.648438 262.90625 C 78.886719 264.144531 80.203125 265.296875 81.589844 266.363281 C 82.980469 267.429688 84.433594 268.402344 85.953125 269.277344 L 89.183594 271.140625 C 92.230469 272.902344 94.996094 275.027344 97.484375 277.515625 C 99.972656 280.003906 102.097656 282.769531 103.859375 285.816406 L 105.722656 289.046875 C 106.597656 290.566406 107.570312 292.019531 108.636719 293.410156 C 109.703125 294.796875 110.855469 296.113281 112.09375 297.351562 C 113.332031 298.589844 114.648438 299.742188 116.039062 300.808594 C 117.425781 301.875 118.882812 302.847656 120.398438 303.722656 C 121.914062 304.597656 123.484375 305.371094 125.101562 306.042969 C 126.71875 306.714844 128.375 307.277344 130.066406 307.730469 C 131.761719 308.183594 133.476562 308.523438 135.210938 308.753906 C 136.949219 308.980469 138.691406 309.09375 140.445312 309.09375 L 144.175781 309.09375 C 147.695312 309.09375 151.152344 309.550781 154.554688 310.460938 C 157.953125 311.371094 161.175781 312.707031 164.222656 314.464844 L 167.453125 316.332031 C 168.96875 317.207031 170.539062 317.980469 172.15625 318.652344 C 173.777344 319.320312 175.429688 319.882812 177.121094 320.335938 C 178.816406 320.789062 180.53125 321.132812 182.265625 321.359375 C 184.003906 321.589844 185.75 321.703125 187.5 321.703125 C 189.25 321.703125 190.996094 321.589844 192.734375 321.359375 C 194.46875 321.132812 196.183594 320.789062 197.875 320.335938 C 199.570312 319.882812 201.222656 319.320312 202.84375 318.652344 C 204.460938 317.980469 206.03125 317.207031 207.546875 316.332031 L 210.777344 314.464844 C 213.824219 312.707031 217.046875 311.371094 220.445312 310.460938 C 223.847656 309.550781 227.304688 309.09375 230.824219 309.09375 L 234.554688 309.09375 C 236.308594 309.09375 238.050781 308.980469 239.789062 308.753906 C 241.523438 308.523438 243.238281 308.183594 244.933594 307.730469 C 246.625 307.277344 248.28125 306.714844 249.898438 306.042969 C 251.515625 305.371094 253.085938 304.597656 254.601562 303.722656 C 256.117188 302.847656 257.574219 301.875 258.960938 300.808594 C 260.351562 299.742188 261.667969 298.589844 262.90625 297.351562 C 264.144531 296.113281 265.296875 294.800781 266.363281 293.410156 C 267.429688 292.019531 268.402344 290.566406 269.277344 289.046875 L 271.140625 285.816406 C 272.902344 282.769531 275.027344 280.003906 277.515625 277.515625 C 280.003906 275.027344 282.769531 272.902344 285.816406 271.140625 L 289.046875 269.277344 C 290.566406 268.402344 292.019531 267.429688 293.410156 266.363281 C 294.796875 265.296875 296.113281 264.144531 297.351562 262.90625 C 298.589844 261.667969 299.742188 260.351562 300.808594 258.960938 C 301.875 257.574219 302.847656 256.117188 303.722656 254.601562 C 304.597656 253.085938 305.371094 251.515625 306.042969 249.898438 C 306.714844 248.28125 307.277344 246.625 307.730469 244.933594 C 308.183594 243.238281 308.523438 241.523438 308.753906 239.789062 C 308.980469 238.050781 309.09375 236.308594 309.09375 234.554688 L 309.09375 230.824219 C 309.09375 227.304688 309.550781 223.847656 310.460938 220.449219 C 311.371094 217.046875 312.707031 213.824219 314.464844 210.777344 Z M 314.464844 210.777344 " fill-opacity="1" fill-rule="nonzero"/><path fill="#fcef9e" d="M 188.347656 312.660156 C 182.59375 312.675781 177.328125 311.097656 172.191406 308.652344 C 171.609375 308.371094 170.3125 307.75 169.882812 307.46875 C 163.652344 303.367188 149.230469 301.296875 144.425781 301.34375 C 140.84375 301.375 143.496094 301.175781 143.488281 301.175781 C 130.789062 303.542969 116.382812 290.253906 112.5 284.300781 C 109.585938 279.828125 111.71875 283.191406 111.714844 283.183594 C 108.480469 275.5 98.074219 265.613281 93.964844 262.828125 C 90.886719 260.742188 93.25 262.152344 93.238281 262.148438 C 81.9375 257.332031 75.664062 239.371094 75.105469 232.441406 C 74.6875 227.246094 74.949219 231.132812 74.953125 231.125 C 75.675781 223.191406 70.777344 210.707031 68.476562 206.621094 C 66.75 203.558594 68.167969 205.738281 68.164062 205.730469 C 60.085938 195.96875 64.351562 176.679688 67.304688 170.335938 C 69.523438 165.5625 67.832031 169.097656 67.832031 169.09375 C 72.519531 162.164062 75.457031 147.804688 75.796875 142.8125 C 76.054688 139.066406 76.03125 141.847656 76.03125 141.839844 C 74.578125 129.007812 88.367188 114.582031 94.390625 110.570312 C 98.914062 107.554688 95.496094 109.863281 95.503906 109.859375 C 103.019531 105.058594 110.875 98.902344 114.148438 91.863281 C 115.25 89.925781 114.148438 91.863281 114.148438 91.863281 C 118.746094 81.992188 135.613281 74.90625 142.332031 75.398438 C 147.363281 75.765625 143.472656 75.425781 143.480469 75.425781 C 153.296875 75.785156 160.09375 74.121094 168.28125 70.078125 C 168.847656 69.800781 169.753906 69.203125 170.34375 68.90625 C 175.492188 66.320312 180.441406 64.84375 186.199219 64.613281 C 191.898438 64.414062 197.347656 65.492188 202.546875 67.847656 C 203.144531 68.109375 204.449219 68.636719 204.894531 68.894531 C 211.328125 72.632812 225.964844 73.988281 230.746094 73.773438 C 234.335938 73.609375 231.679688 73.910156 231.6875 73.910156 C 244.394531 71.417969 258.65625 85.085938 262.480469 91.007812 C 265.351562 95.445312 263.25 92.105469 263.253906 92.113281 C 266.425781 99.695312 276.726562 109.089844 280.757812 111.84375 C 283.777344 113.90625 281.480469 112.398438 281.480469 112.398438 C 292.621094 119.359375 299 132.539062 299.4375 143.898438 C 299.761719 146.019531 299.4375 143.898438 299.4375 143.898438 C 299.746094 151.992188 303.707031 165.253906 306.421875 169.433594 C 308.457031 172.5625 306.769531 170.335938 306.773438 170.34375 C 314.78125 180.011719 310.75 199.039062 307.757812 205.273438 C 305.496094 209.992188 307.226562 206.492188 307.222656 206.496094 C 302.570312 213.019531 300.222656 226.433594 300.085938 231.164062 C 299.984375 234.714844 299.894531 232.082031 299.898438 232.089844 C 301.828125 244.382812 288.769531 258.242188 283.011719 262.011719 C 278.695312 264.835938 281.945312 262.773438 281.9375 262.777344 C 274.335938 266.023438 265.476562 276.800781 262.941406 280.964844 C 261.039062 284.089844 262.3125 281.691406 262.308594 281.703125 C 257.949219 293.320312 240.171875 299.464844 233.222656 300.070312 C 228.011719 300.527344 232.035156 300.167969 232.027344 300.167969 C 221.804688 300.609375 214.707031 302.71875 206.300781 307.179688 C 205.71875 307.488281 204.804688 308.117188 204.21875 308.421875 C 199.113281 311.074219 194.101562 312.640625 188.347656 312.660156 Z M 188.347656 312.660156 " fill-opacity="1" fill-rule="nonzero"/><path fill="#bd1d1d" d="M 135.761719 112.765625 L 145.945312 122.949219 C 146.128906 123.132812 146.269531 123.347656 146.371094 123.585938 C 146.472656 123.828125 146.519531 124.078125 146.519531 124.339844 C 146.519531 124.597656 146.472656 124.847656 146.371094 125.089844 C 146.269531 125.332031 146.128906 125.542969 145.945312 125.726562 L 120.699219 150.976562 C 120.511719 151.160156 120.300781 151.300781 120.058594 151.402344 C 119.820312 151.5 119.570312 151.550781 119.308594 151.550781 C 119.046875 151.550781 118.796875 151.5 118.558594 151.402344 C 118.316406 151.300781 118.105469 151.160156 117.921875 150.976562 L 107.738281 140.792969 C 107.554688 140.609375 107.410156 140.394531 107.3125 140.15625 C 107.210938 139.914062 107.160156 139.664062 107.160156 139.402344 C 107.160156 139.144531 107.210938 138.890625 107.3125 138.652344 C 107.410156 138.410156 107.554688 138.199219 107.738281 138.015625 L 132.984375 112.765625 C 133.167969 112.582031 133.382812 112.441406 133.621094 112.339844 C 133.863281 112.242188 134.113281 112.191406 134.375 112.191406 C 134.632812 112.191406 134.882812 112.242188 135.125 112.339844 C 135.367188 112.441406 135.578125 112.582031 135.761719 112.765625 Z M 233.457031 110.742188 L 199.917969 98.488281 C 199.671875 98.398438 199.421875 98.359375 199.160156 98.371094 C 198.902344 98.378906 198.652344 98.441406 198.417969 98.550781 C 198.179688 98.660156 197.972656 98.8125 197.796875 99.003906 C 197.621094 99.195312 197.488281 99.414062 197.398438 99.65625 L 192.457031 113.183594 C 192.367188 113.429688 192.328125 113.679688 192.339844 113.941406 C 192.351562 114.199219 192.410156 114.449219 192.519531 114.683594 C 192.628906 114.921875 192.78125 115.128906 192.972656 115.304688 C 193.164062 115.480469 193.382812 115.613281 193.628906 115.703125 L 227.164062 127.957031 C 227.410156 128.046875 227.660156 128.085938 227.921875 128.074219 C 228.183594 128.0625 228.429688 128.003906 228.667969 127.894531 C 228.902344 127.785156 229.109375 127.632812 229.285156 127.441406 C 229.460938 127.25 229.59375 127.03125 229.683594 126.785156 L 234.625 113.261719 C 234.714844 113.015625 234.753906 112.761719 234.742188 112.503906 C 234.730469 112.242188 234.671875 111.996094 234.5625 111.757812 C 234.453125 111.523438 234.300781 111.316406 234.109375 111.140625 C 233.917969 110.964844 233.699219 110.832031 233.457031 110.742188 Z M 275.863281 179.078125 L 269.96875 143.863281 C 269.925781 143.605469 269.832031 143.367188 269.695312 143.144531 C 269.558594 142.925781 269.382812 142.738281 269.171875 142.585938 C 268.957031 142.4375 268.726562 142.332031 268.472656 142.273438 C 268.21875 142.214844 267.964844 142.207031 267.707031 142.25 L 253.503906 144.628906 C 253.246094 144.671875 253.007812 144.761719 252.785156 144.898438 C 252.566406 145.035156 252.378906 145.210938 252.226562 145.421875 C 252.078125 145.636719 251.972656 145.867188 251.914062 146.121094 C 251.855469 146.375 251.847656 146.632812 251.890625 146.886719 L 257.785156 182.105469 C 257.828125 182.359375 257.917969 182.601562 258.058594 182.820312 C 258.195312 183.042969 258.371094 183.226562 258.582031 183.378906 C 258.792969 183.53125 259.027344 183.632812 259.28125 183.691406 C 259.535156 183.75 259.789062 183.757812 260.046875 183.714844 L 274.25 181.339844 C 274.507812 181.296875 274.746094 181.207031 274.964844 181.066406 C 275.1875 180.929688 275.375 180.753906 275.523438 180.542969 C 275.675781 180.332031 275.78125 180.097656 275.839844 179.84375 C 275.898438 179.589844 275.90625 179.335938 275.863281 179.078125 Z M 252.070312 262.152344 L 271.21875 232.011719 C 271.359375 231.792969 271.449219 231.554688 271.496094 231.296875 C 271.539062 231.042969 271.535156 230.785156 271.476562 230.53125 C 271.421875 230.277344 271.316406 230.042969 271.167969 229.832031 C 271.019531 229.617188 270.832031 229.441406 270.613281 229.300781 L 258.457031 221.578125 C 258.238281 221.441406 258 221.347656 257.742188 221.304688 C 257.488281 221.257812 257.230469 221.265625 256.976562 221.320312 C 256.722656 221.378906 256.488281 221.480469 256.277344 221.628906 C 256.0625 221.78125 255.886719 221.964844 255.746094 222.183594 L 236.601562 252.324219 C 236.460938 252.542969 236.367188 252.78125 236.324219 253.035156 C 236.277344 253.292969 236.285156 253.546875 236.339844 253.804688 C 236.398438 254.058594 236.5 254.289062 236.652344 254.503906 C 236.800781 254.71875 236.984375 254.894531 237.203125 255.03125 L 249.359375 262.753906 C 249.578125 262.894531 249.816406 262.988281 250.074219 263.03125 C 250.332031 263.078125 250.585938 263.070312 250.839844 263.015625 C 251.09375 262.957031 251.328125 262.855469 251.542969 262.707031 C 251.753906 262.554688 251.929688 262.371094 252.070312 262.152344 Z M 150.21875 273.851562 L 185.09375 281.511719 C 185.347656 281.566406 185.605469 281.574219 185.859375 281.527344 C 186.117188 281.480469 186.355469 281.386719 186.574219 281.246094 C 186.792969 281.105469 186.976562 280.929688 187.125 280.71875 C 187.273438 280.503906 187.378906 280.269531 187.433594 280.015625 L 190.523438 265.949219 C 190.578125 265.695312 190.582031 265.4375 190.539062 265.183594 C 190.492188 264.925781 190.398438 264.6875 190.257812 264.46875 C 190.117188 264.25 189.941406 264.066406 189.726562 263.917969 C 189.515625 263.769531 189.28125 263.664062 189.027344 263.609375 L 154.152344 255.949219 C 153.894531 255.894531 153.640625 255.890625 153.382812 255.9375 C 153.128906 255.980469 152.890625 256.074219 152.671875 256.214844 C 152.453125 256.355469 152.269531 256.53125 152.117188 256.746094 C 151.96875 256.960938 151.867188 257.191406 151.8125 257.449219 L 148.722656 271.511719 C 148.667969 271.769531 148.660156 272.023438 148.707031 272.28125 C 148.753906 272.535156 148.847656 272.773438 148.988281 272.992188 C 149.125 273.210938 149.304688 273.398438 149.515625 273.546875 C 149.730469 273.695312 149.964844 273.796875 150.21875 273.851562 Z M 143.878906 205.082031 L 162.828125 235.34375 C 162.96875 235.566406 163.144531 235.75 163.355469 235.902344 C 163.566406 236.054688 163.800781 236.15625 164.054688 236.214844 C 164.308594 236.273438 164.5625 236.28125 164.820312 236.238281 C 165.078125 236.195312 165.316406 236.105469 165.535156 235.964844 L 177.742188 228.324219 C 177.960938 228.183594 178.148438 228.011719 178.300781 227.796875 C 178.449219 227.585938 178.554688 227.351562 178.613281 227.097656 C 178.671875 226.84375 178.679688 226.589844 178.636719 226.332031 C 178.59375 226.078125 178.503906 225.839844 178.363281 225.617188 L 159.414062 195.355469 C 159.277344 195.132812 159.101562 194.949219 158.886719 194.796875 C 158.675781 194.644531 158.441406 194.542969 158.191406 194.484375 C 157.9375 194.425781 157.679688 194.417969 157.421875 194.460938 C 157.167969 194.503906 156.929688 194.59375 156.707031 194.734375 L 144.5 202.375 C 144.28125 202.515625 144.09375 202.6875 143.945312 202.902344 C 143.792969 203.113281 143.6875 203.347656 143.628906 203.601562 C 143.570312 203.855469 143.5625 204.109375 143.609375 204.367188 C 143.652344 204.621094 143.742188 204.863281 143.878906 205.082031 Z M 218.261719 178.472656 L 210.601562 213.347656 C 210.546875 213.601562 210.542969 213.859375 210.585938 214.113281 C 210.632812 214.371094 210.726562 214.609375 210.867188 214.828125 C 211.007812 215.046875 211.183594 215.230469 211.398438 215.378906 C 211.609375 215.527344 211.84375 215.632812 212.097656 215.6875 L 226.164062 218.777344 C 226.417969 218.832031 226.675781 218.835938 226.929688 218.792969 C 227.1875 218.746094 227.425781 218.652344 227.644531 218.511719 C 227.863281 218.371094 228.046875 218.195312 228.199219 217.980469 C 228.347656 217.769531 228.449219 217.535156 228.503906 217.28125 L 236.164062 182.40625 C 236.21875 182.148438 236.222656 181.894531 236.179688 181.636719 C 236.132812 181.382812 236.039062 181.144531 235.898438 180.925781 C 235.757812 180.707031 235.582031 180.523438 235.367188 180.371094 C 235.15625 180.222656 234.921875 180.121094 234.667969 180.066406 L 220.601562 176.976562 C 220.347656 176.921875 220.089844 176.914062 219.835938 176.960938 C 219.578125 177.007812 219.339844 177.101562 219.121094 177.238281 C 218.902344 177.378906 218.71875 177.558594 218.570312 177.769531 C 218.421875 177.984375 218.316406 178.21875 218.261719 178.472656 Z M 164.726562 165.050781 L 198.972656 154.949219 C 199.222656 154.878906 199.449219 154.757812 199.652344 154.59375 C 199.855469 154.429688 200.019531 154.234375 200.144531 154.007812 C 200.265625 153.777344 200.34375 153.535156 200.371094 153.273438 C 200.398438 153.015625 200.375 152.761719 200.300781 152.511719 L 196.226562 138.699219 C 196.152344 138.449219 196.035156 138.222656 195.871094 138.019531 C 195.707031 137.816406 195.511719 137.652344 195.285156 137.53125 C 195.054688 137.40625 194.8125 137.328125 194.550781 137.300781 C 194.292969 137.273438 194.039062 137.296875 193.789062 137.371094 L 159.542969 147.472656 C 159.292969 147.546875 159.066406 147.664062 158.863281 147.828125 C 158.660156 147.992188 158.496094 148.1875 158.371094 148.417969 C 158.246094 148.644531 158.171875 148.890625 158.144531 149.148438 C 158.117188 149.40625 158.140625 149.660156 158.214844 149.910156 L 162.285156 163.722656 C 162.359375 163.972656 162.480469 164.199219 162.644531 164.402344 C 162.808594 164.605469 163.003906 164.769531 163.230469 164.894531 C 163.460938 165.015625 163.703125 165.09375 163.964844 165.121094 C 164.222656 165.148438 164.476562 165.125 164.726562 165.050781 Z M 97.679688 193.027344 L 105.820312 227.796875 C 105.878906 228.046875 105.984375 228.28125 106.136719 228.492188 C 106.289062 228.703125 106.476562 228.878906 106.695312 229.015625 C 106.917969 229.152344 107.15625 229.242188 107.414062 229.285156 C 107.671875 229.328125 107.925781 229.320312 108.179688 229.257812 L 122.203125 225.976562 C 122.453125 225.917969 122.6875 225.8125 122.898438 225.660156 C 123.109375 225.507812 123.285156 225.320312 123.421875 225.101562 C 123.558594 224.878906 123.648438 224.640625 123.691406 224.382812 C 123.734375 224.125 123.726562 223.871094 123.664062 223.617188 L 115.527344 188.851562 C 115.46875 188.597656 115.363281 188.363281 115.210938 188.152344 C 115.058594 187.941406 114.871094 187.765625 114.652344 187.628906 C 114.429688 187.492188 114.191406 187.402344 113.933594 187.359375 C 113.675781 187.320312 113.421875 187.328125 113.167969 187.386719 L 99.144531 190.667969 C 98.890625 190.726562 98.660156 190.835938 98.449219 190.984375 C 98.238281 191.136719 98.0625 191.324219 97.925781 191.546875 C 97.789062 191.765625 97.699219 192.007812 97.65625 192.261719 C 97.613281 192.519531 97.621094 192.773438 97.679688 193.027344 Z M 97.679688 193.027344 " fill-opacity="1" fill-rule="nonzero"/><path fill="#571d1d" d="M 132.050781 161.316406 C 131.402344 161.316406 130.761719 161.378906 130.128906 161.507812 C 129.492188 161.632812 128.878906 161.820312 128.28125 162.066406 C 127.683594 162.3125 127.117188 162.617188 126.578125 162.976562 C 126.039062 163.335938 125.542969 163.746094 125.085938 164.203125 C 124.628906 164.660156 124.21875 165.15625 123.859375 165.695312 C 123.5 166.230469 123.199219 166.800781 122.949219 167.398438 C 122.703125 167.992188 122.515625 168.609375 122.390625 169.242188 C 122.265625 169.878906 122.199219 170.519531 122.199219 171.164062 C 122.199219 171.8125 122.265625 172.453125 122.390625 173.085938 C 122.515625 173.722656 122.703125 174.335938 122.949219 174.933594 C 123.199219 175.53125 123.5 176.097656 123.859375 176.636719 C 124.21875 177.175781 124.628906 177.671875 125.085938 178.128906 C 125.542969 178.585938 126.039062 178.996094 126.578125 179.355469 C 127.117188 179.714844 127.683594 180.015625 128.28125 180.265625 C 128.878906 180.511719 129.492188 180.699219 130.128906 180.824219 C 130.761719 180.949219 131.402344 181.011719 132.050781 181.011719 C 132.695312 181.011719 133.335938 180.949219 133.96875 180.824219 C 134.605469 180.699219 135.21875 180.511719 135.816406 180.265625 C 136.414062 180.015625 136.984375 179.714844 137.519531 179.355469 C 138.058594 178.996094 138.554688 178.585938 139.011719 178.128906 C 139.46875 177.671875 139.878906 177.175781 140.238281 176.636719 C 140.597656 176.097656 140.898438 175.53125 141.148438 174.933594 C 141.394531 174.335938 141.582031 173.722656 141.707031 173.085938 C 141.835938 172.453125 141.898438 171.8125 141.898438 171.164062 C 141.898438 170.519531 141.835938 169.878906 141.707031 169.242188 C 141.582031 168.609375 141.394531 167.992188 141.148438 167.398438 C 140.898438 166.800781 140.597656 166.230469 140.238281 165.695312 C 139.878906 165.15625 139.46875 164.660156 139.011719 164.203125 C 138.554688 163.746094 138.058594 163.335938 137.519531 162.976562 C 136.984375 162.617188 136.414062 162.3125 135.816406 162.066406 C 135.21875 161.820312 134.605469 161.632812 133.96875 161.507812 C 133.335938 161.378906 132.695312 161.316406 132.050781 161.316406 Z M 132.050781 175.558594 C 131.761719 175.558594 131.476562 175.53125 131.191406 175.476562 C 130.910156 175.417969 130.632812 175.335938 130.367188 175.226562 C 130.101562 175.113281 129.847656 174.980469 129.609375 174.820312 C 129.367188 174.660156 129.144531 174.476562 128.941406 174.273438 C 128.738281 174.070312 128.554688 173.847656 128.394531 173.605469 C 128.234375 173.367188 128.101562 173.113281 127.988281 172.847656 C 127.878906 172.582031 127.796875 172.304688 127.738281 172.023438 C 127.683594 171.738281 127.65625 171.453125 127.65625 171.164062 C 127.65625 170.878906 127.683594 170.589844 127.738281 170.308594 C 127.796875 170.027344 127.878906 169.75 127.988281 169.484375 C 128.097656 169.21875 128.234375 168.964844 128.394531 168.722656 C 128.554688 168.484375 128.738281 168.261719 128.941406 168.058594 C 129.144531 167.855469 129.367188 167.671875 129.605469 167.511719 C 129.847656 167.351562 130.101562 167.214844 130.367188 167.105469 C 130.632812 166.996094 130.910156 166.910156 131.191406 166.855469 C 131.472656 166.800781 131.761719 166.769531 132.046875 166.769531 C 132.335938 166.769531 132.621094 166.800781 132.90625 166.855469 C 133.1875 166.910156 133.464844 166.996094 133.730469 167.105469 C 133.996094 167.214844 134.25 167.351562 134.488281 167.511719 C 134.730469 167.671875 134.953125 167.855469 135.15625 168.058594 C 135.359375 168.261719 135.542969 168.484375 135.703125 168.722656 C 135.863281 168.964844 136 169.21875 136.109375 169.484375 C 136.21875 169.75 136.300781 170.023438 136.359375 170.308594 C 136.414062 170.589844 136.441406 170.875 136.441406 171.164062 C 136.441406 171.453125 136.414062 171.738281 136.359375 172.023438 C 136.300781 172.304688 136.21875 172.578125 136.109375 172.847656 C 135.996094 173.113281 135.863281 173.367188 135.703125 173.605469 C 135.539062 173.84375 135.359375 174.066406 135.15625 174.269531 C 134.949219 174.476562 134.730469 174.65625 134.488281 174.816406 C 134.25 174.976562 133.996094 175.113281 133.730469 175.222656 C 133.464844 175.335938 133.1875 175.417969 132.90625 175.472656 C 132.625 175.53125 132.335938 175.558594 132.050781 175.558594 Z M 164.433594 91.101562 C 163.785156 91.101562 163.148438 91.164062 162.511719 91.292969 C 161.878906 91.417969 161.261719 91.605469 160.664062 91.851562 C 160.066406 92.101562 159.5 92.402344 158.960938 92.761719 C 158.425781 93.121094 157.925781 93.53125 157.46875 93.988281 C 157.011719 94.445312 156.605469 94.941406 156.246094 95.480469 C 155.886719 96.015625 155.582031 96.585938 155.335938 97.183594 C 155.085938 97.78125 154.902344 98.394531 154.773438 99.03125 C 154.648438 99.664062 154.585938 100.304688 154.585938 100.949219 C 154.585938 101.597656 154.648438 102.238281 154.773438 102.871094 C 154.902344 103.507812 155.085938 104.121094 155.335938 104.71875 C 155.582031 105.316406 155.886719 105.882812 156.246094 106.421875 C 156.605469 106.960938 157.011719 107.457031 157.46875 107.914062 C 157.925781 108.371094 158.425781 108.78125 158.960938 109.140625 C 159.5 109.5 160.066406 109.800781 160.664062 110.050781 C 161.261719 110.296875 161.878906 110.484375 162.511719 110.609375 C 163.148438 110.734375 163.785156 110.796875 164.433594 110.796875 C 165.082031 110.796875 165.722656 110.734375 166.355469 110.609375 C 166.988281 110.484375 167.605469 110.296875 168.203125 110.050781 C 168.800781 109.800781 169.367188 109.5 169.90625 109.140625 C 170.441406 108.78125 170.941406 108.371094 171.398438 107.914062 C 171.855469 107.457031 172.261719 106.960938 172.621094 106.421875 C 172.980469 105.882812 173.285156 105.316406 173.53125 104.71875 C 173.78125 104.121094 173.964844 103.507812 174.09375 102.871094 C 174.21875 102.238281 174.28125 101.597656 174.28125 100.949219 C 174.28125 100.304688 174.21875 99.664062 174.09375 99.03125 C 173.964844 98.394531 173.78125 97.78125 173.53125 97.183594 C 173.285156 96.585938 172.980469 96.015625 172.621094 95.480469 C 172.261719 94.941406 171.855469 94.445312 171.398438 93.988281 C 170.941406 93.53125 170.441406 93.121094 169.90625 92.761719 C 169.367188 92.402344 168.800781 92.101562 168.203125 91.851562 C 167.605469 91.605469 166.988281 91.417969 166.355469 91.292969 C 165.722656 91.164062 165.082031 91.101562 164.433594 91.101562 Z M 164.433594 105.34375 C 164.144531 105.34375 163.859375 105.316406 163.578125 105.261719 C 163.292969 105.203125 163.019531 105.121094 162.753906 105.011719 C 162.484375 104.898438 162.234375 104.765625 161.992188 104.605469 C 161.753906 104.445312 161.53125 104.261719 161.328125 104.058594 C 161.121094 103.855469 160.941406 103.632812 160.78125 103.390625 C 160.621094 103.152344 160.484375 102.898438 160.375 102.632812 C 160.261719 102.367188 160.179688 102.089844 160.125 101.808594 C 160.066406 101.527344 160.039062 101.238281 160.039062 100.949219 C 160.039062 100.664062 160.066406 100.375 160.125 100.09375 C 160.179688 99.8125 160.261719 99.535156 160.375 99.269531 C 160.484375 99.003906 160.621094 98.75 160.78125 98.507812 C 160.941406 98.269531 161.121094 98.046875 161.324219 97.84375 C 161.53125 97.640625 161.753906 97.457031 161.992188 97.296875 C 162.230469 97.136719 162.484375 97 162.75 96.890625 C 163.019531 96.78125 163.292969 96.699219 163.574219 96.640625 C 163.859375 96.585938 164.144531 96.554688 164.433594 96.554688 C 164.722656 96.554688 165.007812 96.585938 165.289062 96.640625 C 165.574219 96.695312 165.847656 96.78125 166.113281 96.890625 C 166.382812 97 166.632812 97.136719 166.875 97.296875 C 167.113281 97.457031 167.335938 97.640625 167.539062 97.84375 C 167.746094 98.046875 167.925781 98.269531 168.085938 98.507812 C 168.246094 98.75 168.382812 99.003906 168.492188 99.269531 C 168.605469 99.535156 168.6875 99.808594 168.742188 100.09375 C 168.800781 100.375 168.828125 100.660156 168.828125 100.949219 C 168.828125 101.238281 168.800781 101.523438 168.742188 101.808594 C 168.6875 102.089844 168.601562 102.363281 168.492188 102.632812 C 168.382812 102.898438 168.246094 103.152344 168.085938 103.390625 C 167.925781 103.628906 167.742188 103.851562 167.539062 104.054688 C 167.335938 104.261719 167.113281 104.441406 166.875 104.601562 C 166.632812 104.761719 166.382812 104.898438 166.113281 105.007812 C 165.847656 105.121094 165.574219 105.203125 165.289062 105.257812 C 165.007812 105.316406 164.722656 105.34375 164.433594 105.34375 Z M 228.835938 142.546875 C 228.191406 142.546875 227.550781 142.609375 226.914062 142.734375 C 226.28125 142.863281 225.664062 143.046875 225.070312 143.296875 C 224.472656 143.542969 223.902344 143.847656 223.367188 144.207031 C 222.828125 144.566406 222.332031 144.972656 221.875 145.429688 C 221.417969 145.886719 221.007812 146.386719 220.648438 146.921875 C 220.289062 147.460938 219.984375 148.027344 219.738281 148.625 C 219.492188 149.222656 219.304688 149.839844 219.179688 150.472656 C 219.050781 151.105469 218.988281 151.746094 218.988281 152.394531 C 218.988281 153.039062 219.050781 153.679688 219.179688 154.316406 C 219.304688 154.949219 219.492188 155.566406 219.738281 156.164062 C 219.984375 156.761719 220.289062 157.328125 220.648438 157.867188 C 221.007812 158.402344 221.417969 158.902344 221.875 159.359375 C 222.332031 159.816406 222.828125 160.222656 223.367188 160.582031 C 223.902344 160.941406 224.472656 161.246094 225.070312 161.492188 C 225.664062 161.738281 226.28125 161.925781 226.914062 162.054688 C 227.550781 162.179688 228.191406 162.242188 228.835938 162.242188 C 229.484375 162.242188 230.125 162.179688 230.757812 162.054688 C 231.394531 161.925781 232.007812 161.738281 232.605469 161.492188 C 233.203125 161.246094 233.769531 160.941406 234.308594 160.582031 C 234.847656 160.222656 235.34375 159.816406 235.800781 159.359375 C 236.257812 158.902344 236.667969 158.402344 237.027344 157.867188 C 237.386719 157.328125 237.6875 156.761719 237.9375 156.164062 C 238.183594 155.566406 238.371094 154.949219 238.496094 154.316406 C 238.621094 153.679688 238.683594 153.039062 238.683594 152.394531 C 238.683594 151.746094 238.621094 151.105469 238.496094 150.472656 C 238.371094 149.839844 238.183594 149.222656 237.9375 148.625 C 237.6875 148.027344 237.386719 147.460938 237.027344 146.921875 C 236.667969 146.386719 236.257812 145.886719 235.800781 145.429688 C 235.34375 144.972656 234.847656 144.566406 234.308594 144.207031 C 233.769531 143.847656 233.203125 143.542969 232.605469 143.296875 C 232.007812 143.046875 231.394531 142.863281 230.757812 142.734375 C 230.125 142.609375 229.484375 142.546875 228.835938 142.546875 Z M 228.835938 156.789062 C 228.550781 156.789062 228.261719 156.761719 227.980469 156.703125 C 227.695312 156.648438 227.421875 156.566406 227.15625 156.453125 C 226.890625 156.34375 226.636719 156.207031 226.394531 156.046875 C 226.15625 155.886719 225.933594 155.707031 225.730469 155.5 C 225.527344 155.296875 225.34375 155.074219 225.183594 154.835938 C 225.023438 154.597656 224.886719 154.34375 224.777344 154.078125 C 224.667969 153.808594 224.582031 153.535156 224.527344 153.25 C 224.472656 152.96875 224.441406 152.683594 224.441406 152.394531 C 224.441406 152.105469 224.472656 151.820312 224.527344 151.539062 C 224.582031 151.253906 224.667969 150.980469 224.777344 150.714844 C 224.886719 150.445312 225.023438 150.191406 225.183594 149.953125 C 225.34375 149.714844 225.527344 149.492188 225.730469 149.289062 C 225.933594 149.082031 226.15625 148.902344 226.394531 148.742188 C 226.636719 148.582031 226.886719 148.445312 227.15625 148.335938 C 227.421875 148.222656 227.695312 148.140625 227.980469 148.085938 C 228.261719 148.027344 228.546875 148 228.835938 148 C 229.125 148 229.410156 148.027344 229.695312 148.085938 C 229.976562 148.140625 230.25 148.222656 230.519531 148.335938 C 230.785156 148.445312 231.039062 148.582031 231.277344 148.742188 C 231.519531 148.902344 231.738281 149.082031 231.945312 149.285156 C 232.148438 149.492188 232.332031 149.710938 232.492188 149.953125 C 232.652344 150.191406 232.785156 150.445312 232.898438 150.710938 C 233.007812 150.980469 233.089844 151.253906 233.148438 151.535156 C 233.203125 151.820312 233.230469 152.105469 233.230469 152.394531 C 233.230469 152.683594 233.203125 152.96875 233.144531 153.25 C 233.089844 153.535156 233.007812 153.808594 232.894531 154.074219 C 232.785156 154.339844 232.648438 154.59375 232.488281 154.835938 C 232.328125 155.074219 232.148438 155.296875 231.941406 155.5 C 231.738281 155.703125 231.515625 155.886719 231.277344 156.046875 C 231.039062 156.207031 230.785156 156.34375 230.519531 156.453125 C 230.25 156.5625 229.976562 156.648438 229.695312 156.703125 C 229.410156 156.761719 229.125 156.789062 228.835938 156.789062 Z M 257.914062 105.34375 C 257.265625 105.34375 256.625 105.40625 255.992188 105.535156 C 255.355469 105.660156 254.742188 105.847656 254.144531 106.09375 C 253.546875 106.34375 252.980469 106.644531 252.441406 107.003906 C 251.902344 107.363281 251.40625 107.773438 250.949219 108.230469 C 250.492188 108.6875 250.082031 109.183594 249.722656 109.722656 C 249.363281 110.257812 249.0625 110.828125 248.8125 111.425781 C 248.566406 112.023438 248.378906 112.636719 248.253906 113.273438 C 248.128906 113.90625 248.0625 114.546875 248.0625 115.191406 C 248.0625 115.839844 248.128906 116.480469 248.253906 117.113281 C 248.378906 117.75 248.566406 118.363281 248.8125 118.960938 C 249.0625 119.558594 249.363281 120.125 249.722656 120.664062 C 250.082031 121.203125 250.492188 121.699219 250.949219 122.15625 C 251.40625 122.613281 251.902344 123.023438 252.441406 123.382812 C 252.980469 123.742188 253.546875 124.042969 254.144531 124.292969 C 254.742188 124.539062 255.355469 124.726562 255.992188 124.851562 C 256.625 124.976562 257.265625 125.042969 257.914062 125.042969 C 258.558594 125.042969 259.199219 124.976562 259.832031 124.851562 C 260.46875 124.726562 261.082031 124.539062 261.679688 124.292969 C 262.277344 124.042969 262.847656 123.742188 263.382812 123.382812 C 263.921875 123.023438 264.417969 122.613281 264.875 122.15625 C 265.332031 121.699219 265.742188 121.203125 266.101562 120.664062 C 266.460938 120.125 266.761719 119.558594 267.011719 118.960938 C 267.257812 118.363281 267.445312 117.75 267.570312 117.113281 C 267.699219 116.480469 267.761719 115.839844 267.761719 115.191406 C 267.761719 114.546875 267.699219 113.90625 267.570312 113.273438 C 267.445312 112.636719 267.257812 112.023438 267.011719 111.425781 C 266.761719 110.828125 266.460938 110.257812 266.101562 109.722656 C 265.742188 109.183594 265.332031 108.6875 264.875 108.230469 C 264.417969 107.773438 263.921875 107.363281 263.382812 107.003906 C 262.847656 106.644531 262.277344 106.34375 261.679688 106.09375 C 261.082031 105.847656 260.46875 105.660156 259.832031 105.535156 C 259.199219 105.40625 258.558594 105.34375 257.914062 105.34375 Z M 257.914062 119.585938 C 257.625 119.585938 257.339844 119.558594 257.054688 119.503906 C 256.773438 119.445312 256.496094 119.363281 256.230469 119.253906 C 255.964844 119.144531 255.710938 119.007812 255.472656 118.847656 C 255.230469 118.6875 255.007812 118.503906 254.804688 118.300781 C 254.601562 118.097656 254.417969 117.875 254.257812 117.636719 C 254.097656 117.394531 253.964844 117.140625 253.851562 116.875 C 253.742188 116.609375 253.660156 116.332031 253.601562 116.050781 C 253.546875 115.769531 253.519531 115.480469 253.519531 115.195312 C 253.519531 114.90625 253.546875 114.621094 253.601562 114.335938 C 253.660156 114.054688 253.742188 113.777344 253.851562 113.511719 C 253.964844 113.246094 254.097656 112.992188 254.257812 112.753906 C 254.417969 112.511719 254.601562 112.289062 254.804688 112.085938 C 255.007812 111.882812 255.230469 111.699219 255.472656 111.539062 C 255.710938 111.378906 255.964844 111.242188 256.230469 111.132812 C 256.496094 111.023438 256.773438 110.941406 257.054688 110.882812 C 257.335938 110.828125 257.625 110.800781 257.914062 110.800781 C 258.199219 110.800781 258.488281 110.828125 258.769531 110.882812 C 259.050781 110.941406 259.328125 111.023438 259.59375 111.132812 C 259.859375 111.242188 260.113281 111.378906 260.351562 111.539062 C 260.59375 111.699219 260.816406 111.882812 261.019531 112.085938 C 261.222656 112.289062 261.40625 112.511719 261.566406 112.75 C 261.726562 112.992188 261.863281 113.246094 261.972656 113.511719 C 262.082031 113.777344 262.164062 114.050781 262.222656 114.335938 C 262.277344 114.617188 262.308594 114.90625 262.308594 115.191406 C 262.304688 115.480469 262.277344 115.765625 262.222656 116.050781 C 262.164062 116.332031 262.082031 116.605469 261.972656 116.875 C 261.859375 117.140625 261.726562 117.394531 261.566406 117.632812 C 261.40625 117.871094 261.222656 118.09375 261.019531 118.296875 C 260.816406 118.503906 260.59375 118.683594 260.351562 118.84375 C 260.113281 119.003906 259.859375 119.140625 259.59375 119.25 C 259.328125 119.363281 259.050781 119.445312 258.769531 119.503906 C 258.488281 119.558594 258.203125 119.585938 257.914062 119.585938 Z M 274.308594 194.757812 C 273.660156 194.757812 273.019531 194.820312 272.386719 194.949219 C 271.75 195.074219 271.136719 195.261719 270.539062 195.507812 C 269.941406 195.757812 269.371094 196.058594 268.835938 196.417969 C 268.296875 196.777344 267.800781 197.1875 267.34375 197.644531 C 266.886719 198.101562 266.476562 198.597656 266.117188 199.136719 C 265.757812 199.671875 265.457031 200.242188 265.207031 200.839844 C 264.960938 201.4375 264.773438 202.050781 264.648438 202.6875 C 264.523438 203.320312 264.457031 203.960938 264.457031 204.605469 C 264.457031 205.253906 264.523438 205.894531 264.648438 206.527344 C 264.773438 207.164062 264.960938 207.777344 265.207031 208.375 C 265.457031 208.972656 265.757812 209.539062 266.117188 210.078125 C 266.476562 210.617188 266.886719 211.113281 267.34375 211.570312 C 267.800781 212.027344 268.296875 212.4375 268.835938 212.796875 C 269.371094 213.15625 269.941406 213.457031 270.539062 213.707031 C 271.136719 213.953125 271.75 214.140625 272.386719 214.265625 C 273.019531 214.390625 273.660156 214.457031 274.304688 214.457031 C 274.953125 214.457031 275.59375 214.390625 276.226562 214.265625 C 276.863281 214.140625 277.476562 213.953125 278.074219 213.707031 C 278.671875 213.457031 279.242188 213.15625 279.777344 212.796875 C 280.316406 212.4375 280.8125 212.027344 281.269531 211.570312 C 281.726562 211.113281 282.136719 210.617188 282.496094 210.078125 C 282.855469 209.539062 283.15625 208.972656 283.40625 208.375 C 283.652344 207.777344 283.839844 207.164062 283.964844 206.527344 C 284.089844 205.894531 284.15625 205.253906 284.15625 204.605469 C 284.15625 203.960938 284.089844 203.320312 283.964844 202.6875 C 283.839844 202.050781 283.652344 201.4375 283.40625 200.839844 C 283.15625 200.242188 282.855469 199.671875 282.496094 199.136719 C 282.136719 198.597656 281.726562 198.101562 281.269531 197.644531 C 280.8125 197.1875 280.316406 196.777344 279.777344 196.417969 C 279.242188 196.058594 278.671875 195.757812 278.074219 195.507812 C 277.476562 195.261719 276.863281 195.074219 276.226562 194.949219 C 275.59375 194.820312 274.953125 194.757812 274.308594 194.757812 Z M 274.308594 209 C 274.019531 209 273.734375 208.972656 273.449219 208.917969 C 273.167969 208.859375 272.890625 208.777344 272.625 208.667969 C 272.359375 208.558594 272.105469 208.421875 271.867188 208.261719 C 271.625 208.101562 271.402344 207.917969 271.199219 207.714844 C 270.996094 207.511719 270.8125 207.289062 270.652344 207.050781 C 270.492188 206.808594 270.355469 206.554688 270.246094 206.289062 C 270.136719 206.023438 270.054688 205.746094 269.996094 205.464844 C 269.941406 205.183594 269.914062 204.894531 269.914062 204.609375 C 269.914062 204.320312 269.941406 204.035156 269.996094 203.75 C 270.054688 203.46875 270.136719 203.191406 270.246094 202.925781 C 270.355469 202.660156 270.492188 202.40625 270.652344 202.167969 C 270.8125 201.925781 270.996094 201.703125 271.199219 201.5 C 271.402344 201.296875 271.625 201.113281 271.863281 200.953125 C 272.105469 200.792969 272.359375 200.65625 272.625 200.546875 C 272.890625 200.4375 273.164062 200.355469 273.449219 200.296875 C 273.730469 200.242188 274.019531 200.214844 274.304688 200.214844 C 274.59375 200.214844 274.878906 200.242188 275.164062 200.296875 C 275.445312 200.355469 275.722656 200.4375 275.988281 200.546875 C 276.253906 200.65625 276.507812 200.792969 276.746094 200.953125 C 276.988281 201.113281 277.210938 201.296875 277.414062 201.5 C 277.617188 201.703125 277.800781 201.925781 277.960938 202.164062 C 278.121094 202.40625 278.253906 202.660156 278.367188 202.925781 C 278.476562 203.191406 278.558594 203.464844 278.617188 203.75 C 278.671875 204.03125 278.699219 204.320312 278.699219 204.605469 C 278.699219 204.894531 278.671875 205.179688 278.617188 205.464844 C 278.558594 205.746094 278.476562 206.019531 278.363281 206.289062 C 278.253906 206.554688 278.121094 206.808594 277.957031 207.046875 C 277.796875 207.285156 277.617188 207.507812 277.414062 207.710938 C 277.207031 207.917969 276.988281 208.097656 276.746094 208.257812 C 276.507812 208.417969 276.253906 208.554688 275.988281 208.664062 C 275.722656 208.777344 275.445312 208.859375 275.164062 208.917969 C 274.882812 208.972656 274.59375 209 274.308594 209 Z M 218.988281 263.277344 C 218.34375 263.277344 217.703125 263.339844 217.066406 263.464844 C 216.433594 263.59375 215.816406 263.78125 215.21875 264.027344 C 214.621094 264.273438 214.054688 264.578125 213.519531 264.9375 C 212.980469 265.296875 212.484375 265.703125 212.027344 266.160156 C 211.566406 266.617188 211.160156 267.117188 210.800781 267.652344 C 210.441406 268.191406 210.136719 268.757812 209.890625 269.355469 C 209.644531 269.953125 209.457031 270.570312 209.332031 271.203125 C 209.203125 271.839844 209.140625 272.480469 209.140625 273.125 C 209.140625 273.773438 209.203125 274.414062 209.332031 275.046875 C 209.457031 275.679688 209.644531 276.296875 209.890625 276.894531 C 210.136719 277.492188 210.441406 278.058594 210.800781 278.597656 C 211.160156 279.132812 211.566406 279.632812 212.027344 280.089844 C 212.484375 280.546875 212.980469 280.953125 213.519531 281.3125 C 214.054688 281.671875 214.621094 281.976562 215.21875 282.222656 C 215.816406 282.472656 216.433594 282.65625 217.066406 282.785156 C 217.703125 282.910156 218.34375 282.972656 218.988281 282.972656 C 219.636719 282.972656 220.277344 282.910156 220.910156 282.785156 C 221.542969 282.65625 222.160156 282.472656 222.757812 282.222656 C 223.355469 281.976562 223.921875 281.671875 224.460938 281.3125 C 224.996094 280.953125 225.496094 280.546875 225.953125 280.089844 C 226.410156 279.632812 226.816406 279.132812 227.175781 278.597656 C 227.535156 278.058594 227.839844 277.492188 228.085938 276.894531 C 228.335938 276.296875 228.523438 275.679688 228.648438 275.046875 C 228.773438 274.414062 228.835938 273.773438 228.835938 273.125 C 228.835938 272.480469 228.773438 271.839844 228.648438 271.203125 C 228.523438 270.570312 228.335938 269.953125 228.085938 269.355469 C 227.839844 268.757812 227.535156 268.191406 227.175781 267.652344 C 226.816406 267.117188 226.410156 266.617188 225.953125 266.160156 C 225.496094 265.703125 224.996094 265.296875 224.460938 264.9375 C 223.921875 264.578125 223.355469 264.273438 222.757812 264.027344 C 222.160156 263.78125 221.542969 263.59375 220.910156 263.464844 C 220.277344 263.339844 219.636719 263.277344 218.988281 263.277344 Z M 218.988281 277.519531 C 218.699219 277.519531 218.414062 277.492188 218.132812 277.433594 C 217.847656 277.378906 217.574219 277.296875 217.308594 277.183594 C 217.042969 277.074219 216.789062 276.941406 216.546875 276.78125 C 216.308594 276.621094 216.085938 276.4375 215.882812 276.234375 C 215.679688 276.027344 215.496094 275.808594 215.335938 275.566406 C 215.175781 275.328125 215.039062 275.074219 214.929688 274.808594 C 214.820312 274.539062 214.734375 274.265625 214.679688 273.984375 C 214.621094 273.699219 214.59375 273.414062 214.59375 273.125 C 214.59375 272.835938 214.621094 272.550781 214.679688 272.269531 C 214.734375 271.984375 214.820312 271.710938 214.929688 271.445312 C 215.039062 271.175781 215.175781 270.925781 215.335938 270.683594 C 215.496094 270.445312 215.675781 270.222656 215.882812 270.019531 C 216.085938 269.816406 216.308594 269.632812 216.546875 269.472656 C 216.789062 269.3125 217.039062 269.175781 217.308594 269.066406 C 217.574219 268.957031 217.847656 268.871094 218.132812 268.816406 C 218.414062 268.757812 218.699219 268.730469 218.988281 268.730469 C 219.277344 268.730469 219.5625 268.757812 219.847656 268.816406 C 220.128906 268.871094 220.402344 268.957031 220.671875 269.066406 C 220.9375 269.175781 221.191406 269.3125 221.429688 269.472656 C 221.671875 269.632812 221.890625 269.8125 222.097656 270.019531 C 222.300781 270.222656 222.480469 270.445312 222.640625 270.683594 C 222.804688 270.925781 222.9375 271.175781 223.046875 271.445312 C 223.160156 271.710938 223.242188 271.984375 223.296875 272.269531 C 223.355469 272.550781 223.382812 272.835938 223.382812 273.125 C 223.382812 273.414062 223.355469 273.699219 223.296875 273.980469 C 223.242188 274.265625 223.15625 274.539062 223.046875 274.804688 C 222.9375 275.074219 222.800781 275.324219 222.640625 275.566406 C 222.480469 275.804688 222.300781 276.027344 222.09375 276.230469 C 221.890625 276.433594 221.667969 276.617188 221.429688 276.777344 C 221.191406 276.9375 220.9375 277.074219 220.671875 277.183594 C 220.402344 277.292969 220.128906 277.378906 219.847656 277.433594 C 219.5625 277.492188 219.277344 277.519531 218.988281 277.519531 Z M 93.304688 155.910156 C 92.660156 155.910156 92.019531 155.976562 91.386719 156.101562 C 90.75 156.226562 90.136719 156.414062 89.539062 156.660156 C 88.941406 156.910156 88.371094 157.210938 87.835938 157.570312 C 87.296875 157.929688 86.800781 158.339844 86.34375 158.796875 C 85.886719 159.253906 85.476562 159.75 85.117188 160.289062 C 84.757812 160.824219 84.457031 161.394531 84.207031 161.992188 C 83.960938 162.589844 83.773438 163.203125 83.648438 163.839844 C 83.519531 164.472656 83.457031 165.113281 83.457031 165.757812 C 83.457031 166.40625 83.519531 167.046875 83.648438 167.679688 C 83.773438 168.316406 83.960938 168.929688 84.207031 169.527344 C 84.457031 170.125 84.757812 170.695312 85.117188 171.230469 C 85.476562 171.769531 85.886719 172.265625 86.34375 172.722656 C 86.800781 173.179688 87.296875 173.589844 87.835938 173.949219 C 88.371094 174.308594 88.941406 174.609375 89.539062 174.859375 C 90.136719 175.105469 90.75 175.292969 91.386719 175.417969 C 92.019531 175.542969 92.660156 175.609375 93.304688 175.609375 C 93.953125 175.609375 94.59375 175.542969 95.226562 175.417969 C 95.863281 175.292969 96.476562 175.105469 97.074219 174.859375 C 97.671875 174.609375 98.238281 174.308594 98.777344 173.949219 C 99.316406 173.589844 99.8125 173.179688 100.269531 172.722656 C 100.726562 172.265625 101.136719 171.769531 101.496094 171.230469 C 101.855469 170.695312 102.15625 170.125 102.40625 169.527344 C 102.652344 168.929688 102.839844 168.316406 102.964844 167.679688 C 103.089844 167.046875 103.15625 166.40625 103.15625 165.761719 C 103.15625 165.113281 103.089844 164.472656 102.964844 163.839844 C 102.839844 163.203125 102.652344 162.589844 102.40625 161.992188 C 102.15625 161.394531 101.855469 160.824219 101.496094 160.289062 C 101.136719 159.75 100.726562 159.253906 100.269531 158.796875 C 99.8125 158.339844 99.316406 157.929688 98.777344 157.570312 C 98.238281 157.210938 97.671875 156.910156 97.074219 156.660156 C 96.476562 156.414062 95.863281 156.226562 95.226562 156.101562 C 94.59375 155.976562 93.953125 155.910156 93.304688 155.910156 Z M 93.304688 170.152344 C 93.019531 170.152344 92.730469 170.125 92.449219 170.070312 C 92.167969 170.011719 91.890625 169.929688 91.625 169.820312 C 91.359375 169.710938 91.105469 169.574219 90.867188 169.414062 C 90.625 169.253906 90.402344 169.070312 90.199219 168.867188 C 89.996094 168.664062 89.8125 168.441406 89.652344 168.203125 C 89.492188 167.960938 89.355469 167.707031 89.246094 167.441406 C 89.136719 167.175781 89.054688 166.902344 88.996094 166.617188 C 88.941406 166.335938 88.910156 166.046875 88.910156 165.761719 C 88.910156 165.472656 88.941406 165.1875 88.996094 164.902344 C 89.050781 164.621094 89.136719 164.34375 89.246094 164.078125 C 89.355469 163.8125 89.492188 163.558594 89.652344 163.320312 C 89.8125 163.078125 89.996094 162.855469 90.199219 162.652344 C 90.402344 162.449219 90.625 162.265625 90.863281 162.105469 C 91.105469 161.945312 91.359375 161.8125 91.625 161.699219 C 91.890625 161.589844 92.164062 161.507812 92.449219 161.449219 C 92.730469 161.394531 93.015625 161.367188 93.304688 161.367188 C 93.59375 161.367188 93.878906 161.394531 94.164062 161.449219 C 94.445312 161.507812 94.722656 161.589844 94.988281 161.699219 C 95.253906 161.808594 95.507812 161.945312 95.746094 162.105469 C 95.988281 162.265625 96.210938 162.449219 96.414062 162.652344 C 96.617188 162.855469 96.800781 163.078125 96.960938 163.316406 C 97.121094 163.558594 97.253906 163.8125 97.367188 164.078125 C 97.476562 164.34375 97.558594 164.621094 97.617188 164.902344 C 97.671875 165.183594 97.699219 165.472656 97.699219 165.757812 C 97.699219 166.046875 97.671875 166.332031 97.617188 166.617188 C 97.558594 166.898438 97.476562 167.175781 97.363281 167.441406 C 97.253906 167.707031 97.117188 167.960938 96.957031 168.199219 C 96.796875 168.441406 96.617188 168.660156 96.414062 168.867188 C 96.207031 169.070312 95.988281 169.25 95.746094 169.410156 C 95.507812 169.570312 95.253906 169.707031 94.988281 169.816406 C 94.722656 169.929688 94.445312 170.011719 94.164062 170.070312 C 93.878906 170.125 93.59375 170.152344 93.304688 170.152344 Z M 188.371094 172.257812 C 187.722656 172.257812 187.082031 172.320312 186.449219 172.445312 C 185.8125 172.574219 185.199219 172.761719 184.601562 173.007812 C 184.003906 173.253906 183.4375 173.558594 182.898438 173.917969 C 182.359375 174.277344 181.863281 174.683594 181.40625 175.140625 C 180.949219 175.601562 180.539062 176.097656 180.179688 176.636719 C 179.820312 177.171875 179.519531 177.738281 179.269531 178.335938 C 179.023438 178.933594 178.835938 179.550781 178.710938 180.183594 C 178.585938 180.820312 178.519531 181.460938 178.519531 182.105469 C 178.519531 182.753906 178.585938 183.394531 178.710938 184.027344 C 178.835938 184.660156 179.023438 185.277344 179.269531 185.875 C 179.519531 186.472656 179.820312 187.039062 180.179688 187.578125 C 180.539062 188.113281 180.949219 188.613281 181.40625 189.070312 C 181.863281 189.527344 182.359375 189.933594 182.898438 190.292969 C 183.4375 190.652344 184.003906 190.957031 184.601562 191.203125 C 185.199219 191.453125 185.8125 191.640625 186.449219 191.765625 C 187.082031 191.890625 187.722656 191.953125 188.371094 191.953125 C 189.015625 191.953125 189.65625 191.890625 190.289062 191.765625 C 190.925781 191.640625 191.539062 191.453125 192.136719 191.203125 C 192.734375 190.957031 193.304688 190.652344 193.839844 190.292969 C 194.378906 189.933594 194.875 189.527344 195.332031 189.070312 C 195.789062 188.613281 196.199219 188.113281 196.558594 187.578125 C 196.917969 187.039062 197.21875 186.472656 197.46875 185.875 C 197.714844 185.277344 197.902344 184.660156 198.027344 184.027344 C 198.15625 183.394531 198.21875 182.753906 198.21875 182.105469 C 198.21875 181.460938 198.15625 180.820312 198.027344 180.183594 C 197.902344 179.550781 197.714844 178.933594 197.46875 178.335938 C 197.21875 177.738281 196.917969 177.171875 196.558594 176.636719 C 196.199219 176.097656 195.789062 175.601562 195.332031 175.140625 C 194.875 174.683594 194.378906 174.277344 193.839844 173.917969 C 193.304688 173.558594 192.734375 173.253906 192.136719 173.007812 C 191.539062 172.761719 190.925781 172.574219 190.289062 172.445312 C 189.65625 172.320312 189.015625 172.257812 188.371094 172.257812 Z M 188.371094 186.5 C 188.082031 186.5 187.796875 186.472656 187.511719 186.417969 C 187.230469 186.359375 186.953125 186.277344 186.6875 186.167969 C 186.421875 186.054688 186.167969 185.921875 185.929688 185.761719 C 185.6875 185.601562 185.464844 185.417969 185.261719 185.214844 C 185.058594 185.007812 184.875 184.789062 184.714844 184.546875 C 184.554688 184.308594 184.421875 184.054688 184.308594 183.789062 C 184.199219 183.523438 184.117188 183.246094 184.058594 182.964844 C 184.003906 182.679688 183.976562 182.394531 183.976562 182.105469 C 183.976562 181.816406 184.003906 181.53125 184.058594 181.25 C 184.117188 180.964844 184.199219 180.691406 184.308594 180.425781 C 184.417969 180.160156 184.554688 179.90625 184.714844 179.664062 C 184.875 179.425781 185.058594 179.203125 185.261719 179 C 185.464844 178.796875 185.6875 178.613281 185.925781 178.453125 C 186.167969 178.292969 186.421875 178.15625 186.6875 178.046875 C 186.953125 177.9375 187.230469 177.851562 187.511719 177.796875 C 187.792969 177.738281 188.082031 177.710938 188.367188 177.710938 C 188.65625 177.710938 188.941406 177.738281 189.226562 177.796875 C 189.507812 177.851562 189.785156 177.9375 190.050781 178.046875 C 190.316406 178.15625 190.570312 178.292969 190.808594 178.453125 C 191.050781 178.613281 191.273438 178.792969 191.476562 179 C 191.679688 179.203125 191.863281 179.425781 192.023438 179.664062 C 192.183594 179.90625 192.320312 180.15625 192.429688 180.425781 C 192.539062 180.691406 192.621094 180.964844 192.679688 181.25 C 192.734375 181.53125 192.761719 181.816406 192.761719 182.105469 C 192.761719 182.394531 192.734375 182.679688 192.679688 182.960938 C 192.621094 183.246094 192.539062 183.519531 192.429688 183.785156 C 192.316406 184.054688 192.183594 184.304688 192.023438 184.546875 C 191.863281 184.785156 191.679688 185.007812 191.476562 185.210938 C 191.269531 185.414062 191.050781 185.597656 190.808594 185.757812 C 190.570312 185.917969 190.316406 186.054688 190.050781 186.164062 C 189.785156 186.273438 189.507812 186.359375 189.226562 186.414062 C 188.945312 186.472656 188.65625 186.5 188.371094 186.5 Z M 198.21875 225.738281 C 197.570312 225.738281 196.929688 225.800781 196.296875 225.925781 C 195.660156 226.050781 195.046875 226.238281 194.449219 226.484375 C 193.851562 226.734375 193.285156 227.035156 192.746094 227.394531 C 192.207031 227.753906 191.710938 228.164062 191.253906 228.621094 C 190.796875 229.078125 190.386719 229.574219 190.027344 230.113281 C 189.667969 230.652344 189.367188 231.21875 189.117188 231.816406 C 188.871094 232.414062 188.683594 233.027344 188.558594 233.664062 C 188.433594 234.296875 188.371094 234.9375 188.371094 235.585938 C 188.371094 236.230469 188.433594 236.871094 188.558594 237.507812 C 188.683594 238.140625 188.871094 238.757812 189.117188 239.351562 C 189.367188 239.949219 189.667969 240.519531 190.027344 241.054688 C 190.386719 241.59375 190.796875 242.089844 191.253906 242.546875 C 191.710938 243.003906 192.207031 243.414062 192.746094 243.773438 C 193.285156 244.132812 193.851562 244.4375 194.449219 244.683594 C 195.046875 244.929688 195.660156 245.117188 196.296875 245.242188 C 196.929688 245.371094 197.570312 245.433594 198.21875 245.433594 C 198.863281 245.433594 199.503906 245.371094 200.140625 245.242188 C 200.773438 245.117188 201.390625 244.929688 201.984375 244.683594 C 202.582031 244.4375 203.152344 244.132812 203.6875 243.773438 C 204.226562 243.414062 204.722656 243.003906 205.179688 242.546875 C 205.636719 242.089844 206.046875 241.59375 206.40625 241.054688 C 206.765625 240.519531 207.070312 239.949219 207.316406 239.351562 C 207.5625 238.757812 207.75 238.140625 207.875 237.507812 C 208.003906 236.871094 208.066406 236.230469 208.066406 235.585938 C 208.066406 234.9375 208.003906 234.296875 207.875 233.664062 C 207.75 233.027344 207.5625 232.414062 207.316406 231.816406 C 207.070312 231.21875 206.765625 230.652344 206.40625 230.113281 C 206.046875 229.574219 205.636719 229.078125 205.179688 228.621094 C 204.722656 228.164062 204.226562 227.753906 203.6875 227.394531 C 203.152344 227.035156 202.582031 226.734375 201.984375 226.484375 C 201.390625 226.238281 200.773438 226.050781 200.140625 225.925781 C 199.503906 225.800781 198.863281 225.738281 198.21875 225.738281 Z M 198.21875 239.980469 C 197.929688 239.980469 197.644531 239.949219 197.359375 239.894531 C 197.078125 239.839844 196.800781 239.753906 196.535156 239.644531 C 196.269531 239.535156 196.015625 239.398438 195.777344 239.238281 C 195.535156 239.078125 195.316406 238.894531 195.109375 238.691406 C 194.90625 238.488281 194.722656 238.265625 194.5625 238.027344 C 194.402344 237.785156 194.269531 237.535156 194.15625 237.265625 C 194.046875 237 193.964844 236.726562 193.90625 236.441406 C 193.851562 236.160156 193.824219 235.875 193.824219 235.585938 C 193.824219 235.296875 193.851562 235.011719 193.90625 234.726562 C 193.964844 234.445312 194.046875 234.171875 194.15625 233.902344 C 194.269531 233.636719 194.402344 233.382812 194.5625 233.144531 C 194.722656 232.902344 194.90625 232.683594 195.109375 232.476562 C 195.3125 232.273438 195.535156 232.089844 195.777344 231.929688 C 196.015625 231.769531 196.269531 231.636719 196.535156 231.523438 C 196.800781 231.414062 197.078125 231.332031 197.359375 231.273438 C 197.644531 231.21875 197.929688 231.191406 198.21875 231.191406 C 198.503906 231.191406 198.792969 231.21875 199.074219 231.273438 C 199.355469 231.332031 199.632812 231.414062 199.898438 231.523438 C 200.164062 231.636719 200.417969 231.769531 200.660156 231.929688 C 200.898438 232.089844 201.121094 232.273438 201.324219 232.476562 C 201.527344 232.679688 201.710938 232.902344 201.871094 233.144531 C 202.03125 233.382812 202.167969 233.636719 202.277344 233.902344 C 202.386719 234.167969 202.472656 234.445312 202.527344 234.726562 C 202.582031 235.011719 202.613281 235.296875 202.613281 235.585938 C 202.613281 235.871094 202.582031 236.160156 202.527344 236.441406 C 202.46875 236.722656 202.386719 237 202.277344 237.265625 C 202.164062 237.53125 202.03125 237.785156 201.871094 238.023438 C 201.710938 238.265625 201.527344 238.488281 201.324219 238.691406 C 201.121094 238.894531 200.898438 239.078125 200.65625 239.238281 C 200.417969 239.398438 200.164062 239.53125 199.898438 239.644531 C 199.632812 239.753906 199.359375 239.835938 199.074219 239.894531 C 198.792969 239.949219 198.507812 239.980469 198.21875 239.980469 Z M 124.425781 242.167969 C 123.777344 242.167969 123.136719 242.230469 122.503906 242.355469 C 121.867188 242.484375 121.253906 242.667969 120.65625 242.917969 C 120.058594 243.164062 119.492188 243.46875 118.953125 243.828125 C 118.414062 244.1875 117.917969 244.59375 117.460938 245.050781 C 117.003906 245.507812 116.59375 246.007812 116.234375 246.542969 C 115.875 247.082031 115.574219 247.648438 115.324219 248.246094 C 115.078125 248.84375 114.890625 249.460938 114.765625 250.09375 C 114.640625 250.730469 114.578125 251.371094 114.578125 252.015625 C 114.578125 252.664062 114.640625 253.304688 114.765625 253.9375 C 114.890625 254.570312 115.078125 255.1875 115.324219 255.785156 C 115.574219 256.382812 115.875 256.949219 116.234375 257.488281 C 116.59375 258.023438 117.003906 258.523438 117.460938 258.980469 C 117.917969 259.4375 118.414062 259.84375 118.953125 260.203125 C 119.492188 260.5625 120.058594 260.867188 120.65625 261.113281 C 121.253906 261.363281 121.867188 261.546875 122.503906 261.675781 C 123.136719 261.800781 123.777344 261.863281 124.425781 261.863281 C 125.070312 261.863281 125.710938 261.800781 126.34375 261.675781 C 126.980469 261.546875 127.597656 261.363281 128.191406 261.113281 C 128.789062 260.867188 129.359375 260.5625 129.894531 260.203125 C 130.433594 259.84375 130.929688 259.4375 131.386719 258.980469 C 131.84375 258.523438 132.253906 258.023438 132.613281 257.488281 C 132.972656 256.949219 133.277344 256.382812 133.523438 255.785156 C 133.769531 255.1875 133.957031 254.570312 134.082031 253.9375 C 134.210938 253.304688 134.273438 252.664062 134.273438 252.015625 C 134.273438 251.371094 134.210938 250.730469 134.082031 250.09375 C 133.957031 249.460938 133.769531 248.84375 133.523438 248.246094 C 133.277344 247.648438 132.972656 247.082031 132.613281 246.542969 C 132.253906 246.007812 131.84375 245.507812 131.386719 245.050781 C 130.929688 244.59375 130.433594 244.1875 129.894531 243.828125 C 129.359375 243.46875 128.789062 243.164062 128.191406 242.917969 C 127.597656 242.667969 126.980469 242.484375 126.34375 242.355469 C 125.710938 242.230469 125.070312 242.167969 124.425781 242.167969 Z M 124.425781 256.410156 C 124.136719 256.410156 123.851562 256.382812 123.566406 256.324219 C 123.285156 256.269531 123.007812 256.1875 122.742188 256.074219 C 122.476562 255.964844 122.222656 255.828125 121.984375 255.667969 C 121.742188 255.507812 121.519531 255.328125 121.316406 255.125 C 121.113281 254.917969 120.929688 254.699219 120.769531 254.457031 C 120.609375 254.21875 120.476562 253.964844 120.363281 253.699219 C 120.253906 253.429688 120.171875 253.15625 120.113281 252.875 C 120.058594 252.589844 120.03125 252.304688 120.03125 252.015625 C 120.03125 251.726562 120.058594 251.441406 120.113281 251.160156 C 120.171875 250.875 120.253906 250.601562 120.363281 250.335938 C 120.476562 250.066406 120.609375 249.816406 120.769531 249.574219 C 120.929688 249.335938 121.113281 249.113281 121.316406 248.910156 C 121.519531 248.703125 121.742188 248.523438 121.984375 248.363281 C 122.222656 248.203125 122.476562 248.066406 122.742188 247.957031 C 123.007812 247.847656 123.285156 247.761719 123.566406 247.707031 C 123.851562 247.648438 124.136719 247.621094 124.425781 247.621094 C 124.710938 247.621094 125 247.648438 125.28125 247.707031 C 125.5625 247.761719 125.839844 247.84375 126.105469 247.957031 C 126.371094 248.066406 126.625 248.203125 126.867188 248.363281 C 127.105469 248.523438 127.328125 248.703125 127.53125 248.910156 C 127.734375 249.113281 127.917969 249.335938 128.078125 249.574219 C 128.238281 249.8125 128.375 250.066406 128.484375 250.332031 C 128.59375 250.601562 128.679688 250.875 128.734375 251.160156 C 128.789062 251.441406 128.820312 251.726562 128.820312 252.015625 C 128.816406 252.304688 128.789062 252.589844 128.734375 252.871094 C 128.675781 253.15625 128.59375 253.429688 128.484375 253.695312 C 128.371094 253.960938 128.238281 254.214844 128.078125 254.457031 C 127.917969 254.695312 127.734375 254.917969 127.53125 255.121094 C 127.328125 255.324219 127.105469 255.507812 126.863281 255.667969 C 126.625 255.828125 126.371094 255.964844 126.105469 256.074219 C 125.839844 256.183594 125.5625 256.269531 125.28125 256.324219 C 125 256.382812 124.714844 256.410156 124.425781 256.410156 Z M 124.425781 256.410156 " fill-opacity="1" fill-rule="nonzero"/></svg>