<svg xmlns="http://www.w3.org/2000/svg" xmlns:xlink="http://www.w3.org/1999/xlink" width="500" zoomAndPan="magnify" viewBox="0 0 375 374.999991" height="500" preserveAspectRatio="xMidYMid meet" version="1.0"><defs><clipPath id="950950216d"><path d="M 37.5 37.5 L 337.5 37.5 L 337.5 337.5 L 37.5 337.5 Z M 37.5 37.5 " clip-rule="nonzero"/></clipPath></defs><g clip-path="url(#950950216d)"><path fill="#ffc54c" d="M 337.5 187.5 C 337.5 189.953125 337.441406 192.410156 337.320312 194.859375 C 337.199219 197.3125 337.019531 199.757812 336.777344 202.203125 C 336.535156 204.644531 336.238281 207.082031 335.875 209.507812 C 335.515625 211.9375 335.097656 214.355469 334.617188 216.761719 C 334.140625 219.171875 333.601562 221.566406 333.003906 223.945312 C 332.40625 226.328125 331.753906 228.695312 331.039062 231.042969 C 330.328125 233.390625 329.558594 235.722656 328.730469 238.035156 C 327.90625 240.34375 327.019531 242.632812 326.082031 244.902344 C 325.140625 247.171875 324.148438 249.414062 323.097656 251.632812 C 322.046875 253.851562 320.945312 256.042969 319.789062 258.210938 C 318.632812 260.375 317.421875 262.511719 316.160156 264.617188 C 314.898438 266.722656 313.585938 268.792969 312.21875 270.835938 C 310.855469 272.875 309.445312 274.882812 307.980469 276.855469 C 306.519531 278.828125 305.007812 280.761719 303.453125 282.660156 C 301.894531 284.554688 300.292969 286.414062 298.644531 288.234375 C 296.992188 290.050781 295.300781 291.832031 293.566406 293.566406 C 291.832031 295.300781 290.054688 296.992188 288.234375 298.644531 C 286.414062 300.292969 284.554688 301.894531 282.660156 303.453125 C 280.761719 305.007812 278.828125 306.519531 276.855469 307.980469 C 274.882812 309.445312 272.875 310.855469 270.835938 312.21875 C 268.792969 313.585938 266.722656 314.898438 264.617188 316.160156 C 262.511719 317.421875 260.375 318.632812 258.210938 319.789062 C 256.042969 320.945312 253.851562 322.046875 251.632812 323.097656 C 249.414062 324.148438 247.171875 325.140625 244.902344 326.082031 C 242.632812 327.019531 240.34375 327.90625 238.035156 328.730469 C 235.722656 329.558594 233.390625 330.328125 231.042969 331.039062 C 228.695312 331.753906 226.328125 332.40625 223.945312 333.003906 C 221.566406 333.601562 219.171875 334.140625 216.761719 334.617188 C 214.355469 335.097656 211.9375 335.515625 209.507812 335.875 C 207.082031 336.238281 204.644531 336.535156 202.203125 336.777344 C 199.757812 337.019531 197.3125 337.199219 194.859375 337.320312 C 192.410156 337.441406 189.953125 337.5 187.5 337.5 C 185.046875 337.5 182.589844 337.441406 180.140625 337.320312 C 177.6875 337.199219 175.242188 337.019531 172.796875 336.777344 C 170.355469 336.535156 167.917969 336.238281 165.492188 335.875 C 163.0625 335.515625 160.644531 335.097656 158.238281 334.617188 C 155.828125 334.140625 153.433594 333.601562 151.054688 333.003906 C 148.671875 332.40625 146.304688 331.753906 143.957031 331.039062 C 141.609375 330.328125 139.277344 329.558594 136.964844 328.730469 C 134.65625 327.90625 132.367188 327.019531 130.097656 326.082031 C 127.828125 325.140625 125.585938 324.148438 123.367188 323.097656 C 121.148438 322.046875 118.957031 320.945312 116.789062 319.789062 C 114.625 318.632812 112.488281 317.421875 110.382812 316.160156 C 108.277344 314.898438 106.207031 313.585938 104.164062 312.21875 C 102.125 310.855469 100.117188 309.445312 98.144531 307.980469 C 96.171875 306.519531 94.238281 305.007812 92.339844 303.453125 C 90.445312 301.894531 88.585938 300.292969 86.765625 298.644531 C 84.945312 296.992188 83.167969 295.300781 81.433594 293.566406 C 79.699219 291.832031 78.007812 290.050781 76.355469 288.234375 C 74.707031 286.414062 73.105469 284.554688 71.546875 282.660156 C 69.992188 280.761719 68.480469 278.828125 67.019531 276.855469 C 65.554688 274.882812 64.144531 272.875 62.78125 270.835938 C 61.414062 268.792969 60.101562 266.722656 58.839844 264.617188 C 57.578125 262.511719 56.367188 260.375 55.210938 258.210938 C 54.054688 256.042969 52.953125 253.851562 51.902344 251.632812 C 50.851562 249.414062 49.859375 247.171875 48.917969 244.902344 C 47.980469 242.632812 47.09375 240.34375 46.269531 238.035156 C 45.441406 235.722656 44.671875 233.390625 43.957031 231.042969 C 43.246094 228.695312 42.589844 226.328125 41.996094 223.945312 C 41.398438 221.566406 40.859375 219.171875 40.382812 216.761719 C 39.902344 214.355469 39.484375 211.9375 39.125 209.507812 C 38.761719 207.082031 38.464844 204.644531 38.222656 202.203125 C 37.980469 199.757812 37.800781 197.3125 37.679688 194.859375 C 37.558594 192.410156 37.5 189.953125 37.5 187.5 C 37.5 185.046875 37.558594 182.589844 37.679688 180.140625 C 37.800781 177.6875 37.980469 175.242188 38.222656 172.796875 C 38.464844 170.355469 38.761719 167.917969 39.125 165.492188 C 39.484375 163.0625 39.902344 160.644531 40.382812 158.238281 C 40.859375 155.828125 41.398438 153.433594 41.996094 151.054688 C 42.589844 148.671875 43.246094 146.304688 43.957031 143.957031 C 44.671875 141.609375 45.441406 139.277344 46.269531 136.964844 C 47.09375 134.65625 47.980469 132.367188 48.917969 130.097656 C 49.859375 127.828125 50.851562 125.585938 51.902344 123.367188 C 52.953125 121.148438 54.054688 118.957031 55.210938 116.789062 C 56.367188 114.625 57.578125 112.488281 58.839844 110.382812 C 60.101562 108.277344 61.414062 106.207031 62.78125 104.164062 C 64.144531 102.125 65.554688 100.117188 67.019531 98.144531 C 68.480469 96.171875 69.992188 94.238281 71.546875 92.339844 C 73.105469 90.445312 74.707031 88.585938 76.355469 86.765625 C 78.007812 84.945312 79.699219 83.167969 81.433594 81.433594 C 83.167969 79.699219 84.945312 78.007812 86.765625 76.355469 C 88.585938 74.707031 90.445312 73.105469 92.339844 71.546875 C 94.238281 69.992188 96.171875 68.480469 98.144531 67.019531 C 100.117188 65.554688 102.125 64.144531 104.164062 62.78125 C 106.207031 61.414062 108.277344 60.101562 110.382812 58.839844 C 112.488281 57.578125 114.625 56.367188 116.789062 55.210938 C 118.957031 54.054688 121.148438 52.953125 123.367188 51.902344 C 125.585938 50.851562 127.828125 49.859375 130.097656 48.917969 C 132.367188 47.980469 134.65625 47.09375 136.964844 46.269531 C 139.277344 45.441406 141.609375 44.671875 143.957031 43.957031 C 146.304688 43.246094 148.671875 42.589844 151.054688 41.996094 C 153.433594 41.398438 155.828125 40.859375 158.238281 40.382812 C 160.644531 39.902344 163.0625 39.484375 165.492188 39.125 C 167.917969 38.761719 170.355469 38.464844 172.796875 38.222656 C 175.242188 37.980469 177.6875 37.800781 180.140625 37.679688 C 182.589844 37.558594 185.046875 37.5 187.5 37.5 C 189.953125 37.5 192.410156 37.558594 194.859375 37.679688 C 197.3125 37.800781 199.757812 37.980469 202.203125 38.222656 C 204.644531 38.464844 207.082031 38.761719 209.507812 39.125 C 211.9375 39.484375 214.355469 39.902344 216.761719 40.382812 C 219.171875 40.859375 221.566406 41.398438 223.945312 41.996094 C 226.328125 42.589844 228.695312 43.246094 231.042969 43.957031 C 233.390625 44.671875 235.722656 45.441406 238.035156 46.269531 C 240.34375 47.09375 242.632812 47.980469 244.902344 48.917969 C 247.171875 49.859375 249.414062 50.851562 251.632812 51.902344 C 253.851562 52.953125 256.042969 54.054688 258.210938 55.210938 C 260.375 56.367188 262.511719 57.578125 264.617188 58.839844 C 266.722656 60.101562 268.792969 61.414062 270.835938 62.78125 C 272.875 64.144531 274.882812 65.554688 276.855469 67.019531 C 278.828125 68.480469 280.761719 69.992188 282.660156 71.546875 C 284.554688 73.105469 286.414062 74.707031 288.234375 76.355469 C 290.054688 78.007812 291.832031 79.699219 293.566406 81.433594 C 295.300781 83.167969 296.992188 84.945312 298.644531 86.765625 C 300.292969 88.585938 301.894531 90.445312 303.453125 92.339844 C 305.007812 94.238281 306.519531 96.171875 307.980469 98.144531 C 309.445312 100.117188 310.855469 102.125 312.21875 104.164062 C 313.585938 106.207031 314.898438 108.277344 316.160156 110.382812 C 317.421875 112.488281 318.632812 114.625 319.789062 116.789062 C 320.945312 118.957031 322.046875 121.148438 323.097656 123.367188 C 324.148438 125.585938 325.140625 127.828125 326.082031 130.097656 C 327.019531 132.367188 327.90625 134.65625 328.730469 136.964844 C 329.558594 139.277344 330.328125 141.609375 331.039062 143.957031 C 331.753906 146.304688 332.40625 148.671875 333.003906 151.054688 C 333.601562 153.433594 334.140625 155.828125 334.617188 158.238281 C 335.097656 160.644531 335.515625 163.0625 335.875 165.492188 C 336.238281 167.917969 336.535156 170.355469 336.777344 172.796875 C 337.019531 175.242188 337.199219 177.6875 337.320312 180.140625 C 337.441406 182.589844 337.5 185.046875 337.5 187.5 Z M 337.5 187.5 " fill-opacity="1" fill-rule="nonzero"/></g><path fill="#eb3323" d="M 314.464844 210.777344 L 316.332031 207.546875 C 317.207031 206.03125 317.980469 204.460938 318.652344 202.84375 C 319.320312 201.222656 319.882812 199.570312 320.335938 197.878906 C 320.789062 196.183594 321.132812 194.46875 321.359375 192.734375 C 321.589844 190.996094 321.703125 189.25 321.703125 187.5 C 321.703125 185.75 321.589844 184.003906 321.359375 182.265625 C 321.132812 180.53125 320.789062 178.816406 320.335938 177.125 C 319.882812 175.429688 319.320312 173.777344 318.652344 172.15625 C 317.980469 170.539062 317.207031 168.96875 316.332031 167.453125 L 314.464844 164.222656 C 312.707031 161.175781 311.371094 157.953125 310.460938 154.550781 C 309.550781 151.152344 309.09375 147.695312 309.09375 144.175781 L 309.09375 140.445312 C 309.09375 138.691406 308.980469 136.949219 308.753906 135.210938 C 308.523438 133.476562 308.183594 131.761719 307.730469 130.066406 C 307.277344 128.375 306.714844 126.71875 306.042969 125.101562 C 305.371094 123.484375 304.597656 121.914062 303.722656 120.398438 C 302.847656 118.882812 301.875 117.425781 300.808594 116.039062 C 299.742188 114.648438 298.589844 113.332031 297.351562 112.09375 C 296.113281 110.855469 294.796875 109.703125 293.410156 108.636719 C 292.019531 107.570312 290.566406 106.597656 289.046875 105.722656 L 285.816406 103.859375 C 282.769531 102.097656 280.003906 99.972656 277.515625 97.484375 C 275.027344 94.996094 272.902344 92.230469 271.140625 89.183594 L 269.277344 85.953125 C 268.402344 84.433594 267.429688 82.980469 266.363281 81.589844 C 265.296875 80.199219 264.144531 78.886719 262.90625 77.648438 C 261.667969 76.410156 260.351562 75.257812 258.960938 74.191406 C 257.574219 73.125 256.117188 72.152344 254.601562 71.277344 C 253.085938 70.402344 251.515625 69.628906 249.898438 68.957031 C 248.28125 68.285156 246.625 67.722656 244.933594 67.269531 C 243.238281 66.816406 241.523438 66.476562 239.789062 66.246094 C 238.050781 66.019531 236.308594 65.90625 234.554688 65.90625 L 230.824219 65.90625 C 227.304688 65.90625 223.847656 65.449219 220.445312 64.539062 C 217.046875 63.628906 213.824219 62.292969 210.777344 60.535156 L 207.546875 58.667969 C 206.03125 57.792969 204.460938 57.019531 202.84375 56.347656 C 201.222656 55.679688 199.570312 55.117188 197.875 54.664062 C 196.183594 54.210938 194.46875 53.867188 192.734375 53.640625 C 190.996094 53.410156 189.25 53.296875 187.5 53.296875 C 185.746094 53.296875 184.003906 53.410156 182.265625 53.640625 C 180.53125 53.867188 178.816406 54.210938 177.121094 54.664062 C 175.429688 55.117188 173.777344 55.679688 172.15625 56.347656 C 170.539062 57.019531 168.96875 57.792969 167.453125 58.667969 L 164.222656 60.535156 C 161.175781 62.292969 157.953125 63.628906 154.554688 64.539062 C 151.152344 65.449219 147.695312 65.90625 144.175781 65.90625 L 140.445312 65.90625 C 138.691406 65.90625 136.949219 66.019531 135.210938 66.246094 C 133.476562 66.476562 131.761719 66.816406 130.066406 67.269531 C 128.375 67.722656 126.71875 68.285156 125.101562 68.957031 C 123.484375 69.628906 121.914062 70.402344 120.398438 71.277344 C 118.882812 72.152344 117.425781 73.125 116.039062 74.191406 C 114.648438 75.257812 113.332031 76.410156 112.09375 77.648438 C 110.855469 78.886719 109.703125 80.203125 108.636719 81.589844 C 107.570312 82.980469 106.597656 84.433594 105.722656 85.953125 L 103.859375 89.183594 C 102.097656 92.230469 99.972656 94.996094 97.484375 97.484375 C 94.996094 99.972656 92.230469 102.097656 89.183594 103.859375 L 85.953125 105.722656 C 84.433594 106.597656 82.980469 107.570312 81.589844 108.636719 C 80.203125 109.703125 78.886719 110.855469 77.648438 112.09375 C 76.410156 113.332031 75.257812 114.648438 74.191406 116.039062 C 73.125 117.425781 72.152344 118.882812 71.277344 120.398438 C 70.402344 121.914062 69.628906 123.484375 68.957031 125.101562 C 68.285156 126.71875 67.722656 128.375 67.269531 130.066406 C 66.816406 131.761719 66.476562 133.476562 66.246094 135.210938 C 66.019531 136.949219 65.90625 138.691406 65.90625 140.445312 L 65.90625 144.175781 C 65.90625 147.695312 65.449219 151.152344 64.539062 154.550781 C 63.628906 157.953125 62.292969 161.175781 60.535156 164.222656 L 58.667969 167.453125 C 57.792969 168.96875 57.019531 170.539062 56.347656 172.15625 C 55.679688 173.777344 55.117188 175.429688 54.664062 177.125 C 54.210938 178.816406 53.867188 180.53125 53.640625 182.265625 C 53.410156 184.003906 53.296875 185.75 53.296875 187.5 C 53.296875 189.25 53.410156 190.996094 53.640625 192.734375 C 53.867188 194.46875 54.210938 196.183594 54.664062 197.878906 C 55.117188 199.570312 55.679688 201.222656 56.347656 202.84375 C 57.019531 204.460938 57.792969 206.03125 58.667969 207.546875 L 60.535156 210.777344 C 62.292969 213.824219 63.628906 217.046875 64.539062 220.449219 C 65.449219 223.847656 65.90625 227.304688 65.90625 230.824219 L 65.90625 234.554688 C 65.90625 236.308594 66.019531 238.050781 66.246094 239.789062 C 66.476562 241.523438 66.816406 243.238281 67.269531 244.933594 C 67.722656 246.625 68.285156 248.28125 68.957031 249.898438 C 69.628906 251.515625 70.402344 253.085938 71.277344 254.601562 C 72.152344 256.117188 73.125 257.574219 74.191406 258.960938 C 75.257812 260.351562 76.410156 261.667969 77.648438 262.90625 C 78.886719 264.144531 80.203125 265.296875 81.589844 266.363281 C 82.980469 267.429688 84.433594 268.402344 85.953125 269.277344 L 89.183594 271.140625 C 92.230469 272.902344 94.996094 275.027344 97.484375 277.515625 C 99.972656 280.003906 102.097656 282.769531 103.859375 285.816406 L 105.722656 289.046875 C 106.597656 290.566406 107.570312 292.019531 108.636719 293.410156 C 109.703125 294.796875 110.855469 296.113281 112.09375 297.351562 C 113.332031 298.589844 114.648438 299.742188 116.039062 300.808594 C 117.425781 301.875 118.882812 302.847656 120.398438 303.722656 C 121.914062 304.597656 123.484375 305.371094 125.101562 306.042969 C 126.71875 306.714844 128.375 307.277344 130.066406 307.730469 C 131.761719 308.183594 133.476562 308.523438 135.210938 308.753906 C 136.949219 308.980469 138.691406 309.09375 140.445312 309.09375 L 144.175781 309.09375 C 147.695312 309.09375 151.152344 309.550781 154.554688 310.460938 C 157.953125 311.371094 161.175781 312.707031 164.222656 314.464844 L 167.453125 316.332031 C 168.96875 317.207031 170.539062 317.980469 172.15625 318.652344 C 173.777344 319.320312 175.429688 319.882812 177.125 320.335938 C 178.816406 320.789062 180.53125 321.132812 182.265625 321.359375 C 184.003906 321.589844 185.75 321.703125 187.5 321.703125 C 189.25 321.703125 190.996094 321.589844 192.734375 321.359375 C 194.46875 321.132812 196.183594 320.789062 197.878906 320.335938 C 199.570312 319.882812 201.222656 319.320312 202.84375 318.652344 C 204.460938 317.980469 206.03125 317.207031 207.546875 316.332031 L 210.777344 314.464844 C 213.824219 312.707031 217.046875 311.371094 220.445312 310.460938 C 223.847656 309.550781 227.304688 309.09375 230.824219 309.09375 L 234.554688 309.09375 C 236.308594 309.09375 238.050781 308.980469 239.789062 308.753906 C 241.523438 308.523438 243.238281 308.183594 244.933594 307.730469 C 246.625 307.277344 248.28125 306.714844 249.898438 306.042969 C 251.515625 305.371094 253.085938 304.597656 254.601562 303.722656 C 256.117188 302.847656 257.574219 301.875 258.960938 300.808594 C 260.351562 299.742188 261.667969 298.589844 262.90625 297.351562 C 264.144531 296.113281 265.296875 294.800781 266.363281 293.410156 C 267.429688 292.019531 268.402344 290.566406 269.277344 289.046875 L 271.140625 285.816406 C 272.902344 282.769531 275.027344 280.003906 277.515625 277.515625 C 280.003906 275.027344 282.769531 272.902344 285.816406 271.140625 L 289.046875 269.277344 C 290.566406 268.402344 292.019531 267.429688 293.410156 266.363281 C 294.796875 265.296875 296.113281 264.144531 297.351562 262.90625 C 298.589844 261.667969 299.742188 260.351562 300.808594 258.960938 C 301.875 257.574219 302.847656 256.117188 303.722656 254.601562 C 304.597656 253.085938 305.371094 251.515625 306.042969 249.898438 C 306.714844 248.28125 307.277344 246.625 307.730469 244.933594 C 308.183594 243.238281 308.523438 241.523438 308.753906 239.789062 C 308.980469 238.050781 309.09375 236.308594 309.09375 234.554688 L 309.09375 230.824219 C 309.09375 227.304688 309.550781 223.847656 310.460938 220.449219 C 311.371094 217.046875 312.707031 213.824219 314.464844 210.777344 Z M 314.464844 210.777344 " fill-opacity="1" fill-rule="nonzero"/><path fill="#fcef9e" d="M 187.5 91.238281 C 187.5 91.238281 209.339844 91.054688 206.988281 107.226562 C 205.78125 115.507812 195.839844 111.578125 195.839844 111.578125 C 195.839844 111.578125 200.542969 121.980469 198.277344 125.386719 C 196.015625 128.792969 187.480469 128.601562 187.480469 128.601562 C 187.480469 128.601562 178.945312 128.792969 176.679688 125.386719 C 174.417969 121.980469 179.121094 111.578125 179.121094 111.578125 C 179.121094 111.578125 169.003906 115.53125 167.972656 107.226562 C 165.929688 90.773438 187.5 91.238281 187.5 91.238281 Z M 117.722656 248.972656 C 115.671875 257.085938 126.53125 257.070312 126.53125 257.070312 C 126.53125 257.070312 118.375 265.058594 119.25 269.050781 C 120.125 273.046875 128.148438 275.964844 128.148438 275.964844 C 128.148438 275.964844 136.03125 279.238281 139.378906 276.886719 C 142.722656 274.535156 142.113281 263.136719 142.113281 263.136719 C 142.113281 263.136719 149.953125 270.40625 154.078125 263.125 C 162.136719 248.90625 141.722656 241.152344 141.722656 241.152344 C 141.722656 241.152344 121.785156 232.894531 117.722656 248.972656 Z M 251.488281 148.34375 C 247.53125 155.71875 258.070312 158.339844 258.070312 158.339844 C 258.070312 158.339844 248.21875 164.109375 248.101562 168.195312 C 247.980469 172.285156 255.054688 177.0625 255.054688 177.0625 C 255.054688 177.0625 261.910156 182.148438 265.726562 180.679688 C 269.539062 179.207031 271.714844 168 271.714844 168 C 271.714844 168 277.558594 176.953125 283.328125 170.894531 C 294.589844 159.054688 276.664062 146.582031 276.664062 146.582031 C 276.664062 146.582031 259.328125 133.734375 251.488281 148.34375 Z M 188.96875 224.152344 C 188.96875 224.152344 210.808594 224.332031 208.457031 208.160156 C 207.25 199.878906 197.308594 203.808594 197.308594 203.808594 C 197.308594 203.808594 202.011719 193.40625 199.746094 190 C 197.484375 186.597656 188.949219 186.785156 188.949219 186.785156 C 188.949219 186.785156 180.414062 186.597656 178.148438 190 C 175.886719 193.40625 180.589844 203.808594 180.589844 203.808594 C 180.589844 203.808594 170.472656 199.855469 169.441406 208.160156 C 167.398438 224.613281 188.96875 224.152344 188.96875 224.152344 Z M 107.839844 180.269531 C 107.839844 180.269531 126.660156 191.34375 132.710938 176.164062 C 135.808594 168.390625 125.234375 166.824219 125.234375 166.824219 C 125.234375 166.824219 134.507812 160.164062 134.25 156.085938 C 133.988281 152.003906 126.503906 147.898438 126.503906 147.898438 C 126.503906 147.898438 119.207031 143.46875 115.542969 145.285156 C 111.882812 147.101562 110.753906 158.464844 110.753906 158.464844 C 110.753906 158.464844 103.96875 149.980469 98.925781 156.65625 C 88.925781 169.886719 107.839844 180.269531 107.839844 180.269531 Z M 250 242.683594 C 244.957031 236.007812 238.171875 244.492188 238.171875 244.492188 C 238.171875 244.492188 237.042969 233.128906 233.382812 231.3125 C 229.71875 229.496094 222.421875 233.929688 222.421875 233.929688 C 222.421875 233.929688 214.9375 238.03125 214.675781 242.113281 C 214.417969 246.191406 223.691406 252.851562 223.691406 252.851562 C 223.691406 252.851562 213.117188 254.417969 216.214844 262.191406 C 222.265625 277.375 241.085938 266.296875 241.085938 266.296875 C 241.085938 266.296875 260 255.914062 250 242.683594 Z M 250 242.683594 " fill-opacity="1" fill-rule="nonzero"/><path fill="#8eb327" d="M 226.800781 126.765625 C 232.046875 102.996094 255.292969 108.578125 255.292969 108.578125 C 249.855469 133.199219 226.800781 126.765625 226.800781 126.765625 Z M 214.53125 146.554688 C 214.53125 146.554688 207.78125 169.488281 231.253906 175.929688 C 231.253906 175.929688 238.84375 153.226562 214.53125 146.554688 Z M 169.242188 157.269531 C 169.242188 157.269531 146.039062 163.015625 152.324219 186.53125 C 152.324219 186.53125 175.753906 181.625 169.242188 157.269531 Z M 120.203125 210.101562 C 120.203125 210.101562 96.960938 204.515625 91.710938 228.285156 C 91.710938 228.285156 114.765625 234.71875 120.203125 210.101562 Z M 145.226562 124.71875 C 145.226562 124.71875 134.878906 103.167969 113.132812 114.101562 C 113.132812 114.101562 122.699219 136.046875 145.226562 124.71875 Z M 280.90625 212.6875 C 280.90625 212.6875 266.425781 193.664062 247.332031 208.761719 C 247.332031 208.761719 261.128906 228.324219 280.90625 212.6875 Z M 198.125 289.273438 C 198.125 289.273438 212.707031 270.332031 193.152344 255.839844 C 193.152344 255.839844 177.867188 274.261719 198.125 289.273438 Z M 198.125 289.273438 " fill-opacity="1" fill-rule="nonzero"/><path fill="#ffc54c" d="M 163.109375 137.96875 C 161.648438 136.96875 160.472656 135.707031 159.574219 134.183594 C 158.660156 132.671875 158.023438 131.050781 157.664062 129.320312 C 157.292969 127.585938 157.230469 125.839844 157.480469 124.085938 C 157.707031 122.316406 158.328125 120.703125 159.34375 119.238281 C 159.402344 120.984375 159.457031 122.574219 159.621094 124.148438 C 159.777344 125.699219 160.015625 127.234375 160.332031 128.761719 C 160.648438 130.277344 161.042969 131.78125 161.515625 133.292969 C 161.976562 134.816406 162.542969 136.320312 163.109375 137.96875 Z M 194.84375 161.03125 C 194.371094 159.519531 193.976562 158.015625 193.660156 156.5 C 193.339844 154.972656 193.101562 153.4375 192.949219 151.886719 C 192.78125 150.3125 192.730469 148.722656 192.671875 146.976562 C 191.652344 148.441406 191.03125 150.054688 190.804688 151.820312 C 190.558594 153.578125 190.621094 155.324219 190.988281 157.058594 C 191.351562 158.789062 191.988281 160.410156 192.902344 161.921875 C 193.796875 163.445312 194.972656 164.707031 196.433594 165.707031 C 195.867188 164.058594 195.300781 162.554688 194.84375 161.03125 Z M 233.902344 200.25 C 232.785156 201.664062 231.59375 203.011719 230.324219 204.296875 C 229.058594 205.574219 227.722656 206.773438 226.3125 207.890625 C 224.882812 209.011719 223.371094 210.046875 221.71875 211.121094 C 223.734375 211.097656 225.640625 210.621094 227.4375 209.699219 C 229.242188 208.8125 230.851562 207.648438 232.261719 206.210938 C 233.671875 204.785156 234.820312 203.171875 235.703125 201.371094 C 236.617188 199.585938 237.125 197.695312 237.234375 195.691406 C 236.089844 197.300781 235.035156 198.8125 233.902344 200.25 Z M 293.351562 186.609375 C 291.839844 187.3125 290.289062 187.925781 288.703125 188.441406 C 287.117188 188.960938 285.507812 189.378906 283.871094 189.695312 C 282.210938 190.011719 280.515625 190.222656 278.675781 190.433594 C 280.34375 191.324219 282.125 191.785156 284.019531 191.816406 C 285.910156 191.886719 287.753906 191.625 289.550781 191.035156 C 291.347656 190.449219 292.988281 189.574219 294.472656 188.40625 C 295.980469 187.269531 297.15625 185.855469 298.003906 184.167969 C 296.382812 185.0625 294.882812 185.886719 293.351562 186.609375 Z M 274.109375 127.71875 C 272.523438 127.765625 270.972656 127.738281 269.425781 127.628906 C 267.871094 127.523438 266.328125 127.335938 264.792969 127.0625 C 263.234375 126.796875 261.6875 126.417969 259.992188 126 C 261.125 127.375 262.511719 128.410156 264.152344 129.109375 C 265.773438 129.824219 267.46875 130.238281 269.242188 130.351562 C 271.003906 130.472656 272.738281 130.296875 274.441406 129.832031 C 276.152344 129.378906 277.683594 128.589844 279.042969 127.457031 C 277.300781 127.550781 275.699219 127.6875 274.109375 127.71875 Z M 278.566406 232.453125 C 276.863281 231.984375 275.128906 231.808594 273.367188 231.929688 C 271.597656 232.042969 269.898438 232.457031 268.277344 233.171875 C 266.636719 233.871094 265.25 234.90625 264.117188 236.28125 C 265.8125 235.867188 267.359375 235.484375 268.917969 235.21875 C 270.453125 234.949219 271.996094 234.757812 273.550781 234.652344 C 275.097656 234.542969 276.652344 234.515625 278.234375 234.5625 C 279.824219 234.59375 281.425781 234.730469 283.167969 234.824219 C 281.808594 233.691406 280.277344 232.902344 278.566406 232.453125 Z M 222.0625 287.285156 C 223.789062 287.65625 225.53125 287.730469 227.28125 287.507812 C 229.042969 287.292969 230.714844 286.78125 232.292969 285.976562 C 233.890625 285.1875 235.214844 284.070312 236.265625 282.632812 C 234.597656 283.148438 233.074219 283.617188 231.535156 283.96875 C 230.019531 284.328125 228.488281 284.605469 226.941406 284.800781 C 225.40625 284.996094 223.855469 285.113281 222.269531 285.160156 C 220.683594 285.21875 219.074219 285.175781 217.332031 285.179688 C 218.75 286.234375 220.328125 286.933594 222.0625 287.285156 Z M 232.417969 94.800781 C 231.605469 93.230469 230.558594 91.839844 229.273438 90.628906 C 227.988281 89.402344 226.535156 88.4375 224.90625 87.730469 C 223.285156 86.996094 221.582031 86.683594 219.804688 86.785156 C 221.257812 87.746094 222.589844 88.625 223.839844 89.589844 C 225.082031 90.53125 226.269531 91.539062 227.402344 92.609375 C 228.527344 93.671875 229.601562 94.792969 230.644531 95.988281 C 231.699219 97.179688 232.683594 98.445312 233.796875 99.792969 C 233.707031 98.027344 233.25 96.363281 232.417969 94.800781 Z M 151.046875 95.664062 C 149.835938 94.378906 148.445312 93.328125 146.875 92.515625 C 145.304688 91.695312 143.640625 91.167969 141.882812 90.933594 C 140.117188 90.675781 138.394531 90.839844 136.714844 91.429688 C 138.378906 91.953125 139.898438 92.429688 141.367188 93.015625 C 142.820312 93.582031 144.238281 94.222656 145.621094 94.9375 C 146.996094 95.648438 148.339844 96.433594 149.667969 97.296875 C 151.011719 98.148438 152.308594 99.097656 153.746094 100.085938 C 153.175781 98.410156 152.277344 96.9375 151.046875 95.664062 Z M 146.871094 212.355469 C 146.058594 210.785156 145.007812 209.394531 143.722656 208.183594 C 142.441406 206.957031 140.984375 205.992188 139.359375 205.285156 C 137.734375 204.550781 136.03125 204.238281 134.253906 204.339844 C 135.710938 205.300781 137.039062 206.179688 138.292969 207.144531 C 139.53125 208.085938 140.71875 209.09375 141.851562 210.164062 C 142.980469 211.226562 144.050781 212.351562 145.09375 213.542969 C 146.152344 214.734375 147.136719 216 148.246094 217.347656 C 148.15625 215.582031 147.699219 213.917969 146.871094 212.355469 Z M 174.925781 287.84375 C 174.113281 286.277344 173.0625 284.886719 171.78125 283.671875 C 170.496094 282.449219 169.039062 281.484375 167.414062 280.773438 C 165.789062 280.042969 164.085938 279.726562 162.308594 279.828125 C 163.765625 280.789062 165.09375 281.667969 166.347656 282.632812 C 167.585938 283.578125 168.773438 284.582031 169.90625 285.652344 C 171.035156 286.71875 172.105469 287.839844 173.148438 289.035156 C 174.207031 290.222656 175.191406 291.492188 176.300781 292.835938 C 176.214844 291.070312 175.753906 289.40625 174.925781 287.84375 Z M 94.628906 194.546875 C 93.816406 192.980469 92.769531 191.585938 91.484375 190.375 C 90.199219 189.152344 88.746094 188.183594 87.121094 187.476562 C 85.496094 186.746094 83.792969 186.429688 82.015625 186.53125 C 83.46875 187.492188 84.800781 188.371094 86.050781 189.335938 C 87.292969 190.28125 88.480469 191.285156 89.613281 192.355469 C 90.738281 193.417969 91.8125 194.542969 92.855469 195.738281 C 93.910156 196.925781 94.894531 198.195312 96.007812 199.539062 C 95.917969 197.773438 95.460938 196.109375 94.628906 194.546875 Z M 169.484375 241.867188 C 171.003906 242.773438 172.628906 243.402344 174.359375 243.757812 C 176.09375 244.121094 177.839844 244.175781 179.59375 243.917969 C 181.363281 243.683594 182.972656 243.054688 184.433594 242.03125 C 182.6875 241.980469 181.09375 241.9375 179.523438 241.777344 C 177.972656 241.628906 176.433594 241.398438 174.90625 241.085938 C 173.386719 240.777344 171.882812 240.390625 170.367188 239.921875 C 168.84375 239.46875 167.335938 238.910156 165.683594 238.351562 C 166.691406 239.808594 167.957031 240.980469 169.484375 241.867188 Z M 98.363281 249.4375 C 100.078125 249.011719 101.675781 248.316406 103.152344 247.347656 C 104.640625 246.386719 105.917969 245.195312 106.984375 243.777344 C 108.078125 242.367188 108.777344 240.785156 109.09375 239.03125 C 107.820312 240.222656 106.65625 241.3125 105.425781 242.308594 C 104.21875 243.292969 102.964844 244.214844 101.660156 245.066406 C 100.363281 245.917969 99.023438 246.699219 97.621094 247.433594 C 96.21875 248.183594 94.753906 248.847656 93.1875 249.617188 C 94.925781 249.941406 96.652344 249.882812 98.363281 249.4375 Z M 98.363281 249.4375 " fill-opacity="1" fill-rule="nonzero"/></svg>