<svg xmlns="http://www.w3.org/2000/svg" xmlns:xlink="http://www.w3.org/1999/xlink" width="500" zoomAndPan="magnify" viewBox="0 0 375 374.999991" height="500" preserveAspectRatio="xMidYMid meet" version="1.0"><defs><clipPath id="5cad0aa273"><path d="M 37.5 37.5 L 337.5 37.5 L 337.5 337.5 L 37.5 337.5 Z M 37.5 37.5 " clip-rule="nonzero"/></clipPath></defs><g clip-path="url(#5cad0aa273)"><path fill="#ffc54c" d="M 337.5 187.5 C 337.5 189.953125 337.441406 192.410156 337.320312 194.859375 C 337.199219 197.3125 337.019531 199.757812 336.777344 202.203125 C 336.535156 204.644531 336.238281 207.082031 335.875 209.507812 C 335.515625 211.9375 335.097656 214.355469 334.617188 216.761719 C 334.140625 219.171875 333.601562 221.566406 333.003906 223.945312 C 332.40625 226.328125 331.753906 228.695312 331.039062 231.042969 C 330.328125 233.390625 329.558594 235.722656 328.730469 238.035156 C 327.90625 240.34375 327.019531 242.632812 326.082031 244.902344 C 325.140625 247.171875 324.148438 249.414062 323.097656 251.632812 C 322.046875 253.851562 320.945312 256.042969 319.789062 258.210938 C 318.632812 260.375 317.421875 262.511719 316.160156 264.617188 C 314.898438 266.722656 313.585938 268.792969 312.21875 270.835938 C 310.855469 272.875 309.445312 274.882812 307.980469 276.855469 C 306.519531 278.828125 305.007812 280.761719 303.453125 282.660156 C 301.894531 284.554688 300.292969 286.414062 298.644531 288.234375 C 296.992188 290.050781 295.300781 291.832031 293.566406 293.566406 C 291.832031 295.300781 290.054688 296.992188 288.234375 298.644531 C 286.414062 300.292969 284.554688 301.894531 282.660156 303.453125 C 280.761719 305.007812 278.828125 306.519531 276.855469 307.980469 C 274.882812 309.445312 272.875 310.855469 270.835938 312.21875 C 268.792969 313.585938 266.722656 314.898438 264.617188 316.160156 C 262.511719 317.421875 260.375 318.632812 258.210938 319.789062 C 256.042969 320.945312 253.851562 322.046875 251.632812 323.097656 C 249.414062 324.148438 247.171875 325.140625 244.902344 326.082031 C 242.632812 327.019531 240.34375 327.90625 238.035156 328.730469 C 235.722656 329.558594 233.390625 330.328125 231.042969 331.039062 C 228.695312 331.753906 226.328125 332.40625 223.945312 333.003906 C 221.566406 333.601562 219.171875 334.140625 216.761719 334.617188 C 214.355469 335.097656 211.9375 335.515625 209.507812 335.875 C 207.082031 336.238281 204.644531 336.535156 202.203125 336.777344 C 199.757812 337.019531 197.3125 337.199219 194.859375 337.320312 C 192.410156 337.441406 189.953125 337.5 187.5 337.5 C 185.046875 337.5 182.589844 337.441406 180.140625 337.320312 C 177.6875 337.199219 175.242188 337.019531 172.796875 336.777344 C 170.355469 336.535156 167.917969 336.238281 165.492188 335.875 C 163.0625 335.515625 160.644531 335.097656 158.238281 334.617188 C 155.828125 334.140625 153.433594 333.601562 151.054688 333.003906 C 148.671875 332.40625 146.304688 331.753906 143.957031 331.039062 C 141.609375 330.328125 139.277344 329.558594 136.964844 328.730469 C 134.65625 327.90625 132.367188 327.019531 130.097656 326.082031 C 127.828125 325.140625 125.585938 324.148438 123.367188 323.097656 C 121.148438 322.046875 118.957031 320.945312 116.789062 319.789062 C 114.625 318.632812 112.488281 317.421875 110.382812 316.160156 C 108.277344 314.898438 106.207031 313.585938 104.164062 312.21875 C 102.125 310.855469 100.117188 309.445312 98.144531 307.980469 C 96.171875 306.519531 94.238281 305.007812 92.339844 303.453125 C 90.445312 301.894531 88.585938 300.292969 86.765625 298.644531 C 84.945312 296.992188 83.167969 295.300781 81.433594 293.566406 C 79.699219 291.832031 78.007812 290.050781 76.355469 288.234375 C 74.707031 286.414062 73.105469 284.554688 71.546875 282.660156 C 69.992188 280.761719 68.480469 278.828125 67.019531 276.855469 C 65.554688 274.882812 64.144531 272.875 62.78125 270.835938 C 61.414062 268.792969 60.101562 266.722656 58.839844 264.617188 C 57.578125 262.511719 56.367188 260.375 55.210938 258.210938 C 54.054688 256.042969 52.953125 253.851562 51.902344 251.632812 C 50.851562 249.414062 49.859375 247.171875 48.917969 244.902344 C 47.980469 242.632812 47.09375 240.34375 46.269531 238.035156 C 45.441406 235.722656 44.671875 233.390625 43.957031 231.042969 C 43.246094 228.695312 42.589844 226.328125 41.996094 223.945312 C 41.398438 221.566406 40.859375 219.171875 40.382812 216.761719 C 39.902344 214.355469 39.484375 211.9375 39.125 209.507812 C 38.761719 207.082031 38.464844 204.644531 38.222656 202.203125 C 37.980469 199.757812 37.800781 197.3125 37.679688 194.859375 C 37.558594 192.410156 37.5 189.953125 37.5 187.5 C 37.5 185.046875 37.558594 182.589844 37.679688 180.140625 C 37.800781 177.6875 37.980469 175.242188 38.222656 172.796875 C 38.464844 170.355469 38.761719 167.917969 39.125 165.492188 C 39.484375 163.0625 39.902344 160.644531 40.382812 158.238281 C 40.859375 155.828125 41.398438 153.433594 41.996094 151.054688 C 42.589844 148.671875 43.246094 146.304688 43.957031 143.957031 C 44.671875 141.609375 45.441406 139.277344 46.269531 136.964844 C 47.09375 134.65625 47.980469 132.367188 48.917969 130.097656 C 49.859375 127.828125 50.851562 125.585938 51.902344 123.367188 C 52.953125 121.148438 54.054688 118.957031 55.210938 116.789062 C 56.367188 114.625 57.578125 112.488281 58.839844 110.382812 C 60.101562 108.277344 61.414062 106.207031 62.78125 104.164062 C 64.144531 102.125 65.554688 100.117188 67.019531 98.144531 C 68.480469 96.171875 69.992188 94.238281 71.546875 92.339844 C 73.105469 90.445312 74.707031 88.585938 76.355469 86.765625 C 78.007812 84.945312 79.699219 83.167969 81.433594 81.433594 C 83.167969 79.699219 84.945312 78.007812 86.765625 76.355469 C 88.585938 74.707031 90.445312 73.105469 92.339844 71.546875 C 94.238281 69.992188 96.171875 68.480469 98.144531 67.019531 C 100.117188 65.554688 102.125 64.144531 104.164062 62.78125 C 106.207031 61.414062 108.277344 60.101562 110.382812 58.839844 C 112.488281 57.578125 114.625 56.367188 116.789062 55.210938 C 118.957031 54.054688 121.148438 52.953125 123.367188 51.902344 C 125.585938 50.851562 127.828125 49.859375 130.097656 48.917969 C 132.367188 47.980469 134.65625 47.09375 136.964844 46.269531 C 139.277344 45.441406 141.609375 44.671875 143.957031 43.957031 C 146.304688 43.246094 148.671875 42.589844 151.054688 41.996094 C 153.433594 41.398438 155.828125 40.859375 158.238281 40.382812 C 160.644531 39.902344 163.0625 39.484375 165.492188 39.125 C 167.917969 38.761719 170.355469 38.464844 172.796875 38.222656 C 175.242188 37.980469 177.6875 37.800781 180.140625 37.679688 C 182.589844 37.558594 185.046875 37.5 187.5 37.5 C 189.953125 37.5 192.410156 37.558594 194.859375 37.679688 C 197.3125 37.800781 199.757812 37.980469 202.203125 38.222656 C 204.644531 38.464844 207.082031 38.761719 209.507812 39.125 C 211.9375 39.484375 214.355469 39.902344 216.761719 40.382812 C 219.171875 40.859375 221.566406 41.398438 223.945312 41.996094 C 226.328125 42.589844 228.695312 43.246094 231.042969 43.957031 C 233.390625 44.671875 235.722656 45.441406 238.035156 46.269531 C 240.34375 47.09375 242.632812 47.980469 244.902344 48.917969 C 247.171875 49.859375 249.414062 50.851562 251.632812 51.902344 C 253.851562 52.953125 256.042969 54.054688 258.210938 55.210938 C 260.375 56.367188 262.511719 57.578125 264.617188 58.839844 C 266.722656 60.101562 268.792969 61.414062 270.835938 62.78125 C 272.875 64.144531 274.882812 65.554688 276.855469 67.019531 C 278.828125 68.480469 280.761719 69.992188 282.660156 71.546875 C 284.554688 73.105469 286.414062 74.707031 288.234375 76.355469 C 290.054688 78.007812 291.832031 79.699219 293.566406 81.433594 C 295.300781 83.167969 296.992188 84.945312 298.644531 86.765625 C 300.292969 88.585938 301.894531 90.445312 303.453125 92.339844 C 305.007812 94.238281 306.519531 96.171875 307.980469 98.144531 C 309.445312 100.117188 310.855469 102.125 312.21875 104.164062 C 313.585938 106.207031 314.898438 108.277344 316.160156 110.382812 C 317.421875 112.488281 318.632812 114.625 319.789062 116.789062 C 320.945312 118.957031 322.046875 121.148438 323.097656 123.367188 C 324.148438 125.585938 325.140625 127.828125 326.082031 130.097656 C 327.019531 132.367188 327.90625 134.65625 328.730469 136.964844 C 329.558594 139.277344 330.328125 141.609375 331.039062 143.957031 C 331.753906 146.304688 332.40625 148.671875 333.003906 151.054688 C 333.601562 153.433594 334.140625 155.828125 334.617188 158.238281 C 335.097656 160.644531 335.515625 163.0625 335.875 165.492188 C 336.238281 167.917969 336.535156 170.355469 336.777344 172.796875 C 337.019531 175.242188 337.199219 177.6875 337.320312 180.140625 C 337.441406 182.589844 337.5 185.046875 337.5 187.5 Z M 337.5 187.5 " fill-opacity="1" fill-rule="nonzero"/></g><path fill="#fcef9e" d="M 314.464844 210.777344 L 316.332031 207.546875 C 317.207031 206.03125 317.980469 204.460938 318.652344 202.84375 C 319.320312 201.226562 319.882812 199.570312 320.335938 197.878906 C 320.789062 196.183594 321.132812 194.46875 321.359375 192.734375 C 321.589844 190.996094 321.703125 189.253906 321.703125 187.5 C 321.703125 185.75 321.589844 184.003906 321.359375 182.265625 C 321.132812 180.53125 320.789062 178.816406 320.335938 177.125 C 319.882812 175.429688 319.320312 173.777344 318.652344 172.15625 C 317.980469 170.539062 317.207031 168.96875 316.332031 167.453125 L 314.464844 164.222656 C 312.707031 161.175781 311.371094 157.953125 310.460938 154.550781 C 309.550781 151.152344 309.09375 147.695312 309.09375 144.175781 L 309.09375 140.445312 C 309.09375 138.691406 308.980469 136.949219 308.753906 135.210938 C 308.523438 133.476562 308.183594 131.761719 307.730469 130.066406 C 307.277344 128.375 306.714844 126.71875 306.042969 125.101562 C 305.371094 123.484375 304.597656 121.914062 303.722656 120.398438 C 302.847656 118.882812 301.875 117.425781 300.808594 116.039062 C 299.742188 114.648438 298.589844 113.332031 297.351562 112.09375 C 296.113281 110.855469 294.796875 109.703125 293.410156 108.636719 C 292.019531 107.570312 290.566406 106.597656 289.046875 105.722656 L 285.816406 103.859375 C 282.769531 102.097656 280.003906 99.972656 277.515625 97.484375 C 275.027344 94.996094 272.902344 92.230469 271.140625 89.183594 L 269.277344 85.953125 C 268.402344 84.433594 267.429688 82.980469 266.363281 81.589844 C 265.296875 80.199219 264.144531 78.886719 262.90625 77.648438 C 261.667969 76.410156 260.351562 75.257812 258.960938 74.191406 C 257.574219 73.125 256.117188 72.152344 254.601562 71.277344 C 253.085938 70.402344 251.515625 69.628906 249.898438 68.957031 C 248.28125 68.285156 246.625 67.722656 244.933594 67.269531 C 243.238281 66.816406 241.523438 66.476562 239.789062 66.246094 C 238.050781 66.019531 236.308594 65.90625 234.554688 65.90625 L 230.824219 65.90625 C 227.304688 65.90625 223.847656 65.449219 220.445312 64.539062 C 217.046875 63.628906 213.824219 62.292969 210.777344 60.535156 L 207.546875 58.667969 C 206.03125 57.792969 204.460938 57.019531 202.84375 56.347656 C 201.222656 55.679688 199.570312 55.117188 197.878906 54.664062 C 196.183594 54.210938 194.46875 53.867188 192.734375 53.640625 C 190.996094 53.410156 189.25 53.296875 187.5 53.296875 C 185.75 53.296875 184.003906 53.410156 182.265625 53.640625 C 180.53125 53.867188 178.816406 54.210938 177.121094 54.664062 C 175.429688 55.117188 173.777344 55.679688 172.15625 56.347656 C 170.539062 57.019531 168.96875 57.792969 167.453125 58.667969 L 164.222656 60.535156 C 161.175781 62.292969 157.953125 63.628906 154.554688 64.539062 C 151.152344 65.449219 147.695312 65.90625 144.175781 65.90625 L 140.445312 65.90625 C 138.691406 65.90625 136.949219 66.019531 135.210938 66.246094 C 133.476562 66.476562 131.761719 66.816406 130.066406 67.269531 C 128.375 67.722656 126.71875 68.285156 125.101562 68.957031 C 123.484375 69.628906 121.914062 70.402344 120.398438 71.277344 C 118.882812 72.152344 117.425781 73.125 116.039062 74.191406 C 114.648438 75.257812 113.332031 76.410156 112.09375 77.648438 C 110.855469 78.886719 109.703125 80.203125 108.636719 81.589844 C 107.570312 82.980469 106.597656 84.433594 105.722656 85.953125 L 103.859375 89.183594 C 102.097656 92.230469 99.972656 94.996094 97.484375 97.484375 C 94.996094 99.972656 92.230469 102.097656 89.183594 103.859375 L 85.953125 105.722656 C 84.433594 106.597656 82.980469 107.570312 81.589844 108.636719 C 80.203125 109.703125 78.886719 110.855469 77.648438 112.09375 C 76.410156 113.332031 75.257812 114.648438 74.191406 116.039062 C 73.125 117.425781 72.152344 118.882812 71.277344 120.398438 C 70.402344 121.914062 69.628906 123.484375 68.957031 125.101562 C 68.285156 126.71875 67.722656 128.375 67.269531 130.066406 C 66.816406 131.761719 66.476562 133.476562 66.246094 135.210938 C 66.019531 136.949219 65.90625 138.691406 65.90625 140.445312 L 65.90625 144.175781 C 65.90625 147.695312 65.449219 151.152344 64.539062 154.550781 C 63.628906 157.953125 62.292969 161.175781 60.535156 164.222656 L 58.667969 167.453125 C 57.792969 168.96875 57.019531 170.539062 56.347656 172.15625 C 55.679688 173.777344 55.117188 175.429688 54.664062 177.125 C 54.210938 178.816406 53.867188 180.53125 53.640625 182.265625 C 53.410156 184.003906 53.296875 185.75 53.296875 187.5 C 53.296875 189.25 53.410156 190.996094 53.640625 192.734375 C 53.867188 194.46875 54.210938 196.183594 54.664062 197.878906 C 55.117188 199.570312 55.679688 201.222656 56.347656 202.84375 C 57.019531 204.460938 57.792969 206.03125 58.667969 207.546875 L 60.535156 210.777344 C 62.292969 213.824219 63.628906 217.046875 64.539062 220.449219 C 65.449219 223.847656 65.90625 227.304688 65.90625 230.824219 L 65.90625 234.554688 C 65.90625 236.308594 66.019531 238.050781 66.246094 239.789062 C 66.476562 241.523438 66.816406 243.238281 67.269531 244.933594 C 67.722656 246.625 68.285156 248.28125 68.957031 249.898438 C 69.628906 251.515625 70.402344 253.085938 71.277344 254.601562 C 72.152344 256.117188 73.125 257.574219 74.191406 258.960938 C 75.257812 260.351562 76.410156 261.667969 77.648438 262.90625 C 78.886719 264.144531 80.203125 265.296875 81.589844 266.363281 C 82.980469 267.429688 84.433594 268.402344 85.953125 269.277344 L 89.183594 271.140625 C 92.230469 272.902344 94.996094 275.027344 97.484375 277.515625 C 99.972656 280.003906 102.097656 282.769531 103.859375 285.816406 L 105.722656 289.046875 C 106.597656 290.566406 107.570312 292.019531 108.636719 293.410156 C 109.703125 294.796875 110.855469 296.113281 112.09375 297.351562 C 113.332031 298.589844 114.648438 299.742188 116.039062 300.808594 C 117.425781 301.875 118.882812 302.847656 120.398438 303.722656 C 121.914062 304.597656 123.484375 305.371094 125.101562 306.042969 C 126.71875 306.714844 128.375 307.277344 130.066406 307.730469 C 131.761719 308.183594 133.476562 308.523438 135.210938 308.753906 C 136.949219 308.980469 138.691406 309.09375 140.445312 309.09375 L 144.175781 309.09375 C 147.695312 309.09375 151.152344 309.550781 154.554688 310.460938 C 157.953125 311.371094 161.175781 312.707031 164.222656 314.464844 L 167.453125 316.332031 C 168.96875 317.207031 170.539062 317.980469 172.15625 318.652344 C 173.777344 319.320312 175.429688 319.882812 177.125 320.335938 C 178.816406 320.789062 180.53125 321.132812 182.265625 321.359375 C 184.003906 321.589844 185.75 321.703125 187.5 321.703125 C 189.25 321.703125 190.996094 321.589844 192.734375 321.359375 C 194.46875 321.132812 196.183594 320.789062 197.878906 320.335938 C 199.570312 319.882812 201.222656 319.320312 202.84375 318.652344 C 204.460938 317.980469 206.03125 317.207031 207.546875 316.332031 L 210.777344 314.464844 C 213.824219 312.707031 217.046875 311.371094 220.445312 310.460938 C 223.847656 309.550781 227.304688 309.09375 230.824219 309.09375 L 234.554688 309.09375 C 236.308594 309.09375 238.050781 308.980469 239.789062 308.753906 C 241.523438 308.523438 243.238281 308.183594 244.933594 307.730469 C 246.625 307.277344 248.28125 306.714844 249.898438 306.042969 C 251.515625 305.371094 253.085938 304.597656 254.601562 303.722656 C 256.117188 302.847656 257.574219 301.875 258.960938 300.808594 C 260.351562 299.742188 261.667969 298.589844 262.90625 297.351562 C 264.144531 296.113281 265.296875 294.800781 266.363281 293.410156 C 267.429688 292.019531 268.402344 290.566406 269.277344 289.046875 L 271.140625 285.816406 C 272.902344 282.769531 275.027344 280.003906 277.515625 277.515625 C 280.003906 275.027344 282.769531 272.902344 285.816406 271.140625 L 289.046875 269.277344 C 290.566406 268.402344 292.019531 267.429688 293.410156 266.363281 C 294.796875 265.296875 296.113281 264.144531 297.351562 262.90625 C 298.589844 261.667969 299.742188 260.351562 300.808594 258.960938 C 301.875 257.574219 302.847656 256.117188 303.722656 254.601562 C 304.597656 253.085938 305.371094 251.515625 306.042969 249.898438 C 306.714844 248.28125 307.277344 246.625 307.730469 244.933594 C 308.183594 243.238281 308.523438 241.523438 308.753906 239.789062 C 308.980469 238.050781 309.09375 236.308594 309.09375 234.554688 L 309.09375 230.824219 C 309.09375 227.304688 309.550781 223.847656 310.460938 220.449219 C 311.371094 217.046875 312.707031 213.824219 314.464844 210.777344 Z M 314.464844 210.777344 " fill-opacity="1" fill-rule="nonzero"/><path fill="#ffcb5c" d="M 165.347656 80.808594 L 179.570312 76.851562 L 181.960938 92.773438 L 165.347656 98.519531 Z M 207.082031 191.285156 L 223.695312 185.539062 L 221.304688 169.617188 L 207.082031 173.570312 Z M 153.613281 155.6875 L 177.085938 158.414062 L 177.085938 140.292969 L 161.519531 142.519531 Z M 100.214844 201.042969 L 95.175781 173.847656 L 75.699219 181.199219 Z M 260.433594 255.621094 L 276.898438 233.402344 L 258.246094 224.160156 Z M 247.542969 124.773438 L 254.90625 98.117188 L 234.175781 96.210938 Z M 285.335938 164.355469 L 269.769531 141.496094 L 254.90625 156.074219 Z M 222.375 286.167969 L 243.867188 278.25 L 237.820312 261.917969 L 213.644531 271.359375 Z M 172.925781 225.59375 L 190.980469 201.476562 L 167.480469 200.1875 Z M 152.257812 264.753906 L 167.917969 246.492188 L 145.761719 246.492188 Z M 152.257812 264.753906 " fill-opacity="1" fill-rule="nonzero"/><path fill="#8eb327" d="M 118.195312 166.480469 C 142.109375 171.023438 137.21875 194.421875 137.21875 194.421875 C 112.449219 189.71875 118.195312 166.480469 118.195312 166.480469 Z M 214.976562 138.359375 C 214.976562 138.359375 219.867188 114.960938 195.953125 110.417969 C 195.953125 110.417969 190.207031 133.65625 214.976562 138.359375 Z M 285.335938 190.65625 C 285.335938 190.65625 267.210938 175.070312 251.683594 193.816406 C 251.683594 193.816406 269.253906 210.074219 285.335938 190.65625 Z M 142.574219 119.847656 C 142.574219 119.847656 124.449219 104.261719 108.921875 123.007812 C 108.921875 123.007812 126.492188 139.261719 142.574219 119.847656 Z M 227.5625 223.738281 C 227.5625 223.738281 204.136719 218.976562 199.726562 242.914062 C 199.726562 242.914062 222.996094 248.53125 227.5625 223.738281 Z M 195.964844 283.300781 C 195.964844 283.300781 176.828125 268.976562 162.601562 288.730469 C 162.601562 288.730469 181.234375 303.761719 195.964844 283.300781 Z M 127.957031 228.871094 C 127.957031 228.871094 104.503906 224.222656 100.214844 248.183594 C 100.214844 248.183594 123.511719 253.6875 127.957031 228.871094 Z M 127.957031 228.871094 " fill-opacity="1" fill-rule="nonzero"/></svg>