<svg xmlns="http://www.w3.org/2000/svg" xmlns:xlink="http://www.w3.org/1999/xlink" width="500" zoomAndPan="magnify" viewBox="0 0 375 374.999991" height="500" preserveAspectRatio="xMidYMid meet" version="1.0"><defs><clipPath id="b4d08f27c0"><path d="M 37.5 37.5 L 337.5 37.5 L 337.5 337.5 L 37.5 337.5 Z M 37.5 37.5 " clip-rule="nonzero"/></clipPath></defs><g clip-path="url(#b4d08f27c0)"><path fill="#ffc54c" d="M 337.5 187.5 C 337.5 189.953125 337.441406 192.410156 337.320312 194.859375 C 337.199219 197.3125 337.019531 199.757812 336.777344 202.203125 C 336.535156 204.644531 336.238281 207.082031 335.875 209.507812 C 335.515625 211.9375 335.097656 214.355469 334.617188 216.761719 C 334.140625 219.171875 333.601562 221.566406 333.003906 223.945312 C 332.40625 226.328125 331.753906 228.695312 331.039062 231.042969 C 330.328125 233.390625 329.558594 235.722656 328.730469 238.035156 C 327.90625 240.34375 327.019531 242.632812 326.082031 244.902344 C 325.140625 247.171875 324.148438 249.414062 323.097656 251.632812 C 322.046875 253.851562 320.945312 256.042969 319.789062 258.210938 C 318.632812 260.375 317.421875 262.511719 316.160156 264.617188 C 314.898438 266.722656 313.585938 268.792969 312.21875 270.835938 C 310.855469 272.875 309.445312 274.882812 307.980469 276.855469 C 306.519531 278.828125 305.007812 280.761719 303.453125 282.660156 C 301.894531 284.554688 300.292969 286.414062 298.644531 288.234375 C 296.992188 290.050781 295.300781 291.832031 293.566406 293.566406 C 291.832031 295.300781 290.054688 296.992188 288.234375 298.644531 C 286.414062 300.292969 284.554688 301.894531 282.660156 303.453125 C 280.761719 305.007812 278.828125 306.519531 276.855469 307.980469 C 274.882812 309.445312 272.875 310.855469 270.835938 312.21875 C 268.792969 313.585938 266.722656 314.898438 264.617188 316.160156 C 262.511719 317.421875 260.375 318.632812 258.210938 319.789062 C 256.042969 320.945312 253.851562 322.046875 251.632812 323.097656 C 249.414062 324.148438 247.171875 325.140625 244.902344 326.082031 C 242.632812 327.019531 240.34375 327.90625 238.035156 328.730469 C 235.722656 329.558594 233.390625 330.328125 231.042969 331.039062 C 228.695312 331.753906 226.328125 332.40625 223.945312 333.003906 C 221.566406 333.601562 219.171875 334.140625 216.761719 334.617188 C 214.355469 335.097656 211.9375 335.515625 209.507812 335.875 C 207.082031 336.238281 204.644531 336.535156 202.203125 336.777344 C 199.757812 337.019531 197.3125 337.199219 194.859375 337.320312 C 192.410156 337.441406 189.953125 337.5 187.5 337.5 C 185.046875 337.5 182.589844 337.441406 180.140625 337.320312 C 177.6875 337.199219 175.242188 337.019531 172.796875 336.777344 C 170.355469 336.535156 167.917969 336.238281 165.492188 335.875 C 163.0625 335.515625 160.644531 335.097656 158.238281 334.617188 C 155.828125 334.140625 153.433594 333.601562 151.054688 333.003906 C 148.671875 332.40625 146.304688 331.753906 143.957031 331.039062 C 141.609375 330.328125 139.277344 329.558594 136.964844 328.730469 C 134.65625 327.90625 132.367188 327.019531 130.097656 326.082031 C 127.828125 325.140625 125.585938 324.148438 123.367188 323.097656 C 121.148438 322.046875 118.957031 320.945312 116.789062 319.789062 C 114.625 318.632812 112.488281 317.421875 110.382812 316.160156 C 108.277344 314.898438 106.207031 313.585938 104.164062 312.21875 C 102.125 310.855469 100.117188 309.445312 98.144531 307.980469 C 96.171875 306.519531 94.238281 305.007812 92.339844 303.453125 C 90.445312 301.894531 88.585938 300.292969 86.765625 298.644531 C 84.945312 296.992188 83.167969 295.300781 81.433594 293.566406 C 79.699219 291.832031 78.007812 290.050781 76.355469 288.234375 C 74.707031 286.414062 73.105469 284.554688 71.546875 282.660156 C 69.992188 280.761719 68.480469 278.828125 67.019531 276.855469 C 65.554688 274.882812 64.144531 272.875 62.78125 270.835938 C 61.414062 268.792969 60.101562 266.722656 58.839844 264.617188 C 57.578125 262.511719 56.367188 260.375 55.210938 258.210938 C 54.054688 256.042969 52.953125 253.851562 51.902344 251.632812 C 50.851562 249.414062 49.859375 247.171875 48.917969 244.902344 C 47.980469 242.632812 47.09375 240.34375 46.269531 238.035156 C 45.441406 235.722656 44.671875 233.390625 43.957031 231.042969 C 43.246094 228.695312 42.589844 226.328125 41.996094 223.945312 C 41.398438 221.566406 40.859375 219.171875 40.382812 216.761719 C 39.902344 214.355469 39.484375 211.9375 39.125 209.507812 C 38.761719 207.082031 38.464844 204.644531 38.222656 202.203125 C 37.980469 199.757812 37.800781 197.3125 37.679688 194.859375 C 37.558594 192.410156 37.5 189.953125 37.5 187.5 C 37.5 185.046875 37.558594 182.589844 37.679688 180.140625 C 37.800781 177.6875 37.980469 175.242188 38.222656 172.796875 C 38.464844 170.355469 38.761719 167.917969 39.125 165.492188 C 39.484375 163.0625 39.902344 160.644531 40.382812 158.238281 C 40.859375 155.828125 41.398438 153.433594 41.996094 151.054688 C 42.589844 148.671875 43.246094 146.304688 43.957031 143.957031 C 44.671875 141.609375 45.441406 139.277344 46.269531 136.964844 C 47.09375 134.65625 47.980469 132.367188 48.917969 130.097656 C 49.859375 127.828125 50.851562 125.585938 51.902344 123.367188 C 52.953125 121.148438 54.054688 118.957031 55.210938 116.789062 C 56.367188 114.625 57.578125 112.488281 58.839844 110.382812 C 60.101562 108.277344 61.414062 106.207031 62.78125 104.164062 C 64.144531 102.125 65.554688 100.117188 67.019531 98.144531 C 68.480469 96.171875 69.992188 94.238281 71.546875 92.339844 C 73.105469 90.445312 74.707031 88.585938 76.355469 86.765625 C 78.007812 84.945312 79.699219 83.167969 81.433594 81.433594 C 83.167969 79.699219 84.945312 78.007812 86.765625 76.355469 C 88.585938 74.707031 90.445312 73.105469 92.339844 71.546875 C 94.238281 69.992188 96.171875 68.480469 98.144531 67.019531 C 100.117188 65.554688 102.125 64.144531 104.164062 62.78125 C 106.207031 61.414062 108.277344 60.101562 110.382812 58.839844 C 112.488281 57.578125 114.625 56.367188 116.789062 55.210938 C 118.957031 54.054688 121.148438 52.953125 123.367188 51.902344 C 125.585938 50.851562 127.828125 49.859375 130.097656 48.917969 C 132.367188 47.980469 134.65625 47.09375 136.964844 46.269531 C 139.277344 45.441406 141.609375 44.671875 143.957031 43.957031 C 146.304688 43.246094 148.671875 42.589844 151.054688 41.996094 C 153.433594 41.398438 155.828125 40.859375 158.238281 40.382812 C 160.644531 39.902344 163.0625 39.484375 165.492188 39.125 C 167.917969 38.761719 170.355469 38.464844 172.796875 38.222656 C 175.242188 37.980469 177.6875 37.800781 180.140625 37.679688 C 182.589844 37.558594 185.046875 37.5 187.5 37.5 C 189.953125 37.5 192.410156 37.558594 194.859375 37.679688 C 197.3125 37.800781 199.757812 37.980469 202.203125 38.222656 C 204.644531 38.464844 207.082031 38.761719 209.507812 39.125 C 211.9375 39.484375 214.355469 39.902344 216.761719 40.382812 C 219.171875 40.859375 221.566406 41.398438 223.945312 41.996094 C 226.328125 42.589844 228.695312 43.246094 231.042969 43.957031 C 233.390625 44.671875 235.722656 45.441406 238.035156 46.269531 C 240.34375 47.09375 242.632812 47.980469 244.902344 48.917969 C 247.171875 49.859375 249.414062 50.851562 251.632812 51.902344 C 253.851562 52.953125 256.042969 54.054688 258.210938 55.210938 C 260.375 56.367188 262.511719 57.578125 264.617188 58.839844 C 266.722656 60.101562 268.792969 61.414062 270.835938 62.78125 C 272.875 64.144531 274.882812 65.554688 276.855469 67.019531 C 278.828125 68.480469 280.761719 69.992188 282.660156 71.546875 C 284.554688 73.105469 286.414062 74.707031 288.234375 76.355469 C 290.054688 78.007812 291.832031 79.699219 293.566406 81.433594 C 295.300781 83.167969 296.992188 84.945312 298.644531 86.765625 C 300.292969 88.585938 301.894531 90.445312 303.453125 92.339844 C 305.007812 94.238281 306.519531 96.171875 307.980469 98.144531 C 309.445312 100.117188 310.855469 102.125 312.21875 104.164062 C 313.585938 106.207031 314.898438 108.277344 316.160156 110.382812 C 317.421875 112.488281 318.632812 114.625 319.789062 116.789062 C 320.945312 118.957031 322.046875 121.148438 323.097656 123.367188 C 324.148438 125.585938 325.140625 127.828125 326.082031 130.097656 C 327.019531 132.367188 327.90625 134.65625 328.730469 136.964844 C 329.558594 139.277344 330.328125 141.609375 331.039062 143.957031 C 331.753906 146.304688 332.40625 148.671875 333.003906 151.054688 C 333.601562 153.433594 334.140625 155.828125 334.617188 158.238281 C 335.097656 160.644531 335.515625 163.0625 335.875 165.492188 C 336.238281 167.917969 336.535156 170.355469 336.777344 172.796875 C 337.019531 175.242188 337.199219 177.6875 337.320312 180.140625 C 337.441406 182.589844 337.5 185.046875 337.5 187.5 Z M 337.5 187.5 " fill-opacity="1" fill-rule="nonzero"/></g><path fill="#eb3323" d="M 313.613281 210.777344 L 315.476562 207.546875 C 316.351562 206.03125 317.125 204.460938 317.796875 202.84375 C 318.46875 201.222656 319.027344 199.570312 319.484375 197.878906 C 319.9375 196.183594 320.277344 194.46875 320.503906 192.734375 C 320.734375 190.996094 320.847656 189.25 320.847656 187.5 C 320.847656 185.75 320.734375 184.003906 320.503906 182.265625 C 320.277344 180.53125 319.9375 178.816406 319.484375 177.125 C 319.027344 175.429688 318.46875 173.777344 317.796875 172.15625 C 317.125 170.539062 316.351562 168.96875 315.476562 167.453125 L 313.613281 164.222656 C 311.851562 161.175781 310.515625 157.953125 309.605469 154.550781 C 308.695312 151.152344 308.242188 147.695312 308.242188 144.175781 L 308.242188 140.445312 C 308.242188 138.691406 308.125 136.949219 307.898438 135.210938 C 307.667969 133.476562 307.328125 131.761719 306.875 130.066406 C 306.421875 128.375 305.859375 126.71875 305.1875 125.101562 C 304.519531 123.484375 303.746094 121.914062 302.867188 120.398438 C 301.992188 118.882812 301.023438 117.425781 299.957031 116.039062 C 298.890625 114.648438 297.734375 113.332031 296.496094 112.09375 C 295.257812 110.855469 293.945312 109.703125 292.554688 108.636719 C 291.164062 107.570312 289.710938 106.597656 288.195312 105.722656 L 284.960938 103.859375 C 281.914062 102.097656 279.148438 99.972656 276.660156 97.484375 C 274.171875 94.996094 272.046875 92.230469 270.289062 89.183594 L 268.421875 85.953125 C 267.546875 84.433594 266.574219 82.980469 265.507812 81.589844 C 264.441406 80.199219 263.289062 78.886719 262.050781 77.648438 C 260.8125 76.410156 259.496094 75.257812 258.109375 74.191406 C 256.71875 73.125 255.265625 72.152344 253.746094 71.277344 C 252.230469 70.402344 250.660156 69.628906 249.042969 68.957031 C 247.425781 68.285156 245.769531 67.722656 244.078125 67.269531 C 242.386719 66.816406 240.671875 66.476562 238.933594 66.246094 C 237.195312 66.019531 235.453125 65.90625 233.699219 65.90625 L 229.96875 65.90625 C 226.449219 65.90625 222.992188 65.449219 219.59375 64.539062 C 216.195312 63.628906 212.96875 62.292969 209.921875 60.535156 L 206.691406 58.667969 C 205.175781 57.792969 203.605469 57.019531 201.988281 56.347656 C 200.371094 55.679688 198.714844 55.117188 197.023438 54.664062 C 195.332031 54.210938 193.617188 53.867188 191.878906 53.640625 C 190.140625 53.410156 188.398438 53.296875 186.644531 53.296875 C 184.894531 53.296875 183.148438 53.410156 181.414062 53.640625 C 179.675781 53.867188 177.960938 54.210938 176.269531 54.664062 C 174.578125 55.117188 172.921875 55.679688 171.300781 56.347656 C 169.683594 57.019531 168.117188 57.792969 166.597656 58.667969 L 163.367188 60.535156 C 160.320312 62.292969 157.097656 63.628906 153.699219 64.539062 C 150.300781 65.449219 146.839844 65.90625 143.320312 65.90625 L 139.589844 65.90625 C 137.839844 65.90625 136.09375 66.019531 134.355469 66.246094 C 132.621094 66.476562 130.90625 66.816406 129.214844 67.269531 C 127.519531 67.722656 125.867188 68.285156 124.246094 68.957031 C 122.628906 69.628906 121.0625 70.402344 119.542969 71.277344 C 118.027344 72.152344 116.574219 73.125 115.183594 74.191406 C 113.792969 75.257812 112.480469 76.410156 111.238281 77.648438 C 110 78.886719 108.847656 80.203125 107.78125 81.589844 C 106.714844 82.980469 105.746094 84.433594 104.867188 85.953125 L 103.003906 89.183594 C 101.242188 92.230469 99.121094 94.996094 96.632812 97.484375 C 94.144531 99.972656 91.375 102.097656 88.328125 103.859375 L 85.097656 105.722656 C 83.578125 106.597656 82.125 107.570312 80.738281 108.636719 C 79.347656 109.703125 78.03125 110.855469 76.792969 112.09375 C 75.554688 113.332031 74.402344 114.648438 73.335938 116.039062 C 72.269531 117.425781 71.296875 118.882812 70.421875 120.398438 C 69.546875 121.914062 68.773438 123.484375 68.101562 125.101562 C 67.433594 126.71875 66.871094 128.375 66.417969 130.066406 C 65.964844 131.761719 65.621094 133.476562 65.394531 135.210938 C 65.164062 136.949219 65.050781 138.691406 65.050781 140.445312 L 65.050781 144.175781 C 65.050781 147.695312 64.59375 151.152344 63.683594 154.550781 C 62.773438 157.953125 61.4375 161.175781 59.679688 164.222656 L 57.8125 167.453125 C 56.9375 168.96875 56.164062 170.539062 55.492188 172.15625 C 54.824219 173.777344 54.261719 175.429688 53.808594 177.125 C 53.355469 178.816406 53.015625 180.53125 52.785156 182.265625 C 52.554688 184.003906 52.441406 185.75 52.441406 187.5 C 52.441406 189.25 52.554688 190.996094 52.785156 192.734375 C 53.015625 194.46875 53.355469 196.183594 53.808594 197.878906 C 54.261719 199.570312 54.824219 201.222656 55.492188 202.84375 C 56.164062 204.460938 56.9375 206.03125 57.8125 207.546875 L 59.679688 210.777344 C 61.4375 213.824219 62.773438 217.046875 63.683594 220.449219 C 64.59375 223.847656 65.050781 227.304688 65.050781 230.824219 L 65.050781 234.554688 C 65.050781 236.308594 65.164062 238.050781 65.394531 239.789062 C 65.621094 241.523438 65.964844 243.238281 66.417969 244.933594 C 66.871094 246.625 67.433594 248.28125 68.101562 249.898438 C 68.773438 251.515625 69.546875 253.085938 70.421875 254.601562 C 71.296875 256.117188 72.269531 257.574219 73.335938 258.960938 C 74.402344 260.351562 75.554688 261.667969 76.792969 262.90625 C 78.03125 264.144531 79.347656 265.296875 80.738281 266.363281 C 82.125 267.429688 83.578125 268.402344 85.097656 269.277344 L 88.328125 271.140625 C 91.375 272.902344 94.144531 275.027344 96.632812 277.515625 C 99.121094 280.003906 101.242188 282.769531 103.003906 285.816406 L 104.867188 289.046875 C 105.746094 290.566406 106.714844 292.019531 107.78125 293.410156 C 108.847656 294.796875 110 296.113281 111.238281 297.351562 C 112.480469 298.589844 113.792969 299.742188 115.183594 300.808594 C 116.574219 301.875 118.027344 302.847656 119.542969 303.722656 C 121.0625 304.597656 122.628906 305.371094 124.246094 306.042969 C 125.867188 306.714844 127.519531 307.277344 129.214844 307.730469 C 130.90625 308.183594 132.621094 308.523438 134.355469 308.753906 C 136.09375 308.980469 137.839844 309.09375 139.589844 309.09375 L 143.320312 309.09375 C 146.839844 309.09375 150.300781 309.550781 153.699219 310.460938 C 157.097656 311.371094 160.320312 312.707031 163.367188 314.464844 L 166.597656 316.332031 C 168.117188 317.207031 169.683594 317.980469 171.300781 318.652344 C 172.921875 319.320312 174.578125 319.882812 176.269531 320.335938 C 177.960938 320.789062 179.675781 321.132812 181.414062 321.359375 C 183.148438 321.589844 184.894531 321.703125 186.644531 321.703125 C 188.398438 321.703125 190.140625 321.589844 191.878906 321.359375 C 193.617188 321.132812 195.332031 320.789062 197.023438 320.335938 C 198.714844 319.882812 200.371094 319.320312 201.988281 318.652344 C 203.605469 317.980469 205.175781 317.207031 206.691406 316.332031 L 209.921875 314.464844 C 212.96875 312.707031 216.195312 311.371094 219.59375 310.460938 C 222.992188 309.550781 226.449219 309.09375 229.96875 309.09375 L 233.699219 309.09375 C 235.453125 309.09375 237.195312 308.980469 238.933594 308.753906 C 240.671875 308.523438 242.386719 308.183594 244.078125 307.730469 C 245.769531 307.277344 247.425781 306.714844 249.042969 306.042969 C 250.660156 305.371094 252.230469 304.597656 253.746094 303.722656 C 255.265625 302.847656 256.71875 301.875 258.109375 300.808594 C 259.496094 299.742188 260.8125 298.589844 262.050781 297.351562 C 263.289062 296.113281 264.441406 294.800781 265.507812 293.410156 C 266.574219 292.019531 267.546875 290.566406 268.421875 289.046875 L 270.289062 285.816406 C 272.046875 282.769531 274.171875 280.003906 276.660156 277.515625 C 279.148438 275.027344 281.914062 272.902344 284.960938 271.140625 L 288.195312 269.277344 C 289.710938 268.402344 291.164062 267.429688 292.554688 266.363281 C 293.945312 265.296875 295.257812 264.144531 296.496094 262.90625 C 297.734375 261.667969 298.890625 260.351562 299.957031 258.960938 C 301.023438 257.574219 301.992188 256.117188 302.867188 254.601562 C 303.746094 253.085938 304.519531 251.515625 305.1875 249.898438 C 305.859375 248.28125 306.421875 246.625 306.875 244.933594 C 307.328125 243.238281 307.667969 241.523438 307.898438 239.789062 C 308.125 238.050781 308.242188 236.308594 308.242188 234.554688 L 308.242188 230.824219 C 308.242188 227.304688 308.695312 223.847656 309.605469 220.449219 C 310.515625 217.046875 311.851562 213.824219 313.613281 210.777344 Z M 313.613281 210.777344 " fill-opacity="1" fill-rule="nonzero"/><path fill="#ffdb4c" d="M 164.25 113.566406 C 164.25 114.726562 164.308594 115.882812 164.421875 117.039062 C 164.535156 118.195312 164.707031 119.34375 164.933594 120.480469 C 165.160156 121.621094 165.441406 122.746094 165.777344 123.855469 C 166.113281 124.96875 166.503906 126.058594 166.949219 127.132812 C 167.394531 128.207031 167.890625 129.253906 168.4375 130.277344 C 168.984375 131.300781 169.582031 132.296875 170.226562 133.261719 C 170.871094 134.230469 171.5625 135.160156 172.300781 136.058594 C 173.035156 136.957031 173.8125 137.816406 174.636719 138.636719 C 175.457031 139.457031 176.316406 140.234375 177.214844 140.972656 C 178.109375 141.710938 179.042969 142.398438 180.007812 143.046875 C 180.972656 143.691406 181.96875 144.285156 182.992188 144.835938 C 184.015625 145.382812 185.066406 145.878906 186.136719 146.320312 C 187.210938 146.765625 188.304688 147.15625 189.414062 147.492188 C 190.523438 147.832031 191.648438 148.113281 192.789062 148.339844 C 193.929688 148.566406 195.074219 148.734375 196.230469 148.851562 C 197.386719 148.964844 198.546875 149.019531 199.707031 149.019531 L 199.707031 125.695312 C 198.910156 125.695312 198.121094 125.617188 197.339844 125.464844 C 196.558594 125.308594 195.800781 125.078125 195.0625 124.773438 C 194.328125 124.46875 193.628906 124.09375 192.964844 123.652344 C 192.304688 123.210938 191.691406 122.707031 191.128906 122.144531 C 190.566406 121.582031 190.0625 120.96875 189.621094 120.304688 C 189.175781 119.644531 188.804688 118.945312 188.5 118.207031 C 188.191406 117.472656 187.964844 116.714844 187.808594 115.933594 C 187.652344 115.152344 187.574219 114.363281 187.574219 113.566406 C 187.574219 112.769531 187.652344 111.980469 187.808594 111.199219 C 187.964844 110.417969 188.191406 109.660156 188.5 108.921875 C 188.804688 108.1875 189.175781 107.488281 189.621094 106.824219 C 190.0625 106.164062 190.566406 105.550781 191.128906 104.988281 C 191.691406 104.421875 192.304688 103.921875 192.964844 103.476562 C 193.628906 103.035156 194.328125 102.660156 195.0625 102.355469 C 195.800781 102.050781 196.558594 101.820312 197.339844 101.667969 C 198.121094 101.511719 198.910156 101.433594 199.707031 101.433594 L 199.707031 78.109375 C 198.546875 78.109375 197.386719 78.167969 196.230469 78.28125 C 195.074219 78.394531 193.929688 78.5625 192.789062 78.789062 C 191.652344 79.015625 190.523438 79.300781 189.414062 79.636719 C 188.304688 79.972656 187.210938 80.363281 186.136719 80.808594 C 185.066406 81.253906 184.015625 81.75 182.992188 82.296875 C 181.96875 82.84375 180.972656 83.441406 180.007812 84.085938 C 179.042969 84.730469 178.109375 85.421875 177.214844 86.15625 C 176.316406 86.894531 175.457031 87.671875 174.636719 88.496094 C 173.8125 89.316406 173.035156 90.175781 172.300781 91.074219 C 171.5625 91.96875 170.871094 92.902344 170.226562 93.867188 C 169.582031 94.832031 168.984375 95.828125 168.4375 96.851562 C 167.890625 97.875 167.394531 98.925781 166.949219 99.996094 C 166.503906 101.070312 166.113281 102.160156 165.777344 103.273438 C 165.441406 104.382812 165.160156 105.507812 164.933594 106.648438 C 164.707031 107.785156 164.535156 108.933594 164.421875 110.089844 C 164.308594 111.246094 164.25 112.402344 164.25 113.566406 Z M 193.933594 136.808594 C 193.402344 139.363281 192.617188 141.835938 191.574219 144.230469 C 191.628906 141.621094 191.953125 139.046875 192.542969 136.503906 C 193.070312 133.949219 193.855469 131.476562 194.902344 129.085938 C 194.847656 131.695312 194.527344 134.269531 193.933594 136.808594 Z M 187.972656 131.75 C 187.097656 133.683594 185.992188 135.472656 184.65625 137.121094 C 185.074219 135.042969 185.75 133.050781 186.683594 131.144531 C 187.558594 129.214844 188.664062 127.421875 189.996094 125.773438 C 189.574219 127.851562 188.898438 129.84375 187.972656 131.75 Z M 179.597656 126.804688 C 177.296875 128.582031 174.855469 130.128906 172.265625 131.449219 C 174.246094 129.320312 176.402344 127.394531 178.742188 125.667969 C 181.039062 123.890625 183.484375 122.34375 186.074219 121.027344 C 184.097656 123.15625 181.9375 125.082031 179.597656 126.804688 Z M 184.65625 115.390625 C 182.875 115.894531 181.0625 116.132812 179.210938 116.101562 C 177.359375 116.132812 175.542969 115.898438 173.765625 115.390625 C 175.542969 114.882812 177.359375 114.648438 179.210938 114.679688 C 181.0625 114.648438 182.875 114.886719 184.65625 115.390625 Z M 178.863281 106.289062 C 181.136719 107.160156 183.285156 108.269531 185.3125 109.617188 C 182.914062 109.207031 180.585938 108.539062 178.335938 107.613281 C 176.0625 106.746094 173.914062 105.636719 171.886719 104.289062 C 174.289062 104.695312 176.613281 105.363281 178.863281 106.289062 Z M 187.925781 103.191406 C 186.570312 102.320312 185.394531 101.253906 184.398438 99.992188 C 183.359375 98.761719 182.550781 97.394531 181.980469 95.890625 C 183.335938 96.757812 184.511719 97.824219 185.503906 99.089844 C 186.542969 100.320312 187.347656 101.6875 187.925781 103.191406 Z M 193.152344 99.8125 C 192.136719 97.4375 191.378906 94.980469 190.878906 92.445312 C 190.3125 89.921875 190.019531 87.367188 189.996094 84.78125 C 191.011719 87.15625 191.773438 89.613281 192.269531 92.152344 C 192.832031 94.675781 193.125 97.226562 193.152344 99.8125 Z M 246.582031 127.164062 C 245.519531 127.628906 244.480469 128.144531 243.46875 128.714844 C 242.457031 129.28125 241.472656 129.898438 240.519531 130.5625 C 239.566406 131.226562 238.652344 131.9375 237.769531 132.691406 C 236.886719 133.445312 236.042969 134.242188 235.238281 135.082031 C 234.433594 135.917969 233.671875 136.792969 232.953125 137.707031 C 232.234375 138.617188 231.566406 139.5625 230.9375 140.542969 C 230.3125 141.519531 229.738281 142.527344 229.210938 143.5625 C 228.683594 144.597656 228.210938 145.65625 227.789062 146.738281 C 227.367188 147.820312 226.996094 148.917969 226.683594 150.035156 C 226.367188 151.15625 226.109375 152.285156 225.90625 153.429688 C 225.703125 154.570312 225.554688 155.722656 225.464844 156.878906 C 225.375 158.039062 225.339844 159.195312 225.363281 160.359375 C 225.390625 161.519531 225.46875 162.675781 225.605469 163.828125 C 225.742188 164.980469 225.9375 166.125 226.1875 167.257812 C 226.4375 168.394531 226.742188 169.511719 227.101562 170.617188 C 227.460938 171.722656 227.875 172.804688 228.339844 173.867188 L 249.703125 164.507812 C 249.382812 163.777344 249.136719 163.023438 248.964844 162.246094 C 248.796875 161.46875 248.703125 160.679688 248.6875 159.882812 C 248.671875 159.089844 248.734375 158.296875 248.871094 157.515625 C 249.011719 156.730469 249.226562 155.96875 249.515625 155.226562 C 249.804688 154.484375 250.164062 153.777344 250.59375 153.105469 C 251.023438 152.4375 251.515625 151.8125 252.066406 151.238281 C 252.617188 150.664062 253.21875 150.148438 253.871094 149.695312 C 254.527344 149.238281 255.21875 148.851562 255.945312 148.53125 C 256.675781 148.210938 257.429688 147.964844 258.207031 147.792969 C 258.984375 147.625 259.773438 147.53125 260.566406 147.511719 C 261.363281 147.496094 262.152344 147.558594 262.9375 147.699219 C 263.722656 147.835938 264.484375 148.050781 265.226562 148.339844 C 265.96875 148.632812 266.675781 148.988281 267.347656 149.417969 C 268.015625 149.847656 268.640625 150.335938 269.214844 150.890625 C 269.789062 151.441406 270.304688 152.042969 270.761719 152.695312 C 271.21875 153.347656 271.605469 154.039062 271.925781 154.769531 L 293.289062 145.40625 C 292.820312 144.34375 292.304688 143.304688 291.738281 142.292969 C 291.167969 141.277344 290.550781 140.296875 289.886719 139.34375 C 289.222656 138.390625 288.511719 137.476562 287.757812 136.59375 C 287.003906 135.710938 286.207031 134.867188 285.371094 134.0625 C 284.53125 133.257812 283.65625 132.496094 282.746094 131.777344 C 281.832031 131.058594 280.886719 130.386719 279.910156 129.761719 C 278.929688 129.136719 277.921875 128.5625 276.886719 128.035156 C 275.851562 127.507812 274.796875 127.035156 273.714844 126.613281 C 272.632812 126.1875 271.53125 125.820312 270.414062 125.507812 C 269.296875 125.191406 268.164062 124.933594 267.023438 124.730469 C 265.878906 124.527344 264.730469 124.378906 263.570312 124.289062 C 262.414062 124.199219 261.253906 124.164062 260.09375 124.1875 C 258.933594 124.210938 257.773438 124.292969 256.621094 124.429688 C 255.46875 124.566406 254.324219 124.761719 253.191406 125.011719 C 252.058594 125.261719 250.9375 125.566406 249.835938 125.925781 C 248.730469 126.285156 247.644531 126.695312 246.582031 127.164062 Z M 237.207031 163.679688 C 234.652344 164.21875 232.074219 164.492188 229.464844 164.496094 C 231.875 163.5 234.363281 162.765625 236.925781 162.285156 C 239.480469 161.742188 242.0625 161.46875 244.671875 161.464844 C 242.257812 162.464844 239.769531 163.203125 237.207031 163.679688 Z M 239.445312 156.1875 C 237.324219 156.164062 235.242188 155.871094 233.195312 155.308594 C 235.269531 154.855469 237.363281 154.675781 239.484375 154.765625 C 241.605469 154.792969 243.6875 155.085938 245.734375 155.644531 C 243.660156 156.09375 241.566406 156.273438 239.445312 156.1875 Z M 240.613281 146.535156 C 238.066406 145.140625 235.667969 143.523438 233.421875 141.683594 C 236.164062 142.640625 238.792969 143.84375 241.3125 145.292969 C 243.863281 146.6875 246.261719 148.304688 248.507812 150.144531 C 245.761719 149.191406 243.132812 147.984375 240.613281 146.535156 Z M 253.101562 146.585938 C 251.925781 145.15625 250.980469 143.589844 250.261719 141.882812 C 249.492188 140.203125 248.980469 138.441406 248.730469 136.609375 C 249.90625 138.035156 250.855469 139.605469 251.566406 141.3125 C 252.335938 142.996094 252.847656 144.753906 253.101562 146.585938 Z M 259.109375 137.625 C 259.226562 140.058594 259.074219 142.472656 258.652344 144.867188 C 258.0625 142.507812 257.742188 140.109375 257.6875 137.675781 C 257.570312 135.246094 257.722656 132.832031 258.144531 130.433594 C 258.734375 132.796875 259.058594 135.191406 259.109375 137.625 Z M 265.585938 144.683594 C 265.839844 143.09375 266.34375 141.589844 267.101562 140.167969 C 267.808594 138.722656 268.738281 137.4375 269.886719 136.308594 C 269.636719 137.898438 269.132812 139.402344 268.371094 140.820312 C 267.660156 142.265625 266.730469 143.550781 265.585938 144.683594 Z M 270.777344 148.117188 C 272.546875 146.230469 274.492188 144.550781 276.613281 143.074219 C 278.699219 141.542969 280.921875 140.25 283.277344 139.1875 C 281.511719 141.074219 279.566406 142.757812 277.441406 144.234375 C 275.355469 145.757812 273.136719 147.054688 270.777344 148.117188 Z M 272.394531 207.875 C 271.441406 207.207031 270.460938 206.589844 269.449219 206.023438 C 268.4375 205.453125 267.398438 204.9375 266.335938 204.46875 C 265.273438 204 264.1875 203.589844 263.085938 203.226562 C 261.980469 202.867188 260.863281 202.5625 259.726562 202.3125 C 258.59375 202.0625 257.453125 201.867188 256.296875 201.726562 C 255.144531 201.589844 253.988281 201.507812 252.828125 201.484375 C 251.667969 201.460938 250.507812 201.492188 249.347656 201.582031 C 248.191406 201.671875 247.039062 201.816406 245.898438 202.019531 C 244.753906 202.222656 243.625 202.480469 242.503906 202.792969 C 241.386719 203.105469 240.289062 203.476562 239.207031 203.898438 C 238.125 204.316406 237.066406 204.792969 236.027344 205.316406 C 234.992188 205.84375 233.988281 206.417969 233.007812 207.042969 C 232.027344 207.667969 231.082031 208.339844 230.167969 209.054688 C 229.257812 209.773438 228.382812 210.535156 227.542969 211.339844 C 226.703125 212.140625 225.90625 212.984375 225.152344 213.867188 C 224.398438 214.75 223.6875 215.664062 223.019531 216.617188 L 242.136719 229.980469 C 242.59375 229.328125 243.109375 228.726562 243.683594 228.175781 C 244.257812 227.625 244.882812 227.132812 245.554688 226.703125 C 246.226562 226.277344 246.933594 225.917969 247.675781 225.628906 C 248.417969 225.339844 249.179688 225.125 249.964844 224.984375 C 250.75 224.847656 251.539062 224.785156 252.335938 224.804688 C 253.132812 224.820312 253.917969 224.914062 254.695312 225.085938 C 255.472656 225.257812 256.226562 225.503906 256.957031 225.824219 C 257.6875 226.144531 258.378906 226.53125 259.03125 226.988281 C 259.683594 227.445312 260.285156 227.960938 260.835938 228.535156 C 261.386719 229.113281 261.878906 229.734375 262.304688 230.40625 C 262.734375 231.078125 263.09375 231.785156 263.382812 232.527344 C 263.671875 233.269531 263.886719 234.03125 264.027344 234.816406 C 264.164062 235.601562 264.226562 236.390625 264.207031 237.1875 C 264.191406 237.984375 264.097656 238.769531 263.925781 239.550781 C 263.753906 240.328125 263.507812 241.082031 263.1875 241.808594 C 262.867188 242.539062 262.480469 243.230469 262.023438 243.882812 L 281.136719 257.246094 C 281.804688 256.296875 282.421875 255.3125 282.988281 254.300781 C 283.558594 253.289062 284.074219 252.25 284.542969 251.1875 C 285.011719 250.125 285.421875 249.042969 285.785156 247.9375 C 286.144531 246.832031 286.449219 245.714844 286.699219 244.582031 C 286.949219 243.445312 287.144531 242.304688 287.285156 241.152344 C 287.421875 239.996094 287.503906 238.839844 287.527344 237.679688 C 287.550781 236.519531 287.519531 235.359375 287.429688 234.203125 C 287.339844 233.042969 287.195312 231.894531 286.992188 230.75 C 286.789062 229.605469 286.53125 228.476562 286.21875 227.359375 C 285.90625 226.238281 285.535156 225.140625 285.113281 224.058594 C 284.695312 222.976562 284.21875 221.917969 283.695312 220.882812 C 283.167969 219.847656 282.59375 218.839844 281.96875 217.859375 C 281.34375 216.882812 280.671875 215.933594 279.957031 215.023438 C 279.238281 214.109375 278.476562 213.234375 277.671875 212.394531 C 276.871094 211.558594 276.027344 210.761719 275.144531 210.003906 C 274.261719 209.25 273.347656 208.539062 272.394531 207.875 Z M 236.335938 218.882812 C 234.546875 216.984375 232.96875 214.921875 231.605469 212.699219 C 233.710938 214.238281 235.636719 215.976562 237.382812 217.917969 C 239.175781 219.8125 240.753906 221.875 242.113281 224.101562 C 240.003906 222.5625 238.078125 220.824219 236.335938 218.882812 Z M 243.898438 216.894531 C 242.816406 215.070312 241.980469 213.140625 241.394531 211.101562 C 242.859375 212.632812 244.105469 214.328125 245.132812 216.183594 C 246.214844 218.007812 247.050781 219.941406 247.636719 221.976562 C 246.175781 220.441406 244.929688 218.746094 243.898438 216.894531 Z M 252.75 212.867188 C 252.613281 209.964844 252.746094 207.074219 253.144531 204.195312 C 253.753906 207.039062 254.097656 209.910156 254.171875 212.8125 C 254.3125 215.714844 254.179688 218.605469 253.773438 221.484375 C 253.164062 218.644531 252.820312 215.769531 252.75 212.867188 Z M 259.207031 223.550781 C 259.8125 221.804688 260.660156 220.179688 261.742188 218.679688 C 262.777344 217.144531 264.011719 215.792969 265.449219 214.625 C 264.84375 216.375 263.996094 218 262.910156 219.496094 C 261.875 221.03125 260.640625 222.382812 259.207031 223.550781 Z M 269.984375 224.015625 C 267.96875 225.382812 265.828125 226.507812 263.5625 227.394531 C 265.273438 225.664062 267.152344 224.140625 269.199219 222.828125 C 271.214844 221.460938 273.355469 220.335938 275.621094 219.449219 C 273.914062 221.183594 272.035156 222.707031 269.984375 224.015625 Z M 267.332031 233.222656 C 268.820312 232.609375 270.367188 232.257812 271.976562 232.164062 C 273.578125 232.015625 275.160156 232.136719 276.722656 232.527344 C 275.234375 233.144531 273.6875 233.496094 272.078125 233.585938 C 270.476562 233.730469 268.894531 233.609375 267.332031 233.222656 Z M 267.105469 239.441406 C 269.632812 239.972656 272.082031 240.757812 274.449219 241.796875 C 276.839844 242.78125 279.101562 244.003906 281.234375 245.464844 C 278.703125 244.9375 276.253906 244.152344 273.890625 243.109375 C 271.5 242.121094 269.238281 240.898438 267.105469 239.441406 Z M 130.136719 254.730469 C 131.199219 254.265625 132.238281 253.75 133.25 253.179688 C 134.261719 252.613281 135.246094 251.996094 136.195312 251.332031 C 137.148438 250.667969 138.066406 249.957031 138.949219 249.203125 C 139.832031 248.449219 140.675781 247.652344 141.480469 246.8125 C 142.28125 245.976562 143.042969 245.101562 143.761719 244.1875 C 144.480469 243.277344 145.152344 242.332031 145.777344 241.351562 C 146.402344 240.375 146.980469 239.367188 147.507812 238.332031 C 148.03125 237.296875 148.507812 236.238281 148.929688 235.15625 C 149.351562 234.074219 149.71875 232.976562 150.035156 231.859375 C 150.347656 230.742188 150.609375 229.609375 150.8125 228.464844 C 151.015625 227.324219 151.160156 226.171875 151.25 225.015625 C 151.34375 223.859375 151.375 222.699219 151.351562 221.539062 C 151.328125 220.375 151.246094 219.21875 151.109375 218.066406 C 150.972656 216.914062 150.78125 215.769531 150.53125 214.636719 C 150.28125 213.5 149.976562 212.382812 149.617188 211.277344 C 149.257812 210.175781 148.84375 209.089844 148.378906 208.027344 L 127.015625 217.386719 C 127.335938 218.117188 127.582031 218.871094 127.75 219.648438 C 127.921875 220.425781 128.015625 221.214844 128.03125 222.011719 C 128.050781 222.808594 127.988281 223.597656 127.847656 224.382812 C 127.707031 225.167969 127.492188 225.929688 127.203125 226.671875 C 126.914062 227.414062 126.554688 228.121094 126.125 228.792969 C 125.695312 229.460938 125.207031 230.085938 124.65625 230.660156 C 124.101562 231.234375 123.5 231.75 122.847656 232.207031 C 122.195312 232.660156 121.503906 233.050781 120.773438 233.367188 C 120.042969 233.6875 119.289062 233.933594 118.511719 234.105469 C 117.734375 234.277344 116.945312 234.371094 116.148438 234.386719 C 115.355469 234.402344 114.5625 234.339844 113.78125 234.203125 C 112.996094 234.0625 112.230469 233.847656 111.488281 233.558594 C 110.746094 233.269531 110.042969 232.910156 109.371094 232.480469 C 108.699219 232.050781 108.074219 231.558594 107.5 231.007812 C 106.925781 230.457031 106.410156 229.855469 105.957031 229.199219 C 105.5 228.546875 105.113281 227.855469 104.792969 227.125 L 83.429688 236.488281 C 83.894531 237.550781 84.414062 238.589844 84.980469 239.601562 C 85.550781 240.617188 86.164062 241.597656 86.828125 242.550781 C 87.496094 243.503906 88.203125 244.421875 88.957031 245.300781 C 89.714844 246.183594 90.511719 247.027344 91.347656 247.832031 C 92.183594 248.636719 93.058594 249.398438 93.972656 250.117188 C 94.886719 250.835938 95.832031 251.507812 96.808594 252.132812 C 97.789062 252.757812 98.792969 253.332031 99.828125 253.859375 C 100.863281 254.386719 101.921875 254.859375 103.003906 255.28125 C 104.085938 255.707031 105.183594 256.074219 106.304688 256.386719 C 107.421875 256.703125 108.550781 256.960938 109.695312 257.164062 C 110.839844 257.367188 111.988281 257.515625 113.144531 257.605469 C 114.304688 257.695312 115.464844 257.730469 116.625 257.707031 C 117.785156 257.683594 118.941406 257.601562 120.09375 257.464844 C 121.25 257.328125 122.390625 257.132812 123.527344 256.882812 C 124.660156 256.632812 125.777344 256.328125 126.882812 255.96875 C 127.988281 255.609375 129.070312 255.199219 130.136719 254.730469 Z M 139.511719 218.214844 C 142.0625 217.675781 144.644531 217.402344 147.253906 217.398438 C 144.84375 218.394531 142.355469 219.132812 139.789062 219.613281 C 137.238281 220.152344 134.65625 220.425781 132.046875 220.429688 C 134.457031 219.429688 136.945312 218.691406 139.511719 218.214844 Z M 137.269531 225.707031 C 139.390625 225.730469 141.476562 226.023438 143.519531 226.585938 C 141.449219 227.039062 139.351562 227.21875 137.234375 227.128906 C 135.113281 227.105469 133.03125 226.8125 130.984375 226.253906 C 133.054688 225.804688 135.152344 225.621094 137.269531 225.707031 Z M 136.101562 235.359375 C 138.652344 236.753906 141.046875 238.371094 143.296875 240.210938 C 140.554688 239.253906 137.921875 238.050781 135.40625 236.601562 C 132.855469 235.210938 130.457031 233.589844 128.210938 231.75 C 130.953125 232.707031 133.585938 233.910156 136.101562 235.359375 Z M 123.617188 235.308594 C 124.792969 236.738281 125.738281 238.304688 126.453125 240.011719 C 127.226562 241.695312 127.738281 243.453125 127.988281 245.285156 C 126.808594 243.859375 125.863281 242.289062 125.148438 240.582031 C 124.382812 238.898438 123.871094 237.140625 123.617188 235.308594 Z M 117.605469 244.269531 C 117.492188 241.835938 117.644531 239.421875 118.066406 237.027344 C 118.652344 239.386719 118.976562 241.785156 119.03125 244.21875 C 119.148438 246.648438 118.996094 249.0625 118.570312 251.460938 C 117.980469 249.097656 117.660156 246.703125 117.605469 244.269531 Z M 111.128906 237.210938 C 110.878906 238.800781 110.375 240.304688 109.613281 241.726562 C 108.90625 243.171875 107.980469 244.457031 106.832031 245.589844 C 107.082031 243.996094 107.585938 242.492188 108.347656 241.074219 C 109.058594 239.628906 109.984375 238.34375 111.128906 237.210938 Z M 105.9375 233.777344 C 104.167969 235.664062 102.222656 237.34375 100.101562 238.820312 C 98.015625 240.351562 95.796875 241.644531 93.4375 242.707031 C 95.207031 240.820312 97.152344 239.136719 99.273438 237.664062 C 101.359375 236.136719 103.582031 234.839844 105.9375 233.777344 Z M 104.65625 171.839844 C 105.609375 172.503906 106.589844 173.121094 107.601562 173.691406 C 108.613281 174.261719 109.652344 174.777344 110.714844 175.246094 C 111.777344 175.710938 112.863281 176.125 113.964844 176.484375 C 115.070312 176.847656 116.1875 177.152344 117.324219 177.402344 C 118.457031 177.652344 119.601562 177.847656 120.753906 177.984375 C 121.90625 178.125 123.0625 178.203125 124.222656 178.230469 C 125.382812 178.253906 126.542969 178.222656 127.703125 178.132812 C 128.859375 178.042969 130.011719 177.898438 131.152344 177.695312 C 132.296875 177.492188 133.425781 177.234375 134.546875 176.921875 C 135.664062 176.605469 136.765625 176.238281 137.847656 175.816406 C 138.925781 175.394531 139.988281 174.921875 141.023438 174.394531 C 142.058594 173.871094 143.0625 173.296875 144.042969 172.671875 C 145.023438 172.046875 145.96875 171.375 146.882812 170.65625 C 147.792969 169.941406 148.667969 169.179688 149.507812 168.375 C 150.347656 167.570312 151.144531 166.730469 151.898438 165.847656 C 152.652344 164.964844 153.363281 164.050781 154.03125 163.097656 L 134.914062 149.734375 C 134.457031 150.386719 133.941406 150.984375 133.367188 151.535156 C 132.789062 152.085938 132.167969 152.574219 131.496094 153.003906 C 130.824219 153.429688 130.117188 153.789062 129.375 154.078125 C 128.632812 154.363281 127.871094 154.578125 127.089844 154.714844 C 126.304688 154.855469 125.515625 154.914062 124.71875 154.898438 C 123.921875 154.878906 123.136719 154.785156 122.359375 154.613281 C 121.582031 154.441406 120.828125 154.195312 120.101562 153.875 C 119.371094 153.554688 118.679688 153.167969 118.027344 152.710938 C 117.375 152.253906 116.773438 151.742188 116.222656 151.167969 C 115.671875 150.589844 115.183594 149.96875 114.753906 149.296875 C 114.328125 148.628906 113.96875 147.921875 113.679688 147.179688 C 113.390625 146.4375 113.175781 145.675781 113.035156 144.890625 C 112.898438 144.109375 112.835938 143.320312 112.851562 142.523438 C 112.867188 141.726562 112.960938 140.941406 113.132812 140.164062 C 113.300781 139.386719 113.546875 138.632812 113.867188 137.902344 C 114.1875 137.175781 114.574219 136.484375 115.027344 135.832031 L 95.914062 122.464844 C 95.246094 123.417969 94.628906 124.398438 94.0625 125.414062 C 93.492188 126.425781 92.976562 127.460938 92.507812 128.527344 C 92.042969 129.589844 91.628906 130.671875 91.265625 131.777344 C 90.90625 132.878906 90.601562 134 90.351562 135.132812 C 90.101562 136.265625 89.90625 137.410156 89.769531 138.5625 C 89.628906 139.714844 89.546875 140.875 89.523438 142.035156 C 89.5 143.195312 89.53125 144.355469 89.621094 145.511719 C 89.710938 146.671875 89.855469 147.820312 90.058594 148.964844 C 90.261719 150.109375 90.519531 151.238281 90.832031 152.355469 C 91.148438 153.472656 91.515625 154.574219 91.9375 155.65625 C 92.359375 156.738281 92.832031 157.796875 93.355469 158.832031 C 93.882812 159.867188 94.457031 160.875 95.082031 161.855469 C 95.707031 162.832031 96.378906 163.777344 97.09375 164.691406 C 97.8125 165.605469 98.574219 166.480469 99.378906 167.320312 C 100.179688 168.15625 101.023438 168.953125 101.90625 169.707031 C 102.789062 170.464844 103.703125 171.175781 104.65625 171.839844 Z M 140.714844 160.832031 C 142.503906 162.730469 144.082031 164.792969 145.445312 167.015625 C 143.339844 165.476562 141.414062 163.734375 139.667969 161.796875 C 137.875 159.898438 136.300781 157.839844 134.9375 155.613281 C 137.046875 157.148438 138.972656 158.890625 140.714844 160.832031 Z M 133.152344 162.820312 C 134.234375 164.644531 135.070312 166.574219 135.65625 168.613281 C 134.191406 167.078125 132.945312 165.382812 131.917969 163.527344 C 130.835938 161.703125 130 159.773438 129.414062 157.734375 C 130.875 159.273438 132.121094 160.964844 133.152344 162.820312 Z M 124.300781 166.847656 C 124.4375 169.75 124.304688 172.640625 123.90625 175.515625 C 123.296875 172.675781 122.953125 169.804688 122.878906 166.898438 C 122.738281 163.996094 122.871094 161.109375 123.277344 158.230469 C 123.886719 161.070312 124.230469 163.945312 124.300781 166.847656 Z M 117.84375 156.160156 C 117.238281 157.910156 116.390625 159.53125 115.308594 161.035156 C 114.273438 162.566406 113.039062 163.921875 111.601562 165.089844 C 112.207031 163.339844 113.054688 161.714844 114.140625 160.21875 C 115.175781 158.683594 116.410156 157.332031 117.84375 156.160156 Z M 107.066406 155.695312 C 109.082031 154.332031 111.222656 153.207031 113.488281 152.316406 C 111.777344 154.050781 109.898438 155.570312 107.851562 156.886719 C 105.835938 158.253906 103.695312 159.378906 101.429688 160.265625 C 103.136719 158.53125 105.015625 157.007812 107.066406 155.695312 Z M 109.71875 146.492188 C 108.230469 147.105469 106.683594 147.457031 105.074219 147.550781 C 103.472656 147.699219 101.890625 147.578125 100.328125 147.183594 C 101.816406 146.566406 103.363281 146.214844 104.972656 146.128906 C 106.574219 145.984375 108.15625 146.105469 109.71875 146.492188 Z M 109.945312 140.273438 C 107.417969 139.742188 104.96875 138.957031 102.601562 137.914062 C 100.210938 136.933594 97.949219 135.710938 95.816406 134.25 C 98.347656 134.773438 100.796875 135.5625 103.160156 136.605469 C 105.550781 137.589844 107.8125 138.8125 109.945312 140.273438 Z M 214.535156 264.527344 C 214.535156 263.367188 214.476562 262.207031 214.363281 261.050781 C 214.25 259.898438 214.078125 258.75 213.851562 257.609375 C 213.625 256.472656 213.34375 255.347656 213.007812 254.234375 C 212.667969 253.125 212.277344 252.03125 211.835938 250.960938 C 211.390625 249.886719 210.894531 248.839844 210.347656 247.8125 C 209.800781 246.789062 209.203125 245.792969 208.558594 244.828125 C 207.914062 243.863281 207.222656 242.933594 206.484375 242.035156 C 205.75 241.136719 204.96875 240.277344 204.148438 239.457031 C 203.328125 238.636719 202.46875 237.855469 201.570312 237.121094 C 200.671875 236.382812 199.742188 235.691406 198.777344 235.046875 C 197.808594 234.402344 196.816406 233.804688 195.792969 233.257812 C 194.765625 232.710938 193.71875 232.214844 192.644531 231.769531 C 191.574219 231.328125 190.480469 230.9375 189.371094 230.597656 C 188.257812 230.261719 187.132812 229.980469 185.996094 229.753906 C 184.855469 229.527344 183.707031 229.355469 182.554688 229.242188 C 181.398438 229.128906 180.238281 229.070312 179.078125 229.070312 L 179.078125 252.394531 C 179.875 252.394531 180.664062 252.472656 181.445312 252.628906 C 182.226562 252.785156 182.984375 253.015625 183.71875 253.320312 C 184.457031 253.625 185.15625 253.996094 185.816406 254.441406 C 186.480469 254.882812 187.09375 255.386719 187.65625 255.949219 C 188.21875 256.511719 188.722656 257.125 189.164062 257.789062 C 189.609375 258.449219 189.980469 259.148438 190.285156 259.886719 C 190.589844 260.621094 190.820312 261.378906 190.976562 262.160156 C 191.132812 262.941406 191.210938 263.730469 191.210938 264.527344 C 191.210938 265.324219 191.132812 266.113281 190.976562 266.894531 C 190.820312 267.675781 190.589844 268.433594 190.285156 269.171875 C 189.980469 269.90625 189.609375 270.605469 189.164062 271.265625 C 188.722656 271.929688 188.21875 272.542969 187.65625 273.105469 C 187.09375 273.667969 186.480469 274.171875 185.816406 274.613281 C 185.15625 275.058594 184.457031 275.429688 183.71875 275.734375 C 182.984375 276.039062 182.226562 276.269531 181.445312 276.425781 C 180.664062 276.582031 179.875 276.660156 179.078125 276.660156 L 179.078125 299.984375 C 180.238281 299.984375 181.398438 299.925781 182.554688 299.8125 C 183.707031 299.699219 184.855469 299.527344 185.996094 299.300781 C 187.132812 299.074219 188.257812 298.792969 189.371094 298.457031 C 190.480469 298.121094 191.574219 297.726562 192.644531 297.285156 C 193.71875 296.839844 194.765625 296.34375 195.792969 295.796875 C 196.816406 295.25 197.808594 294.652344 198.777344 294.007812 C 199.742188 293.363281 200.671875 292.671875 201.570312 291.933594 C 202.46875 291.199219 203.328125 290.417969 204.148438 289.597656 C 204.96875 288.777344 205.75 287.917969 206.484375 287.019531 C 207.222656 286.121094 207.914062 285.191406 208.558594 284.226562 C 209.203125 283.261719 209.800781 282.265625 210.347656 281.242188 C 210.894531 280.21875 211.390625 279.167969 211.835938 278.09375 C 212.277344 277.023438 212.667969 275.929688 213.007812 274.820312 C 213.34375 273.707031 213.625 272.582031 213.851562 271.445312 C 214.078125 270.304688 214.25 269.160156 214.363281 268.003906 C 214.476562 266.847656 214.535156 265.6875 214.535156 264.527344 Z M 184.851562 241.28125 C 185.378906 238.726562 186.167969 236.253906 187.210938 233.863281 C 187.152344 236.472656 186.832031 239.046875 186.242188 241.585938 C 185.714844 244.144531 184.925781 246.617188 183.882812 249.007812 C 183.933594 246.398438 184.257812 243.824219 184.851562 241.28125 Z M 190.8125 246.339844 C 191.6875 244.410156 192.792969 242.617188 194.125 240.96875 C 193.710938 243.050781 193.035156 245.042969 192.101562 246.949219 C 191.226562 248.878906 190.121094 250.667969 188.789062 252.320312 C 189.210938 250.242188 189.882812 248.246094 190.8125 246.339844 Z M 199.183594 251.285156 C 201.484375 249.511719 203.929688 247.964844 206.515625 246.644531 C 204.539062 248.769531 202.378906 250.699219 200.042969 252.421875 C 197.746094 254.199219 195.300781 255.746094 192.710938 257.066406 C 194.6875 254.9375 196.847656 253.011719 199.183594 251.285156 Z M 194.125 262.703125 C 195.90625 262.199219 197.722656 261.960938 199.574219 261.988281 C 201.425781 261.957031 203.238281 262.195312 205.019531 262.703125 C 203.238281 263.207031 201.425781 263.445312 199.574219 263.414062 C 197.722656 263.441406 195.90625 263.207031 194.125 262.703125 Z M 199.921875 271.800781 C 197.648438 270.933594 195.5 269.824219 193.472656 268.476562 C 195.871094 268.886719 198.195312 269.550781 200.445312 270.476562 C 202.722656 271.34375 204.871094 272.453125 206.894531 273.804688 C 204.496094 273.398438 202.171875 272.730469 199.921875 271.800781 Z M 190.859375 274.902344 C 192.214844 275.769531 193.390625 276.835938 194.382812 278.101562 C 195.425781 279.328125 196.230469 280.695312 196.804688 282.199219 C 195.449219 281.335938 194.273438 280.269531 193.28125 279 C 192.242188 277.769531 191.433594 276.40625 190.859375 274.902344 Z M 185.628906 278.277344 C 186.644531 280.65625 187.40625 283.113281 187.90625 285.648438 C 188.46875 288.171875 188.765625 290.726562 188.789062 293.3125 C 187.769531 290.933594 187.011719 288.476562 186.511719 285.941406 C 185.953125 283.417969 185.65625 280.863281 185.628906 278.277344 Z M 185.628906 278.277344 " fill-opacity="1" fill-rule="nonzero"/><path fill="#971d1d" d="M 162.140625 198.824219 L 151.367188 184.269531 L 174.679688 167.015625 L 185.449219 181.570312 Z M 217.984375 189.511719 L 201.144531 182.855469 L 190.488281 209.828125 L 207.328125 216.480469 Z M 253.902344 97.425781 L 243.128906 82.871094 L 219.820312 100.125 L 230.589844 114.679688 Z M 293.5 192.425781 L 297.316406 174.726562 L 268.96875 168.613281 L 265.152344 186.3125 Z M 248.933594 254.507812 L 230.878906 255.828125 L 232.992188 284.75 L 251.050781 283.429688 Z M 168.949219 269.953125 L 156.144531 257.148438 L 135.640625 277.65625 L 148.441406 290.460938 Z M 131.007812 95.34375 L 117.398438 107.289062 L 136.527344 129.085938 L 150.136719 117.140625 Z M 87.703125 182.800781 L 74.09375 194.742188 L 93.222656 216.539062 L 106.832031 204.59375 Z M 87.703125 182.800781 " fill-opacity="1" fill-rule="nonzero"/></svg>