<svg xmlns="http://www.w3.org/2000/svg" xmlns:xlink="http://www.w3.org/1999/xlink" width="500" zoomAndPan="magnify" viewBox="0 0 375 374.999991" height="500" preserveAspectRatio="xMidYMid meet" version="1.0"><defs><clipPath id="aeb96215a0"><path d="M 37.5 37.5 L 337.5 37.5 L 337.5 337.5 L 37.5 337.5 Z M 37.5 37.5 " clip-rule="nonzero"/></clipPath></defs><g clip-path="url(#aeb96215a0)"><path fill="#ffc54c" d="M 337.5 187.5 C 337.5 189.953125 337.441406 192.410156 337.320312 194.859375 C 337.199219 197.3125 337.019531 199.757812 336.777344 202.203125 C 336.535156 204.644531 336.238281 207.082031 335.875 209.507812 C 335.515625 211.9375 335.097656 214.355469 334.617188 216.761719 C 334.140625 219.171875 333.601562 221.566406 333.003906 223.945312 C 332.40625 226.328125 331.753906 228.695312 331.039062 231.042969 C 330.328125 233.390625 329.558594 235.722656 328.730469 238.035156 C 327.90625 240.34375 327.019531 242.632812 326.082031 244.902344 C 325.140625 247.171875 324.148438 249.414062 323.097656 251.632812 C 322.046875 253.851562 320.945312 256.042969 319.789062 258.210938 C 318.632812 260.375 317.421875 262.511719 316.160156 264.617188 C 314.898438 266.722656 313.585938 268.792969 312.21875 270.835938 C 310.855469 272.875 309.445312 274.882812 307.980469 276.855469 C 306.519531 278.828125 305.007812 280.761719 303.453125 282.660156 C 301.894531 284.554688 300.292969 286.414062 298.644531 288.234375 C 296.992188 290.050781 295.300781 291.832031 293.566406 293.566406 C 291.832031 295.300781 290.054688 296.992188 288.234375 298.644531 C 286.414062 300.292969 284.554688 301.894531 282.660156 303.453125 C 280.761719 305.007812 278.828125 306.519531 276.855469 307.980469 C 274.882812 309.445312 272.875 310.855469 270.835938 312.21875 C 268.792969 313.585938 266.722656 314.898438 264.617188 316.160156 C 262.511719 317.421875 260.375 318.632812 258.210938 319.789062 C 256.042969 320.945312 253.851562 322.046875 251.632812 323.097656 C 249.414062 324.148438 247.171875 325.140625 244.902344 326.082031 C 242.632812 327.019531 240.34375 327.90625 238.035156 328.730469 C 235.722656 329.558594 233.390625 330.328125 231.042969 331.039062 C 228.695312 331.753906 226.328125 332.40625 223.945312 333.003906 C 221.566406 333.601562 219.171875 334.140625 216.761719 334.617188 C 214.355469 335.097656 211.9375 335.515625 209.507812 335.875 C 207.082031 336.238281 204.644531 336.535156 202.203125 336.777344 C 199.757812 337.019531 197.3125 337.199219 194.859375 337.320312 C 192.410156 337.441406 189.953125 337.5 187.5 337.5 C 185.046875 337.5 182.589844 337.441406 180.140625 337.320312 C 177.6875 337.199219 175.242188 337.019531 172.796875 336.777344 C 170.355469 336.535156 167.917969 336.238281 165.492188 335.875 C 163.0625 335.515625 160.644531 335.097656 158.238281 334.617188 C 155.828125 334.140625 153.433594 333.601562 151.054688 333.003906 C 148.671875 332.40625 146.304688 331.753906 143.957031 331.039062 C 141.609375 330.328125 139.277344 329.558594 136.964844 328.730469 C 134.65625 327.90625 132.367188 327.019531 130.097656 326.082031 C 127.828125 325.140625 125.585938 324.148438 123.367188 323.097656 C 121.148438 322.046875 118.957031 320.945312 116.789062 319.789062 C 114.625 318.632812 112.488281 317.421875 110.382812 316.160156 C 108.277344 314.898438 106.207031 313.585938 104.164062 312.21875 C 102.125 310.855469 100.117188 309.445312 98.144531 307.980469 C 96.171875 306.519531 94.238281 305.007812 92.339844 303.453125 C 90.445312 301.894531 88.585938 300.292969 86.765625 298.644531 C 84.945312 296.992188 83.167969 295.300781 81.433594 293.566406 C 79.699219 291.832031 78.007812 290.050781 76.355469 288.234375 C 74.707031 286.414062 73.105469 284.554688 71.546875 282.660156 C 69.992188 280.761719 68.480469 278.828125 67.019531 276.855469 C 65.554688 274.882812 64.144531 272.875 62.78125 270.835938 C 61.414062 268.792969 60.101562 266.722656 58.839844 264.617188 C 57.578125 262.511719 56.367188 260.375 55.210938 258.210938 C 54.054688 256.042969 52.953125 253.851562 51.902344 251.632812 C 50.851562 249.414062 49.859375 247.171875 48.917969 244.902344 C 47.980469 242.632812 47.09375 240.34375 46.269531 238.035156 C 45.441406 235.722656 44.671875 233.390625 43.957031 231.042969 C 43.246094 228.695312 42.589844 226.328125 41.996094 223.945312 C 41.398438 221.566406 40.859375 219.171875 40.382812 216.761719 C 39.902344 214.355469 39.484375 211.9375 39.125 209.507812 C 38.761719 207.082031 38.464844 204.644531 38.222656 202.203125 C 37.980469 199.757812 37.800781 197.3125 37.679688 194.859375 C 37.558594 192.410156 37.5 189.953125 37.5 187.5 C 37.5 185.046875 37.558594 182.589844 37.679688 180.140625 C 37.800781 177.6875 37.980469 175.242188 38.222656 172.796875 C 38.464844 170.355469 38.761719 167.917969 39.125 165.492188 C 39.484375 163.0625 39.902344 160.644531 40.382812 158.238281 C 40.859375 155.828125 41.398438 153.433594 41.996094 151.054688 C 42.589844 148.671875 43.246094 146.304688 43.957031 143.957031 C 44.671875 141.609375 45.441406 139.277344 46.269531 136.964844 C 47.09375 134.65625 47.980469 132.367188 48.917969 130.097656 C 49.859375 127.828125 50.851562 125.585938 51.902344 123.367188 C 52.953125 121.148438 54.054688 118.957031 55.210938 116.789062 C 56.367188 114.625 57.578125 112.488281 58.839844 110.382812 C 60.101562 108.277344 61.414062 106.207031 62.78125 104.164062 C 64.144531 102.125 65.554688 100.117188 67.019531 98.144531 C 68.480469 96.171875 69.992188 94.238281 71.546875 92.339844 C 73.105469 90.445312 74.707031 88.585938 76.355469 86.765625 C 78.007812 84.945312 79.699219 83.167969 81.433594 81.433594 C 83.167969 79.699219 84.945312 78.007812 86.765625 76.355469 C 88.585938 74.707031 90.445312 73.105469 92.339844 71.546875 C 94.238281 69.992188 96.171875 68.480469 98.144531 67.019531 C 100.117188 65.554688 102.125 64.144531 104.164062 62.78125 C 106.207031 61.414062 108.277344 60.101562 110.382812 58.839844 C 112.488281 57.578125 114.625 56.367188 116.789062 55.210938 C 118.957031 54.054688 121.148438 52.953125 123.367188 51.902344 C 125.585938 50.851562 127.828125 49.859375 130.097656 48.917969 C 132.367188 47.980469 134.65625 47.09375 136.964844 46.269531 C 139.277344 45.441406 141.609375 44.671875 143.957031 43.957031 C 146.304688 43.246094 148.671875 42.589844 151.054688 41.996094 C 153.433594 41.398438 155.828125 40.859375 158.238281 40.382812 C 160.644531 39.902344 163.0625 39.484375 165.492188 39.125 C 167.917969 38.761719 170.355469 38.464844 172.796875 38.222656 C 175.242188 37.980469 177.6875 37.800781 180.140625 37.679688 C 182.589844 37.558594 185.046875 37.5 187.5 37.5 C 189.953125 37.5 192.410156 37.558594 194.859375 37.679688 C 197.3125 37.800781 199.757812 37.980469 202.203125 38.222656 C 204.644531 38.464844 207.082031 38.761719 209.507812 39.125 C 211.9375 39.484375 214.355469 39.902344 216.761719 40.382812 C 219.171875 40.859375 221.566406 41.398438 223.945312 41.996094 C 226.328125 42.589844 228.695312 43.246094 231.042969 43.957031 C 233.390625 44.671875 235.722656 45.441406 238.035156 46.269531 C 240.34375 47.09375 242.632812 47.980469 244.902344 48.917969 C 247.171875 49.859375 249.414062 50.851562 251.632812 51.902344 C 253.851562 52.953125 256.042969 54.054688 258.210938 55.210938 C 260.375 56.367188 262.511719 57.578125 264.617188 58.839844 C 266.722656 60.101562 268.792969 61.414062 270.835938 62.78125 C 272.875 64.144531 274.882812 65.554688 276.855469 67.019531 C 278.828125 68.480469 280.761719 69.992188 282.660156 71.546875 C 284.554688 73.105469 286.414062 74.707031 288.234375 76.355469 C 290.054688 78.007812 291.832031 79.699219 293.566406 81.433594 C 295.300781 83.167969 296.992188 84.945312 298.644531 86.765625 C 300.292969 88.585938 301.894531 90.445312 303.453125 92.339844 C 305.007812 94.238281 306.519531 96.171875 307.980469 98.144531 C 309.445312 100.117188 310.855469 102.125 312.21875 104.164062 C 313.585938 106.207031 314.898438 108.277344 316.160156 110.382812 C 317.421875 112.488281 318.632812 114.625 319.789062 116.789062 C 320.945312 118.957031 322.046875 121.148438 323.097656 123.367188 C 324.148438 125.585938 325.140625 127.828125 326.082031 130.097656 C 327.019531 132.367188 327.90625 134.65625 328.730469 136.964844 C 329.558594 139.277344 330.328125 141.609375 331.039062 143.957031 C 331.753906 146.304688 332.40625 148.671875 333.003906 151.054688 C 333.601562 153.433594 334.140625 155.828125 334.617188 158.238281 C 335.097656 160.644531 335.515625 163.0625 335.875 165.492188 C 336.238281 167.917969 336.535156 170.355469 336.777344 172.796875 C 337.019531 175.242188 337.199219 177.6875 337.320312 180.140625 C 337.441406 182.589844 337.5 185.046875 337.5 187.5 Z M 337.5 187.5 " fill-opacity="1" fill-rule="nonzero"/></g><path fill="#eb3323" d="M 314.464844 210.777344 L 316.332031 207.546875 C 317.207031 206.03125 317.980469 204.460938 318.652344 202.84375 C 319.320312 201.222656 319.882812 199.570312 320.335938 197.878906 C 320.789062 196.183594 321.132812 194.46875 321.359375 192.734375 C 321.589844 190.996094 321.703125 189.25 321.703125 187.5 C 321.703125 185.75 321.589844 184.003906 321.359375 182.265625 C 321.132812 180.53125 320.789062 178.816406 320.335938 177.125 C 319.882812 175.429688 319.320312 173.777344 318.652344 172.15625 C 317.980469 170.539062 317.207031 168.96875 316.332031 167.453125 L 314.464844 164.222656 C 312.707031 161.175781 311.371094 157.953125 310.460938 154.550781 C 309.550781 151.152344 309.09375 147.695312 309.09375 144.175781 L 309.09375 140.445312 C 309.09375 138.691406 308.980469 136.949219 308.753906 135.210938 C 308.523438 133.476562 308.183594 131.761719 307.730469 130.066406 C 307.277344 128.375 306.714844 126.71875 306.042969 125.101562 C 305.371094 123.484375 304.597656 121.914062 303.722656 120.398438 C 302.847656 118.882812 301.875 117.425781 300.808594 116.039062 C 299.742188 114.648438 298.589844 113.332031 297.351562 112.09375 C 296.113281 110.855469 294.796875 109.703125 293.410156 108.636719 C 292.019531 107.570312 290.566406 106.597656 289.046875 105.722656 L 285.816406 103.859375 C 282.769531 102.097656 280.003906 99.972656 277.515625 97.484375 C 275.027344 94.996094 272.902344 92.230469 271.140625 89.183594 L 269.277344 85.953125 C 268.402344 84.433594 267.429688 82.980469 266.363281 81.589844 C 265.296875 80.199219 264.144531 78.886719 262.90625 77.648438 C 261.667969 76.410156 260.351562 75.257812 258.960938 74.191406 C 257.574219 73.125 256.117188 72.152344 254.601562 71.277344 C 253.085938 70.402344 251.515625 69.628906 249.898438 68.957031 C 248.28125 68.285156 246.625 67.722656 244.933594 67.269531 C 243.238281 66.816406 241.523438 66.476562 239.789062 66.246094 C 238.050781 66.019531 236.308594 65.90625 234.554688 65.90625 L 230.824219 65.90625 C 227.304688 65.90625 223.847656 65.449219 220.445312 64.539062 C 217.046875 63.628906 213.824219 62.292969 210.777344 60.535156 L 207.546875 58.667969 C 206.03125 57.792969 204.460938 57.019531 202.84375 56.347656 C 201.222656 55.679688 199.570312 55.117188 197.875 54.664062 C 196.183594 54.210938 194.46875 53.867188 192.734375 53.640625 C 190.996094 53.410156 189.25 53.296875 187.5 53.296875 C 185.746094 53.296875 184.003906 53.410156 182.265625 53.640625 C 180.53125 53.867188 178.816406 54.210938 177.121094 54.664062 C 175.429688 55.117188 173.777344 55.679688 172.15625 56.347656 C 170.539062 57.019531 168.96875 57.792969 167.453125 58.667969 L 164.222656 60.535156 C 161.175781 62.292969 157.953125 63.628906 154.554688 64.539062 C 151.152344 65.449219 147.695312 65.90625 144.175781 65.90625 L 140.445312 65.90625 C 138.691406 65.90625 136.949219 66.019531 135.210938 66.246094 C 133.476562 66.476562 131.761719 66.816406 130.066406 67.269531 C 128.375 67.722656 126.71875 68.285156 125.101562 68.957031 C 123.484375 69.628906 121.914062 70.402344 120.398438 71.277344 C 118.882812 72.152344 117.425781 73.125 116.039062 74.191406 C 114.648438 75.257812 113.332031 76.410156 112.09375 77.648438 C 110.855469 78.886719 109.703125 80.203125 108.636719 81.589844 C 107.570312 82.980469 106.597656 84.433594 105.722656 85.953125 L 103.859375 89.183594 C 102.097656 92.230469 99.972656 94.996094 97.484375 97.484375 C 94.996094 99.972656 92.230469 102.097656 89.183594 103.859375 L 85.953125 105.722656 C 84.433594 106.597656 82.980469 107.570312 81.589844 108.636719 C 80.203125 109.703125 78.886719 110.855469 77.648438 112.09375 C 76.410156 113.332031 75.257812 114.648438 74.191406 116.039062 C 73.125 117.425781 72.152344 118.882812 71.277344 120.398438 C 70.402344 121.914062 69.628906 123.484375 68.957031 125.101562 C 68.285156 126.71875 67.722656 128.375 67.269531 130.066406 C 66.816406 131.761719 66.476562 133.476562 66.246094 135.210938 C 66.019531 136.949219 65.90625 138.691406 65.90625 140.445312 L 65.90625 144.175781 C 65.90625 147.695312 65.449219 151.152344 64.539062 154.550781 C 63.628906 157.953125 62.292969 161.175781 60.535156 164.222656 L 58.667969 167.453125 C 57.792969 168.96875 57.019531 170.539062 56.347656 172.15625 C 55.679688 173.777344 55.117188 175.429688 54.664062 177.125 C 54.210938 178.816406 53.867188 180.53125 53.640625 182.265625 C 53.410156 184.003906 53.296875 185.75 53.296875 187.5 C 53.296875 189.25 53.410156 190.996094 53.640625 192.734375 C 53.867188 194.46875 54.210938 196.183594 54.664062 197.878906 C 55.117188 199.570312 55.679688 201.222656 56.347656 202.84375 C 57.019531 204.460938 57.792969 206.03125 58.667969 207.546875 L 60.535156 210.777344 C 62.292969 213.824219 63.628906 217.046875 64.539062 220.449219 C 65.449219 223.847656 65.90625 227.304688 65.90625 230.824219 L 65.90625 234.554688 C 65.90625 236.308594 66.019531 238.050781 66.246094 239.789062 C 66.476562 241.523438 66.816406 243.238281 67.269531 244.933594 C 67.722656 246.625 68.285156 248.28125 68.957031 249.898438 C 69.628906 251.515625 70.402344 253.085938 71.277344 254.601562 C 72.152344 256.117188 73.125 257.574219 74.191406 258.960938 C 75.257812 260.351562 76.410156 261.667969 77.648438 262.90625 C 78.886719 264.144531 80.203125 265.296875 81.589844 266.363281 C 82.980469 267.429688 84.433594 268.402344 85.953125 269.277344 L 89.183594 271.140625 C 92.230469 272.902344 94.996094 275.027344 97.484375 277.515625 C 99.972656 280.003906 102.097656 282.769531 103.859375 285.816406 L 105.722656 289.046875 C 106.597656 290.566406 107.570312 292.019531 108.636719 293.410156 C 109.703125 294.796875 110.855469 296.113281 112.09375 297.351562 C 113.332031 298.589844 114.648438 299.742188 116.039062 300.808594 C 117.425781 301.875 118.882812 302.847656 120.398438 303.722656 C 121.914062 304.597656 123.484375 305.371094 125.101562 306.042969 C 126.71875 306.714844 128.375 307.277344 130.066406 307.730469 C 131.761719 308.183594 133.476562 308.523438 135.210938 308.753906 C 136.949219 308.980469 138.691406 309.09375 140.445312 309.09375 L 144.175781 309.09375 C 147.695312 309.09375 151.152344 309.550781 154.554688 310.460938 C 157.953125 311.371094 161.175781 312.707031 164.222656 314.464844 L 167.453125 316.332031 C 168.96875 317.207031 170.539062 317.980469 172.15625 318.652344 C 173.777344 319.320312 175.429688 319.882812 177.121094 320.335938 C 178.816406 320.789062 180.53125 321.132812 182.265625 321.359375 C 184.003906 321.589844 185.75 321.703125 187.5 321.703125 C 189.25 321.703125 190.996094 321.589844 192.734375 321.359375 C 194.46875 321.132812 196.183594 320.789062 197.875 320.335938 C 199.570312 319.882812 201.222656 319.320312 202.84375 318.652344 C 204.460938 317.980469 206.03125 317.207031 207.546875 316.332031 L 210.777344 314.464844 C 213.824219 312.707031 217.046875 311.371094 220.445312 310.460938 C 223.847656 309.550781 227.304688 309.09375 230.824219 309.09375 L 234.554688 309.09375 C 236.308594 309.09375 238.050781 308.980469 239.789062 308.753906 C 241.523438 308.523438 243.238281 308.183594 244.933594 307.730469 C 246.625 307.277344 248.28125 306.714844 249.898438 306.042969 C 251.515625 305.371094 253.085938 304.597656 254.601562 303.722656 C 256.117188 302.847656 257.574219 301.875 258.960938 300.808594 C 260.351562 299.742188 261.667969 298.589844 262.90625 297.351562 C 264.144531 296.113281 265.296875 294.800781 266.363281 293.410156 C 267.429688 292.019531 268.402344 290.566406 269.277344 289.046875 L 271.140625 285.816406 C 272.902344 282.769531 275.027344 280.003906 277.515625 277.515625 C 280.003906 275.027344 282.769531 272.902344 285.816406 271.140625 L 289.046875 269.277344 C 290.566406 268.402344 292.019531 267.429688 293.410156 266.363281 C 294.796875 265.296875 296.113281 264.144531 297.351562 262.90625 C 298.589844 261.667969 299.742188 260.351562 300.808594 258.960938 C 301.875 257.574219 302.847656 256.117188 303.722656 254.601562 C 304.597656 253.085938 305.371094 251.515625 306.042969 249.898438 C 306.714844 248.28125 307.277344 246.625 307.730469 244.933594 C 308.183594 243.238281 308.523438 241.523438 308.753906 239.789062 C 308.980469 238.050781 309.09375 236.308594 309.09375 234.554688 L 309.09375 230.824219 C 309.09375 227.304688 309.550781 223.847656 310.460938 220.449219 C 311.371094 217.046875 312.707031 213.824219 314.464844 210.777344 Z M 314.464844 210.777344 " fill-opacity="1" fill-rule="nonzero"/><path fill="#bd1d1d" d="M 161.929688 121.308594 C 161.628906 120.472656 161.367188 119.621094 161.144531 118.757812 C 160.921875 117.894531 160.742188 117.023438 160.601562 116.140625 C 160.460938 115.261719 160.363281 114.375 160.304688 113.488281 C 160.246094 112.597656 160.230469 111.707031 160.257812 110.816406 C 160.28125 109.925781 160.347656 109.035156 160.457031 108.152344 C 160.566406 107.265625 160.714844 106.390625 160.90625 105.519531 C 161.097656 104.648438 161.328125 103.789062 161.601562 102.9375 C 161.871094 102.089844 162.179688 101.253906 162.53125 100.433594 C 162.878906 99.613281 163.265625 98.8125 163.691406 98.027344 C 164.117188 97.246094 164.578125 96.484375 165.070312 95.742188 C 165.566406 95 166.097656 94.285156 166.660156 93.59375 C 167.222656 92.902344 167.816406 92.238281 168.441406 91.601562 C 169.066406 90.96875 169.71875 90.363281 170.402344 89.789062 C 171.082031 89.214844 171.789062 88.671875 172.523438 88.164062 C 173.253906 87.65625 174.007812 87.179688 174.785156 86.742188 C 175.5625 86.304688 176.355469 85.90625 177.171875 85.542969 C 177.984375 85.179688 178.8125 84.855469 179.65625 84.566406 C 180.503906 84.28125 181.359375 84.035156 182.226562 83.832031 C 183.09375 83.625 183.96875 83.460938 184.851562 83.335938 C 185.734375 83.210938 186.621094 83.128906 187.511719 83.089844 C 188.402344 83.046875 189.292969 83.050781 190.183594 83.089844 C 191.074219 83.132812 191.960938 83.21875 192.839844 83.34375 C 193.722656 83.46875 194.597656 83.636719 195.464844 83.84375 C 196.332031 84.050781 197.1875 84.296875 198.03125 84.585938 C 198.875 84.871094 199.703125 85.199219 200.519531 85.5625 C 201.332031 85.925781 202.125 86.328125 202.902344 86.769531 C 203.675781 87.207031 204.429688 87.683594 205.160156 88.191406 C 205.894531 88.703125 206.597656 89.246094 207.28125 89.820312 C 207.960938 90.398438 208.613281 91.003906 209.234375 91.640625 C 209.859375 92.277344 210.453125 92.941406 211.015625 93.632812 C 211.574219 94.324219 212.105469 95.042969 212.597656 95.785156 C 213.09375 96.527344 213.550781 97.289062 213.972656 98.074219 Z M 184.265625 185.597656 C 183.835938 184.816406 183.367188 184.058594 182.863281 183.324219 C 182.359375 182.585938 181.824219 181.875 181.253906 181.191406 C 180.683594 180.503906 180.085938 179.847656 179.453125 179.21875 C 178.820312 178.589844 178.164062 177.992188 177.476562 177.421875 C 176.789062 176.855469 176.074219 176.320312 175.339844 175.820312 C 174.601562 175.320312 173.84375 174.851562 173.0625 174.421875 C 172.28125 173.992188 171.480469 173.601562 170.664062 173.246094 C 169.847656 172.890625 169.015625 172.574219 168.167969 172.296875 C 167.320312 172.019531 166.460938 171.78125 165.59375 171.585938 C 164.722656 171.386719 163.847656 171.230469 162.960938 171.117188 C 162.078125 171 161.191406 170.925781 160.300781 170.894531 C 159.410156 170.863281 158.519531 170.875 157.628906 170.925781 C 156.738281 170.976562 155.851562 171.070312 154.972656 171.203125 C 154.089844 171.335938 153.21875 171.511719 152.351562 171.726562 C 151.488281 171.945312 150.636719 172.199219 149.792969 172.496094 C 148.953125 172.792969 148.128906 173.125 147.316406 173.5 C 146.507812 173.871094 145.71875 174.28125 144.945312 174.730469 C 144.175781 175.175781 143.425781 175.65625 142.699219 176.175781 C 141.972656 176.691406 141.273438 177.242188 140.597656 177.824219 C 139.925781 178.40625 139.277344 179.019531 138.660156 179.664062 C 138.042969 180.304688 137.457031 180.976562 136.902344 181.675781 C 136.347656 182.371094 135.828125 183.09375 135.339844 183.839844 C 134.851562 184.585938 134.402344 185.355469 133.988281 186.144531 C 133.570312 186.933594 133.195312 187.738281 132.855469 188.5625 C 132.515625 189.386719 132.214844 190.226562 131.953125 191.078125 C 131.691406 191.929688 131.472656 192.792969 131.289062 193.664062 C 131.109375 194.539062 130.96875 195.417969 130.871094 196.304688 C 130.773438 197.191406 130.71875 198.078125 130.703125 198.96875 C 130.6875 199.859375 130.714844 200.75 130.78125 201.640625 C 130.851562 202.527344 130.960938 203.414062 131.109375 204.292969 C 131.261719 205.167969 131.453125 206.039062 131.683594 206.898438 C 131.917969 207.761719 132.191406 208.609375 132.5 209.445312 Z M 225.875 158.390625 C 225.941406 159.277344 226.050781 160.164062 226.199219 161.042969 C 226.347656 161.921875 226.539062 162.789062 226.769531 163.652344 C 227 164.511719 227.269531 165.359375 227.578125 166.195312 C 227.886719 167.03125 228.238281 167.851562 228.625 168.65625 C 229.011719 169.457031 229.433594 170.242188 229.894531 171.003906 C 230.351562 171.769531 230.847656 172.507812 231.378906 173.226562 C 231.90625 173.945312 232.46875 174.636719 233.0625 175.300781 C 233.65625 175.964844 234.28125 176.601562 234.933594 177.207031 C 235.585938 177.8125 236.265625 178.386719 236.972656 178.929688 C 237.679688 179.472656 238.410156 179.980469 239.167969 180.457031 C 239.921875 180.929688 240.695312 181.367188 241.492188 181.769531 C 242.289062 182.171875 243.101562 182.535156 243.929688 182.863281 C 244.761719 183.1875 245.605469 183.472656 246.460938 183.71875 C 247.316406 183.96875 248.183594 184.171875 249.058594 184.339844 C 249.933594 184.503906 250.816406 184.628906 251.703125 184.710938 C 252.589844 184.796875 253.480469 184.835938 254.371094 184.835938 C 255.265625 184.835938 256.152344 184.796875 257.039062 184.710938 C 257.929688 184.628906 258.808594 184.503906 259.6875 184.339844 C 260.5625 184.171875 261.429688 183.96875 262.285156 183.71875 C 263.140625 183.472656 263.984375 183.1875 264.8125 182.863281 C 265.644531 182.535156 266.457031 182.171875 267.253906 181.769531 C 268.046875 181.367188 268.824219 180.929688 269.578125 180.457031 C 270.332031 179.980469 271.0625 179.472656 271.769531 178.929688 C 272.476562 178.386719 273.160156 177.8125 273.8125 177.207031 C 274.464844 176.601562 275.089844 175.964844 275.683594 175.300781 C 276.277344 174.636719 276.839844 173.945312 277.367188 173.226562 C 277.898438 172.507812 278.390625 171.769531 278.851562 171.003906 C 279.3125 170.242188 279.734375 169.457031 280.121094 168.65625 C 280.507812 167.851562 280.855469 167.03125 281.167969 166.195312 C 281.476562 165.359375 281.746094 164.511719 281.976562 163.652344 C 282.207031 162.789062 282.398438 161.921875 282.546875 161.042969 C 282.695312 160.164062 282.804688 159.277344 282.871094 158.390625 Z M 105.066406 247.714844 C 105.132812 248.605469 105.242188 249.488281 105.390625 250.367188 C 105.539062 251.246094 105.730469 252.117188 105.960938 252.976562 C 106.191406 253.839844 106.460938 254.6875 106.769531 255.523438 C 107.082031 256.359375 107.429688 257.175781 107.816406 257.980469 C 108.203125 258.785156 108.625 259.566406 109.085938 260.332031 C 109.546875 261.09375 110.039062 261.835938 110.570312 262.550781 C 111.097656 263.269531 111.660156 263.960938 112.253906 264.625 C 112.847656 265.289062 113.472656 265.925781 114.125 266.53125 C 114.777344 267.136719 115.457031 267.714844 116.167969 268.253906 C 116.875 268.796875 117.605469 269.308594 118.359375 269.78125 C 119.113281 270.253906 119.890625 270.695312 120.683594 271.09375 C 121.480469 271.496094 122.292969 271.859375 123.121094 272.1875 C 123.953125 272.511719 124.796875 272.796875 125.652344 273.046875 C 126.507812 273.292969 127.375 273.5 128.25 273.664062 C 129.128906 273.832031 130.007812 273.953125 130.894531 274.039062 C 131.785156 274.121094 132.671875 274.164062 133.566406 274.164062 C 134.457031 274.164062 135.34375 274.121094 136.234375 274.039062 C 137.121094 273.953125 138.003906 273.832031 138.878906 273.664062 C 139.753906 273.5 140.621094 273.292969 141.476562 273.046875 C 142.332031 272.796875 143.175781 272.511719 144.007812 272.1875 C 144.835938 271.859375 145.648438 271.496094 146.445312 271.09375 C 147.242188 270.695312 148.015625 270.253906 148.769531 269.78125 C 149.523438 269.308594 150.257812 268.796875 150.964844 268.253906 C 151.671875 267.714844 152.351562 267.136719 153.003906 266.53125 C 153.65625 265.925781 154.28125 265.289062 154.875 264.625 C 155.46875 263.960938 156.03125 263.269531 156.558594 262.550781 C 157.089844 261.835938 157.582031 261.09375 158.042969 260.332031 C 158.503906 259.566406 158.925781 258.785156 159.3125 257.980469 C 159.699219 257.175781 160.046875 256.359375 160.359375 255.523438 C 160.667969 254.6875 160.9375 253.839844 161.167969 252.976562 C 161.398438 252.117188 161.589844 251.246094 161.738281 250.367188 C 161.886719 249.488281 161.996094 248.605469 162.0625 247.714844 Z M 285.945312 249.667969 C 285.949219 248.777344 285.914062 247.886719 285.835938 247 C 285.761719 246.109375 285.640625 245.226562 285.480469 244.351562 C 285.324219 243.472656 285.121094 242.605469 284.882812 241.746094 C 284.640625 240.890625 284.359375 240.042969 284.039062 239.210938 C 283.71875 238.378906 283.363281 237.566406 282.964844 236.765625 C 282.570312 235.96875 282.136719 235.191406 281.667969 234.433594 C 281.199219 233.675781 280.695312 232.9375 280.15625 232.230469 C 279.621094 231.519531 279.050781 230.832031 278.449219 230.175781 C 277.847656 229.519531 277.214844 228.890625 276.554688 228.292969 C 275.894531 227.691406 275.207031 227.125 274.492188 226.59375 C 273.78125 226.058594 273.042969 225.558594 272.28125 225.09375 C 271.523438 224.628906 270.742188 224.199219 269.941406 223.808594 C 269.140625 223.414062 268.324219 223.0625 267.488281 222.746094 C 266.65625 222.429688 265.808594 222.152344 264.949219 221.917969 C 264.089844 221.679688 263.222656 221.484375 262.34375 221.328125 C 261.464844 221.175781 260.582031 221.058594 259.695312 220.988281 C 258.804688 220.914062 257.917969 220.882812 257.023438 220.894531 C 256.132812 220.90625 255.246094 220.957031 254.359375 221.050781 C 253.472656 221.144531 252.589844 221.28125 251.71875 221.457031 C 250.84375 221.632812 249.980469 221.847656 249.125 222.105469 C 248.273438 222.363281 247.433594 222.660156 246.609375 222.996094 C 245.78125 223.332031 244.972656 223.703125 244.183594 224.117188 C 243.390625 224.527344 242.621094 224.972656 241.871094 225.457031 C 241.125 225.941406 240.398438 226.457031 239.699219 227.007812 C 238.996094 227.5625 238.324219 228.144531 237.679688 228.757812 C 237.03125 229.371094 236.417969 230.015625 235.832031 230.6875 C 235.246094 231.359375 234.691406 232.054688 234.171875 232.78125 C 233.648438 233.503906 233.164062 234.25 232.714844 235.019531 C 232.261719 235.789062 231.847656 236.578125 231.472656 237.382812 C 231.09375 238.191406 230.757812 239.015625 230.457031 239.855469 C 230.15625 240.695312 229.898438 241.546875 229.675781 242.410156 C 229.457031 243.273438 229.277344 244.144531 229.136719 245.027344 Z M 213.300781 296.855469 C 214.097656 296.457031 214.875 296.023438 215.632812 295.550781 C 216.390625 295.082031 217.125 294.578125 217.835938 294.039062 C 218.542969 293.5 219.226562 292.925781 219.882812 292.324219 C 220.539062 291.722656 221.167969 291.089844 221.765625 290.425781 C 222.363281 289.765625 222.925781 289.078125 223.460938 288.363281 C 223.992188 287.648438 224.492188 286.910156 224.957031 286.148438 C 225.417969 285.386719 225.847656 284.609375 226.238281 283.804688 C 226.628906 283.003906 226.980469 282.1875 227.296875 281.351562 C 227.609375 280.519531 227.886719 279.671875 228.121094 278.8125 C 228.355469 277.953125 228.550781 277.082031 228.703125 276.207031 C 228.855469 275.328125 228.96875 274.445312 229.039062 273.554688 C 229.113281 272.667969 229.140625 271.777344 229.128906 270.886719 C 229.117188 269.992188 229.0625 269.105469 228.96875 268.21875 C 228.871094 267.332031 228.734375 266.453125 228.558594 265.578125 C 228.378906 264.707031 228.160156 263.84375 227.902344 262.988281 C 227.644531 262.136719 227.347656 261.296875 227.011719 260.472656 C 226.671875 259.644531 226.296875 258.839844 225.886719 258.046875 C 225.472656 257.257812 225.023438 256.488281 224.539062 255.742188 C 224.054688 254.992188 223.535156 254.269531 222.984375 253.570312 C 222.433594 252.871094 221.847656 252.195312 221.234375 251.550781 C 220.617188 250.90625 219.972656 250.292969 219.300781 249.707031 C 218.628906 249.121094 217.929688 248.570312 217.203125 248.050781 C 216.480469 247.53125 215.734375 247.046875 214.960938 246.597656 C 214.191406 246.148438 213.402344 245.734375 212.59375 245.359375 C 211.785156 244.984375 210.960938 244.648438 210.121094 244.347656 C 209.28125 244.050781 208.429688 243.792969 207.566406 243.574219 C 206.703125 243.355469 205.828125 243.175781 204.949219 243.039062 C 204.066406 242.902344 203.183594 242.808594 202.292969 242.753906 C 201.402344 242.699219 200.511719 242.6875 199.621094 242.714844 C 198.730469 242.746094 197.84375 242.816406 196.960938 242.925781 C 196.074219 243.039062 195.199219 243.191406 194.328125 243.386719 C 193.457031 243.582031 192.597656 243.816406 191.75 244.089844 Z M 139.332031 143.378906 C 138.949219 142.578125 138.527344 141.792969 138.070312 141.027344 C 137.613281 140.261719 137.117188 139.519531 136.589844 138.800781 C 136.0625 138.082031 135.503906 137.390625 134.910156 136.722656 C 134.320312 136.058594 133.699219 135.421875 133.046875 134.8125 C 132.394531 134.203125 131.714844 133.628906 131.007812 133.082031 C 130.304688 132.539062 129.574219 132.027344 128.820312 131.550781 C 128.066406 131.078125 127.292969 130.636719 126.5 130.230469 C 125.703125 129.828125 124.890625 129.460938 124.0625 129.132812 C 123.234375 128.808594 122.390625 128.519531 121.535156 128.269531 C 120.679688 128.019531 119.8125 127.8125 118.9375 127.644531 C 118.0625 127.476562 117.183594 127.347656 116.292969 127.261719 C 115.40625 127.175781 114.519531 127.132812 113.625 127.132812 C 112.734375 127.128906 111.84375 127.167969 110.957031 127.25 C 110.070312 127.332031 109.1875 127.453125 108.3125 127.617188 C 107.433594 127.777344 106.570312 127.984375 105.710938 128.226562 C 104.855469 128.472656 104.011719 128.757812 103.179688 129.078125 C 102.347656 129.402344 101.535156 129.765625 100.738281 130.164062 C 99.941406 130.566406 99.164062 131 98.410156 131.472656 C 97.652344 131.945312 96.921875 132.453125 96.210938 132.992188 C 95.503906 133.535156 94.820312 134.105469 94.167969 134.710938 C 93.511719 135.316406 92.886719 135.949219 92.292969 136.613281 C 91.695312 137.277344 91.132812 137.964844 90.601562 138.683594 C 90.070312 139.398438 89.574219 140.136719 89.113281 140.898438 C 88.648438 141.660156 88.222656 142.445312 87.835938 143.246094 C 87.445312 144.046875 87.097656 144.867188 86.785156 145.703125 C 86.472656 146.535156 86.199219 147.382812 85.964844 148.246094 C 85.734375 149.105469 85.542969 149.976562 85.390625 150.851562 C 85.238281 151.730469 85.128906 152.617188 85.058594 153.503906 C 84.992188 154.394531 84.964844 155.28125 84.980469 156.175781 C 84.992188 157.066406 85.050781 157.953125 85.148438 158.839844 C 85.246094 159.726562 85.382812 160.605469 85.5625 161.480469 C 85.742188 162.351562 85.964844 163.214844 86.226562 164.066406 Z M 139.332031 143.378906 " fill-opacity="1" fill-rule="nonzero"/><path fill="#fcef9e" d="M 181.308594 130.089844 C 180.824219 134.492188 179.503906 138.628906 177.355469 142.5 C 175.203125 146.316406 172.421875 149.59375 169.007812 152.332031 C 167.328125 153.679688 165.539062 154.859375 163.640625 155.871094 C 161.738281 156.886719 159.765625 157.714844 157.710938 158.363281 C 155.660156 159.015625 153.5625 159.46875 151.425781 159.730469 C 149.289062 159.992188 147.148438 160.054688 145 159.921875 C 140.621094 159.636719 136.445312 158.550781 132.484375 156.664062 C 128.476562 154.734375 124.988281 152.105469 122.027344 148.789062 C 120.546875 147.117188 119.257812 145.3125 118.152344 143.375 C 117.050781 141.4375 116.15625 139.40625 115.46875 137.285156 C 114.785156 135.160156 114.324219 132.992188 114.089844 130.773438 C 113.855469 128.554688 113.847656 126.335938 114.070312 124.117188 C 114.3125 121.921875 114.769531 119.773438 115.441406 117.667969 C 116.113281 115.5625 116.984375 113.546875 118.058594 111.617188 C 119.132812 109.683594 120.390625 107.878906 121.824219 106.203125 C 123.261719 104.523438 124.847656 103 126.585938 101.640625 C 128.285156 100.289062 130.09375 99.113281 132.015625 98.105469 C 133.9375 97.097656 135.933594 96.277344 138.007812 95.644531 C 140.082031 95.011719 142.199219 94.578125 144.355469 94.339844 C 146.511719 94.105469 148.671875 94.074219 150.832031 94.246094 C 153 94.429688 155.132812 94.816406 157.226562 95.410156 C 159.320312 96.003906 161.335938 96.792969 163.277344 97.777344 C 165.21875 98.761719 167.046875 99.921875 168.761719 101.261719 C 170.476562 102.597656 172.050781 104.089844 173.476562 105.730469 C 179.171875 112.320312 182.238281 121.328125 181.308594 130.089844 Z M 176.796875 129.691406 C 177.078125 125.867188 176.679688 122.113281 175.605469 118.433594 C 174.492188 114.738281 172.726562 111.390625 170.300781 108.390625 C 169.089844 106.886719 167.742188 105.519531 166.261719 104.285156 C 164.777344 103.050781 163.1875 101.976562 161.488281 101.058594 C 159.792969 100.144531 158.019531 99.402344 156.175781 98.839844 C 154.328125 98.28125 152.445312 97.90625 150.523438 97.71875 C 146.625 97.367188 142.808594 97.777344 139.074219 98.957031 C 135.351562 100.15625 132.03125 102.058594 129.109375 104.65625 C 126.246094 107.242188 123.980469 110.273438 122.3125 113.753906 C 121.710938 115.027344 121.203125 116.335938 120.785156 117.679688 C 120.363281 119.019531 120.039062 120.386719 119.808594 121.773438 C 119.578125 123.160156 119.441406 124.558594 119.40625 125.964844 C 119.367188 127.371094 119.425781 128.773438 119.582031 130.171875 C 119.734375 131.570312 119.988281 132.949219 120.332031 134.3125 C 120.679688 135.679688 121.117188 137.011719 121.644531 138.316406 C 122.175781 139.617188 122.792969 140.878906 123.496094 142.097656 C 124.199219 143.316406 124.984375 144.480469 125.847656 145.589844 C 127.023438 147.105469 128.339844 148.488281 129.789062 149.742188 C 131.242188 150.996094 132.800781 152.097656 134.46875 153.042969 C 136.136719 153.988281 137.882812 154.761719 139.703125 155.363281 C 141.527344 155.960938 143.390625 156.378906 145.292969 156.609375 C 149.214844 157.054688 153.058594 156.699219 156.828125 155.539062 C 160.609375 154.371094 163.980469 152.480469 166.945312 149.867188 C 168.382812 148.589844 169.6875 147.183594 170.851562 145.648438 C 172.015625 144.113281 173.019531 142.484375 173.867188 140.753906 C 174.710938 139.023438 175.378906 137.226562 175.875 135.363281 C 176.367188 133.503906 176.675781 131.613281 176.796875 129.691406 Z M 281.59375 133.832031 C 281.570312 136.007812 281.328125 138.160156 280.871094 140.289062 C 280.414062 142.417969 279.746094 144.476562 278.875 146.46875 C 278 148.464844 276.933594 150.347656 275.679688 152.128906 C 274.421875 153.90625 273.003906 155.539062 271.417969 157.03125 C 269.863281 158.496094 268.183594 159.800781 266.378906 160.945312 C 264.578125 162.09375 262.683594 163.058594 260.695312 163.847656 C 258.710938 164.636719 256.667969 165.230469 254.570312 165.632812 C 252.472656 166.035156 250.355469 166.238281 248.21875 166.238281 C 246.078125 166.242188 243.957031 166.042969 241.851562 165.648438 C 239.746094 165.253906 237.699219 164.667969 235.703125 163.890625 C 233.707031 163.117188 231.800781 162.160156 229.984375 161.03125 C 228.164062 159.898438 226.46875 158.609375 224.890625 157.164062 C 221.664062 154.15625 219.136719 150.648438 217.304688 146.640625 C 216.394531 144.625 215.703125 142.535156 215.226562 140.371094 C 214.753906 138.210938 214.507812 136.023438 214.488281 133.8125 C 214.472656 131.597656 214.683594 129.410156 215.121094 127.238281 C 215.558594 125.070312 216.21875 122.972656 217.09375 120.9375 C 218.871094 116.855469 221.382812 113.289062 224.632812 110.246094 C 225.421875 109.511719 226.242188 108.820312 227.097656 108.164062 C 227.949219 107.507812 228.832031 106.894531 229.746094 106.324219 C 230.65625 105.753906 231.59375 105.226562 232.554688 104.742188 C 233.519531 104.261719 234.5 103.824219 235.503906 103.433594 C 236.507812 103.042969 237.527344 102.703125 238.5625 102.40625 C 239.597656 102.113281 240.644531 101.871094 241.703125 101.675781 C 242.761719 101.480469 243.824219 101.335938 244.898438 101.242188 C 245.96875 101.148438 247.042969 101.105469 248.121094 101.113281 C 249.195312 101.121094 250.269531 101.179688 251.339844 101.289062 C 252.410156 101.394531 253.476562 101.554688 254.53125 101.765625 C 255.585938 101.976562 256.628906 102.234375 257.660156 102.542969 C 258.691406 102.851562 259.707031 103.207031 260.703125 103.609375 C 261.703125 104.015625 262.679688 104.464844 263.632812 104.960938 C 264.589844 105.457031 265.519531 105.996094 266.421875 106.582031 C 267.324219 107.164062 268.199219 107.792969 269.042969 108.457031 C 269.890625 109.125 270.699219 109.832031 271.480469 110.574219 C 273.050781 112.082031 274.457031 113.726562 275.699219 115.515625 C 276.945312 117.300781 278 119.191406 278.867188 121.1875 C 279.734375 123.1875 280.398438 125.246094 280.859375 127.375 C 281.316406 129.503906 281.5625 131.65625 281.59375 133.832031 Z M 277.375 133.832031 C 277.40625 131.902344 277.25 129.988281 276.90625 128.089844 C 276.5625 126.191406 276.042969 124.34375 275.339844 122.546875 C 274.636719 120.75 273.765625 119.039062 272.726562 117.414062 C 271.691406 115.785156 270.507812 114.273438 269.175781 112.878906 C 267.820312 111.46875 266.335938 110.207031 264.726562 109.101562 C 263.113281 107.992188 261.410156 107.058594 259.609375 106.296875 C 257.804688 105.535156 255.945312 104.964844 254.03125 104.582031 C 252.113281 104.199219 250.175781 104.011719 248.21875 104.023438 C 244.273438 104.058594 240.5 104.886719 236.902344 106.507812 C 233.359375 108.128906 230.257812 110.363281 227.59375 113.207031 C 226.308594 114.601562 225.164062 116.101562 224.15625 117.707031 C 223.144531 119.3125 222.292969 121 221.59375 122.761719 C 220.894531 124.523438 220.363281 126.335938 220 128.199219 C 219.632812 130.058594 219.441406 131.9375 219.421875 133.832031 C 219.398438 135.742188 219.554688 137.640625 219.886719 139.523438 C 220.21875 141.402344 220.722656 143.238281 221.398438 145.023438 C 222.078125 146.8125 222.914062 148.519531 223.914062 150.148438 C 224.910156 151.78125 226.050781 153.300781 227.335938 154.71875 C 228.332031 155.804688 229.40625 156.808594 230.554688 157.730469 C 231.707031 158.652344 232.921875 159.476562 234.203125 160.207031 C 235.484375 160.941406 236.8125 161.566406 238.191406 162.09375 C 239.570312 162.617188 240.980469 163.03125 242.421875 163.339844 C 243.863281 163.644531 245.320312 163.835938 246.792969 163.914062 C 248.265625 163.992188 249.738281 163.957031 251.203125 163.804688 C 252.671875 163.65625 254.117188 163.390625 255.542969 163.015625 C 256.96875 162.640625 258.355469 162.15625 259.707031 161.566406 C 263.335938 159.96875 266.511719 157.730469 269.234375 154.847656 C 271.910156 151.984375 273.949219 148.726562 275.351562 145.070312 C 275.648438 144.15625 275.984375 143.257812 276.25 142.335938 C 276.453125 141.398438 276.699219 140.472656 276.875 139.535156 L 277.21875 136.691406 C 277.25 135.738281 277.300781 134.785156 277.375 133.832031 Z M 212.207031 168.03125 C 211.796875 172.40625 210.570312 176.539062 208.527344 180.425781 C 206.460938 184.289062 203.730469 187.609375 200.335938 190.378906 C 199.496094 191.058594 198.628906 191.691406 197.730469 192.285156 C 196.832031 192.878906 195.90625 193.429688 194.957031 193.9375 C 194.003906 194.441406 193.03125 194.898438 192.035156 195.3125 C 191.039062 195.722656 190.027344 196.089844 189 196.402344 C 187.96875 196.71875 186.925781 196.984375 185.871094 197.199219 C 184.816406 197.414062 183.75 197.582031 182.679688 197.695312 C 181.609375 197.808594 180.535156 197.871094 179.457031 197.882812 C 178.378906 197.890625 177.304688 197.851562 176.230469 197.761719 C 175.160156 197.667969 174.09375 197.527344 173.03125 197.332031 C 171.972656 197.136719 170.925781 196.894531 169.890625 196.601562 C 168.851562 196.304688 167.832031 195.960938 166.828125 195.570312 C 165.824219 195.179688 164.84375 194.738281 163.882812 194.253906 C 162.921875 193.769531 161.984375 193.238281 161.074219 192.664062 C 160.164062 192.085938 159.28125 191.46875 158.429688 190.808594 C 157.578125 190.152344 156.761719 189.453125 155.976562 188.714844 C 155.191406 187.976562 154.445312 187.203125 153.734375 186.394531 C 150.835938 183.058594 148.691406 179.296875 147.300781 175.105469 C 146.613281 173.015625 146.144531 170.882812 145.898438 168.699219 C 145.648438 166.515625 145.625 164.328125 145.824219 162.140625 C 146.023438 159.953125 146.441406 157.808594 147.078125 155.707031 C 147.71875 153.601562 148.5625 151.585938 149.617188 149.65625 C 151.738281 145.800781 154.523438 142.496094 157.96875 139.753906 C 158.808594 139.089844 159.679688 138.46875 160.582031 137.886719 C 161.480469 137.304688 162.40625 136.769531 163.359375 136.277344 C 164.308594 135.785156 165.28125 135.335938 166.277344 134.9375 C 167.269531 134.535156 168.28125 134.183594 169.308594 133.878906 C 170.335938 133.574219 171.375 133.320312 172.425781 133.113281 C 173.476562 132.910156 174.535156 132.753906 175.601562 132.648438 C 176.667969 132.542969 177.738281 132.488281 178.808594 132.488281 C 179.882812 132.484375 180.949219 132.53125 182.015625 132.628906 C 183.085938 132.726562 184.144531 132.875 185.195312 133.074219 C 186.25 133.273438 187.289062 133.523438 188.320312 133.820312 C 189.347656 134.117188 190.363281 134.464844 191.359375 134.859375 C 192.355469 135.253906 193.328125 135.691406 194.285156 136.179688 C 195.238281 136.667969 196.167969 137.199219 197.070312 137.773438 C 197.976562 138.347656 198.851562 138.964844 199.695312 139.621094 C 200.542969 140.28125 201.355469 140.976562 202.132812 141.714844 C 202.910156 142.449219 203.65625 143.21875 204.359375 144.027344 C 207.222656 147.328125 209.339844 151.054688 210.710938 155.203125 C 212.054688 159.378906 212.554688 163.65625 212.207031 168.03125 Z M 208.433594 167.695312 C 208.613281 165.769531 208.605469 163.839844 208.414062 161.914062 C 208.222656 159.988281 207.851562 158.09375 207.292969 156.242188 C 206.738281 154.386719 206.011719 152.601562 205.113281 150.882812 C 204.214844 149.167969 203.160156 147.554688 201.949219 146.042969 C 199.464844 142.96875 196.488281 140.492188 193.011719 138.609375 C 191.285156 137.675781 189.476562 136.929688 187.59375 136.371094 C 185.714844 135.8125 183.792969 135.449219 181.835938 135.28125 C 179.878906 135.117188 177.925781 135.152344 175.976562 135.386719 C 174.027344 135.621094 172.121094 136.050781 170.261719 136.679688 C 166.539062 137.949219 163.207031 139.886719 160.261719 142.492188 C 159.546875 143.128906 158.867188 143.796875 158.21875 144.5 C 157.570312 145.199219 156.957031 145.929688 156.375 146.691406 C 155.796875 147.449219 155.253906 148.234375 154.746094 149.042969 C 154.242188 149.855469 153.773438 150.6875 153.347656 151.542969 C 152.917969 152.394531 152.535156 153.269531 152.1875 154.160156 C 151.84375 155.050781 151.542969 155.957031 151.28125 156.875 C 151.023438 157.792969 150.808594 158.722656 150.636719 159.664062 C 150.464844 160.605469 150.335938 161.550781 150.253906 162.5 C 150.171875 163.453125 150.132812 164.40625 150.140625 165.363281 C 150.148438 166.316406 150.203125 167.269531 150.300781 168.21875 C 150.398438 169.171875 150.539062 170.113281 150.726562 171.050781 C 150.914062 171.988281 151.144531 172.914062 151.417969 173.828125 C 151.691406 174.746094 152.007812 175.644531 152.367188 176.53125 C 152.726562 177.414062 153.125 178.28125 153.566406 179.128906 C 154.007812 179.976562 154.488281 180.800781 155.007812 181.605469 C 155.523438 182.40625 156.082031 183.183594 156.671875 183.933594 C 159.113281 186.988281 162.046875 189.457031 165.476562 191.339844 C 168.9375 193.21875 172.628906 194.34375 176.546875 194.714844 C 180.472656 195.046875 184.316406 194.621094 188.070312 193.433594 C 191.808594 192.21875 195.167969 190.328125 198.148438 187.769531 C 199.613281 186.503906 200.9375 185.113281 202.132812 183.59375 C 203.324219 182.074219 204.363281 180.453125 205.246094 178.734375 C 206.125 177.011719 206.835938 175.226562 207.371094 173.367188 C 207.90625 171.511719 208.261719 169.621094 208.433594 167.695312 Z M 247.085938 245.742188 C 246.953125 250.054688 246.078125 254.210938 244.464844 258.214844 C 242.820312 262.21875 240.5 265.773438 237.5 268.890625 C 236.742188 269.671875 235.949219 270.414062 235.121094 271.117188 C 234.292969 271.820312 233.429688 272.484375 232.535156 273.101562 C 231.640625 273.71875 230.71875 274.292969 229.769531 274.820312 C 228.816406 275.347656 227.84375 275.828125 226.84375 276.257812 C 225.847656 276.6875 224.828125 277.070312 223.792969 277.398438 C 222.757812 277.730469 221.707031 278.007812 220.644531 278.238281 C 219.582031 278.464844 218.507812 278.636719 217.425781 278.757812 C 216.347656 278.878906 215.261719 278.945312 214.175781 278.960938 C 213.089844 278.972656 212.003906 278.933594 210.917969 278.839844 C 209.835938 278.746094 208.761719 278.601562 207.691406 278.402344 C 206.621094 278.203125 205.566406 277.949219 204.519531 277.644531 C 203.476562 277.34375 202.449219 276.988281 201.441406 276.582031 C 200.433594 276.175781 199.445312 275.722656 198.480469 275.21875 C 197.519531 274.71875 196.582031 274.167969 195.671875 273.574219 C 194.761719 272.976562 193.882812 272.339844 193.035156 271.65625 C 192.1875 270.972656 191.378906 270.25 190.601562 269.488281 C 184.277344 263.328125 180.910156 254.425781 181.101562 245.742188 C 181.21875 241.355469 182.167969 237.160156 183.960938 233.152344 C 185.6875 229.160156 188.054688 225.59375 191.058594 222.449219 C 192.574219 220.878906 194.226562 219.46875 196.015625 218.21875 C 197.804688 216.96875 199.699219 215.90625 201.695312 215.023438 C 203.691406 214.144531 205.753906 213.464844 207.882812 212.984375 C 210.011719 212.503906 212.167969 212.234375 214.351562 212.171875 C 216.570312 212.109375 218.773438 212.277344 220.960938 212.664062 C 223.144531 213.054688 225.269531 213.664062 227.332031 214.488281 C 229.394531 215.3125 231.351562 216.335938 233.203125 217.558594 C 235.058594 218.785156 236.765625 220.183594 238.332031 221.757812 C 241.492188 224.960938 243.785156 228.691406 245.21875 232.953125 C 246.605469 237.105469 247.226562 241.367188 247.085938 245.742188 Z M 244.140625 245.742188 C 243.996094 241.816406 243.03125 238.101562 241.246094 234.601562 C 239.511719 231.214844 237.289062 228.183594 234.582031 225.511719 C 233.242188 224.183594 231.792969 222.988281 230.230469 221.933594 C 228.671875 220.878906 227.023438 219.976562 225.292969 219.230469 C 223.5625 218.484375 221.777344 217.902344 219.9375 217.492188 C 218.097656 217.082031 216.234375 216.84375 214.351562 216.78125 C 212.425781 216.726562 210.515625 216.859375 208.621094 217.179688 C 206.722656 217.503906 204.878906 218.007812 203.082031 218.699219 C 201.285156 219.390625 199.574219 220.25 197.949219 221.28125 C 196.328125 222.308594 194.820312 223.488281 193.429688 224.820312 C 190.578125 227.542969 188.425781 230.734375 186.972656 234.402344 C 185.597656 238.058594 184.964844 241.835938 185.070312 245.742188 C 185.125 247.648438 185.359375 249.53125 185.773438 251.394531 C 186.1875 253.257812 186.769531 255.0625 187.523438 256.816406 C 188.277344 258.566406 189.191406 260.234375 190.261719 261.8125 C 191.328125 263.390625 192.539062 264.855469 193.882812 266.207031 C 195.226562 267.566406 196.683594 268.789062 198.261719 269.867188 C 199.835938 270.945312 201.5 271.867188 203.253906 272.625 C 205.007812 273.382812 206.820312 273.964844 208.6875 274.375 C 210.550781 274.78125 212.441406 275.007812 214.351562 275.050781 C 216.292969 275.097656 218.21875 274.949219 220.128906 274.609375 C 222.042969 274.269531 223.902344 273.746094 225.707031 273.039062 C 227.515625 272.332031 229.238281 271.453125 230.871094 270.402344 C 232.503906 269.355469 234.019531 268.15625 235.414062 266.804688 C 236.835938 265.449219 238.101562 263.964844 239.210938 262.34375 C 240.320312 260.726562 241.25 259.007812 242 257.195312 C 242.753906 255.382812 243.308594 253.507812 243.667969 251.578125 C 244.03125 249.648438 244.1875 247.703125 244.140625 245.742188 Z M 205.296875 260.9375 C 205.292969 265.367188 204.398438 269.605469 202.625 273.660156 C 200.832031 277.660156 198.335938 281.160156 195.132812 284.160156 C 194.351562 284.878906 193.535156 285.558594 192.6875 286.203125 C 191.839844 286.847656 190.964844 287.449219 190.0625 288.011719 C 189.160156 288.574219 188.230469 289.09375 187.28125 289.570312 C 186.328125 290.046875 185.359375 290.476562 184.367188 290.863281 C 183.375 291.25 182.367188 291.589844 181.34375 291.882812 C 180.324219 292.175781 179.289062 292.421875 178.242188 292.617188 C 177.195312 292.816406 176.144531 292.964844 175.085938 293.0625 C 174.027344 293.164062 172.964844 293.214844 171.902344 293.214844 C 170.835938 293.214844 169.773438 293.167969 168.714844 293.070312 C 167.65625 292.972656 166.601562 292.828125 165.558594 292.632812 C 164.511719 292.4375 163.476562 292.195312 162.453125 291.902344 C 161.429688 291.613281 160.421875 291.273438 159.429688 290.890625 C 158.4375 290.507812 157.464844 290.078125 156.511719 289.601562 C 155.5625 289.128906 154.632812 288.609375 153.726562 288.050781 C 152.824219 287.488281 151.949219 286.886719 151.097656 286.246094 C 150.25 285.605469 149.433594 284.925781 148.648438 284.207031 C 147.84375 283.472656 147.078125 282.695312 146.355469 281.878906 C 145.632812 281.066406 144.953125 280.214844 144.320312 279.328125 C 143.683594 278.445312 143.097656 277.527344 142.558594 276.582031 C 142.015625 275.632812 141.527344 274.660156 141.089844 273.664062 C 140.652344 272.664062 140.265625 271.648438 139.933594 270.609375 C 139.601562 269.570312 139.324219 268.519531 139.101562 267.453125 C 138.878906 266.386719 138.710938 265.3125 138.601562 264.226562 C 138.488281 263.140625 138.433594 262.054688 138.4375 260.964844 C 138.441406 259.875 138.5 258.789062 138.613281 257.707031 C 138.730469 256.621094 138.902344 255.546875 139.128906 254.480469 C 139.355469 253.414062 139.636719 252.363281 139.972656 251.328125 C 140.308594 250.292969 140.699219 249.273438 141.140625 248.277344 C 141.585938 247.28125 142.078125 246.3125 142.621094 245.367188 C 143.164062 244.421875 143.753906 243.507812 144.394531 242.625 C 145.03125 241.742188 145.714844 240.894531 146.441406 240.082031 C 147.167969 239.273438 147.9375 238.5 148.742188 237.765625 C 149.527344 237.058594 150.34375 236.386719 151.191406 235.753906 C 152.039062 235.117188 152.914062 234.523438 153.816406 233.972656 C 154.714844 233.417969 155.640625 232.90625 156.589844 232.4375 C 157.539062 231.96875 158.507812 231.546875 159.496094 231.164062 C 160.480469 230.785156 161.484375 230.453125 162.503906 230.164062 C 163.523438 229.878906 164.550781 229.640625 165.589844 229.445312 C 166.632812 229.253906 167.679688 229.109375 168.734375 229.015625 C 169.785156 228.917969 170.84375 228.871094 171.898438 228.871094 C 172.957031 228.871094 174.015625 228.921875 175.066406 229.019531 C 176.121094 229.117188 177.167969 229.265625 178.207031 229.460938 C 179.246094 229.652344 180.277344 229.894531 181.292969 230.183594 C 182.3125 230.472656 183.3125 230.808594 184.300781 231.191406 C 185.289062 231.574219 186.253906 232 187.203125 232.46875 C 188.152344 232.941406 189.074219 233.453125 189.976562 234.007812 C 190.875 234.5625 191.75 235.160156 192.59375 235.796875 C 193.441406 236.429688 194.253906 237.105469 195.039062 237.816406 C 198.246094 240.785156 200.757812 244.261719 202.566406 248.242188 C 204.363281 252.285156 205.273438 256.515625 205.296875 260.9375 Z M 201.058594 260.9375 C 201.070312 259.007812 200.902344 257.09375 200.554688 255.195312 C 200.210938 253.296875 199.695312 251.445312 199.003906 249.640625 C 198.316406 247.835938 197.46875 246.113281 196.460938 244.464844 C 195.449219 242.820312 194.300781 241.28125 193.003906 239.847656 C 192.339844 239.113281 191.640625 238.414062 190.90625 237.753906 C 190.167969 237.089844 189.398438 236.46875 188.597656 235.886719 C 187.796875 235.304688 186.964844 234.769531 186.105469 234.273438 C 185.25 233.78125 184.367188 233.332031 183.460938 232.929688 C 182.554688 232.527344 181.632812 232.175781 180.691406 231.871094 C 179.746094 231.566406 178.792969 231.308594 177.824219 231.105469 C 176.855469 230.898438 175.875 230.746094 174.890625 230.644531 C 173.90625 230.542969 172.917969 230.492188 171.929688 230.492188 C 170.9375 230.492188 169.949219 230.546875 168.964844 230.652344 C 167.980469 230.753906 167.003906 230.910156 166.035156 231.117188 C 165.066406 231.324219 164.113281 231.582031 163.167969 231.890625 C 162.226562 232.195312 161.304688 232.550781 160.402344 232.957031 C 159.496094 233.359375 158.617188 233.808594 157.757812 234.304688 C 156.902344 234.804688 156.074219 235.34375 155.273438 235.925781 C 154.472656 236.507812 153.703125 237.132812 152.96875 237.796875 C 152.234375 238.460938 151.535156 239.160156 150.871094 239.898438 C 150.234375 240.609375 149.628906 241.355469 149.058594 242.125 C 148.484375 242.894531 147.953125 243.6875 147.453125 244.507812 C 146.953125 245.324219 146.496094 246.167969 146.074219 247.027344 C 145.652344 247.886719 145.269531 248.765625 144.929688 249.664062 C 144.589844 250.558594 144.289062 251.46875 144.03125 252.390625 C 143.773438 253.316406 143.558594 254.25 143.386719 255.191406 C 143.214844 256.136719 143.085938 257.085938 143 258.039062 C 142.914062 258.992188 142.871094 259.949219 142.875 260.910156 C 142.875 261.867188 142.921875 262.824219 143.011719 263.78125 C 143.101562 264.734375 143.234375 265.683594 143.410156 266.625 C 143.589844 267.566406 143.808594 268.5 144.070312 269.421875 C 144.332031 270.34375 144.636719 271.253906 144.980469 272.144531 C 145.324219 273.039062 145.710938 273.917969 146.136719 274.777344 C 146.5625 275.636719 147.027344 276.472656 147.527344 277.289062 C 148.03125 278.105469 148.566406 278.898438 149.144531 279.667969 C 149.71875 280.433594 150.324219 281.171875 150.96875 281.886719 C 153.65625 284.796875 156.804688 287.074219 160.410156 288.71875 C 162.21875 289.53125 164.09375 290.144531 166.03125 290.5625 C 167.972656 290.980469 169.933594 291.1875 171.917969 291.191406 C 173.902344 291.191406 175.863281 290.988281 177.804688 290.578125 C 179.746094 290.164062 181.621094 289.554688 183.433594 288.746094 C 187.046875 287.109375 190.207031 284.839844 192.910156 281.933594 C 194.210938 280.511719 195.367188 278.984375 196.382812 277.347656 C 197.398438 275.710938 198.253906 273.996094 198.953125 272.199219 C 199.648438 270.40625 200.175781 268.558594 200.527344 266.667969 C 200.882812 264.773438 201.0625 262.863281 201.058594 260.9375 Z M 147 204.015625 C 146.96875 206.1875 146.722656 208.335938 146.261719 210.457031 C 145.804688 212.578125 145.140625 214.636719 144.273438 216.628906 C 143.40625 218.617188 142.351562 220.503906 141.109375 222.285156 C 139.867188 224.066406 138.460938 225.710938 136.890625 227.210938 C 135.347656 228.695312 133.671875 230.015625 131.875 231.179688 C 130.074219 232.339844 128.183594 233.320312 126.195312 234.117188 C 124.207031 234.914062 122.164062 235.519531 120.0625 235.925781 C 117.957031 236.332031 115.835938 236.535156 113.695312 236.53125 C 111.550781 236.535156 109.425781 236.332031 107.320312 235.929688 C 105.214844 235.527344 103.164062 234.929688 101.171875 234.136719 C 99.179688 233.347656 97.28125 232.375 95.472656 231.222656 C 93.664062 230.070312 91.980469 228.757812 90.421875 227.285156 C 87.253906 224.257812 84.785156 220.734375 83.015625 216.722656 C 82.144531 214.71875 81.484375 212.644531 81.039062 210.503906 C 80.589844 208.363281 80.367188 206.199219 80.367188 204.015625 C 80.363281 201.828125 80.585938 199.664062 81.027344 197.519531 C 81.472656 195.378906 82.128906 193.304688 82.996094 191.300781 C 84.757812 187.277344 87.226562 183.753906 90.40625 180.726562 C 91.96875 179.257812 93.652344 177.945312 95.460938 176.796875 C 97.273438 175.648438 99.171875 174.675781 101.167969 173.886719 C 103.160156 173.097656 105.210938 172.503906 107.316406 172.105469 C 109.425781 171.707031 111.550781 171.507812 113.695312 171.511719 C 115.835938 171.511719 117.957031 171.714844 120.054688 172.121094 C 122.15625 172.527344 124.199219 173.132812 126.1875 173.929688 C 128.171875 174.730469 130.0625 175.710938 131.859375 176.871094 C 133.65625 178.035156 135.328125 179.355469 136.871094 180.835938 C 140.023438 183.859375 142.480469 187.367188 144.238281 191.363281 C 145.992188 195.398438 146.914062 199.617188 147 204.015625 Z M 142.917969 204.015625 C 142.941406 203.042969 142.917969 202.070312 142.847656 201.097656 C 142.777344 200.128906 142.65625 199.164062 142.488281 198.203125 C 142.320312 197.246094 142.105469 196.296875 141.84375 195.359375 C 141.578125 194.421875 141.269531 193.5 140.917969 192.59375 C 140.5625 191.6875 140.164062 190.800781 139.71875 189.933594 C 139.277344 189.066406 138.789062 188.222656 138.261719 187.402344 C 137.734375 186.585938 137.167969 185.796875 136.5625 185.035156 C 135.957031 184.273438 135.3125 183.542969 134.632812 182.84375 C 133.957031 182.144531 133.242188 181.484375 132.5 180.859375 C 131.753906 180.230469 130.976562 179.644531 130.175781 179.09375 C 129.371094 178.542969 128.542969 178.035156 127.6875 177.570312 C 126.832031 177.101562 125.957031 176.679688 125.058594 176.300781 C 124.164062 175.921875 123.25 175.589844 122.320312 175.300781 C 121.390625 175.011719 120.445312 174.773438 119.492188 174.578125 C 118.539062 174.382812 117.578125 174.238281 116.609375 174.140625 C 115.640625 174.042969 114.667969 173.992188 113.695312 173.992188 C 109.714844 174.003906 105.902344 174.804688 102.253906 176.394531 C 98.648438 177.996094 95.488281 180.230469 92.769531 183.089844 C 92.113281 183.792969 91.492188 184.523438 90.902344 185.28125 C 90.316406 186.042969 89.761719 186.828125 89.25 187.640625 C 88.734375 188.453125 88.261719 189.285156 87.824219 190.144531 C 87.390625 191 86.996094 191.875 86.640625 192.769531 C 86.289062 193.664062 85.976562 194.570312 85.710938 195.492188 C 85.441406 196.417969 85.21875 197.351562 85.039062 198.292969 C 84.859375 199.238281 84.722656 200.1875 84.632812 201.144531 C 84.542969 202.101562 84.496094 203.058594 84.496094 204.019531 C 84.496094 204.980469 84.539062 205.941406 84.628906 206.898438 C 84.71875 207.855469 84.855469 208.804688 85.035156 209.75 C 85.210938 210.691406 85.4375 211.625 85.703125 212.550781 C 85.96875 213.472656 86.28125 214.382812 86.632812 215.273438 C 86.984375 216.167969 87.378906 217.042969 87.8125 217.902344 C 88.25 218.757812 88.722656 219.59375 89.234375 220.40625 C 89.75 221.21875 90.300781 222.003906 90.886719 222.765625 C 91.472656 223.523438 92.097656 224.253906 92.753906 224.957031 C 95.46875 227.824219 98.636719 230.050781 102.25 231.640625 C 105.902344 233.222656 109.714844 234.019531 113.695312 234.027344 C 117.667969 233.996094 121.488281 233.210938 125.148438 231.671875 C 126.484375 231.09375 127.773438 230.421875 129.007812 229.652344 C 130.246094 228.882812 131.417969 228.027344 132.527344 227.085938 C 133.636719 226.144531 134.671875 225.125 135.628906 224.03125 C 136.585938 222.933594 137.460938 221.773438 138.246094 220.550781 C 139.035156 219.324219 139.726562 218.050781 140.324219 216.722656 C 140.921875 215.394531 141.417969 214.03125 141.8125 212.628906 C 142.210938 211.230469 142.5 209.808594 142.683594 208.363281 C 142.871094 206.921875 142.945312 205.472656 142.917969 204.015625 Z M 301.746094 182.269531 C 301.765625 183.90625 301.664062 185.535156 301.441406 187.15625 C 301.21875 188.777344 300.878906 190.375 300.421875 191.945312 C 299.964844 193.515625 299.390625 195.046875 298.707031 196.53125 C 298.023438 198.019531 297.230469 199.445312 296.335938 200.816406 C 295.441406 202.1875 294.449219 203.484375 293.359375 204.707031 C 292.273438 205.929688 291.101562 207.0625 289.84375 208.113281 C 288.589844 209.164062 287.261719 210.113281 285.863281 210.96875 C 284.46875 211.820312 283.015625 212.566406 281.507812 213.203125 C 277.40625 214.90625 273.136719 215.761719 268.695312 215.773438 C 264.253906 215.761719 259.992188 214.875 255.917969 213.117188 C 251.875 211.351562 248.328125 208.875 245.277344 205.6875 C 244.535156 204.902344 243.832031 204.089844 243.167969 203.238281 C 242.503906 202.390625 241.878906 201.511719 241.296875 200.605469 C 240.71875 199.695312 240.179688 198.761719 239.6875 197.804688 C 239.195312 196.847656 238.746094 195.867188 238.347656 194.863281 C 237.945312 193.863281 237.59375 192.847656 237.289062 191.8125 C 236.988281 190.777344 236.734375 189.730469 236.527344 188.671875 C 236.324219 187.613281 236.167969 186.546875 236.066406 185.472656 C 235.960938 184.402344 235.910156 183.324219 235.90625 182.246094 C 235.90625 181.167969 235.957031 180.09375 236.054688 179.019531 C 236.15625 177.945312 236.308594 176.878906 236.507812 175.820312 C 236.710938 174.761719 236.960938 173.714844 237.261719 172.679688 C 237.5625 171.644531 237.910156 170.625 238.308594 169.621094 C 238.703125 168.621094 239.148438 167.640625 239.636719 166.679688 C 240.128906 165.71875 240.664062 164.785156 241.242188 163.875 C 241.820312 162.964844 242.441406 162.085938 243.101562 161.234375 C 243.765625 160.382812 244.464844 159.566406 245.207031 158.78125 C 248.261719 155.578125 251.816406 153.085938 255.863281 151.296875 C 259.957031 149.519531 264.234375 148.621094 268.695312 148.597656 C 269.789062 148.597656 270.882812 148.652344 271.972656 148.761719 C 273.0625 148.871094 274.144531 149.035156 275.21875 149.25 C 276.292969 149.464844 277.351562 149.734375 278.398438 150.058594 C 279.445312 150.378906 280.476562 150.753906 281.484375 151.175781 C 282.496094 151.601562 283.480469 152.074219 284.445312 152.59375 C 285.40625 153.117188 286.34375 153.6875 287.25 154.300781 C 288.15625 154.917969 289.027344 155.574219 289.871094 156.277344 C 290.710938 156.976562 291.515625 157.71875 292.28125 158.5 C 293.050781 159.285156 293.777344 160.101562 294.460938 160.957031 C 295.148438 161.808594 295.789062 162.695312 296.390625 163.613281 C 296.988281 164.53125 297.539062 165.476562 298.042969 166.449219 C 298.546875 167.421875 299 168.414062 299.40625 169.433594 C 299.8125 170.449219 300.164062 171.488281 300.46875 172.539062 C 300.769531 173.59375 301.019531 174.65625 301.214844 175.734375 C 301.414062 176.8125 301.554688 177.898438 301.644531 178.988281 C 301.734375 180.082031 301.765625 181.175781 301.746094 182.269531 Z M 298.167969 182.269531 C 298.136719 180.347656 297.914062 178.449219 297.503906 176.570312 C 297.097656 174.695312 296.507812 172.875 295.742188 171.113281 C 294.976562 169.351562 294.042969 167.679688 292.949219 166.101562 C 291.851562 164.523438 290.613281 163.066406 289.230469 161.734375 C 287.863281 160.417969 286.382812 159.242188 284.792969 158.210938 C 283.199219 157.175781 281.523438 156.304688 279.765625 155.59375 C 278.007812 154.878906 276.195312 154.339844 274.332031 153.972656 C 272.472656 153.609375 270.59375 153.421875 268.695312 153.414062 C 266.789062 153.40625 264.898438 153.574219 263.023438 153.925781 C 261.152344 154.273438 259.328125 154.796875 257.554688 155.492188 C 255.777344 156.191406 254.085938 157.046875 252.472656 158.066406 C 250.863281 159.082031 249.359375 160.242188 247.96875 161.546875 C 245.136719 164.234375 242.925781 167.367188 241.339844 170.941406 C 240.558594 172.726562 239.964844 174.574219 239.5625 176.484375 C 239.160156 178.394531 238.957031 180.324219 238.953125 182.277344 C 238.949219 184.226562 239.140625 186.15625 239.535156 188.070312 C 239.929688 189.980469 240.511719 191.832031 241.285156 193.621094 C 242.855469 197.214844 245.0625 200.363281 247.898438 203.066406 C 249.289062 204.378906 250.796875 205.550781 252.414062 206.578125 C 254.027344 207.601562 255.726562 208.46875 257.507812 209.171875 C 259.289062 209.875 261.117188 210.40625 263 210.761719 C 264.882812 211.121094 266.78125 211.296875 268.695312 211.292969 C 270.601562 211.289062 272.492188 211.101562 274.363281 210.730469 C 276.238281 210.363281 278.054688 209.816406 279.824219 209.097656 C 281.589844 208.378906 283.273438 207.496094 284.871094 206.453125 C 286.46875 205.410156 287.949219 204.222656 289.320312 202.894531 C 290.695312 201.550781 291.929688 200.082031 293.019531 198.496094 C 294.105469 196.90625 295.03125 195.230469 295.789062 193.460938 C 296.550781 191.691406 297.128906 189.863281 297.53125 187.980469 C 297.929688 186.097656 298.144531 184.195312 298.167969 182.269531 Z M 298.167969 182.269531 " fill-opacity="1" fill-rule="nonzero"/><path fill="#8eb327" d="M 139.277344 112.128906 C 120.785156 111.148438 122.085938 93.007812 122.085938 93.007812 C 141.238281 94.027344 139.277344 112.128906 139.277344 112.128906 Z M 230.304688 134.714844 C 230.304688 134.714844 245.960938 143.96875 255.089844 127.855469 C 255.089844 127.855469 239.757812 118.027344 230.304688 134.714844 Z M 194.675781 169.335938 C 194.675781 169.335938 197.175781 187.351562 215.46875 184.46875 C 215.46875 184.46875 213.621094 166.351562 194.675781 169.335938 Z M 175.425781 74.042969 C 175.425781 74.042969 177.925781 92.058594 196.21875 89.175781 C 196.21875 89.175781 194.371094 71.058594 175.425781 74.042969 Z M 92.902344 201.886719 C 92.902344 201.886719 95.402344 219.902344 113.695312 217.019531 C 113.695312 217.019531 111.847656 198.902344 92.902344 201.886719 Z M 281.515625 197.652344 C 281.515625 197.652344 269.363281 211.183594 283.363281 223.304688 C 283.363281 223.304688 296.019531 210.207031 281.515625 197.652344 Z M 83.941406 151.242188 C 83.941406 151.242188 71.785156 164.769531 85.785156 176.890625 C 85.785156 176.890625 98.441406 163.796875 83.941406 151.242188 Z M 173.226562 211.769531 C 173.226562 211.769531 158.414062 222.324219 169.433594 237.203125 C 169.433594 237.203125 184.640625 227.183594 173.226562 211.769531 Z M 126.453125 261.445312 C 126.453125 261.445312 111.640625 271.996094 122.660156 286.878906 C 122.660156 286.878906 137.867188 276.859375 126.453125 261.445312 Z M 220.175781 263.445312 C 220.175781 263.445312 216.234375 281.199219 234.382812 284.878906 C 234.382812 284.878906 238.972656 267.257812 220.175781 263.445312 Z M 220.175781 263.445312 " fill-opacity="1" fill-rule="nonzero"/></svg>