<svg xmlns="http://www.w3.org/2000/svg" xmlns:xlink="http://www.w3.org/1999/xlink" width="500" zoomAndPan="magnify" viewBox="0 0 375 374.999991" height="500" preserveAspectRatio="xMidYMid meet" version="1.0"><defs><clipPath id="12853d3447"><path d="M 37.5 37.5 L 337.5 37.5 L 337.5 337.5 L 37.5 337.5 Z M 37.5 37.5 " clip-rule="nonzero"/></clipPath></defs><g clip-path="url(#12853d3447)"><path fill="#ffc54c" d="M 337.5 187.5 C 337.5 189.953125 337.441406 192.410156 337.320312 194.859375 C 337.199219 197.3125 337.019531 199.757812 336.777344 202.203125 C 336.535156 204.644531 336.238281 207.082031 335.875 209.507812 C 335.515625 211.9375 335.097656 214.355469 334.617188 216.761719 C 334.140625 219.171875 333.601562 221.566406 333.003906 223.945312 C 332.40625 226.328125 331.753906 228.695312 331.039062 231.042969 C 330.328125 233.390625 329.558594 235.722656 328.730469 238.035156 C 327.90625 240.34375 327.019531 242.632812 326.082031 244.902344 C 325.140625 247.171875 324.148438 249.414062 323.097656 251.632812 C 322.046875 253.851562 320.945312 256.042969 319.789062 258.210938 C 318.632812 260.375 317.421875 262.511719 316.160156 264.617188 C 314.898438 266.722656 313.585938 268.792969 312.21875 270.835938 C 310.855469 272.875 309.445312 274.882812 307.980469 276.855469 C 306.519531 278.828125 305.007812 280.761719 303.453125 282.660156 C 301.894531 284.554688 300.292969 286.414062 298.644531 288.234375 C 296.992188 290.050781 295.300781 291.832031 293.566406 293.566406 C 291.832031 295.300781 290.054688 296.992188 288.234375 298.644531 C 286.414062 300.292969 284.554688 301.894531 282.660156 303.453125 C 280.761719 305.007812 278.828125 306.519531 276.855469 307.980469 C 274.882812 309.445312 272.875 310.855469 270.835938 312.21875 C 268.792969 313.585938 266.722656 314.898438 264.617188 316.160156 C 262.511719 317.421875 260.375 318.632812 258.210938 319.789062 C 256.042969 320.945312 253.851562 322.046875 251.632812 323.097656 C 249.414062 324.148438 247.171875 325.140625 244.902344 326.082031 C 242.632812 327.019531 240.34375 327.90625 238.035156 328.730469 C 235.722656 329.558594 233.390625 330.328125 231.042969 331.039062 C 228.695312 331.753906 226.328125 332.40625 223.945312 333.003906 C 221.566406 333.601562 219.171875 334.140625 216.761719 334.617188 C 214.355469 335.097656 211.9375 335.515625 209.507812 335.875 C 207.082031 336.238281 204.644531 336.535156 202.203125 336.777344 C 199.757812 337.019531 197.3125 337.199219 194.859375 337.320312 C 192.410156 337.441406 189.953125 337.5 187.5 337.5 C 185.046875 337.5 182.589844 337.441406 180.140625 337.320312 C 177.6875 337.199219 175.242188 337.019531 172.796875 336.777344 C 170.355469 336.535156 167.917969 336.238281 165.492188 335.875 C 163.0625 335.515625 160.644531 335.097656 158.238281 334.617188 C 155.828125 334.140625 153.433594 333.601562 151.054688 333.003906 C 148.671875 332.40625 146.304688 331.753906 143.957031 331.039062 C 141.609375 330.328125 139.277344 329.558594 136.964844 328.730469 C 134.65625 327.90625 132.367188 327.019531 130.097656 326.082031 C 127.828125 325.140625 125.585938 324.148438 123.367188 323.097656 C 121.148438 322.046875 118.957031 320.945312 116.789062 319.789062 C 114.625 318.632812 112.488281 317.421875 110.382812 316.160156 C 108.277344 314.898438 106.207031 313.585938 104.164062 312.21875 C 102.125 310.855469 100.117188 309.445312 98.144531 307.980469 C 96.171875 306.519531 94.238281 305.007812 92.339844 303.453125 C 90.445312 301.894531 88.585938 300.292969 86.765625 298.644531 C 84.945312 296.992188 83.167969 295.300781 81.433594 293.566406 C 79.699219 291.832031 78.007812 290.050781 76.355469 288.234375 C 74.707031 286.414062 73.105469 284.554688 71.546875 282.660156 C 69.992188 280.761719 68.480469 278.828125 67.019531 276.855469 C 65.554688 274.882812 64.144531 272.875 62.78125 270.835938 C 61.414062 268.792969 60.101562 266.722656 58.839844 264.617188 C 57.578125 262.511719 56.367188 260.375 55.210938 258.210938 C 54.054688 256.042969 52.953125 253.851562 51.902344 251.632812 C 50.851562 249.414062 49.859375 247.171875 48.917969 244.902344 C 47.980469 242.632812 47.09375 240.34375 46.269531 238.035156 C 45.441406 235.722656 44.671875 233.390625 43.957031 231.042969 C 43.246094 228.695312 42.589844 226.328125 41.996094 223.945312 C 41.398438 221.566406 40.859375 219.171875 40.382812 216.761719 C 39.902344 214.355469 39.484375 211.9375 39.125 209.507812 C 38.761719 207.082031 38.464844 204.644531 38.222656 202.203125 C 37.980469 199.757812 37.800781 197.3125 37.679688 194.859375 C 37.558594 192.410156 37.5 189.953125 37.5 187.5 C 37.5 185.046875 37.558594 182.589844 37.679688 180.140625 C 37.800781 177.6875 37.980469 175.242188 38.222656 172.796875 C 38.464844 170.355469 38.761719 167.917969 39.125 165.492188 C 39.484375 163.0625 39.902344 160.644531 40.382812 158.238281 C 40.859375 155.828125 41.398438 153.433594 41.996094 151.054688 C 42.589844 148.671875 43.246094 146.304688 43.957031 143.957031 C 44.671875 141.609375 45.441406 139.277344 46.269531 136.964844 C 47.09375 134.65625 47.980469 132.367188 48.917969 130.097656 C 49.859375 127.828125 50.851562 125.585938 51.902344 123.367188 C 52.953125 121.148438 54.054688 118.957031 55.210938 116.789062 C 56.367188 114.625 57.578125 112.488281 58.839844 110.382812 C 60.101562 108.277344 61.414062 106.207031 62.78125 104.164062 C 64.144531 102.125 65.554688 100.117188 67.019531 98.144531 C 68.480469 96.171875 69.992188 94.238281 71.546875 92.339844 C 73.105469 90.445312 74.707031 88.585938 76.355469 86.765625 C 78.007812 84.945312 79.699219 83.167969 81.433594 81.433594 C 83.167969 79.699219 84.945312 78.007812 86.765625 76.355469 C 88.585938 74.707031 90.445312 73.105469 92.339844 71.546875 C 94.238281 69.992188 96.171875 68.480469 98.144531 67.019531 C 100.117188 65.554688 102.125 64.144531 104.164062 62.78125 C 106.207031 61.414062 108.277344 60.101562 110.382812 58.839844 C 112.488281 57.578125 114.625 56.367188 116.789062 55.210938 C 118.957031 54.054688 121.148438 52.953125 123.367188 51.902344 C 125.585938 50.851562 127.828125 49.859375 130.097656 48.917969 C 132.367188 47.980469 134.65625 47.09375 136.964844 46.269531 C 139.277344 45.441406 141.609375 44.671875 143.957031 43.957031 C 146.304688 43.246094 148.671875 42.589844 151.054688 41.996094 C 153.433594 41.398438 155.828125 40.859375 158.238281 40.382812 C 160.644531 39.902344 163.0625 39.484375 165.492188 39.125 C 167.917969 38.761719 170.355469 38.464844 172.796875 38.222656 C 175.242188 37.980469 177.6875 37.800781 180.140625 37.679688 C 182.589844 37.558594 185.046875 37.5 187.5 37.5 C 189.953125 37.5 192.410156 37.558594 194.859375 37.679688 C 197.3125 37.800781 199.757812 37.980469 202.203125 38.222656 C 204.644531 38.464844 207.082031 38.761719 209.507812 39.125 C 211.9375 39.484375 214.355469 39.902344 216.761719 40.382812 C 219.171875 40.859375 221.566406 41.398438 223.945312 41.996094 C 226.328125 42.589844 228.695312 43.246094 231.042969 43.957031 C 233.390625 44.671875 235.722656 45.441406 238.035156 46.269531 C 240.34375 47.09375 242.632812 47.980469 244.902344 48.917969 C 247.171875 49.859375 249.414062 50.851562 251.632812 51.902344 C 253.851562 52.953125 256.042969 54.054688 258.210938 55.210938 C 260.375 56.367188 262.511719 57.578125 264.617188 58.839844 C 266.722656 60.101562 268.792969 61.414062 270.835938 62.78125 C 272.875 64.144531 274.882812 65.554688 276.855469 67.019531 C 278.828125 68.480469 280.761719 69.992188 282.660156 71.546875 C 284.554688 73.105469 286.414062 74.707031 288.234375 76.355469 C 290.054688 78.007812 291.832031 79.699219 293.566406 81.433594 C 295.300781 83.167969 296.992188 84.945312 298.644531 86.765625 C 300.292969 88.585938 301.894531 90.445312 303.453125 92.339844 C 305.007812 94.238281 306.519531 96.171875 307.980469 98.144531 C 309.445312 100.117188 310.855469 102.125 312.21875 104.164062 C 313.585938 106.207031 314.898438 108.277344 316.160156 110.382812 C 317.421875 112.488281 318.632812 114.625 319.789062 116.789062 C 320.945312 118.957031 322.046875 121.148438 323.097656 123.367188 C 324.148438 125.585938 325.140625 127.828125 326.082031 130.097656 C 327.019531 132.367188 327.90625 134.65625 328.730469 136.964844 C 329.558594 139.277344 330.328125 141.609375 331.039062 143.957031 C 331.753906 146.304688 332.40625 148.671875 333.003906 151.054688 C 333.601562 153.433594 334.140625 155.828125 334.617188 158.238281 C 335.097656 160.644531 335.515625 163.0625 335.875 165.492188 C 336.238281 167.917969 336.535156 170.355469 336.777344 172.796875 C 337.019531 175.242188 337.199219 177.6875 337.320312 180.140625 C 337.441406 182.589844 337.5 185.046875 337.5 187.5 Z M 337.5 187.5 " fill-opacity="1" fill-rule="nonzero"/></g><path fill="#eb3323" d="M 314.464844 210.777344 L 316.332031 207.546875 C 317.207031 206.03125 317.980469 204.460938 318.652344 202.84375 C 319.320312 201.222656 319.882812 199.570312 320.335938 197.878906 C 320.789062 196.183594 321.132812 194.46875 321.359375 192.734375 C 321.589844 190.996094 321.703125 189.25 321.703125 187.5 C 321.703125 185.75 321.589844 184.003906 321.359375 182.265625 C 321.132812 180.53125 320.789062 178.816406 320.335938 177.125 C 319.882812 175.429688 319.320312 173.777344 318.652344 172.15625 C 317.980469 170.539062 317.207031 168.96875 316.332031 167.453125 L 314.464844 164.222656 C 312.707031 161.175781 311.371094 157.953125 310.460938 154.550781 C 309.550781 151.152344 309.09375 147.695312 309.09375 144.175781 L 309.09375 140.445312 C 309.09375 138.691406 308.980469 136.949219 308.753906 135.210938 C 308.523438 133.476562 308.183594 131.761719 307.730469 130.066406 C 307.277344 128.375 306.714844 126.71875 306.042969 125.101562 C 305.371094 123.484375 304.597656 121.914062 303.722656 120.398438 C 302.847656 118.882812 301.875 117.425781 300.808594 116.039062 C 299.742188 114.648438 298.589844 113.332031 297.351562 112.09375 C 296.113281 110.855469 294.796875 109.703125 293.410156 108.636719 C 292.019531 107.570312 290.566406 106.597656 289.046875 105.722656 L 285.816406 103.859375 C 282.769531 102.097656 280.003906 99.972656 277.515625 97.484375 C 275.027344 94.996094 272.902344 92.230469 271.140625 89.183594 L 269.277344 85.953125 C 268.402344 84.433594 267.429688 82.980469 266.363281 81.589844 C 265.296875 80.199219 264.144531 78.886719 262.90625 77.648438 C 261.667969 76.410156 260.351562 75.257812 258.960938 74.191406 C 257.574219 73.125 256.117188 72.152344 254.601562 71.277344 C 253.085938 70.402344 251.515625 69.628906 249.898438 68.957031 C 248.28125 68.285156 246.625 67.722656 244.933594 67.269531 C 243.238281 66.816406 241.523438 66.476562 239.789062 66.246094 C 238.050781 66.019531 236.308594 65.90625 234.554688 65.90625 L 230.824219 65.90625 C 227.304688 65.90625 223.847656 65.449219 220.445312 64.539062 C 217.046875 63.628906 213.824219 62.292969 210.777344 60.535156 L 207.546875 58.667969 C 206.03125 57.792969 204.460938 57.019531 202.84375 56.347656 C 201.222656 55.679688 199.570312 55.117188 197.875 54.664062 C 196.183594 54.210938 194.46875 53.867188 192.734375 53.640625 C 190.996094 53.410156 189.25 53.296875 187.5 53.296875 C 185.746094 53.296875 184.003906 53.410156 182.265625 53.640625 C 180.53125 53.867188 178.816406 54.210938 177.121094 54.664062 C 175.429688 55.117188 173.777344 55.679688 172.15625 56.347656 C 170.539062 57.019531 168.96875 57.792969 167.453125 58.667969 L 164.222656 60.535156 C 161.175781 62.292969 157.953125 63.628906 154.554688 64.539062 C 151.152344 65.449219 147.695312 65.90625 144.175781 65.90625 L 140.445312 65.90625 C 138.691406 65.90625 136.949219 66.019531 135.210938 66.246094 C 133.476562 66.476562 131.761719 66.816406 130.066406 67.269531 C 128.375 67.722656 126.71875 68.285156 125.101562 68.957031 C 123.484375 69.628906 121.914062 70.402344 120.398438 71.277344 C 118.882812 72.152344 117.425781 73.125 116.039062 74.191406 C 114.648438 75.257812 113.332031 76.410156 112.09375 77.648438 C 110.855469 78.886719 109.703125 80.203125 108.636719 81.589844 C 107.570312 82.980469 106.597656 84.433594 105.722656 85.953125 L 103.859375 89.183594 C 102.097656 92.230469 99.972656 94.996094 97.484375 97.484375 C 94.996094 99.972656 92.230469 102.097656 89.183594 103.859375 L 85.953125 105.722656 C 84.433594 106.597656 82.980469 107.570312 81.589844 108.636719 C 80.203125 109.703125 78.886719 110.855469 77.648438 112.09375 C 76.410156 113.332031 75.257812 114.648438 74.191406 116.039062 C 73.125 117.425781 72.152344 118.882812 71.277344 120.398438 C 70.402344 121.914062 69.628906 123.484375 68.957031 125.101562 C 68.285156 126.71875 67.722656 128.375 67.269531 130.066406 C 66.816406 131.761719 66.476562 133.476562 66.246094 135.210938 C 66.019531 136.949219 65.90625 138.691406 65.90625 140.445312 L 65.90625 144.175781 C 65.90625 147.695312 65.449219 151.152344 64.539062 154.550781 C 63.628906 157.953125 62.292969 161.175781 60.535156 164.222656 L 58.667969 167.453125 C 57.792969 168.96875 57.019531 170.539062 56.347656 172.15625 C 55.679688 173.777344 55.117188 175.429688 54.664062 177.125 C 54.210938 178.816406 53.867188 180.53125 53.640625 182.265625 C 53.410156 184.003906 53.296875 185.75 53.296875 187.5 C 53.296875 189.25 53.410156 190.996094 53.640625 192.734375 C 53.867188 194.46875 54.210938 196.183594 54.664062 197.878906 C 55.117188 199.570312 55.679688 201.222656 56.347656 202.84375 C 57.019531 204.460938 57.792969 206.03125 58.667969 207.546875 L 60.535156 210.777344 C 62.292969 213.824219 63.628906 217.046875 64.539062 220.449219 C 65.449219 223.847656 65.90625 227.304688 65.90625 230.824219 L 65.90625 234.554688 C 65.90625 236.308594 66.019531 238.050781 66.246094 239.789062 C 66.476562 241.523438 66.816406 243.238281 67.269531 244.933594 C 67.722656 246.625 68.285156 248.28125 68.957031 249.898438 C 69.628906 251.515625 70.402344 253.085938 71.277344 254.601562 C 72.152344 256.117188 73.125 257.574219 74.191406 258.960938 C 75.257812 260.351562 76.410156 261.667969 77.648438 262.90625 C 78.886719 264.144531 80.203125 265.296875 81.589844 266.363281 C 82.980469 267.429688 84.433594 268.402344 85.953125 269.277344 L 89.183594 271.140625 C 92.230469 272.902344 94.996094 275.027344 97.484375 277.515625 C 99.972656 280.003906 102.097656 282.769531 103.859375 285.816406 L 105.722656 289.046875 C 106.597656 290.566406 107.570312 292.019531 108.636719 293.410156 C 109.703125 294.796875 110.855469 296.113281 112.09375 297.351562 C 113.332031 298.589844 114.648438 299.742188 116.039062 300.808594 C 117.425781 301.875 118.882812 302.847656 120.398438 303.722656 C 121.914062 304.597656 123.484375 305.371094 125.101562 306.042969 C 126.71875 306.714844 128.375 307.277344 130.066406 307.730469 C 131.761719 308.183594 133.476562 308.523438 135.210938 308.753906 C 136.949219 308.980469 138.691406 309.09375 140.445312 309.09375 L 144.175781 309.09375 C 147.695312 309.09375 151.152344 309.550781 154.554688 310.460938 C 157.953125 311.371094 161.175781 312.707031 164.222656 314.464844 L 167.453125 316.332031 C 168.96875 317.207031 170.539062 317.980469 172.15625 318.652344 C 173.777344 319.320312 175.429688 319.882812 177.125 320.335938 C 178.816406 320.789062 180.53125 321.132812 182.265625 321.359375 C 184.003906 321.589844 185.75 321.703125 187.5 321.703125 C 189.25 321.703125 190.996094 321.589844 192.734375 321.359375 C 194.46875 321.132812 196.183594 320.789062 197.878906 320.335938 C 199.570312 319.882812 201.222656 319.320312 202.84375 318.652344 C 204.460938 317.980469 206.03125 317.207031 207.546875 316.332031 L 210.777344 314.464844 C 213.824219 312.707031 217.046875 311.371094 220.445312 310.460938 C 223.847656 309.550781 227.304688 309.09375 230.824219 309.09375 L 234.554688 309.09375 C 236.308594 309.09375 238.050781 308.980469 239.789062 308.753906 C 241.523438 308.523438 243.238281 308.183594 244.933594 307.730469 C 246.625 307.277344 248.28125 306.714844 249.898438 306.042969 C 251.515625 305.371094 253.085938 304.597656 254.601562 303.722656 C 256.117188 302.847656 257.574219 301.875 258.960938 300.808594 C 260.351562 299.742188 261.667969 298.589844 262.90625 297.351562 C 264.144531 296.113281 265.296875 294.800781 266.363281 293.410156 C 267.429688 292.019531 268.402344 290.566406 269.277344 289.046875 L 271.140625 285.816406 C 272.902344 282.769531 275.027344 280.003906 277.515625 277.515625 C 280.003906 275.027344 282.769531 272.902344 285.816406 271.140625 L 289.046875 269.277344 C 290.566406 268.402344 292.019531 267.429688 293.410156 266.363281 C 294.796875 265.296875 296.113281 264.144531 297.351562 262.90625 C 298.589844 261.667969 299.742188 260.351562 300.808594 258.960938 C 301.875 257.574219 302.847656 256.117188 303.722656 254.601562 C 304.597656 253.085938 305.371094 251.515625 306.042969 249.898438 C 306.714844 248.28125 307.277344 246.625 307.730469 244.933594 C 308.183594 243.238281 308.523438 241.523438 308.753906 239.789062 C 308.980469 238.050781 309.09375 236.308594 309.09375 234.554688 L 309.09375 230.824219 C 309.09375 227.304688 309.550781 223.847656 310.460938 220.449219 C 311.371094 217.046875 312.707031 213.824219 314.464844 210.777344 Z M 314.464844 210.777344 " fill-opacity="1" fill-rule="nonzero"/><path fill="#ffc54c" d="M 214.363281 106.074219 C 214.34375 108.292969 214.117188 110.492188 213.6875 112.667969 C 213.253906 114.847656 212.621094 116.964844 211.792969 119.023438 C 210.960938 121.082031 209.945312 123.042969 208.746094 124.910156 C 207.546875 126.777344 206.183594 128.515625 204.65625 130.128906 C 201.546875 133.4375 197.917969 136.015625 193.769531 137.859375 C 189.574219 139.710938 185.183594 140.648438 180.601562 140.675781 C 179.472656 140.671875 178.351562 140.617188 177.230469 140.503906 C 176.109375 140.390625 174.996094 140.222656 173.890625 140 C 172.789062 139.777344 171.695312 139.5 170.621094 139.167969 C 169.542969 138.835938 168.484375 138.453125 167.445312 138.019531 C 166.40625 137.582031 165.394531 137.097656 164.402344 136.558594 C 163.410156 136.023438 162.449219 135.441406 161.515625 134.808594 C 160.585938 134.175781 159.683594 133.5 158.820312 132.78125 C 157.953125 132.058594 157.125 131.296875 156.335938 130.496094 C 155.542969 129.691406 154.796875 128.851562 154.089844 127.976562 C 153.382812 127.097656 152.71875 126.1875 152.101562 125.246094 C 151.484375 124.304688 150.914062 123.332031 150.394531 122.332031 C 149.875 121.335938 149.402344 120.3125 148.984375 119.265625 C 148.5625 118.222656 148.195312 117.15625 147.882812 116.078125 C 147.566406 114.996094 147.308594 113.898438 147.101562 112.792969 C 146.894531 111.683594 146.746094 110.570312 146.648438 109.445312 C 146.554688 108.324219 146.515625 107.199219 146.53125 106.074219 C 146.558594 103.84375 146.796875 101.632812 147.25 99.449219 C 147.703125 97.265625 148.359375 95.144531 149.21875 93.085938 C 150.078125 91.027344 151.128906 89.066406 152.363281 87.210938 C 153.601562 85.355469 155.003906 83.632812 156.574219 82.046875 C 159.722656 78.804688 163.371094 76.289062 167.519531 74.492188 C 171.695312 72.699219 176.054688 71.796875 180.601562 71.785156 C 181.714844 71.789062 182.828125 71.847656 183.9375 71.960938 C 185.050781 72.074219 186.152344 72.242188 187.246094 72.464844 C 188.335938 72.6875 189.417969 72.964844 190.484375 73.292969 C 191.550781 73.621094 192.597656 74.003906 193.625 74.433594 C 194.652344 74.867188 195.65625 75.351562 196.640625 75.882812 C 197.621094 76.414062 198.570312 76.992188 199.496094 77.621094 C 200.417969 78.246094 201.308594 78.914062 202.167969 79.628906 C 203.023438 80.34375 203.84375 81.097656 204.628906 81.894531 C 205.410156 82.6875 206.152344 83.519531 206.851562 84.386719 C 207.554688 85.257812 208.210938 86.15625 208.820312 87.089844 C 209.433594 88.023438 209.996094 88.984375 210.511719 89.972656 C 211.03125 90.960938 211.496094 91.972656 211.914062 93.007812 C 212.328125 94.042969 212.695312 95.097656 213.007812 96.167969 C 213.320312 97.238281 213.578125 98.324219 213.785156 99.421875 C 213.988281 100.515625 214.140625 101.621094 214.238281 102.734375 C 214.332031 103.84375 214.375 104.957031 214.363281 106.074219 Z M 211.996094 106.074219 C 211.980469 105.054688 211.917969 104.039062 211.804688 103.027344 C 211.691406 102.015625 211.53125 101.011719 211.320312 100.015625 C 211.109375 99.019531 210.851562 98.035156 210.542969 97.066406 C 210.238281 96.09375 209.886719 95.140625 209.484375 94.203125 C 209.085938 93.265625 208.640625 92.351562 208.152344 91.460938 C 207.664062 90.566406 207.132812 89.699219 206.558594 88.859375 C 205.984375 88.015625 205.371094 87.207031 204.714844 86.425781 C 204.0625 85.644531 203.375 84.894531 202.648438 84.183594 C 201.921875 83.46875 201.164062 82.792969 200.371094 82.152344 C 199.578125 81.511719 198.757812 80.910156 197.90625 80.351562 C 197.054688 79.792969 196.179688 79.277344 195.277344 78.800781 C 194.375 78.328125 193.453125 77.898438 192.511719 77.515625 C 191.566406 77.132812 190.609375 76.792969 189.632812 76.503906 C 188.65625 76.214844 187.667969 75.972656 186.667969 75.777344 C 185.667969 75.585938 184.664062 75.441406 183.648438 75.34375 C 182.636719 75.25 181.617188 75.203125 180.601562 75.207031 C 178.566406 75.199219 176.550781 75.386719 174.550781 75.769531 C 172.554688 76.152344 170.609375 76.71875 168.722656 77.476562 C 166.832031 78.230469 165.035156 79.160156 163.324219 80.265625 C 161.613281 81.367188 160.023438 82.621094 158.558594 84.03125 C 155.605469 86.933594 153.351562 90.304688 151.789062 94.140625 C 150.246094 97.96875 149.488281 101.945312 149.515625 106.074219 C 149.53125 107.082031 149.59375 108.085938 149.710938 109.085938 C 149.824219 110.085938 149.984375 111.082031 150.195312 112.066406 C 150.40625 113.050781 150.664062 114.023438 150.96875 114.984375 C 151.273438 115.945312 151.625 116.886719 152.019531 117.8125 C 152.417969 118.738281 152.859375 119.644531 153.34375 120.527344 C 153.828125 121.410156 154.355469 122.269531 154.921875 123.101562 C 155.492188 123.929688 156.097656 124.734375 156.746094 125.507812 C 157.390625 126.277344 158.074219 127.019531 158.792969 127.726562 C 159.511719 128.429688 160.261719 129.101562 161.046875 129.734375 C 161.828125 130.367188 162.640625 130.960938 163.484375 131.515625 C 164.324219 132.070312 165.191406 132.582031 166.082031 133.050781 C 166.972656 133.519531 167.886719 133.945312 168.820312 134.324219 C 169.753906 134.707031 170.699219 135.039062 171.667969 135.328125 C 172.632812 135.617188 173.609375 135.859375 174.597656 136.050781 C 175.585938 136.246094 176.582031 136.390625 177.585938 136.484375 C 178.589844 136.582031 179.59375 136.628906 180.601562 136.628906 C 182.621094 136.640625 184.625 136.464844 186.613281 136.101562 C 188.601562 135.734375 190.539062 135.1875 192.421875 134.457031 C 194.308594 133.726562 196.105469 132.824219 197.820312 131.753906 C 199.535156 130.683594 201.132812 129.464844 202.617188 128.089844 C 205.640625 125.242188 207.964844 121.90625 209.589844 118.082031 C 211.207031 114.242188 212.007812 110.238281 211.996094 106.074219 Z M 136.300781 180.019531 C 136.308594 182.234375 136.105469 184.429688 135.699219 186.601562 C 135.289062 188.777344 134.679688 190.894531 133.871094 192.957031 C 133.0625 195.015625 132.066406 196.980469 130.882812 198.851562 C 129.703125 200.722656 128.355469 202.464844 126.84375 204.082031 C 123.722656 207.378906 120.089844 209.949219 115.945312 211.804688 C 111.742188 213.609375 107.355469 214.546875 102.78125 214.613281 C 100.511719 214.625 98.265625 214.40625 96.039062 213.960938 C 93.816406 213.515625 91.65625 212.851562 89.566406 211.96875 C 87.476562 211.085938 85.5 210.003906 83.628906 208.71875 C 81.757812 207.433594 80.035156 205.972656 78.460938 204.339844 C 77.6875 203.53125 76.957031 202.691406 76.261719 201.8125 C 75.570312 200.9375 74.921875 200.027344 74.316406 199.089844 C 73.710938 198.148438 73.148438 197.183594 72.636719 196.1875 C 72.125 195.195312 71.660156 194.179688 71.246094 193.140625 C 70.828125 192.105469 70.464844 191.050781 70.148438 189.976562 C 69.835938 188.902344 69.574219 187.820312 69.363281 186.722656 C 69.152344 185.625 68.996094 184.519531 68.890625 183.40625 C 68.789062 182.292969 68.738281 181.175781 68.738281 180.058594 C 68.742188 178.941406 68.800781 177.824219 68.910156 176.714844 C 69.019531 175.601562 69.179688 174.496094 69.398438 173.398438 C 69.613281 172.300781 69.882812 171.21875 70.199219 170.148438 C 70.519531 169.078125 70.890625 168.023438 71.3125 166.988281 C 71.734375 165.953125 72.203125 164.9375 72.722656 163.949219 C 73.238281 162.957031 73.804688 161.996094 74.414062 161.058594 C 75.023438 160.121094 75.679688 159.21875 76.375 158.34375 C 77.074219 157.46875 77.8125 156.632812 78.589844 155.828125 C 80.160156 154.214844 81.878906 152.769531 83.738281 151.5 C 85.601562 150.230469 87.574219 149.160156 89.652344 148.285156 C 91.730469 147.414062 93.875 146.757812 96.085938 146.316406 C 98.292969 145.875 100.527344 145.65625 102.78125 145.664062 C 107.328125 145.710938 111.691406 146.628906 115.867188 148.425781 C 120.007812 150.234375 123.636719 152.777344 126.75 156.054688 C 129.835938 159.292969 132.195312 162.992188 133.832031 167.160156 C 135.503906 171.285156 136.324219 175.570312 136.300781 180.019531 Z M 134.414062 180.019531 C 134.378906 175.832031 133.550781 171.808594 131.921875 167.949219 C 130.246094 164.136719 127.902344 160.792969 124.882812 157.917969 C 123.402344 156.523438 121.804688 155.28125 120.085938 154.191406 C 118.367188 153.101562 116.5625 152.183594 114.671875 151.441406 C 112.777344 150.695312 110.832031 150.136719 108.832031 149.761719 C 106.832031 149.390625 104.816406 149.210938 102.78125 149.222656 C 100.757812 149.230469 98.75 149.429688 96.765625 149.824219 C 94.78125 150.214844 92.851562 150.792969 90.976562 151.558594 C 89.101562 152.324219 87.316406 153.257812 85.621094 154.367188 C 83.925781 155.472656 82.355469 156.730469 80.902344 158.140625 C 77.957031 161.015625 75.683594 164.34375 74.074219 168.128906 C 73.273438 170.007812 72.671875 171.949219 72.265625 173.949219 C 71.859375 175.949219 71.660156 177.972656 71.667969 180.011719 C 71.671875 182.054688 71.886719 184.074219 72.300781 186.074219 C 72.71875 188.070312 73.335938 190.007812 74.144531 191.882812 C 75.78125 195.636719 78.078125 198.933594 81.027344 201.773438 C 82.480469 203.164062 84.046875 204.40625 85.734375 205.496094 C 87.421875 206.589844 89.195312 207.511719 91.058594 208.265625 C 92.921875 209.019531 94.839844 209.59375 96.808594 209.980469 C 98.78125 210.371094 100.769531 210.574219 102.78125 210.585938 C 104.304688 210.609375 105.820312 210.523438 107.332031 210.324219 C 108.84375 210.128906 110.332031 209.820312 111.800781 209.40625 C 113.265625 208.992188 114.695312 208.472656 116.085938 207.851562 C 117.476562 207.226562 118.8125 206.507812 120.101562 205.6875 C 121.386719 204.871094 122.605469 203.960938 123.757812 202.964844 C 124.910156 201.96875 125.984375 200.894531 126.980469 199.742188 C 127.976562 198.585938 128.882812 197.367188 129.703125 196.082031 C 130.519531 194.796875 131.242188 193.457031 131.863281 192.066406 C 133.542969 188.226562 134.394531 184.210938 134.414062 180.019531 Z M 221.085938 267.140625 C 221.121094 267.882812 221.132812 268.625 221.121094 269.367188 C 221.105469 270.105469 221.070312 270.847656 221.011719 271.585938 C 220.953125 272.324219 220.871094 273.0625 220.765625 273.796875 C 220.660156 274.53125 220.535156 275.261719 220.382812 275.984375 C 220.230469 276.710938 220.058594 277.433594 219.863281 278.148438 C 219.667969 278.863281 219.449219 279.570312 219.207031 280.273438 C 218.96875 280.972656 218.707031 281.667969 218.421875 282.351562 C 218.136719 283.039062 217.832031 283.710938 217.507812 284.378906 C 217.179688 285.042969 216.832031 285.699219 216.464844 286.34375 C 216.097656 286.988281 215.710938 287.621094 215.304688 288.238281 C 214.898438 288.859375 214.472656 289.464844 214.027344 290.058594 C 213.582031 290.652344 213.117188 291.230469 212.636719 291.792969 C 212.15625 292.359375 211.660156 292.90625 211.144531 293.441406 C 210.628906 293.972656 210.09375 294.488281 209.546875 294.988281 C 209 295.488281 208.4375 295.96875 207.859375 296.433594 C 207.28125 296.898438 206.6875 297.34375 206.082031 297.773438 C 205.476562 298.199219 204.855469 298.605469 204.226562 298.996094 C 203.59375 299.382812 202.949219 299.75 202.296875 300.097656 C 201.640625 300.449219 200.976562 300.773438 200.300781 301.082031 C 199.625 301.386719 198.941406 301.671875 198.25 301.9375 C 197.554688 302.199219 196.855469 302.441406 196.144531 302.660156 C 195.4375 302.878906 194.722656 303.078125 194.003906 303.25 C 193.28125 303.425781 192.558594 303.578125 191.828125 303.707031 C 191.097656 303.835938 190.363281 303.941406 189.625 304.027344 C 188.890625 304.109375 188.152344 304.167969 187.410156 304.207031 C 186.667969 304.242188 185.929688 304.257812 185.1875 304.246094 C 184.445312 304.238281 183.707031 304.203125 182.964844 304.148438 C 182.226562 304.09375 181.488281 304.015625 180.753906 303.910156 C 180.019531 303.808594 179.289062 303.683594 178.5625 303.535156 C 177.835938 303.390625 177.117188 303.21875 176.398438 303.023438 C 175.683594 302.832031 174.976562 302.617188 174.273438 302.378906 C 173.570312 302.140625 172.875 301.882812 172.191406 301.601562 C 171.503906 301.320312 170.828125 301.015625 170.160156 300.695312 C 169.492188 300.371094 168.835938 300.027344 168.191406 299.660156 C 167.546875 299.296875 166.914062 298.910156 166.289062 298.507812 C 165.667969 298.101562 165.0625 297.679688 164.464844 297.238281 C 163.871094 296.792969 163.289062 296.332031 162.726562 295.855469 C 162.160156 295.375 161.609375 294.878906 161.074219 294.367188 C 160.539062 293.851562 160.019531 293.324219 159.519531 292.777344 C 159.015625 292.230469 158.53125 291.671875 158.066406 291.09375 C 157.597656 290.515625 157.152344 289.925781 156.722656 289.324219 C 156.292969 288.71875 155.882812 288.101562 155.492188 287.472656 C 155.101562 286.839844 154.730469 286.199219 154.378906 285.546875 C 154.027344 284.890625 153.699219 284.230469 153.390625 283.554688 C 153.082031 282.878906 152.792969 282.199219 152.527344 281.503906 C 152.261719 280.8125 152.015625 280.113281 151.792969 279.40625 C 151.570312 278.699219 151.371094 277.984375 151.195312 277.265625 C 151.015625 276.546875 150.863281 275.820312 150.730469 275.089844 C 150.597656 274.363281 150.488281 273.628906 150.402344 272.890625 C 150.316406 272.15625 150.253906 271.417969 150.214844 270.675781 C 150.171875 269.9375 150.15625 269.195312 150.164062 268.453125 C 150.171875 267.710938 150.199219 266.972656 150.253906 266.230469 C 150.304688 265.492188 150.382812 264.753906 150.480469 264.019531 C 150.582031 263.285156 150.703125 262.554688 150.847656 261.828125 C 150.992188 261.101562 151.160156 260.378906 151.351562 259.664062 C 151.542969 258.945312 151.753906 258.234375 151.988281 257.53125 C 152.222656 256.828125 152.480469 256.132812 152.757812 255.445312 C 153.035156 254.757812 153.335938 254.082031 153.65625 253.414062 C 153.976562 252.746094 154.320312 252.085938 154.683594 251.441406 C 155.042969 250.792969 155.425781 250.15625 155.828125 249.535156 C 156.230469 248.910156 156.652344 248.300781 157.089844 247.703125 C 157.53125 247.109375 157.988281 246.527344 158.46875 245.957031 C 158.945312 245.390625 159.4375 244.835938 159.949219 244.300781 C 160.460938 243.765625 160.988281 243.242188 161.53125 242.738281 C 163.179688 241.222656 164.957031 239.871094 166.855469 238.683594 C 168.757812 237.496094 170.75 236.496094 172.835938 235.679688 C 174.925781 234.863281 177.070312 234.246094 179.269531 233.828125 C 181.472656 233.410156 183.695312 233.199219 185.933594 233.195312 C 188.175781 233.195312 190.398438 233.402344 192.597656 233.816406 C 194.800781 234.234375 196.945312 234.851562 199.03125 235.671875 C 201.117188 236.488281 203.105469 237.496094 205.003906 238.6875 C 206.898438 239.882812 208.667969 241.242188 210.308594 242.769531 C 211.984375 244.328125 213.488281 246.042969 214.816406 247.910156 C 216.144531 249.773438 217.273438 251.753906 218.199219 253.851562 C 219.125 255.945312 219.832031 258.109375 220.316406 260.347656 C 220.804688 262.585938 221.058594 264.851562 221.085938 267.140625 Z M 215.9375 267.140625 C 215.964844 265.152344 215.800781 263.179688 215.453125 261.222656 C 215.105469 259.261719 214.574219 257.355469 213.863281 255.496094 C 213.152344 253.640625 212.273438 251.867188 211.226562 250.175781 C 210.175781 248.484375 208.980469 246.90625 207.632812 245.445312 C 204.828125 242.457031 201.558594 240.121094 197.824219 238.441406 C 196.425781 237.820312 194.988281 237.3125 193.511719 236.917969 C 192.035156 236.523438 190.535156 236.246094 189.015625 236.085938 C 187.496094 235.921875 185.972656 235.882812 184.445312 235.957031 C 182.917969 236.035156 181.40625 236.230469 179.910156 236.542969 C 178.414062 236.859375 176.949219 237.285156 175.523438 237.828125 C 174.09375 238.371094 172.714844 239.019531 171.386719 239.777344 C 170.058594 240.535156 168.796875 241.394531 167.601562 242.347656 C 166.410156 243.304688 165.296875 244.34375 164.265625 245.472656 C 162.9375 246.9375 161.761719 248.515625 160.742188 250.207031 C 159.722656 251.902344 158.875 253.675781 158.199219 255.535156 C 157.523438 257.390625 157.03125 259.296875 156.726562 261.25 C 156.421875 263.203125 156.308594 265.167969 156.386719 267.140625 C 156.394531 268.113281 156.445312 269.085938 156.542969 270.050781 C 156.644531 271.019531 156.789062 271.980469 156.984375 272.929688 C 157.179688 273.882812 157.417969 274.824219 157.703125 275.753906 C 157.988281 276.683594 158.320312 277.597656 158.695312 278.492188 C 159.070312 279.390625 159.488281 280.265625 159.949219 281.121094 C 160.410156 281.980469 160.914062 282.808594 161.453125 283.617188 C 161.996094 284.421875 162.578125 285.203125 163.195312 285.953125 C 163.816406 286.703125 164.46875 287.417969 165.160156 288.105469 C 165.847656 288.792969 166.570312 289.441406 167.320312 290.058594 C 168.074219 290.671875 168.855469 291.25 169.664062 291.789062 C 170.472656 292.328125 171.308594 292.824219 172.164062 293.28125 C 173.023438 293.738281 173.902344 294.152344 174.800781 294.523438 C 175.699219 294.894531 176.613281 295.222656 177.546875 295.503906 C 178.476562 295.785156 179.417969 296.019531 180.371094 296.207031 C 181.324219 296.398438 182.285156 296.539062 183.253906 296.632812 C 184.222656 296.730469 185.191406 296.777344 186.164062 296.777344 C 187.136719 296.777344 188.105469 296.730469 189.074219 296.632812 C 190.039062 296.539062 191 296.398438 191.953125 296.207031 C 192.90625 296.019531 193.851562 295.785156 194.78125 295.503906 C 195.710938 295.222656 196.625 294.894531 197.523438 294.523438 C 198.421875 294.152344 199.300781 293.738281 200.160156 293.28125 C 201.019531 292.824219 201.851562 292.328125 202.660156 291.789062 C 203.46875 291.25 204.25 290.671875 205.003906 290.058594 C 205.757812 289.441406 206.476562 288.792969 207.167969 288.105469 C 207.855469 287.417969 208.511719 286.703125 209.128906 285.953125 C 209.746094 285.203125 210.328125 284.421875 210.871094 283.617188 C 211.414062 282.808594 211.914062 281.980469 212.375 281.121094 C 212.835938 280.265625 213.253906 279.390625 213.632812 278.492188 C 214.007812 277.597656 214.335938 276.683594 214.621094 275.753906 C 214.910156 274.824219 215.148438 273.882812 215.339844 272.929688 C 215.535156 271.980469 215.683594 271.019531 215.78125 270.050781 C 215.882812 269.085938 215.933594 268.113281 215.9375 267.140625 Z M 215.9375 267.140625 " fill-opacity="1" fill-rule="nonzero"/><path fill="#8eb327" d="M 202.367188 153.421875 C 202.386719 155.125 202.285156 156.824219 202.054688 158.511719 C 201.824219 160.203125 201.472656 161.867188 200.996094 163.503906 C 200.519531 165.140625 199.921875 166.734375 199.210938 168.285156 C 198.5 169.832031 197.675781 171.324219 196.742188 172.75 C 195.808594 174.175781 194.777344 175.527344 193.640625 176.800781 C 192.507812 178.078125 191.289062 179.261719 189.976562 180.351562 C 188.667969 181.445312 187.285156 182.4375 185.832031 183.324219 C 184.375 184.214844 182.863281 184.992188 181.292969 185.65625 C 179.710938 186.316406 178.089844 186.859375 176.425781 187.28125 C 174.761719 187.703125 173.078125 187.996094 171.371094 188.164062 C 169.667969 188.335938 167.957031 188.375 166.242188 188.289062 C 164.53125 188.203125 162.835938 187.988281 161.152344 187.648438 C 159.472656 187.308594 157.828125 186.847656 156.214844 186.261719 C 154.605469 185.675781 153.042969 184.972656 151.539062 184.152344 C 150.03125 183.335938 148.59375 182.40625 147.226562 181.375 C 145.859375 180.339844 144.574219 179.210938 143.375 177.984375 C 142.585938 177.179688 141.835938 176.339844 141.128906 175.460938 C 140.421875 174.582031 139.757812 173.671875 139.140625 172.726562 C 138.523438 171.785156 137.953125 170.8125 137.429688 169.816406 C 136.90625 168.816406 136.433594 167.792969 136.011719 166.746094 C 135.589844 165.703125 135.222656 164.636719 134.902344 163.554688 C 134.585938 162.472656 134.320312 161.378906 134.113281 160.273438 C 133.902344 159.164062 133.746094 158.046875 133.648438 156.925781 C 133.546875 155.800781 133.5 154.675781 133.511719 153.550781 C 133.519531 152.421875 133.585938 151.296875 133.707031 150.175781 C 133.828125 149.054688 134.003906 147.941406 134.234375 146.839844 C 134.464844 145.734375 134.746094 144.644531 135.085938 143.570312 C 135.421875 142.492188 135.808594 141.4375 136.25 140.398438 C 136.691406 139.359375 137.183594 138.347656 137.722656 137.355469 C 138.261719 136.367188 138.851562 135.40625 139.484375 134.476562 C 140.121094 133.542969 140.800781 132.644531 141.523438 131.78125 C 142.246094 130.914062 143.011719 130.085938 143.816406 129.296875 C 145.40625 127.726562 147.132812 126.332031 149 125.101562 C 150.867188 123.871094 152.832031 122.835938 154.902344 121.996094 C 156.972656 121.152344 159.101562 120.519531 161.296875 120.097656 C 163.492188 119.675781 165.703125 119.46875 167.9375 119.480469 C 169.054688 119.480469 170.171875 119.535156 171.28125 119.640625 C 172.394531 119.75 173.5 119.914062 174.59375 120.128906 C 175.691406 120.34375 176.773438 120.613281 177.84375 120.933594 C 178.914062 121.257812 179.96875 121.628906 181 122.050781 C 182.035156 122.476562 183.046875 122.949219 184.035156 123.472656 C 185.023438 123.992188 185.984375 124.5625 186.914062 125.179688 C 187.847656 125.792969 188.75 126.453125 189.617188 127.15625 C 190.484375 127.863281 191.316406 128.605469 192.113281 129.390625 C 192.910156 130.175781 193.664062 130.996094 194.378906 131.855469 C 195.09375 132.710938 195.769531 133.601562 196.398438 134.527344 C 197.027344 135.449219 197.609375 136.402344 198.144531 137.382812 C 198.683594 138.363281 199.167969 139.367188 199.609375 140.394531 C 200.046875 141.421875 200.433594 142.46875 200.769531 143.535156 C 201.105469 144.601562 201.390625 145.679688 201.625 146.773438 C 201.855469 147.867188 202.03125 148.96875 202.15625 150.078125 C 202.28125 151.1875 202.351562 152.304688 202.367188 153.421875 Z M 198.667969 153.421875 C 198.6875 151.898438 198.597656 150.378906 198.394531 148.871094 C 198.191406 147.359375 197.878906 145.875 197.453125 144.410156 C 197.03125 142.945312 196.5 141.523438 195.867188 140.136719 C 195.230469 138.753906 194.5 137.421875 193.664062 136.144531 C 192.832031 134.871094 191.910156 133.660156 190.898438 132.523438 C 189.890625 131.382812 188.800781 130.324219 187.628906 129.347656 C 186.460938 128.367188 185.226562 127.480469 183.929688 126.6875 C 182.628906 125.890625 181.277344 125.199219 179.875 124.601562 C 178.460938 124.007812 177.011719 123.523438 175.523438 123.148438 C 174.039062 122.769531 172.535156 122.507812 171.007812 122.355469 C 169.484375 122.203125 167.953125 122.167969 166.425781 122.246094 C 164.894531 122.324219 163.375 122.515625 161.875 122.820312 C 160.371094 123.125 158.902344 123.539062 157.460938 124.0625 C 156.019531 124.585938 154.628906 125.21875 153.28125 125.949219 C 151.933594 126.683594 150.652344 127.511719 149.429688 128.4375 C 148.207031 129.363281 147.0625 130.375 145.992188 131.472656 C 145.285156 132.191406 144.617188 132.941406 143.988281 133.726562 C 143.359375 134.511719 142.765625 135.324219 142.214844 136.167969 C 141.664062 137.011719 141.15625 137.878906 140.691406 138.769531 C 140.226562 139.660156 139.804688 140.574219 139.429688 141.507812 C 139.054688 142.441406 138.726562 143.390625 138.441406 144.359375 C 138.160156 145.324219 137.925781 146.300781 137.738281 147.289062 C 137.554688 148.28125 137.417969 149.277344 137.328125 150.277344 C 137.238281 151.28125 137.199219 152.285156 137.210938 153.292969 C 137.21875 154.296875 137.28125 155.300781 137.386719 156.300781 C 137.496094 157.300781 137.65625 158.296875 137.859375 159.28125 C 138.066406 160.265625 138.320312 161.238281 138.625 162.199219 C 138.925781 163.160156 139.273438 164.101562 139.667969 165.027344 C 140.0625 165.953125 140.5 166.859375 140.984375 167.742188 C 141.46875 168.621094 141.996094 169.480469 142.5625 170.3125 C 143.128906 171.140625 143.738281 171.945312 144.382812 172.714844 C 145.027344 173.488281 145.710938 174.222656 146.429688 174.929688 C 147.851562 176.324219 149.390625 177.570312 151.054688 178.664062 C 152.71875 179.757812 154.472656 180.679688 156.316406 181.429688 C 158.164062 182.179688 160.0625 182.742188 162.019531 183.117188 C 163.972656 183.492188 165.945312 183.675781 167.9375 183.664062 C 169.925781 183.65625 171.894531 183.460938 173.847656 183.074219 C 175.796875 182.691406 177.691406 182.125 179.53125 181.375 C 181.375 180.621094 183.125 179.703125 184.789062 178.617188 C 186.453125 177.527344 188 176.292969 189.425781 174.90625 C 190.859375 173.503906 192.148438 171.976562 193.285156 170.324219 C 194.421875 168.671875 195.382812 166.921875 196.175781 165.082031 C 196.96875 163.238281 197.578125 161.335938 197.996094 159.371094 C 198.414062 157.410156 198.636719 155.425781 198.667969 153.421875 Z M 154.527344 230.863281 C 154.527344 233.101562 154.316406 235.324219 153.898438 237.523438 C 153.480469 239.722656 152.859375 241.863281 152.035156 243.949219 C 151.210938 246.03125 150.199219 248.019531 148.996094 249.910156 C 147.796875 251.800781 146.429688 253.5625 144.898438 255.195312 C 143.324219 256.855469 141.605469 258.34375 139.742188 259.667969 C 137.875 260.988281 135.898438 262.117188 133.8125 263.046875 C 131.722656 263.980469 129.566406 264.703125 127.335938 265.210938 C 125.109375 265.71875 122.851562 266.003906 120.566406 266.070312 C 111.375 266.28125 101.933594 262.632812 95.574219 255.855469 C 92.417969 252.433594 90.070312 248.527344 88.519531 244.136719 C 87.023438 239.839844 86.28125 235.414062 86.292969 230.863281 C 86.296875 228.605469 86.515625 226.371094 86.941406 224.152344 C 87.371094 221.9375 88.007812 219.78125 88.847656 217.6875 C 89.683594 215.59375 90.714844 213.59375 91.933594 211.695312 C 93.152344 209.796875 94.539062 208.027344 96.097656 206.394531 C 97.683594 204.738281 99.417969 203.253906 101.296875 201.941406 C 103.175781 200.628906 105.164062 199.511719 107.261719 198.589844 C 109.363281 197.667969 111.53125 196.960938 113.769531 196.464844 C 116.007812 195.972656 118.273438 195.699219 120.566406 195.652344 C 129.757812 195.507812 139.152344 199.203125 145.433594 205.996094 C 148.535156 209.425781 150.839844 213.324219 152.351562 217.695312 C 153.800781 221.964844 154.527344 226.355469 154.527344 230.863281 Z M 151.761719 230.863281 C 151.75 226.722656 150.824219 222.800781 148.972656 219.097656 C 147.179688 215.488281 144.777344 212.339844 141.769531 209.65625 C 138.867188 206.984375 135.601562 204.871094 131.976562 203.308594 C 128.324219 201.789062 124.519531 200.992188 120.566406 200.917969 C 118.582031 200.875 116.609375 201.023438 114.652344 201.367188 C 112.695312 201.707031 110.792969 202.234375 108.9375 202.953125 C 107.085938 203.667969 105.320312 204.554688 103.640625 205.617188 C 101.964844 206.679688 100.40625 207.894531 98.964844 209.261719 C 97.5 210.652344 96.1875 212.175781 95.03125 213.835938 C 93.878906 215.492188 92.902344 217.25 92.101562 219.109375 C 91.304688 220.964844 90.703125 222.882812 90.296875 224.863281 C 89.886719 226.84375 89.683594 228.84375 89.683594 230.863281 C 89.703125 234.957031 90.617188 238.84375 92.417969 242.519531 C 94.175781 246.109375 96.53125 249.25 99.488281 251.941406 C 102.355469 254.628906 105.589844 256.757812 109.1875 258.335938 C 112.824219 259.878906 116.617188 260.703125 120.566406 260.8125 C 122.558594 260.871094 124.539062 260.738281 126.503906 260.414062 C 128.46875 260.085938 130.386719 259.570312 132.25 258.863281 C 134.113281 258.160156 135.894531 257.28125 137.585938 256.226562 C 139.277344 255.175781 140.851562 253.964844 142.304688 252.601562 C 143.792969 251.207031 145.125 249.679688 146.296875 248.011719 C 147.472656 246.347656 148.46875 244.578125 149.28125 242.710938 C 150.09375 240.839844 150.707031 238.910156 151.125 236.914062 C 151.542969 234.917969 151.757812 232.902344 151.761719 230.863281 Z M 301.878906 226.140625 C 301.886719 226.796875 301.878906 227.453125 301.847656 228.109375 C 301.820312 228.765625 301.773438 229.421875 301.707031 230.078125 C 301.640625 230.730469 301.554688 231.382812 301.453125 232.03125 C 301.347656 232.679688 301.226562 233.324219 301.085938 233.96875 C 300.945312 234.609375 300.789062 235.25 300.609375 235.882812 C 300.433594 236.515625 300.238281 237.140625 300.027344 237.761719 C 299.8125 238.386719 299.582031 239 299.332031 239.609375 C 299.085938 240.21875 298.820312 240.820312 298.539062 241.414062 C 298.253906 242.007812 297.957031 242.589844 297.640625 243.167969 C 297.324219 243.742188 296.992188 244.3125 296.640625 244.867188 C 296.292969 245.425781 295.929688 245.972656 295.550781 246.507812 C 295.167969 247.046875 294.773438 247.570312 294.363281 248.082031 C 293.953125 248.597656 293.53125 249.097656 293.089844 249.589844 C 292.652344 250.078125 292.199219 250.554688 291.734375 251.019531 C 291.269531 251.480469 290.789062 251.933594 290.296875 252.367188 C 289.804688 252.804688 289.300781 253.226562 288.785156 253.632812 C 288.269531 254.039062 287.742188 254.433594 287.203125 254.808594 C 286.664062 255.1875 286.117188 255.546875 285.558594 255.894531 C 284.996094 256.238281 284.429688 256.566406 283.851562 256.878906 C 283.273438 257.195312 282.6875 257.488281 282.089844 257.769531 C 281.496094 258.046875 280.894531 258.3125 280.285156 258.554688 C 279.671875 258.800781 279.058594 259.027344 278.433594 259.238281 C 277.8125 259.445312 277.183594 259.636719 276.546875 259.8125 C 275.914062 259.984375 275.277344 260.140625 274.632812 260.277344 C 273.988281 260.414062 273.34375 260.53125 272.695312 260.632812 C 272.042969 260.734375 271.390625 260.8125 270.738281 260.875 C 270.082031 260.9375 269.425781 260.984375 268.769531 261.007812 C 268.113281 261.03125 267.457031 261.039062 266.800781 261.027344 C 266.140625 261.011719 265.484375 260.980469 264.832031 260.933594 C 264.175781 260.882812 263.523438 260.8125 262.871094 260.726562 C 262.21875 260.636719 261.570312 260.53125 260.925781 260.40625 C 260.28125 260.28125 259.636719 260.136719 259 259.976562 C 258.363281 259.816406 257.730469 259.636719 257.105469 259.4375 C 256.476562 259.238281 255.855469 259.023438 255.242188 258.789062 C 254.628906 258.558594 254.019531 258.304688 253.421875 258.039062 C 252.820312 257.769531 252.230469 257.484375 251.644531 257.183594 C 251.0625 256.878906 250.484375 256.5625 249.921875 256.226562 C 249.355469 255.890625 248.800781 255.539062 248.253906 255.171875 C 247.707031 254.808594 247.175781 254.425781 246.652344 254.027344 C 246.128906 253.628906 245.617188 253.21875 245.117188 252.789062 C 244.617188 252.363281 244.128906 251.921875 243.652344 251.46875 C 243.179688 251.011719 242.71875 250.546875 242.269531 250.066406 C 241.820312 249.582031 241.386719 249.089844 240.96875 248.582031 C 240.546875 248.078125 240.144531 247.558594 239.753906 247.03125 C 239.363281 246.5 238.988281 245.960938 238.628906 245.410156 C 238.273438 244.859375 237.929688 244.300781 237.601562 243.730469 C 237.273438 243.160156 236.964844 242.578125 236.671875 241.992188 C 236.378906 241.402344 236.101562 240.808594 235.839844 240.203125 C 235.582031 239.601562 235.339844 238.988281 235.113281 238.371094 C 234.890625 237.753906 234.683594 237.128906 234.496094 236.5 C 234.304688 235.871094 234.136719 235.234375 233.984375 234.597656 C 233.832031 233.957031 233.695312 233.3125 233.582031 232.667969 C 233.464844 232.019531 233.367188 231.371094 233.289062 230.71875 C 233.210938 230.0625 233.152344 229.410156 233.109375 228.753906 C 233.070312 228.097656 233.046875 227.441406 233.046875 226.785156 C 233.042969 226.125 233.058594 225.46875 233.089844 224.8125 C 233.125 224.15625 233.179688 223.5 233.25 222.847656 C 233.324219 222.195312 233.414062 221.542969 233.523438 220.894531 C 233.632812 220.246094 233.761719 219.601562 233.90625 218.960938 C 234.050781 218.320312 234.214844 217.683594 234.398438 217.054688 C 234.582031 216.421875 234.78125 215.796875 235 215.175781 C 235.21875 214.554688 235.457031 213.941406 235.707031 213.335938 C 235.960938 212.730469 236.234375 212.132812 236.519531 211.539062 C 236.808594 210.949219 237.113281 210.367188 237.433594 209.792969 C 237.757812 209.21875 238.09375 208.65625 238.445312 208.101562 C 238.800781 207.546875 239.167969 207.003906 239.554688 206.472656 C 239.9375 205.9375 240.339844 205.417969 240.753906 204.90625 C 241.167969 204.394531 241.597656 203.898438 242.039062 203.414062 C 242.484375 202.925781 242.941406 202.453125 243.410156 201.996094 C 243.878906 201.535156 244.363281 201.089844 244.859375 200.660156 C 245.355469 200.226562 245.863281 199.808594 246.382812 199.40625 C 246.902344 199.003906 247.433594 198.617188 247.972656 198.246094 C 248.515625 197.871094 249.066406 197.515625 249.628906 197.175781 C 250.191406 196.835938 250.761719 196.511719 251.34375 196.203125 C 251.925781 195.894531 252.515625 195.605469 253.113281 195.332031 C 253.710938 195.054688 254.3125 194.800781 254.925781 194.558594 C 255.539062 194.320312 256.15625 194.097656 256.78125 193.894531 C 257.40625 193.691406 258.039062 193.503906 258.671875 193.335938 C 259.308594 193.167969 259.949219 193.019531 260.59375 192.886719 C 261.238281 192.757812 261.882812 192.644531 262.535156 192.550781 C 263.183594 192.457031 263.835938 192.378906 264.492188 192.324219 C 265.148438 192.265625 265.804688 192.230469 266.460938 192.210938 C 267.117188 192.191406 267.773438 192.191406 268.433594 192.210938 C 269.089844 192.226562 269.746094 192.265625 270.398438 192.320312 C 271.054688 192.378906 271.707031 192.453125 272.359375 192.546875 C 273.007812 192.640625 273.65625 192.75 274.300781 192.882812 C 274.945312 193.011719 275.585938 193.160156 276.222656 193.328125 C 276.855469 193.496094 277.488281 193.679688 278.113281 193.882812 C 278.738281 194.085938 279.355469 194.308594 279.96875 194.546875 C 280.582031 194.785156 281.1875 195.042969 281.785156 195.316406 C 282.382812 195.589844 282.972656 195.878906 283.550781 196.1875 C 284.132812 196.496094 284.703125 196.816406 285.265625 197.160156 C 285.828125 197.5 286.382812 197.855469 286.925781 198.226562 C 287.464844 198.597656 287.996094 198.984375 288.519531 199.386719 C 289.039062 199.789062 289.546875 200.207031 290.042969 200.636719 C 290.539062 201.066406 291.023438 201.511719 291.492188 201.972656 C 294.761719 205.132812 297.300781 208.800781 299.113281 212.972656 C 300.902344 217.179688 301.824219 221.566406 301.878906 226.140625 Z M 297.925781 226.140625 C 297.941406 224.121094 297.765625 222.117188 297.394531 220.132812 C 297.019531 218.144531 296.460938 216.214844 295.71875 214.335938 C 294.972656 212.460938 294.054688 210.671875 292.960938 208.972656 C 291.871094 207.273438 290.625 205.695312 289.230469 204.234375 C 286.363281 201.269531 283.039062 198.976562 279.25 197.347656 C 277.367188 196.546875 275.421875 195.941406 273.414062 195.53125 C 271.40625 195.125 269.378906 194.921875 267.332031 194.929688 C 265.28125 194.933594 263.257812 195.144531 261.25 195.558594 C 259.246094 195.976562 257.304688 196.589844 255.421875 197.402344 C 254.851562 197.660156 254.292969 197.929688 253.738281 198.21875 C 253.183594 198.507812 252.640625 198.8125 252.105469 199.136719 C 251.570312 199.457031 251.046875 199.792969 250.53125 200.148438 C 250.015625 200.5 249.511719 200.871094 249.019531 201.253906 C 248.527344 201.636719 248.046875 202.035156 247.578125 202.445312 C 247.109375 202.859375 246.652344 203.285156 246.210938 203.726562 C 245.765625 204.164062 245.335938 204.617188 244.921875 205.082031 C 244.503906 205.546875 244.101562 206.027344 243.714844 206.515625 C 243.328125 207.003906 242.957031 207.507812 242.601562 208.019531 C 242.242188 208.53125 241.902344 209.054688 241.574219 209.585938 C 241.25 210.117188 240.941406 210.660156 240.648438 211.210938 C 240.355469 211.761719 240.078125 212.324219 239.820312 212.890625 C 239.558594 213.457031 239.316406 214.03125 239.09375 214.617188 C 238.867188 215.199219 238.660156 215.785156 238.46875 216.382812 C 238.28125 216.976562 238.109375 217.578125 237.957031 218.179688 C 237.804688 218.785156 237.667969 219.394531 237.550781 220.007812 C 237.433594 220.621094 237.335938 221.238281 237.257812 221.859375 C 237.175781 222.476562 237.113281 223.097656 237.074219 223.722656 C 237.03125 224.34375 237.007812 224.96875 237 225.589844 C 236.996094 226.214844 237.011719 226.839844 237.042969 227.464844 C 237.074219 228.085938 237.128906 228.707031 237.195312 229.328125 C 237.265625 229.949219 237.355469 230.566406 237.460938 231.183594 C 237.570312 231.796875 237.695312 232.410156 237.839844 233.015625 C 237.984375 233.625 238.144531 234.226562 238.324219 234.824219 C 238.503906 235.421875 238.703125 236.011719 238.917969 236.597656 C 239.132812 237.183594 239.367188 237.765625 239.617188 238.335938 C 239.867188 238.90625 240.136719 239.472656 240.421875 240.027344 C 240.703125 240.582031 241.003906 241.128906 241.324219 241.667969 C 241.640625 242.207031 241.972656 242.734375 242.320312 243.25 C 242.671875 243.769531 243.035156 244.273438 243.414062 244.769531 C 243.792969 245.265625 244.1875 245.75 244.597656 246.222656 C 245.003906 246.695312 245.425781 247.152344 245.863281 247.601562 C 246.921875 248.660156 248.054688 249.636719 249.253906 250.527344 C 250.457031 251.421875 251.71875 252.21875 253.039062 252.925781 C 254.359375 253.632812 255.726562 254.238281 257.136719 254.746094 C 258.546875 255.25 259.984375 255.652344 261.453125 255.945312 C 262.921875 256.238281 264.402344 256.421875 265.898438 256.496094 C 267.394531 256.574219 268.890625 256.539062 270.378906 256.394531 C 271.871094 256.246094 273.34375 255.996094 274.796875 255.632812 C 276.25 255.269531 277.667969 254.804688 279.050781 254.234375 C 280.4375 253.664062 281.773438 252.996094 283.058594 252.226562 C 284.34375 251.460938 285.566406 250.601562 286.726562 249.652344 C 287.886719 248.707031 288.972656 247.679688 289.980469 246.570312 C 290.988281 245.464844 291.910156 244.289062 292.746094 243.046875 C 293.578125 241.800781 294.320312 240.503906 294.964844 239.152344 C 295.609375 237.800781 296.148438 236.40625 296.585938 234.976562 C 297.027344 233.542969 297.359375 232.085938 297.582031 230.605469 C 297.808594 229.125 297.921875 227.636719 297.925781 226.140625 Z M 297.925781 226.140625 " fill-opacity="1" fill-rule="nonzero"/><path fill="#bd1d1d" d="M 285.910156 145.617188 C 285.894531 146.742188 285.820312 147.867188 285.695312 148.984375 C 285.566406 150.105469 285.386719 151.214844 285.148438 152.316406 C 284.914062 153.421875 284.625 154.507812 284.28125 155.582031 C 283.941406 156.65625 283.546875 157.710938 283.101562 158.746094 C 282.65625 159.78125 282.164062 160.792969 281.621094 161.78125 C 281.074219 162.765625 280.484375 163.726562 279.847656 164.65625 C 279.210938 165.585938 278.53125 166.480469 277.804688 167.34375 C 277.082031 168.207031 276.316406 169.03125 275.511719 169.820312 C 274.703125 170.609375 273.863281 171.355469 272.984375 172.0625 C 272.105469 172.769531 271.195312 173.429688 270.253906 174.046875 C 269.308594 174.664062 268.339844 175.234375 267.339844 175.757812 C 266.34375 176.28125 265.320312 176.753906 264.277344 177.175781 C 263.230469 177.597656 262.167969 177.96875 261.089844 178.289062 C 260.007812 178.605469 258.914062 178.871094 257.808594 179.085938 C 256.699219 179.296875 255.585938 179.453125 254.464844 179.558594 C 253.339844 179.660156 252.214844 179.710938 251.089844 179.703125 C 248.84375 179.6875 246.621094 179.464844 244.414062 179.039062 C 242.210938 178.609375 240.066406 177.980469 237.976562 177.152344 C 235.890625 176.324219 233.898438 175.3125 232 174.113281 C 230.101562 172.914062 228.328125 171.550781 226.683594 170.023438 C 223.320312 166.871094 220.742188 163.175781 218.953125 158.929688 C 218.296875 157.359375 217.765625 155.75 217.355469 154.097656 C 216.945312 152.449219 216.664062 150.777344 216.507812 149.082031 C 216.351562 147.390625 216.324219 145.695312 216.425781 143.996094 C 216.523438 142.300781 216.753906 140.617188 217.109375 138.957031 C 217.464844 137.292969 217.941406 135.667969 218.542969 134.074219 C 219.144531 132.484375 219.863281 130.949219 220.699219 129.46875 C 221.535156 127.988281 222.476562 126.578125 223.523438 125.238281 C 224.574219 123.898438 225.71875 122.648438 226.957031 121.480469 C 228.570312 119.957031 230.316406 118.597656 232.191406 117.40625 C 234.066406 116.214844 236.039062 115.207031 238.105469 114.390625 C 240.171875 113.574219 242.296875 112.957031 244.480469 112.546875 C 246.664062 112.132812 248.867188 111.929688 251.089844 111.9375 C 253.308594 111.957031 255.511719 112.175781 257.691406 112.597656 C 259.871094 113.019531 261.996094 113.636719 264.0625 114.445312 C 266.128906 115.257812 268.105469 116.25 269.992188 117.421875 C 271.875 118.59375 273.640625 119.929688 275.28125 121.425781 C 281.890625 127.429688 286.144531 136.449219 285.910156 145.617188 Z M 281.421875 145.617188 C 281.320312 141.613281 280.585938 137.730469 279.214844 133.96875 C 277.777344 130.164062 275.695312 126.753906 272.96875 123.734375 C 270.175781 120.675781 266.886719 118.300781 263.105469 116.609375 C 259.277344 114.929688 255.269531 114.105469 251.089844 114.140625 C 246.917969 114.160156 242.921875 115.003906 239.097656 116.664062 C 237.710938 117.277344 236.375 117.992188 235.089844 118.800781 C 233.804688 119.613281 232.585938 120.515625 231.4375 121.503906 C 230.285156 122.492188 229.210938 123.5625 228.21875 124.710938 C 227.222656 125.859375 226.320312 127.074219 225.503906 128.351562 C 224.6875 129.632812 223.96875 130.96875 223.347656 132.355469 C 222.730469 133.742188 222.214844 135.164062 221.804688 136.625 C 221.394531 138.089844 221.09375 139.574219 220.902344 141.078125 C 220.707031 142.585938 220.628906 144.097656 220.65625 145.617188 C 220.699219 147.613281 220.917969 149.589844 221.320312 151.546875 C 221.71875 153.5 222.296875 155.40625 223.042969 157.257812 C 223.792969 159.105469 224.703125 160.875 225.777344 162.558594 C 226.847656 164.246094 228.066406 165.816406 229.425781 167.28125 C 232.222656 170.265625 235.488281 172.59375 239.226562 174.257812 C 243.007812 175.910156 246.960938 176.71875 251.089844 176.683594 C 255.207031 176.664062 259.15625 175.847656 262.941406 174.230469 C 264.328125 173.632812 265.660156 172.9375 266.941406 172.144531 C 268.222656 171.351562 269.441406 170.464844 270.59375 169.492188 C 271.742188 168.519531 272.816406 167.464844 273.8125 166.332031 C 274.808594 165.199219 275.714844 164 276.53125 162.734375 C 277.351562 161.464844 278.070312 160.144531 278.695312 158.773438 C 279.316406 157.398438 279.835938 155.988281 280.25 154.539062 C 280.664062 153.085938 280.96875 151.617188 281.167969 150.121094 C 281.363281 148.625 281.449219 147.125 281.421875 145.617188 Z M 163.164062 133.871094 C 163.179688 138.40625 162.425781 142.8125 160.90625 147.082031 C 159.34375 151.4375 156.984375 155.304688 153.820312 158.679688 C 147.449219 165.328125 138.214844 169.070312 129.015625 169.074219 C 127.285156 169.082031 125.5625 168.957031 123.851562 168.707031 C 122.140625 168.457031 120.457031 168.085938 118.800781 167.585938 C 117.144531 167.085938 115.535156 166.46875 113.96875 165.730469 C 112.40625 164.992188 110.902344 164.144531 109.464844 163.1875 C 108.027344 162.226562 106.664062 161.164062 105.382812 160.003906 C 104.101562 158.84375 102.910156 157.59375 101.8125 156.257812 C 100.71875 154.921875 99.722656 153.507812 98.835938 152.027344 C 97.949219 150.542969 97.171875 149 96.511719 147.402344 C 95.851562 145.800781 95.3125 144.164062 94.894531 142.484375 C 94.480469 140.808594 94.1875 139.105469 94.019531 137.386719 C 93.855469 135.664062 93.816406 133.9375 93.90625 132.210938 C 93.996094 130.484375 94.210938 128.773438 94.554688 127.078125 C 94.898438 125.382812 95.363281 123.722656 95.949219 122.09375 C 96.539062 120.46875 97.242188 118.894531 98.066406 117.371094 C 98.886719 115.851562 99.816406 114.398438 100.851562 113.011719 C 101.890625 111.628906 103.023438 110.328125 104.25 109.109375 C 105.058594 108.308594 105.90625 107.550781 106.789062 106.832031 C 107.671875 106.113281 108.585938 105.441406 109.535156 104.816406 C 110.484375 104.1875 111.460938 103.609375 112.46875 103.078125 C 113.476562 102.550781 114.507812 102.070312 115.558594 101.644531 C 116.613281 101.214844 117.6875 100.839844 118.777344 100.519531 C 119.867188 100.195312 120.972656 99.929688 122.089844 99.714844 C 123.207031 99.503906 124.335938 99.347656 125.46875 99.246094 C 126.601562 99.144531 127.734375 99.101562 128.875 99.109375 C 130.011719 99.121094 131.144531 99.191406 132.277344 99.3125 C 133.40625 99.4375 134.527344 99.617188 135.640625 99.851562 C 136.753906 100.085938 137.855469 100.375 138.9375 100.71875 C 140.023438 101.0625 141.089844 101.457031 142.132812 101.90625 C 143.179688 102.355469 144.199219 102.855469 145.195312 103.402344 C 146.191406 103.953125 147.15625 104.550781 148.09375 105.195312 C 149.03125 105.84375 149.933594 106.53125 150.800781 107.265625 C 151.671875 108.003906 152.5 108.777344 153.292969 109.59375 C 156.441406 112.859375 158.882812 116.589844 160.617188 120.78125 C 162.328125 124.976562 163.179688 129.339844 163.164062 133.871094 Z M 160.019531 133.871094 C 160.015625 133.246094 159.992188 132.621094 159.949219 131.992188 C 159.910156 131.367188 159.847656 130.742188 159.765625 130.121094 C 159.6875 129.5 159.585938 128.882812 159.46875 128.265625 C 159.347656 127.648438 159.210938 127.039062 159.054688 126.429688 C 158.898438 125.824219 158.722656 125.222656 158.53125 124.625 C 158.335938 124.027344 158.125 123.4375 157.898438 122.855469 C 157.667969 122.269531 157.417969 121.695312 157.15625 121.125 C 156.890625 120.558594 156.605469 120 156.308594 119.449219 C 156.007812 118.894531 155.691406 118.355469 155.359375 117.824219 C 155.027344 117.292969 154.675781 116.769531 154.3125 116.261719 C 153.949219 115.75 153.566406 115.253906 153.171875 114.765625 C 152.777344 114.28125 152.367188 113.804688 151.941406 113.34375 C 151.515625 112.882812 151.078125 112.433594 150.625 112 C 150.175781 111.566406 149.707031 111.144531 149.230469 110.738281 C 148.753906 110.332031 148.261719 109.941406 147.761719 109.566406 C 147.257812 109.191406 146.746094 108.832031 146.21875 108.488281 C 145.695312 108.144531 145.160156 107.816406 144.617188 107.503906 C 144.074219 107.195312 143.519531 106.898438 142.957031 106.621094 C 142.394531 106.34375 141.824219 106.085938 141.246094 105.84375 C 140.667969 105.601562 140.082031 105.378906 139.488281 105.171875 C 138.894531 104.964844 138.296875 104.777344 137.695312 104.609375 C 137.089844 104.441406 136.480469 104.289062 135.867188 104.15625 C 135.253906 104.027344 134.640625 103.914062 134.019531 103.820312 C 133.398438 103.726562 132.777344 103.652344 132.152344 103.59375 C 131.527344 103.539062 130.902344 103.503906 130.273438 103.484375 C 129.648438 103.46875 129.019531 103.472656 128.394531 103.492188 C 127.765625 103.515625 127.140625 103.554688 126.515625 103.617188 C 125.894531 103.675781 125.273438 103.753906 124.652344 103.851562 C 124.03125 103.949219 123.417969 104.070312 122.804688 104.203125 C 122.191406 104.339844 121.585938 104.496094 120.984375 104.667969 C 120.378906 104.84375 119.78125 105.035156 119.191406 105.246094 C 118.601562 105.457031 118.019531 105.683594 117.441406 105.929688 C 113.765625 107.511719 110.523438 109.722656 107.707031 112.5625 C 106.667969 113.613281 105.710938 114.734375 104.835938 115.921875 C 103.960938 117.113281 103.179688 118.363281 102.488281 119.667969 C 101.800781 120.972656 101.210938 122.324219 100.71875 123.71875 C 100.226562 125.109375 99.84375 126.53125 99.5625 127.980469 C 99.28125 129.433594 99.109375 130.894531 99.042969 132.371094 C 98.976562 133.847656 99.023438 135.320312 99.175781 136.789062 C 99.328125 138.257812 99.585938 139.707031 99.953125 141.136719 C 100.320312 142.566406 100.789062 143.964844 101.363281 145.324219 C 102.910156 148.972656 105.082031 152.203125 107.871094 155.015625 C 108.910156 156.058594 110.019531 157.019531 111.203125 157.898438 C 112.382812 158.777344 113.621094 159.566406 114.917969 160.261719 C 116.214844 160.960938 117.554688 161.558594 118.941406 162.054688 C 120.328125 162.554688 121.742188 162.949219 123.183594 163.238281 C 124.628906 163.527344 126.085938 163.710938 127.554688 163.785156 C 129.023438 163.859375 130.492188 163.828125 131.957031 163.6875 C 133.425781 163.542969 134.871094 163.296875 136.300781 162.941406 C 137.730469 162.585938 139.125 162.128906 140.484375 161.566406 C 142.304688 160.789062 144.042969 159.855469 145.695312 158.765625 C 147.351562 157.679688 148.894531 156.453125 150.332031 155.089844 C 151.769531 153.726562 153.074219 152.25 154.246094 150.652344 C 155.417969 149.058594 156.441406 147.371094 157.316406 145.59375 C 159.09375 141.890625 159.996094 137.984375 160.019531 133.871094 Z M 264.808594 236.402344 C 264.824219 240.9375 264.070312 245.339844 262.550781 249.613281 C 260.992188 253.96875 258.628906 257.832031 255.464844 261.207031 C 249.09375 267.859375 239.859375 271.597656 230.660156 271.605469 C 228.929688 271.609375 227.210938 271.488281 225.5 271.238281 C 223.785156 270.988281 222.101562 270.613281 220.445312 270.113281 C 218.789062 269.617188 217.179688 268.996094 215.617188 268.261719 C 214.050781 267.523438 212.550781 266.675781 211.109375 265.714844 C 209.671875 264.753906 208.308594 263.695312 207.027344 262.535156 C 205.746094 261.371094 204.558594 260.125 203.460938 258.785156 C 202.363281 257.449219 201.371094 256.039062 200.480469 254.554688 C 199.59375 253.070312 198.820312 251.527344 198.160156 249.929688 C 197.5 248.332031 196.960938 246.691406 196.542969 245.015625 C 196.125 243.335938 195.832031 241.636719 195.667969 239.914062 C 195.5 238.191406 195.460938 236.46875 195.550781 234.742188 C 195.640625 233.011719 195.855469 231.300781 196.199219 229.605469 C 196.542969 227.910156 197.007812 226.25 197.597656 224.625 C 198.183594 222.996094 198.890625 221.421875 199.710938 219.902344 C 200.53125 218.378906 201.460938 216.925781 202.5 215.539062 C 203.535156 214.15625 204.667969 212.855469 205.898438 211.636719 C 206.703125 210.835938 207.550781 210.078125 208.433594 209.359375 C 209.316406 208.644531 210.230469 207.96875 211.179688 207.34375 C 212.128906 206.71875 213.109375 206.136719 214.113281 205.609375 C 215.121094 205.078125 216.152344 204.597656 217.207031 204.171875 C 218.257812 203.742188 219.332031 203.367188 220.421875 203.046875 C 221.515625 202.726562 222.617188 202.457031 223.738281 202.246094 C 224.855469 202.03125 225.980469 201.875 227.113281 201.773438 C 228.246094 201.671875 229.382812 201.628906 230.519531 201.640625 C 231.65625 201.652344 232.789062 201.71875 233.921875 201.839844 C 235.050781 201.964844 236.175781 202.144531 237.289062 202.378906 C 238.402344 202.613281 239.5 202.902344 240.582031 203.246094 C 241.667969 203.589844 242.734375 203.984375 243.777344 204.433594 C 244.824219 204.882812 245.84375 205.382812 246.839844 205.933594 C 247.835938 206.480469 248.804688 207.078125 249.738281 207.726562 C 250.675781 208.371094 251.578125 209.0625 252.449219 209.796875 C 253.316406 210.53125 254.144531 211.308594 254.9375 212.125 C 258.085938 215.390625 260.527344 219.117188 262.261719 223.308594 C 263.976562 227.507812 264.824219 231.871094 264.808594 236.402344 Z M 261.664062 236.402344 C 261.660156 235.773438 261.636719 235.148438 261.597656 234.523438 C 261.554688 233.894531 261.492188 233.273438 261.414062 232.652344 C 261.332031 232.027344 261.230469 231.410156 261.113281 230.792969 C 260.996094 230.179688 260.855469 229.566406 260.699219 228.960938 C 260.542969 228.351562 260.371094 227.75 260.175781 227.152344 C 259.984375 226.558594 259.773438 225.964844 259.542969 225.382812 C 259.3125 224.800781 259.066406 224.222656 258.800781 223.65625 C 258.535156 223.085938 258.253906 222.527344 257.953125 221.976562 C 257.652344 221.425781 257.335938 220.882812 257.003906 220.351562 C 256.671875 219.820312 256.324219 219.300781 255.957031 218.789062 C 255.59375 218.28125 255.214844 217.78125 254.816406 217.292969 C 254.421875 216.808594 254.011719 216.335938 253.585938 215.871094 C 253.164062 215.410156 252.722656 214.964844 252.273438 214.527344 C 251.820312 214.09375 251.355469 213.675781 250.875 213.269531 C 250.398438 212.863281 249.90625 212.472656 249.40625 212.097656 C 248.902344 211.71875 248.390625 211.359375 247.867188 211.015625 C 247.339844 210.671875 246.808594 210.34375 246.261719 210.035156 C 245.71875 209.722656 245.164062 209.429688 244.601562 209.152344 C 244.039062 208.875 243.46875 208.613281 242.890625 208.371094 C 242.3125 208.128906 241.726562 207.90625 241.132812 207.699219 C 240.542969 207.492188 239.945312 207.304688 239.339844 207.136719 C 238.734375 206.96875 238.128906 206.816406 237.515625 206.6875 C 236.902344 206.554688 236.285156 206.441406 235.664062 206.347656 C 235.042969 206.253906 234.421875 206.179688 233.796875 206.125 C 233.171875 206.066406 232.546875 206.03125 231.921875 206.015625 C 231.292969 205.996094 230.667969 206 230.039062 206.023438 C 229.414062 206.042969 228.789062 206.082031 228.164062 206.144531 C 227.539062 206.203125 226.917969 206.28125 226.296875 206.382812 C 225.679688 206.480469 225.0625 206.597656 224.449219 206.734375 C 223.839844 206.871094 223.230469 207.023438 222.628906 207.199219 C 222.023438 207.371094 221.429688 207.5625 220.835938 207.773438 C 220.246094 207.984375 219.664062 208.210938 219.085938 208.457031 C 215.414062 210.039062 212.167969 212.253906 209.351562 215.09375 C 208.3125 216.140625 207.355469 217.261719 206.480469 218.453125 C 205.605469 219.644531 204.824219 220.890625 204.132812 222.195312 C 203.445312 223.503906 202.855469 224.851562 202.363281 226.246094 C 201.875 227.640625 201.488281 229.0625 201.207031 230.511719 C 200.925781 231.960938 200.753906 233.421875 200.6875 234.898438 C 200.625 236.375 200.667969 237.847656 200.820312 239.316406 C 200.972656 240.785156 201.230469 242.234375 201.597656 243.667969 C 201.964844 245.097656 202.433594 246.492188 203.007812 247.855469 C 204.554688 251.5 206.726562 254.730469 209.515625 257.542969 C 210.554688 258.585938 211.667969 259.546875 212.847656 260.425781 C 214.027344 261.308594 215.265625 262.09375 216.5625 262.792969 C 217.859375 263.488281 219.203125 264.085938 220.585938 264.585938 C 221.972656 265.082031 223.386719 265.476562 224.828125 265.765625 C 226.273438 266.058594 227.730469 266.238281 229.199219 266.3125 C 230.671875 266.390625 232.140625 266.355469 233.605469 266.214844 C 235.070312 266.074219 236.515625 265.824219 237.945312 265.46875 C 239.375 265.113281 240.769531 264.65625 242.128906 264.097656 C 243.949219 263.316406 245.6875 262.382812 247.34375 261.296875 C 248.996094 260.207031 250.542969 258.980469 251.976562 257.617188 C 253.414062 256.253906 254.71875 254.777344 255.890625 253.179688 C 257.0625 251.585938 258.085938 249.898438 258.960938 248.121094 C 260.742188 244.417969 261.640625 240.511719 261.664062 236.402344 Z M 261.664062 236.402344 " fill-opacity="1" fill-rule="nonzero"/><path fill="#fcef9e" d="M 167.824219 103.292969 C 169.148438 111.554688 158.332031 110.578125 158.332031 110.578125 C 158.332031 110.578125 165.75 119.257812 164.523438 123.160156 C 163.296875 127.058594 155.050781 129.257812 155.050781 129.257812 C 155.050781 129.257812 146.90625 131.820312 143.78125 129.179688 C 140.660156 126.542969 142.273438 115.242188 142.273438 115.242188 C 142.273438 115.242188 133.820312 121.789062 130.355469 114.171875 C 123.589844 99.296875 144.613281 93.378906 144.613281 93.378906 C 144.613281 93.378906 165.199219 86.917969 167.824219 103.292969 Z M 241.851562 95.386719 C 241.851562 95.386719 222.929688 84.476562 217.015625 99.710938 C 213.988281 107.511719 224.578125 108.984375 224.578125 108.984375 C 224.578125 108.984375 215.363281 115.726562 215.65625 119.804688 C 215.949219 123.882812 223.472656 127.917969 223.472656 127.917969 C 223.472656 127.917969 230.808594 132.285156 234.453125 130.4375 C 238.101562 128.585938 239.128906 117.21875 239.128906 117.21875 C 239.128906 117.21875 245.988281 125.636719 250.972656 118.917969 C 260.855469 105.601562 241.851562 95.386719 241.851562 95.386719 Z M 274.371094 175.285156 C 274.371094 175.285156 253.0625 170.515625 251.957031 186.820312 C 251.394531 195.167969 261.941406 193.417969 261.941406 193.417969 C 261.941406 193.417969 255.152344 202.597656 256.652344 206.402344 C 258.148438 210.207031 266.53125 211.820312 266.53125 211.820312 C 266.53125 211.820312 274.835938 213.800781 277.765625 210.945312 C 280.695312 208.09375 278.285156 196.933594 278.285156 196.933594 C 278.285156 196.933594 287.34375 202.929688 290.097656 195.027344 C 295.558594 179.371094 274.371094 175.285156 274.371094 175.285156 Z M 196.453125 205.589844 C 196.453125 205.589844 218.023438 202.164062 213.035156 186.601562 C 210.480469 178.632812 201.320312 184.148438 201.320312 184.148438 C 201.320312 184.148438 204.242188 173.113281 201.449219 170.128906 C 198.652344 167.144531 190.265625 168.742188 190.265625 168.742188 C 190.265625 168.742188 181.816406 169.960938 180.148438 173.695312 C 178.476562 177.425781 184.832031 186.910156 184.832031 186.910156 C 184.832031 186.910156 174.203125 184.679688 174.554688 193.042969 C 175.257812 209.609375 196.453125 205.589844 196.453125 205.589844 Z M 128.714844 271.558594 C 128.714844 271.558594 150.285156 268.132812 145.296875 252.570312 C 142.742188 244.601562 133.582031 250.121094 133.582031 250.121094 C 133.582031 250.121094 136.503906 239.082031 133.707031 236.097656 C 130.914062 233.113281 122.527344 234.710938 122.527344 234.710938 C 122.527344 234.710938 114.078125 235.933594 112.410156 239.664062 C 110.738281 243.398438 117.09375 252.878906 117.09375 252.878906 C 117.09375 252.878906 106.464844 250.652344 106.816406 259.011719 C 107.515625 275.578125 128.714844 271.558594 128.714844 271.558594 Z M 233.582031 264.84375 C 233.582031 264.84375 227.890625 243.761719 212.945312 250.371094 C 205.289062 253.753906 211.746094 262.273438 211.746094 262.273438 C 211.746094 262.273438 200.464844 260.539062 197.792969 263.636719 C 195.121094 266.730469 197.59375 274.898438 197.59375 274.898438 C 197.59375 274.898438 199.703125 283.171875 203.59375 284.4375 C 207.480469 285.703125 216.238281 278.378906 216.238281 278.378906 C 216.238281 278.378906 215.144531 289.1875 223.421875 287.949219 C 239.824219 285.5 233.582031 264.84375 233.582031 264.84375 Z M 86.671875 189.789062 C 86.671875 189.789062 99.789062 207.25 111.210938 195.5625 C 117.058594 189.578125 107.898438 184.066406 107.898438 184.066406 C 107.898438 184.066406 119.023438 181.484375 120.351562 177.621094 C 121.683594 173.753906 116.351562 167.085938 116.351562 167.085938 C 116.351562 167.085938 111.320312 160.191406 107.242188 160.457031 C 103.160156 160.726562 97.75 170.777344 97.75 170.777344 C 97.75 170.777344 94.75 160.339844 87.523438 164.5625 C 73.207031 172.929688 86.671875 189.789062 86.671875 189.789062 Z M 86.671875 189.789062 " fill-opacity="1" fill-rule="nonzero"/></svg>