<svg xmlns="http://www.w3.org/2000/svg" xmlns:xlink="http://www.w3.org/1999/xlink" width="500" zoomAndPan="magnify" viewBox="0 0 375 374.999991" height="500" preserveAspectRatio="xMidYMid meet" version="1.0"><defs><clipPath id="8fbdaa175e"><path d="M 37.5 37.5 L 337.5 37.5 L 337.5 337.5 L 37.5 337.5 Z M 37.5 37.5 " clip-rule="nonzero"/></clipPath></defs><g clip-path="url(#8fbdaa175e)"><path fill="#ffc54c" d="M 337.5 187.5 C 337.5 189.953125 337.441406 192.410156 337.320312 194.859375 C 337.199219 197.3125 337.019531 199.757812 336.777344 202.203125 C 336.535156 204.644531 336.238281 207.082031 335.875 209.507812 C 335.515625 211.9375 335.097656 214.355469 334.617188 216.761719 C 334.140625 219.171875 333.601562 221.566406 333.003906 223.945312 C 332.40625 226.328125 331.753906 228.695312 331.039062 231.042969 C 330.328125 233.390625 329.558594 235.722656 328.730469 238.035156 C 327.90625 240.34375 327.019531 242.632812 326.082031 244.902344 C 325.140625 247.171875 324.148438 249.414062 323.097656 251.632812 C 322.046875 253.851562 320.945312 256.042969 319.789062 258.210938 C 318.632812 260.375 317.421875 262.511719 316.160156 264.617188 C 314.898438 266.722656 313.585938 268.792969 312.21875 270.835938 C 310.855469 272.875 309.445312 274.882812 307.980469 276.855469 C 306.519531 278.828125 305.007812 280.761719 303.453125 282.660156 C 301.894531 284.554688 300.292969 286.414062 298.644531 288.234375 C 296.992188 290.050781 295.300781 291.832031 293.566406 293.566406 C 291.832031 295.300781 290.054688 296.992188 288.234375 298.644531 C 286.414062 300.292969 284.554688 301.894531 282.660156 303.453125 C 280.761719 305.007812 278.828125 306.519531 276.855469 307.980469 C 274.882812 309.445312 272.875 310.855469 270.835938 312.21875 C 268.792969 313.585938 266.722656 314.898438 264.617188 316.160156 C 262.511719 317.421875 260.375 318.632812 258.210938 319.789062 C 256.042969 320.945312 253.851562 322.046875 251.632812 323.097656 C 249.414062 324.148438 247.171875 325.140625 244.902344 326.082031 C 242.632812 327.019531 240.34375 327.90625 238.035156 328.730469 C 235.722656 329.558594 233.390625 330.328125 231.042969 331.039062 C 228.695312 331.753906 226.328125 332.40625 223.945312 333.003906 C 221.566406 333.601562 219.171875 334.140625 216.761719 334.617188 C 214.355469 335.097656 211.9375 335.515625 209.507812 335.875 C 207.082031 336.238281 204.644531 336.535156 202.203125 336.777344 C 199.757812 337.019531 197.3125 337.199219 194.859375 337.320312 C 192.410156 337.441406 189.953125 337.5 187.5 337.5 C 185.046875 337.5 182.589844 337.441406 180.140625 337.320312 C 177.6875 337.199219 175.242188 337.019531 172.796875 336.777344 C 170.355469 336.535156 167.917969 336.238281 165.492188 335.875 C 163.0625 335.515625 160.644531 335.097656 158.238281 334.617188 C 155.828125 334.140625 153.433594 333.601562 151.054688 333.003906 C 148.671875 332.40625 146.304688 331.753906 143.957031 331.039062 C 141.609375 330.328125 139.277344 329.558594 136.964844 328.730469 C 134.65625 327.90625 132.367188 327.019531 130.097656 326.082031 C 127.828125 325.140625 125.585938 324.148438 123.367188 323.097656 C 121.148438 322.046875 118.957031 320.945312 116.789062 319.789062 C 114.625 318.632812 112.488281 317.421875 110.382812 316.160156 C 108.277344 314.898438 106.207031 313.585938 104.164062 312.21875 C 102.125 310.855469 100.117188 309.445312 98.144531 307.980469 C 96.171875 306.519531 94.238281 305.007812 92.339844 303.453125 C 90.445312 301.894531 88.585938 300.292969 86.765625 298.644531 C 84.945312 296.992188 83.167969 295.300781 81.433594 293.566406 C 79.699219 291.832031 78.007812 290.050781 76.355469 288.234375 C 74.707031 286.414062 73.105469 284.554688 71.546875 282.660156 C 69.992188 280.761719 68.480469 278.828125 67.019531 276.855469 C 65.554688 274.882812 64.144531 272.875 62.78125 270.835938 C 61.414062 268.792969 60.101562 266.722656 58.839844 264.617188 C 57.578125 262.511719 56.367188 260.375 55.210938 258.210938 C 54.054688 256.042969 52.953125 253.851562 51.902344 251.632812 C 50.851562 249.414062 49.859375 247.171875 48.917969 244.902344 C 47.980469 242.632812 47.09375 240.34375 46.269531 238.035156 C 45.441406 235.722656 44.671875 233.390625 43.957031 231.042969 C 43.246094 228.695312 42.589844 226.328125 41.996094 223.945312 C 41.398438 221.566406 40.859375 219.171875 40.382812 216.761719 C 39.902344 214.355469 39.484375 211.9375 39.125 209.507812 C 38.761719 207.082031 38.464844 204.644531 38.222656 202.203125 C 37.980469 199.757812 37.800781 197.3125 37.679688 194.859375 C 37.558594 192.410156 37.5 189.953125 37.5 187.5 C 37.5 185.046875 37.558594 182.589844 37.679688 180.140625 C 37.800781 177.6875 37.980469 175.242188 38.222656 172.796875 C 38.464844 170.355469 38.761719 167.917969 39.125 165.492188 C 39.484375 163.0625 39.902344 160.644531 40.382812 158.238281 C 40.859375 155.828125 41.398438 153.433594 41.996094 151.054688 C 42.589844 148.671875 43.246094 146.304688 43.957031 143.957031 C 44.671875 141.609375 45.441406 139.277344 46.269531 136.964844 C 47.09375 134.65625 47.980469 132.367188 48.917969 130.097656 C 49.859375 127.828125 50.851562 125.585938 51.902344 123.367188 C 52.953125 121.148438 54.054688 118.957031 55.210938 116.789062 C 56.367188 114.625 57.578125 112.488281 58.839844 110.382812 C 60.101562 108.277344 61.414062 106.207031 62.78125 104.164062 C 64.144531 102.125 65.554688 100.117188 67.019531 98.144531 C 68.480469 96.171875 69.992188 94.238281 71.546875 92.339844 C 73.105469 90.445312 74.707031 88.585938 76.355469 86.765625 C 78.007812 84.945312 79.699219 83.167969 81.433594 81.433594 C 83.167969 79.699219 84.945312 78.007812 86.765625 76.355469 C 88.585938 74.707031 90.445312 73.105469 92.339844 71.546875 C 94.238281 69.992188 96.171875 68.480469 98.144531 67.019531 C 100.117188 65.554688 102.125 64.144531 104.164062 62.78125 C 106.207031 61.414062 108.277344 60.101562 110.382812 58.839844 C 112.488281 57.578125 114.625 56.367188 116.789062 55.210938 C 118.957031 54.054688 121.148438 52.953125 123.367188 51.902344 C 125.585938 50.851562 127.828125 49.859375 130.097656 48.917969 C 132.367188 47.980469 134.65625 47.09375 136.964844 46.269531 C 139.277344 45.441406 141.609375 44.671875 143.957031 43.957031 C 146.304688 43.246094 148.671875 42.589844 151.054688 41.996094 C 153.433594 41.398438 155.828125 40.859375 158.238281 40.382812 C 160.644531 39.902344 163.0625 39.484375 165.492188 39.125 C 167.917969 38.761719 170.355469 38.464844 172.796875 38.222656 C 175.242188 37.980469 177.6875 37.800781 180.140625 37.679688 C 182.589844 37.558594 185.046875 37.5 187.5 37.5 C 189.953125 37.5 192.410156 37.558594 194.859375 37.679688 C 197.3125 37.800781 199.757812 37.980469 202.203125 38.222656 C 204.644531 38.464844 207.082031 38.761719 209.507812 39.125 C 211.9375 39.484375 214.355469 39.902344 216.761719 40.382812 C 219.171875 40.859375 221.566406 41.398438 223.945312 41.996094 C 226.328125 42.589844 228.695312 43.246094 231.042969 43.957031 C 233.390625 44.671875 235.722656 45.441406 238.035156 46.269531 C 240.34375 47.09375 242.632812 47.980469 244.902344 48.917969 C 247.171875 49.859375 249.414062 50.851562 251.632812 51.902344 C 253.851562 52.953125 256.042969 54.054688 258.210938 55.210938 C 260.375 56.367188 262.511719 57.578125 264.617188 58.839844 C 266.722656 60.101562 268.792969 61.414062 270.835938 62.78125 C 272.875 64.144531 274.882812 65.554688 276.855469 67.019531 C 278.828125 68.480469 280.761719 69.992188 282.660156 71.546875 C 284.554688 73.105469 286.414062 74.707031 288.234375 76.355469 C 290.054688 78.007812 291.832031 79.699219 293.566406 81.433594 C 295.300781 83.167969 296.992188 84.945312 298.644531 86.765625 C 300.292969 88.585938 301.894531 90.445312 303.453125 92.339844 C 305.007812 94.238281 306.519531 96.171875 307.980469 98.144531 C 309.445312 100.117188 310.855469 102.125 312.21875 104.164062 C 313.585938 106.207031 314.898438 108.277344 316.160156 110.382812 C 317.421875 112.488281 318.632812 114.625 319.789062 116.789062 C 320.945312 118.957031 322.046875 121.148438 323.097656 123.367188 C 324.148438 125.585938 325.140625 127.828125 326.082031 130.097656 C 327.019531 132.367188 327.90625 134.65625 328.730469 136.964844 C 329.558594 139.277344 330.328125 141.609375 331.039062 143.957031 C 331.753906 146.304688 332.40625 148.671875 333.003906 151.054688 C 333.601562 153.433594 334.140625 155.828125 334.617188 158.238281 C 335.097656 160.644531 335.515625 163.0625 335.875 165.492188 C 336.238281 167.917969 336.535156 170.355469 336.777344 172.796875 C 337.019531 175.242188 337.199219 177.6875 337.320312 180.140625 C 337.441406 182.589844 337.5 185.046875 337.5 187.5 Z M 337.5 187.5 " fill-opacity="1" fill-rule="nonzero"/></g><path fill="#fcef9e" d="M 314.464844 210.777344 L 316.332031 207.546875 C 317.207031 206.03125 317.980469 204.460938 318.652344 202.84375 C 319.320312 201.222656 319.882812 199.570312 320.335938 197.878906 C 320.789062 196.183594 321.132812 194.46875 321.359375 192.734375 C 321.589844 190.996094 321.703125 189.25 321.703125 187.5 C 321.703125 185.75 321.589844 184.003906 321.359375 182.265625 C 321.132812 180.53125 320.789062 178.816406 320.335938 177.125 C 319.882812 175.429688 319.320312 173.777344 318.652344 172.15625 C 317.980469 170.539062 317.207031 168.96875 316.332031 167.453125 L 314.464844 164.222656 C 312.707031 161.175781 311.371094 157.953125 310.460938 154.550781 C 309.550781 151.152344 309.09375 147.695312 309.09375 144.175781 L 309.09375 140.445312 C 309.09375 138.691406 308.980469 136.949219 308.753906 135.210938 C 308.523438 133.476562 308.183594 131.761719 307.730469 130.066406 C 307.277344 128.375 306.714844 126.71875 306.042969 125.101562 C 305.371094 123.484375 304.597656 121.914062 303.722656 120.398438 C 302.847656 118.882812 301.875 117.425781 300.808594 116.039062 C 299.742188 114.648438 298.589844 113.332031 297.351562 112.09375 C 296.113281 110.855469 294.796875 109.703125 293.410156 108.636719 C 292.019531 107.570312 290.566406 106.597656 289.046875 105.722656 L 285.816406 103.859375 C 282.769531 102.097656 280.003906 99.972656 277.515625 97.484375 C 275.027344 94.996094 272.902344 92.230469 271.140625 89.183594 L 269.277344 85.953125 C 268.402344 84.433594 267.429688 82.980469 266.363281 81.589844 C 265.296875 80.199219 264.144531 78.886719 262.90625 77.648438 C 261.667969 76.410156 260.351562 75.257812 258.960938 74.191406 C 257.574219 73.125 256.117188 72.152344 254.601562 71.277344 C 253.085938 70.402344 251.515625 69.628906 249.898438 68.957031 C 248.28125 68.285156 246.625 67.722656 244.933594 67.269531 C 243.238281 66.816406 241.523438 66.476562 239.789062 66.246094 C 238.050781 66.019531 236.308594 65.90625 234.554688 65.90625 L 230.824219 65.90625 C 227.304688 65.90625 223.847656 65.449219 220.445312 64.539062 C 217.046875 63.628906 213.824219 62.292969 210.777344 60.535156 L 207.546875 58.667969 C 206.03125 57.792969 204.460938 57.019531 202.84375 56.347656 C 201.222656 55.679688 199.570312 55.117188 197.875 54.664062 C 196.183594 54.210938 194.46875 53.867188 192.734375 53.640625 C 190.996094 53.410156 189.25 53.296875 187.5 53.296875 C 185.746094 53.296875 184.003906 53.410156 182.265625 53.640625 C 180.53125 53.867188 178.816406 54.210938 177.121094 54.664062 C 175.429688 55.117188 173.777344 55.679688 172.15625 56.347656 C 170.539062 57.019531 168.96875 57.792969 167.453125 58.667969 L 164.222656 60.535156 C 161.175781 62.292969 157.953125 63.628906 154.554688 64.539062 C 151.152344 65.449219 147.695312 65.90625 144.175781 65.90625 L 140.445312 65.90625 C 138.691406 65.90625 136.949219 66.019531 135.210938 66.246094 C 133.476562 66.476562 131.761719 66.816406 130.066406 67.269531 C 128.375 67.722656 126.71875 68.285156 125.101562 68.957031 C 123.484375 69.628906 121.914062 70.402344 120.398438 71.277344 C 118.882812 72.152344 117.425781 73.125 116.039062 74.191406 C 114.648438 75.257812 113.332031 76.410156 112.09375 77.648438 C 110.855469 78.886719 109.703125 80.203125 108.636719 81.589844 C 107.570312 82.980469 106.597656 84.433594 105.722656 85.953125 L 103.859375 89.183594 C 102.097656 92.230469 99.972656 94.996094 97.484375 97.484375 C 94.996094 99.972656 92.230469 102.097656 89.183594 103.859375 L 85.953125 105.722656 C 84.433594 106.597656 82.980469 107.570312 81.589844 108.636719 C 80.203125 109.703125 78.886719 110.855469 77.648438 112.09375 C 76.410156 113.332031 75.257812 114.648438 74.191406 116.039062 C 73.125 117.425781 72.152344 118.882812 71.277344 120.398438 C 70.402344 121.914062 69.628906 123.484375 68.957031 125.101562 C 68.285156 126.71875 67.722656 128.375 67.269531 130.066406 C 66.816406 131.761719 66.476562 133.476562 66.246094 135.210938 C 66.019531 136.949219 65.90625 138.691406 65.90625 140.445312 L 65.90625 144.175781 C 65.90625 147.695312 65.449219 151.152344 64.539062 154.550781 C 63.628906 157.953125 62.292969 161.175781 60.535156 164.222656 L 58.667969 167.453125 C 57.792969 168.96875 57.019531 170.539062 56.347656 172.15625 C 55.679688 173.777344 55.117188 175.429688 54.664062 177.125 C 54.210938 178.816406 53.867188 180.53125 53.640625 182.265625 C 53.410156 184.003906 53.296875 185.75 53.296875 187.5 C 53.296875 189.25 53.410156 190.996094 53.640625 192.734375 C 53.867188 194.46875 54.210938 196.183594 54.664062 197.878906 C 55.117188 199.570312 55.679688 201.222656 56.347656 202.84375 C 57.019531 204.460938 57.792969 206.03125 58.667969 207.546875 L 60.535156 210.777344 C 62.292969 213.824219 63.628906 217.046875 64.539062 220.449219 C 65.449219 223.847656 65.90625 227.304688 65.90625 230.824219 L 65.90625 234.554688 C 65.90625 236.308594 66.019531 238.050781 66.246094 239.789062 C 66.476562 241.523438 66.816406 243.238281 67.269531 244.933594 C 67.722656 246.625 68.285156 248.28125 68.957031 249.898438 C 69.628906 251.515625 70.402344 253.085938 71.277344 254.601562 C 72.152344 256.117188 73.125 257.574219 74.191406 258.960938 C 75.257812 260.351562 76.410156 261.667969 77.648438 262.90625 C 78.886719 264.144531 80.203125 265.296875 81.589844 266.363281 C 82.980469 267.429688 84.433594 268.402344 85.953125 269.277344 L 89.183594 271.140625 C 92.230469 272.902344 94.996094 275.027344 97.484375 277.515625 C 99.972656 280.003906 102.097656 282.769531 103.859375 285.816406 L 105.722656 289.046875 C 106.597656 290.566406 107.570312 292.019531 108.636719 293.410156 C 109.703125 294.796875 110.855469 296.113281 112.09375 297.351562 C 113.332031 298.589844 114.648438 299.742188 116.039062 300.808594 C 117.425781 301.875 118.882812 302.847656 120.398438 303.722656 C 121.914062 304.597656 123.484375 305.371094 125.101562 306.042969 C 126.71875 306.714844 128.375 307.277344 130.066406 307.730469 C 131.761719 308.183594 133.476562 308.523438 135.210938 308.753906 C 136.949219 308.980469 138.691406 309.09375 140.445312 309.09375 L 144.175781 309.09375 C 147.695312 309.09375 151.152344 309.550781 154.554688 310.460938 C 157.953125 311.371094 161.175781 312.707031 164.222656 314.464844 L 167.453125 316.332031 C 168.96875 317.207031 170.539062 317.980469 172.15625 318.652344 C 173.777344 319.320312 175.429688 319.882812 177.125 320.335938 C 178.816406 320.789062 180.53125 321.132812 182.265625 321.359375 C 184.003906 321.589844 185.75 321.703125 187.5 321.703125 C 189.25 321.703125 190.996094 321.589844 192.734375 321.359375 C 194.46875 321.132812 196.183594 320.789062 197.878906 320.335938 C 199.570312 319.882812 201.222656 319.320312 202.84375 318.652344 C 204.460938 317.980469 206.03125 317.207031 207.546875 316.332031 L 210.777344 314.464844 C 213.824219 312.707031 217.046875 311.371094 220.445312 310.460938 C 223.847656 309.550781 227.304688 309.09375 230.824219 309.09375 L 234.554688 309.09375 C 236.308594 309.09375 238.050781 308.980469 239.789062 308.753906 C 241.523438 308.523438 243.238281 308.183594 244.933594 307.730469 C 246.625 307.277344 248.28125 306.714844 249.898438 306.042969 C 251.515625 305.371094 253.085938 304.597656 254.601562 303.722656 C 256.117188 302.847656 257.574219 301.875 258.960938 300.808594 C 260.351562 299.742188 261.667969 298.589844 262.90625 297.351562 C 264.144531 296.113281 265.296875 294.800781 266.363281 293.410156 C 267.429688 292.019531 268.402344 290.566406 269.277344 289.046875 L 271.140625 285.816406 C 272.902344 282.769531 275.027344 280.003906 277.515625 277.515625 C 280.003906 275.027344 282.769531 272.902344 285.816406 271.140625 L 289.046875 269.277344 C 290.566406 268.402344 292.019531 267.429688 293.410156 266.363281 C 294.796875 265.296875 296.113281 264.144531 297.351562 262.90625 C 298.589844 261.667969 299.742188 260.351562 300.808594 258.960938 C 301.875 257.574219 302.847656 256.117188 303.722656 254.601562 C 304.597656 253.085938 305.371094 251.515625 306.042969 249.898438 C 306.714844 248.28125 307.277344 246.625 307.730469 244.933594 C 308.183594 243.238281 308.523438 241.523438 308.753906 239.789062 C 308.980469 238.050781 309.09375 236.308594 309.09375 234.554688 L 309.09375 230.824219 C 309.09375 227.304688 309.550781 223.847656 310.460938 220.449219 C 311.371094 217.046875 312.707031 213.824219 314.464844 210.777344 Z M 314.464844 210.777344 " fill-opacity="1" fill-rule="nonzero"/><path fill="#bd1d1d" d="M 136.902344 133.671875 C 136.902344 134.332031 136.871094 134.996094 136.804688 135.652344 C 136.738281 136.3125 136.644531 136.964844 136.515625 137.617188 C 136.382812 138.265625 136.222656 138.90625 136.03125 139.539062 C 135.839844 140.171875 135.617188 140.796875 135.363281 141.40625 C 135.109375 142.019531 134.828125 142.617188 134.515625 143.199219 C 134.203125 143.785156 133.863281 144.351562 133.496094 144.902344 C 133.128906 145.453125 132.734375 145.984375 132.3125 146.496094 C 131.894531 147.007812 131.449219 147.496094 130.980469 147.964844 C 130.511719 148.433594 130.023438 148.878906 129.511719 149.296875 C 129 149.71875 128.46875 150.113281 127.917969 150.480469 C 127.367188 150.847656 126.800781 151.1875 126.214844 151.5 C 125.632812 151.8125 125.035156 152.09375 124.421875 152.347656 C 123.8125 152.601562 123.1875 152.824219 122.554688 153.015625 C 121.921875 153.207031 121.28125 153.371094 120.632812 153.5 C 119.980469 153.628906 119.328125 153.722656 118.667969 153.789062 C 118.007812 153.855469 117.347656 153.886719 116.6875 153.886719 C 116.023438 153.886719 115.363281 153.855469 114.707031 153.789062 C 114.046875 153.722656 113.394531 153.628906 112.742188 153.5 C 112.09375 153.371094 111.453125 153.207031 110.820312 153.015625 C 110.183594 152.824219 109.5625 152.601562 108.953125 152.347656 C 108.339844 152.09375 107.742188 151.8125 107.15625 151.5 C 106.574219 151.1875 106.007812 150.847656 105.457031 150.480469 C 104.90625 150.113281 104.375 149.71875 103.863281 149.296875 C 103.351562 148.878906 102.859375 148.433594 102.394531 147.964844 C 101.925781 147.496094 101.480469 147.007812 101.0625 146.496094 C 100.640625 145.984375 100.246094 145.453125 99.878906 144.902344 C 99.511719 144.351562 99.171875 143.785156 98.859375 143.199219 C 98.546875 142.617188 98.265625 142.019531 98.011719 141.40625 C 97.757812 140.796875 97.535156 140.171875 97.34375 139.539062 C 97.152344 138.90625 96.988281 138.265625 96.859375 137.617188 C 96.730469 136.964844 96.632812 136.3125 96.570312 135.652344 C 96.503906 134.996094 96.472656 134.332031 96.472656 133.671875 C 96.472656 133.007812 96.503906 132.347656 96.570312 131.691406 C 96.632812 131.03125 96.730469 130.378906 96.859375 129.726562 C 96.988281 129.078125 97.152344 128.4375 97.34375 127.804688 C 97.535156 127.171875 97.757812 126.546875 98.011719 125.9375 C 98.265625 125.324219 98.546875 124.726562 98.859375 124.140625 C 99.171875 123.558594 99.511719 122.992188 99.878906 122.441406 C 100.246094 121.890625 100.640625 121.359375 101.0625 120.847656 C 101.480469 120.335938 101.925781 119.847656 102.394531 119.378906 C 102.859375 118.910156 103.351562 118.464844 103.863281 118.046875 C 104.375 117.625 104.90625 117.230469 105.457031 116.863281 C 106.007812 116.496094 106.574219 116.15625 107.15625 115.84375 C 107.742188 115.53125 108.339844 115.25 108.953125 114.996094 C 109.5625 114.742188 110.183594 114.519531 110.820312 114.328125 C 111.453125 114.136719 112.09375 113.972656 112.742188 113.84375 C 113.394531 113.714844 114.046875 113.617188 114.707031 113.554688 C 115.363281 113.488281 116.023438 113.457031 116.6875 113.457031 C 117.347656 113.457031 118.007812 113.488281 118.667969 113.554688 C 119.328125 113.617188 119.980469 113.714844 120.632812 113.84375 C 121.28125 113.972656 121.921875 114.136719 122.554688 114.328125 C 123.1875 114.519531 123.8125 114.742188 124.421875 114.996094 C 125.035156 115.25 125.632812 115.53125 126.214844 115.84375 C 126.800781 116.15625 127.367188 116.496094 127.917969 116.863281 C 128.46875 117.230469 129 117.625 129.511719 118.046875 C 130.023438 118.464844 130.511719 118.910156 130.980469 119.378906 C 131.449219 119.847656 131.894531 120.335938 132.3125 120.847656 C 132.734375 121.359375 133.128906 121.890625 133.496094 122.441406 C 133.863281 122.992188 134.203125 123.558594 134.515625 124.140625 C 134.828125 124.726562 135.109375 125.324219 135.363281 125.9375 C 135.617188 126.546875 135.839844 127.171875 136.03125 127.804688 C 136.222656 128.4375 136.382812 129.078125 136.515625 129.726562 C 136.644531 130.378906 136.738281 131.03125 136.804688 131.691406 C 136.871094 132.347656 136.902344 133.007812 136.902344 133.671875 Z M 185.148438 82.035156 C 184.535156 82.035156 183.925781 82.066406 183.316406 82.125 C 182.703125 82.1875 182.097656 82.277344 181.496094 82.394531 C 180.894531 82.515625 180.300781 82.664062 179.714844 82.84375 C 179.128906 83.019531 178.550781 83.226562 177.984375 83.460938 C 177.417969 83.695312 176.863281 83.957031 176.324219 84.246094 C 175.785156 84.535156 175.257812 84.851562 174.75 85.191406 C 174.238281 85.53125 173.746094 85.898438 173.273438 86.285156 C 172.796875 86.675781 172.34375 87.085938 171.910156 87.519531 C 171.476562 87.953125 171.066406 88.40625 170.675781 88.882812 C 170.289062 89.355469 169.921875 89.847656 169.582031 90.355469 C 169.242188 90.867188 168.925781 91.390625 168.636719 91.933594 C 168.347656 92.472656 168.085938 93.027344 167.851562 93.59375 C 167.617188 94.160156 167.410156 94.738281 167.234375 95.324219 C 167.054688 95.910156 166.90625 96.503906 166.785156 97.105469 C 166.667969 97.707031 166.578125 98.3125 166.515625 98.921875 C 166.457031 99.535156 166.425781 100.144531 166.425781 100.757812 C 166.425781 101.371094 166.457031 101.984375 166.515625 102.59375 C 166.578125 103.203125 166.667969 103.808594 166.785156 104.410156 C 166.90625 105.011719 167.054688 105.605469 167.234375 106.195312 C 167.410156 106.78125 167.617188 107.355469 167.851562 107.925781 C 168.085938 108.492188 168.347656 109.042969 168.636719 109.585938 C 168.925781 110.125 169.242188 110.652344 169.582031 111.160156 C 169.921875 111.671875 170.289062 112.164062 170.675781 112.636719 C 171.066406 113.109375 171.476562 113.5625 171.910156 113.996094 C 172.34375 114.429688 172.796875 114.84375 173.273438 115.230469 C 173.746094 115.621094 174.238281 115.984375 174.75 116.328125 C 175.257812 116.667969 175.785156 116.980469 176.324219 117.269531 C 176.863281 117.558594 177.417969 117.820312 177.984375 118.054688 C 178.550781 118.292969 179.128906 118.496094 179.714844 118.675781 C 180.300781 118.855469 180.894531 119.003906 181.496094 119.121094 C 182.097656 119.242188 182.703125 119.332031 183.316406 119.390625 C 183.925781 119.453125 184.535156 119.480469 185.148438 119.480469 C 185.761719 119.480469 186.375 119.453125 186.984375 119.390625 C 187.59375 119.332031 188.203125 119.242188 188.800781 119.121094 C 189.402344 119.003906 190 118.855469 190.585938 118.675781 C 191.171875 118.496094 191.75 118.292969 192.316406 118.054688 C 192.882812 117.820312 193.433594 117.558594 193.976562 117.269531 C 194.515625 116.980469 195.042969 116.667969 195.550781 116.328125 C 196.0625 115.984375 196.554688 115.621094 197.027344 115.230469 C 197.5 114.84375 197.957031 114.429688 198.390625 113.996094 C 198.824219 113.5625 199.234375 113.109375 199.621094 112.636719 C 200.011719 112.164062 200.375 111.671875 200.71875 111.160156 C 201.058594 110.652344 201.375 110.125 201.664062 109.585938 C 201.953125 109.042969 202.214844 108.492188 202.449219 107.925781 C 202.683594 107.355469 202.890625 106.78125 203.066406 106.195312 C 203.246094 105.605469 203.394531 105.011719 203.511719 104.410156 C 203.632812 103.808594 203.722656 103.203125 203.78125 102.59375 C 203.84375 101.984375 203.871094 101.371094 203.871094 100.757812 C 203.871094 100.144531 203.84375 99.535156 203.78125 98.921875 C 203.722656 98.3125 203.632812 97.707031 203.511719 97.105469 C 203.394531 96.503906 203.246094 95.910156 203.066406 95.324219 C 202.890625 94.738281 202.683594 94.160156 202.449219 93.59375 C 202.214844 93.027344 201.953125 92.472656 201.664062 91.933594 C 201.375 91.390625 201.058594 90.867188 200.71875 90.355469 C 200.375 89.847656 200.011719 89.355469 199.621094 88.882812 C 199.234375 88.40625 198.824219 87.953125 198.390625 87.519531 C 197.957031 87.085938 197.5 86.675781 197.027344 86.285156 C 196.554688 85.898438 196.0625 85.53125 195.550781 85.191406 C 195.042969 84.851562 194.515625 84.535156 193.976562 84.246094 C 193.433594 83.957031 192.882812 83.695312 192.316406 83.460938 C 191.75 83.226562 191.171875 83.019531 190.585938 82.84375 C 190 82.664062 189.402344 82.515625 188.800781 82.394531 C 188.203125 82.277344 187.59375 82.1875 186.984375 82.125 C 186.375 82.066406 185.761719 82.035156 185.148438 82.035156 Z M 257.855469 109.539062 C 257.242188 109.539062 256.628906 109.566406 256.019531 109.628906 C 255.40625 109.6875 254.800781 109.777344 254.199219 109.898438 C 253.597656 110.019531 253.003906 110.167969 252.417969 110.34375 C 251.828125 110.523438 251.253906 110.730469 250.683594 110.964844 C 250.117188 111.199219 249.5625 111.460938 249.023438 111.75 C 248.480469 112.039062 247.957031 112.355469 247.445312 112.695312 C 246.9375 113.035156 246.445312 113.402344 245.96875 113.789062 C 245.496094 114.179688 245.039062 114.589844 244.605469 115.027344 C 244.171875 115.460938 243.761719 115.914062 243.371094 116.386719 C 242.984375 116.863281 242.617188 117.355469 242.277344 117.863281 C 241.9375 118.375 241.621094 118.902344 241.332031 119.441406 C 241.042969 119.984375 240.78125 120.535156 240.546875 121.105469 C 240.308594 121.671875 240.105469 122.246094 239.925781 122.835938 C 239.746094 123.421875 239.597656 124.015625 239.480469 124.617188 C 239.359375 125.21875 239.269531 125.828125 239.210938 126.4375 C 239.148438 127.046875 239.117188 127.660156 239.117188 128.273438 C 239.117188 128.886719 239.148438 129.5 239.210938 130.109375 C 239.269531 130.722656 239.359375 131.328125 239.480469 131.929688 C 239.597656 132.53125 239.746094 133.125 239.925781 133.710938 C 240.105469 134.300781 240.308594 134.878906 240.546875 135.445312 C 240.78125 136.011719 241.042969 136.566406 241.332031 137.105469 C 241.621094 137.648438 241.9375 138.171875 242.277344 138.683594 C 242.617188 139.191406 242.984375 139.6875 243.371094 140.160156 C 243.761719 140.632812 244.171875 141.089844 244.605469 141.523438 C 245.039062 141.957031 245.496094 142.367188 245.96875 142.757812 C 246.445312 143.144531 246.9375 143.511719 247.445312 143.851562 C 247.957031 144.191406 248.480469 144.507812 249.023438 144.796875 C 249.5625 145.085938 250.117188 145.347656 250.683594 145.582031 C 251.253906 145.820312 251.828125 146.023438 252.417969 146.203125 C 253.003906 146.382812 253.597656 146.53125 254.199219 146.648438 C 254.800781 146.769531 255.40625 146.859375 256.019531 146.917969 C 256.628906 146.980469 257.242188 147.011719 257.855469 147.011719 C 258.46875 147.011719 259.082031 146.980469 259.691406 146.917969 C 260.300781 146.859375 260.910156 146.769531 261.511719 146.648438 C 262.113281 146.53125 262.707031 146.382812 263.292969 146.203125 C 263.882812 146.023438 264.457031 145.820312 265.023438 145.582031 C 265.59375 145.347656 266.144531 145.085938 266.6875 144.796875 C 267.226562 144.507812 267.753906 144.191406 268.265625 143.851562 C 268.773438 143.511719 269.265625 143.144531 269.742188 142.757812 C 270.214844 142.367188 270.667969 141.957031 271.105469 141.523438 C 271.539062 141.089844 271.949219 140.632812 272.339844 140.160156 C 272.726562 139.6875 273.09375 139.191406 273.433594 138.683594 C 273.773438 138.171875 274.089844 137.648438 274.378906 137.105469 C 274.667969 136.566406 274.929688 136.011719 275.164062 135.445312 C 275.398438 134.878906 275.605469 134.300781 275.785156 133.710938 C 275.960938 133.125 276.113281 132.53125 276.230469 131.929688 C 276.351562 131.328125 276.441406 130.722656 276.5 130.109375 C 276.5625 129.5 276.589844 128.886719 276.589844 128.273438 C 276.589844 127.660156 276.5625 127.046875 276.5 126.4375 C 276.441406 125.828125 276.351562 125.21875 276.230469 124.617188 C 276.113281 124.015625 275.960938 123.421875 275.785156 122.835938 C 275.605469 122.246094 275.398438 121.671875 275.164062 121.105469 C 274.929688 120.535156 274.667969 119.984375 274.378906 119.441406 C 274.089844 118.902344 273.773438 118.375 273.433594 117.863281 C 273.09375 117.355469 272.726562 116.863281 272.339844 116.386719 C 271.949219 115.914062 271.539062 115.460938 271.105469 115.027344 C 270.667969 114.589844 270.214844 114.179688 269.742188 113.789062 C 269.265625 113.402344 268.773438 113.035156 268.265625 112.695312 C 267.753906 112.355469 267.226562 112.039062 266.6875 111.75 C 266.144531 111.460938 265.59375 111.199219 265.023438 110.964844 C 264.457031 110.730469 263.882812 110.523438 263.292969 110.34375 C 262.707031 110.167969 262.113281 110.019531 261.511719 109.898438 C 260.910156 109.777344 260.300781 109.6875 259.691406 109.628906 C 259.082031 109.566406 258.46875 109.539062 257.855469 109.539062 Z M 270.804688 185.699219 C 270.136719 185.699219 269.464844 185.734375 268.800781 185.800781 C 268.132812 185.863281 267.46875 185.964844 266.8125 186.09375 C 266.152344 186.226562 265.503906 186.386719 264.863281 186.582031 C 264.21875 186.777344 263.589844 187.003906 262.96875 187.257812 C 262.351562 187.515625 261.746094 187.800781 261.152344 188.117188 C 260.5625 188.433594 259.988281 188.777344 259.429688 189.152344 C 258.871094 189.523438 258.332031 189.921875 257.816406 190.347656 C 257.296875 190.773438 256.800781 191.222656 256.324219 191.699219 C 255.851562 192.171875 255.402344 192.667969 254.976562 193.1875 C 254.550781 193.707031 254.152344 194.242188 253.78125 194.800781 C 253.40625 195.359375 253.0625 195.933594 252.746094 196.523438 C 252.429688 197.117188 252.144531 197.722656 251.886719 198.34375 C 251.628906 198.960938 251.40625 199.59375 251.210938 200.234375 C 251.015625 200.875 250.851562 201.527344 250.722656 202.183594 C 250.589844 202.839844 250.492188 203.503906 250.425781 204.171875 C 250.359375 204.839844 250.328125 205.507812 250.328125 206.179688 C 250.328125 206.847656 250.359375 207.519531 250.425781 208.1875 C 250.492188 208.851562 250.589844 209.515625 250.722656 210.171875 C 250.851562 210.832031 251.015625 211.480469 251.210938 212.125 C 251.40625 212.765625 251.628906 213.394531 251.886719 214.015625 C 252.144531 214.636719 252.429688 215.242188 252.746094 215.832031 C 253.0625 216.421875 253.40625 216.996094 253.78125 217.554688 C 254.152344 218.113281 254.550781 218.652344 254.976562 219.167969 C 255.402344 219.6875 255.851562 220.183594 256.324219 220.660156 C 256.800781 221.132812 257.296875 221.582031 257.816406 222.007812 C 258.332031 222.433594 258.871094 222.832031 259.429688 223.207031 C 259.988281 223.578125 260.5625 223.921875 261.152344 224.238281 C 261.746094 224.554688 262.351562 224.839844 262.96875 225.097656 C 263.589844 225.355469 264.21875 225.582031 264.863281 225.773438 C 265.503906 225.96875 266.152344 226.132812 266.8125 226.261719 C 267.46875 226.394531 268.132812 226.492188 268.800781 226.558594 C 269.464844 226.625 270.136719 226.65625 270.804688 226.65625 C 271.476562 226.65625 272.144531 226.625 272.8125 226.558594 C 273.480469 226.492188 274.144531 226.394531 274.800781 226.261719 C 275.460938 226.132812 276.109375 225.96875 276.75 225.773438 C 277.390625 225.582031 278.023438 225.355469 278.644531 225.097656 C 279.261719 224.839844 279.867188 224.554688 280.460938 224.238281 C 281.050781 223.921875 281.625 223.578125 282.183594 223.207031 C 282.742188 222.832031 283.277344 222.433594 283.796875 222.007812 C 284.316406 221.582031 284.8125 221.132812 285.285156 220.660156 C 285.761719 220.183594 286.210938 219.6875 286.636719 219.167969 C 287.0625 218.652344 287.460938 218.113281 287.832031 217.554688 C 288.207031 216.996094 288.550781 216.421875 288.867188 215.832031 C 289.183594 215.242188 289.46875 214.636719 289.726562 214.015625 C 289.980469 213.394531 290.207031 212.765625 290.402344 212.121094 C 290.597656 211.480469 290.761719 210.832031 290.890625 210.171875 C 291.023438 209.515625 291.121094 208.851562 291.1875 208.1875 C 291.25 207.519531 291.285156 206.847656 291.285156 206.179688 C 291.285156 205.507812 291.25 204.839844 291.1875 204.171875 C 291.121094 203.503906 291.023438 202.839844 290.890625 202.183594 C 290.761719 201.527344 290.597656 200.875 290.402344 200.234375 C 290.207031 199.59375 289.980469 198.960938 289.726562 198.34375 C 289.46875 197.722656 289.183594 197.117188 288.867188 196.523438 C 288.550781 195.933594 288.207031 195.359375 287.832031 194.800781 C 287.460938 194.242188 287.0625 193.707031 286.636719 193.1875 C 286.210938 192.667969 285.761719 192.171875 285.285156 191.699219 C 284.8125 191.222656 284.316406 190.773438 283.796875 190.347656 C 283.277344 189.921875 282.742188 189.523438 282.183594 189.152344 C 281.625 188.777344 281.050781 188.433594 280.460938 188.117188 C 279.867188 187.800781 279.261719 187.515625 278.644531 187.257812 C 278.023438 187.003906 277.390625 186.777344 276.75 186.582031 C 276.109375 186.386719 275.460938 186.226562 274.800781 186.09375 C 274.144531 185.964844 273.480469 185.863281 272.8125 185.800781 C 272.144531 185.734375 271.476562 185.699219 270.804688 185.699219 Z M 209.382812 146.539062 C 208.820312 146.539062 208.257812 146.566406 207.695312 146.621094 C 207.136719 146.675781 206.578125 146.757812 206.023438 146.871094 C 205.472656 146.980469 204.925781 147.117188 204.386719 147.28125 C 203.847656 147.445312 203.316406 147.632812 202.792969 147.851562 C 202.273438 148.066406 201.765625 148.304688 201.265625 148.570312 C 200.769531 148.839844 200.285156 149.128906 199.816406 149.441406 C 199.347656 149.753906 198.894531 150.089844 198.460938 150.449219 C 198.023438 150.804688 197.605469 151.183594 197.207031 151.582031 C 196.808594 151.980469 196.429688 152.398438 196.074219 152.835938 C 195.714844 153.269531 195.378906 153.722656 195.066406 154.191406 C 194.753906 154.660156 194.464844 155.144531 194.195312 155.640625 C 193.929688 156.140625 193.691406 156.648438 193.476562 157.167969 C 193.257812 157.691406 193.070312 158.222656 192.90625 158.761719 C 192.742188 159.300781 192.605469 159.847656 192.496094 160.398438 C 192.382812 160.953125 192.300781 161.511719 192.246094 162.070312 C 192.191406 162.632812 192.164062 163.195312 192.164062 163.757812 C 192.164062 164.324219 192.191406 164.886719 192.246094 165.449219 C 192.300781 166.007812 192.382812 166.566406 192.496094 167.121094 C 192.605469 167.671875 192.742188 168.21875 192.90625 168.757812 C 193.070312 169.296875 193.257812 169.828125 193.476562 170.351562 C 193.691406 170.871094 193.929688 171.378906 194.195312 171.878906 C 194.464844 172.375 194.753906 172.859375 195.066406 173.328125 C 195.378906 173.796875 195.714844 174.25 196.074219 174.683594 C 196.429688 175.121094 196.808594 175.539062 197.207031 175.9375 C 197.605469 176.335938 198.023438 176.714844 198.460938 177.070312 C 198.894531 177.429688 199.347656 177.765625 199.816406 178.078125 C 200.285156 178.390625 200.769531 178.679688 201.265625 178.945312 C 201.765625 179.210938 202.273438 179.453125 202.792969 179.667969 C 203.316406 179.886719 203.847656 180.074219 204.386719 180.238281 C 204.925781 180.402344 205.472656 180.539062 206.023438 180.648438 C 206.578125 180.757812 207.136719 180.84375 207.695312 180.898438 C 208.257812 180.953125 208.820312 180.980469 209.382812 180.980469 C 209.949219 180.980469 210.511719 180.953125 211.074219 180.898438 C 211.632812 180.84375 212.191406 180.757812 212.746094 180.648438 C 213.296875 180.539062 213.84375 180.402344 214.382812 180.238281 C 214.921875 180.074219 215.453125 179.886719 215.976562 179.667969 C 216.496094 179.453125 217.003906 179.210938 217.503906 178.945312 C 218 178.679688 218.484375 178.390625 218.953125 178.078125 C 219.421875 177.765625 219.875 177.429688 220.308594 177.070312 C 220.746094 176.714844 221.164062 176.335938 221.5625 175.9375 C 221.960938 175.539062 222.339844 175.121094 222.695312 174.683594 C 223.054688 174.25 223.390625 173.796875 223.703125 173.328125 C 224.015625 172.859375 224.304688 172.375 224.570312 171.878906 C 224.835938 171.378906 225.078125 170.871094 225.292969 170.351562 C 225.511719 169.828125 225.699219 169.296875 225.863281 168.757812 C 226.027344 168.21875 226.164062 167.671875 226.273438 167.121094 C 226.382812 166.566406 226.46875 166.007812 226.523438 165.449219 C 226.578125 164.886719 226.605469 164.324219 226.605469 163.757812 C 226.605469 163.195312 226.578125 162.632812 226.523438 162.070312 C 226.46875 161.511719 226.382812 160.953125 226.273438 160.398438 C 226.164062 159.847656 226.027344 159.300781 225.863281 158.761719 C 225.699219 158.222656 225.511719 157.691406 225.292969 157.167969 C 225.078125 156.648438 224.835938 156.140625 224.570312 155.640625 C 224.304688 155.144531 224.015625 154.660156 223.703125 154.191406 C 223.390625 153.722656 223.054688 153.269531 222.695312 152.835938 C 222.339844 152.398438 221.960938 151.980469 221.5625 151.582031 C 221.164062 151.183594 220.746094 150.804688 220.308594 150.449219 C 219.875 150.089844 219.421875 149.753906 218.953125 149.441406 C 218.484375 149.128906 218 148.839844 217.503906 148.570312 C 217.003906 148.304688 216.496094 148.066406 215.976562 147.851562 C 215.453125 147.632812 214.921875 147.445312 214.382812 147.28125 C 213.84375 147.117188 213.296875 146.980469 212.746094 146.871094 C 212.191406 146.757812 211.632812 146.675781 211.074219 146.621094 C 210.511719 146.566406 209.949219 146.539062 209.382812 146.539062 Z M 159.0625 154.847656 C 158.371094 154.847656 157.679688 154.882812 156.992188 154.949219 C 156.300781 155.015625 155.617188 155.117188 154.941406 155.253906 C 154.261719 155.386719 153.589844 155.554688 152.929688 155.757812 C 152.265625 155.957031 151.613281 156.191406 150.976562 156.457031 C 150.335938 156.71875 149.710938 157.015625 149.101562 157.34375 C 148.492188 157.667969 147.898438 158.023438 147.324219 158.410156 C 146.746094 158.792969 146.191406 159.203125 145.65625 159.644531 C 145.121094 160.082031 144.609375 160.546875 144.121094 161.035156 C 143.628906 161.527344 143.167969 162.039062 142.726562 162.574219 C 142.289062 163.109375 141.875 163.664062 141.492188 164.238281 C 141.109375 164.8125 140.753906 165.40625 140.425781 166.015625 C 140.101562 166.628906 139.804688 167.253906 139.539062 167.890625 C 139.273438 168.53125 139.042969 169.183594 138.839844 169.84375 C 138.640625 170.507812 138.472656 171.175781 138.335938 171.855469 C 138.203125 172.535156 138.101562 173.21875 138.03125 173.90625 C 137.964844 174.597656 137.929688 175.285156 137.929688 175.980469 C 137.929688 176.671875 137.964844 177.359375 138.03125 178.050781 C 138.101562 178.738281 138.203125 179.421875 138.335938 180.101562 C 138.472656 180.78125 138.640625 181.449219 138.839844 182.113281 C 139.042969 182.773438 139.273438 183.425781 139.539062 184.066406 C 139.804688 184.703125 140.101562 185.328125 140.425781 185.941406 C 140.753906 186.550781 141.109375 187.144531 141.492188 187.71875 C 141.875 188.292969 142.289062 188.851562 142.726562 189.382812 C 143.167969 189.917969 143.628906 190.433594 144.121094 190.921875 C 144.609375 191.410156 145.121094 191.875 145.65625 192.3125 C 146.191406 192.753906 146.746094 193.164062 147.324219 193.550781 C 147.898438 193.933594 148.492188 194.289062 149.101562 194.617188 C 149.710938 194.941406 150.335938 195.238281 150.976562 195.503906 C 151.613281 195.765625 152.265625 196 152.929688 196.199219 C 153.589844 196.402344 154.261719 196.570312 154.941406 196.703125 C 155.617188 196.839844 156.300781 196.941406 156.992188 197.007812 C 157.679688 197.078125 158.371094 197.109375 159.0625 197.109375 C 159.753906 197.109375 160.445312 197.078125 161.132812 197.007812 C 161.824219 196.941406 162.507812 196.839844 163.183594 196.703125 C 163.863281 196.570312 164.535156 196.402344 165.195312 196.199219 C 165.859375 196 166.511719 195.765625 167.148438 195.503906 C 167.789062 195.238281 168.414062 194.941406 169.023438 194.617188 C 169.632812 194.289062 170.226562 193.933594 170.800781 193.550781 C 171.378906 193.164062 171.933594 192.753906 172.46875 192.3125 C 173.003906 191.875 173.515625 191.410156 174.003906 190.921875 C 174.496094 190.433594 174.957031 189.917969 175.398438 189.382812 C 175.835938 188.851562 176.25 188.292969 176.632812 187.71875 C 177.015625 187.144531 177.371094 186.550781 177.699219 185.941406 C 178.023438 185.328125 178.320312 184.703125 178.585938 184.066406 C 178.851562 183.425781 179.082031 182.773438 179.285156 182.113281 C 179.484375 181.449219 179.652344 180.78125 179.789062 180.101562 C 179.921875 179.421875 180.023438 178.738281 180.09375 178.050781 C 180.160156 177.359375 180.195312 176.671875 180.195312 175.980469 C 180.195312 175.285156 180.160156 174.597656 180.09375 173.90625 C 180.023438 173.21875 179.921875 172.535156 179.789062 171.855469 C 179.652344 171.175781 179.484375 170.507812 179.285156 169.84375 C 179.082031 169.183594 178.851562 168.53125 178.585938 167.890625 C 178.320312 167.253906 178.023438 166.628906 177.699219 166.015625 C 177.371094 165.40625 177.015625 164.8125 176.632812 164.238281 C 176.25 163.664062 175.835938 163.109375 175.398438 162.574219 C 174.957031 162.039062 174.496094 161.527344 174.003906 161.035156 C 173.515625 160.546875 173.003906 160.082031 172.46875 159.644531 C 171.933594 159.203125 171.378906 158.792969 170.800781 158.410156 C 170.226562 158.023438 169.632812 157.667969 169.023438 157.34375 C 168.414062 157.015625 167.789062 156.71875 167.148438 156.457031 C 166.511719 156.191406 165.859375 155.957031 165.195312 155.757812 C 164.535156 155.554688 163.863281 155.386719 163.183594 155.253906 C 162.507812 155.117188 161.824219 155.015625 161.132812 154.949219 C 160.445312 154.882812 159.753906 154.847656 159.0625 154.847656 Z M 102.324219 173.777344 C 101.703125 173.777344 101.082031 173.808594 100.460938 173.867188 C 99.839844 173.929688 99.226562 174.019531 98.617188 174.140625 C 98.003906 174.265625 97.402344 174.414062 96.804688 174.597656 C 96.210938 174.777344 95.625 174.984375 95.050781 175.222656 C 94.472656 175.460938 93.910156 175.726562 93.363281 176.023438 C 92.8125 176.316406 92.28125 176.636719 91.761719 176.980469 C 91.246094 177.328125 90.746094 177.699219 90.261719 178.09375 C 89.78125 178.488281 89.320312 178.90625 88.882812 179.34375 C 88.441406 179.785156 88.023438 180.246094 87.628906 180.726562 C 87.234375 181.210938 86.863281 181.707031 86.515625 182.226562 C 86.171875 182.746094 85.851562 183.277344 85.558594 183.828125 C 85.265625 184.375 84.996094 184.9375 84.757812 185.511719 C 84.519531 186.089844 84.3125 186.675781 84.132812 187.269531 C 83.949219 187.867188 83.800781 188.46875 83.675781 189.078125 C 83.554688 189.691406 83.464844 190.304688 83.402344 190.925781 C 83.34375 191.546875 83.3125 192.167969 83.3125 192.789062 C 83.3125 193.410156 83.34375 194.03125 83.402344 194.652344 C 83.464844 195.273438 83.554688 195.886719 83.675781 196.5 C 83.800781 197.109375 83.949219 197.710938 84.132812 198.308594 C 84.3125 198.902344 84.519531 199.488281 84.757812 200.066406 C 84.996094 200.640625 85.265625 201.203125 85.558594 201.75 C 85.851562 202.300781 86.171875 202.832031 86.515625 203.351562 C 86.863281 203.871094 87.234375 204.367188 87.628906 204.851562 C 88.023438 205.332031 88.441406 205.792969 88.882812 206.234375 C 89.320312 206.671875 89.78125 207.089844 90.261719 207.484375 C 90.746094 207.878906 91.246094 208.25 91.761719 208.597656 C 92.28125 208.941406 92.8125 209.261719 93.363281 209.554688 C 93.910156 209.851562 94.472656 210.117188 95.050781 210.355469 C 95.625 210.59375 96.210938 210.800781 96.804688 210.984375 C 97.402344 211.164062 98.003906 211.3125 98.617188 211.4375 C 99.226562 211.558594 99.839844 211.648438 100.460938 211.710938 C 101.082031 211.769531 101.703125 211.800781 102.324219 211.800781 C 102.945312 211.800781 103.566406 211.769531 104.1875 211.710938 C 104.808594 211.648438 105.421875 211.558594 106.035156 211.4375 C 106.644531 211.3125 107.246094 211.164062 107.84375 210.984375 C 108.4375 210.800781 109.023438 210.59375 109.601562 210.355469 C 110.175781 210.117188 110.738281 209.851562 111.285156 209.554688 C 111.835938 209.261719 112.371094 208.941406 112.886719 208.597656 C 113.40625 208.25 113.902344 207.878906 114.386719 207.484375 C 114.867188 207.089844 115.328125 206.671875 115.769531 206.234375 C 116.207031 205.792969 116.625 205.332031 117.019531 204.851562 C 117.414062 204.367188 117.785156 203.871094 118.132812 203.351562 C 118.476562 202.832031 118.796875 202.300781 119.089844 201.75 C 119.386719 201.203125 119.652344 200.640625 119.890625 200.066406 C 120.128906 199.488281 120.335938 198.902344 120.519531 198.308594 C 120.699219 197.710938 120.851562 197.109375 120.972656 196.5 C 121.09375 195.886719 121.183594 195.273438 121.246094 194.652344 C 121.304688 194.03125 121.335938 193.410156 121.335938 192.789062 C 121.335938 192.167969 121.304688 191.546875 121.246094 190.925781 C 121.183594 190.304688 121.09375 189.691406 120.972656 189.078125 C 120.851562 188.46875 120.699219 187.867188 120.519531 187.269531 C 120.335938 186.675781 120.128906 186.089844 119.890625 185.511719 C 119.652344 184.9375 119.386719 184.375 119.089844 183.828125 C 118.796875 183.277344 118.476562 182.746094 118.132812 182.226562 C 117.785156 181.707031 117.414062 181.210938 117.019531 180.726562 C 116.625 180.246094 116.207031 179.785156 115.769531 179.34375 C 115.328125 178.90625 114.867188 178.488281 114.386719 178.09375 C 113.902344 177.699219 113.40625 177.328125 112.886719 176.980469 C 112.371094 176.636719 111.835938 176.316406 111.285156 176.023438 C 110.738281 175.726562 110.175781 175.460938 109.601562 175.222656 C 109.023438 174.984375 108.4375 174.777344 107.84375 174.597656 C 107.246094 174.414062 106.644531 174.265625 106.035156 174.140625 C 105.421875 174.019531 104.808594 173.929688 104.1875 173.867188 C 103.566406 173.808594 102.945312 173.777344 102.324219 173.777344 Z M 188.480469 210.5 C 187.875 210.5 187.269531 210.527344 186.667969 210.589844 C 186.066406 210.648438 185.464844 210.738281 184.871094 210.855469 C 184.277344 210.972656 183.691406 211.121094 183.113281 211.296875 C 182.53125 211.472656 181.964844 211.675781 181.402344 211.90625 C 180.84375 212.140625 180.296875 212.398438 179.761719 212.683594 C 179.230469 212.96875 178.710938 213.28125 178.207031 213.617188 C 177.703125 213.953125 177.21875 214.3125 176.75 214.695312 C 176.28125 215.082031 175.832031 215.488281 175.402344 215.914062 C 174.976562 216.34375 174.570312 216.792969 174.183594 217.261719 C 173.800781 217.730469 173.441406 218.214844 173.105469 218.71875 C 172.769531 219.222656 172.457031 219.742188 172.171875 220.273438 C 171.886719 220.808594 171.628906 221.355469 171.394531 221.914062 C 171.164062 222.476562 170.960938 223.042969 170.785156 223.625 C 170.609375 224.203125 170.460938 224.789062 170.34375 225.382812 C 170.226562 225.976562 170.136719 226.578125 170.078125 227.179688 C 170.015625 227.78125 169.988281 228.386719 169.988281 228.992188 C 169.988281 229.597656 170.015625 230.203125 170.078125 230.804688 C 170.136719 231.40625 170.226562 232.007812 170.34375 232.601562 C 170.460938 233.195312 170.609375 233.78125 170.785156 234.359375 C 170.960938 234.941406 171.164062 235.507812 171.394531 236.070312 C 171.628906 236.628906 171.886719 237.175781 172.171875 237.710938 C 172.457031 238.242188 172.769531 238.761719 173.105469 239.265625 C 173.441406 239.769531 173.800781 240.253906 174.183594 240.722656 C 174.570312 241.191406 174.976562 241.640625 175.402344 242.070312 C 175.832031 242.496094 176.28125 242.902344 176.75 243.289062 C 177.21875 243.671875 177.703125 244.03125 178.207031 244.367188 C 178.710938 244.703125 179.230469 245.015625 179.761719 245.300781 C 180.296875 245.585938 180.84375 245.84375 181.402344 246.078125 C 181.964844 246.308594 182.53125 246.511719 183.113281 246.6875 C 183.691406 246.863281 184.277344 247.011719 184.871094 247.128906 C 185.464844 247.246094 186.066406 247.335938 186.667969 247.394531 C 187.269531 247.457031 187.875 247.484375 188.480469 247.484375 C 189.085938 247.484375 189.691406 247.457031 190.292969 247.394531 C 190.894531 247.335938 191.492188 247.246094 192.089844 247.128906 C 192.683594 247.011719 193.269531 246.863281 193.847656 246.6875 C 194.429688 246.511719 194.996094 246.308594 195.558594 246.078125 C 196.117188 245.84375 196.664062 245.585938 197.199219 245.300781 C 197.730469 245.015625 198.25 244.703125 198.753906 244.367188 C 199.257812 244.03125 199.742188 243.671875 200.210938 243.289062 C 200.679688 242.902344 201.128906 242.496094 201.558594 242.070312 C 201.984375 241.640625 202.390625 241.191406 202.777344 240.722656 C 203.160156 240.253906 203.519531 239.769531 203.855469 239.265625 C 204.191406 238.761719 204.503906 238.242188 204.789062 237.710938 C 205.074219 237.175781 205.332031 236.628906 205.566406 236.070312 C 205.796875 235.507812 206 234.941406 206.175781 234.359375 C 206.351562 233.78125 206.5 233.195312 206.617188 232.601562 C 206.734375 232.007812 206.824219 231.40625 206.882812 230.804688 C 206.945312 230.203125 206.972656 229.597656 206.972656 228.992188 C 206.972656 228.386719 206.945312 227.78125 206.882812 227.179688 C 206.824219 226.578125 206.734375 225.976562 206.617188 225.382812 C 206.5 224.789062 206.351562 224.203125 206.175781 223.625 C 206 223.042969 205.796875 222.476562 205.566406 221.914062 C 205.332031 221.355469 205.074219 220.808594 204.789062 220.273438 C 204.503906 219.742188 204.191406 219.222656 203.855469 218.71875 C 203.519531 218.214844 203.160156 217.730469 202.773438 217.261719 C 202.390625 216.792969 201.984375 216.34375 201.554688 215.914062 C 201.128906 215.488281 200.679688 215.082031 200.210938 214.695312 C 199.742188 214.3125 199.257812 213.953125 198.753906 213.617188 C 198.25 213.28125 197.730469 212.96875 197.199219 212.683594 C 196.664062 212.398438 196.117188 212.140625 195.558594 211.90625 C 194.996094 211.675781 194.429688 211.472656 193.847656 211.296875 C 193.269531 211.121094 192.683594 210.972656 192.089844 210.855469 C 191.492188 210.738281 190.894531 210.648438 190.292969 210.589844 C 189.691406 210.527344 189.085938 210.5 188.480469 210.5 Z M 136.902344 235.730469 C 136.210938 235.730469 135.523438 235.765625 134.835938 235.832031 C 134.148438 235.902344 133.46875 236 132.792969 236.136719 C 132.113281 236.269531 131.445312 236.4375 130.785156 236.640625 C 130.125 236.839844 129.476562 237.070312 128.839844 237.335938 C 128.203125 237.597656 127.578125 237.894531 126.96875 238.21875 C 126.363281 238.542969 125.769531 238.898438 125.195312 239.28125 C 124.621094 239.664062 124.070312 240.078125 123.535156 240.515625 C 123.003906 240.953125 122.492188 241.414062 122.003906 241.902344 C 121.515625 242.390625 121.054688 242.902344 120.617188 243.433594 C 120.175781 243.96875 119.765625 244.523438 119.382812 245.09375 C 119 245.667969 118.644531 246.261719 118.320312 246.867188 C 117.996094 247.476562 117.699219 248.101562 117.4375 248.738281 C 117.171875 249.375 116.941406 250.023438 116.738281 250.683594 C 116.539062 251.34375 116.371094 252.011719 116.238281 252.691406 C 116.101562 253.367188 116 254.050781 115.933594 254.734375 C 115.867188 255.421875 115.832031 256.109375 115.832031 256.800781 C 115.832031 257.492188 115.867188 258.179688 115.933594 258.867188 C 116 259.554688 116.101562 260.234375 116.238281 260.910156 C 116.371094 261.589844 116.539062 262.257812 116.738281 262.917969 C 116.941406 263.578125 117.171875 264.226562 117.4375 264.863281 C 117.699219 265.5 117.996094 266.125 118.320312 266.734375 C 118.644531 267.339844 119 267.933594 119.382812 268.507812 C 119.765625 269.082031 120.175781 269.632812 120.617188 270.167969 C 121.054688 270.699219 121.515625 271.210938 122.003906 271.699219 C 122.492188 272.1875 123.003906 272.648438 123.535156 273.085938 C 124.070312 273.527344 124.621094 273.9375 125.195312 274.320312 C 125.769531 274.703125 126.363281 275.058594 126.96875 275.382812 C 127.578125 275.707031 128.203125 276.003906 128.839844 276.265625 C 129.476562 276.53125 130.125 276.761719 130.785156 276.964844 C 131.445312 277.164062 132.113281 277.332031 132.792969 277.464844 C 133.46875 277.601562 134.148438 277.699219 134.835938 277.769531 C 135.523438 277.835938 136.210938 277.871094 136.902344 277.871094 C 137.59375 277.871094 138.28125 277.835938 138.96875 277.769531 C 139.652344 277.699219 140.335938 277.601562 141.011719 277.464844 C 141.6875 277.332031 142.359375 277.164062 143.019531 276.964844 C 143.679688 276.761719 144.328125 276.53125 144.964844 276.265625 C 145.601562 276.003906 146.226562 275.707031 146.835938 275.382812 C 147.441406 275.058594 148.035156 274.703125 148.609375 274.320312 C 149.179688 273.9375 149.734375 273.527344 150.269531 273.085938 C 150.800781 272.648438 151.3125 272.1875 151.800781 271.699219 C 152.289062 271.210938 152.75 270.699219 153.1875 270.167969 C 153.625 269.632812 154.039062 269.082031 154.421875 268.507812 C 154.804688 267.933594 155.160156 267.339844 155.484375 266.734375 C 155.808594 266.125 156.105469 265.5 156.367188 264.863281 C 156.632812 264.226562 156.863281 263.578125 157.0625 262.917969 C 157.265625 262.257812 157.433594 261.589844 157.566406 260.910156 C 157.703125 260.234375 157.800781 259.554688 157.871094 258.867188 C 157.9375 258.179688 157.972656 257.492188 157.972656 256.800781 C 157.972656 256.109375 157.9375 255.421875 157.871094 254.734375 C 157.800781 254.050781 157.703125 253.367188 157.566406 252.691406 C 157.433594 252.011719 157.265625 251.34375 157.0625 250.683594 C 156.863281 250.023438 156.632812 249.375 156.367188 248.738281 C 156.105469 248.101562 155.808594 247.476562 155.484375 246.867188 C 155.160156 246.261719 154.804688 245.667969 154.421875 245.09375 C 154.039062 244.523438 153.625 243.96875 153.1875 243.433594 C 152.75 242.902344 152.289062 242.390625 151.800781 241.902344 C 151.3125 241.414062 150.800781 240.953125 150.269531 240.515625 C 149.734375 240.078125 149.179688 239.664062 148.609375 239.28125 C 148.035156 238.898438 147.441406 238.542969 146.835938 238.21875 C 146.226562 237.894531 145.601562 237.597656 144.964844 237.335938 C 144.328125 237.070312 143.679688 236.839844 143.019531 236.640625 C 142.359375 236.4375 141.6875 236.269531 141.011719 236.136719 C 140.335938 236 139.652344 235.902344 138.96875 235.832031 C 138.28125 235.765625 137.59375 235.730469 136.902344 235.730469 Z M 226.5 251.988281 C 225.855469 251.988281 225.207031 252.019531 224.566406 252.082031 C 223.921875 252.144531 223.28125 252.242188 222.648438 252.367188 C 222.015625 252.492188 221.386719 252.648438 220.769531 252.835938 C 220.148438 253.023438 219.542969 253.242188 218.945312 253.492188 C 218.347656 253.738281 217.761719 254.015625 217.191406 254.320312 C 216.621094 254.625 216.066406 254.957031 215.53125 255.316406 C 214.992188 255.675781 214.472656 256.058594 213.972656 256.46875 C 213.472656 256.878906 212.996094 257.3125 212.539062 257.769531 C 212.082031 258.226562 211.648438 258.707031 211.234375 259.207031 C 210.824219 259.707031 210.441406 260.226562 210.082031 260.761719 C 209.722656 261.300781 209.390625 261.855469 209.085938 262.425781 C 208.78125 262.996094 208.503906 263.578125 208.257812 264.175781 C 208.007812 264.773438 207.792969 265.382812 207.605469 266 C 207.417969 266.621094 207.257812 267.246094 207.132812 267.882812 C 207.007812 268.515625 206.914062 269.15625 206.847656 269.796875 C 206.785156 270.441406 206.753906 271.085938 206.753906 271.734375 C 206.753906 272.378906 206.785156 273.027344 206.847656 273.667969 C 206.914062 274.3125 207.007812 274.953125 207.132812 275.585938 C 207.257812 276.21875 207.417969 276.847656 207.605469 277.464844 C 207.792969 278.085938 208.007812 278.691406 208.257812 279.289062 C 208.503906 279.886719 208.78125 280.472656 209.085938 281.042969 C 209.390625 281.613281 209.722656 282.167969 210.082031 282.703125 C 210.441406 283.242188 210.824219 283.761719 211.234375 284.261719 C 211.648438 284.761719 212.082031 285.238281 212.539062 285.695312 C 212.996094 286.152344 213.472656 286.589844 213.972656 287 C 214.472656 287.410156 214.992188 287.792969 215.53125 288.152344 C 216.066406 288.511719 216.621094 288.84375 217.191406 289.148438 C 217.761719 289.453125 218.347656 289.730469 218.945312 289.976562 C 219.542969 290.226562 220.148438 290.441406 220.769531 290.628906 C 221.386719 290.816406 222.015625 290.976562 222.648438 291.101562 C 223.28125 291.226562 223.921875 291.320312 224.566406 291.386719 C 225.207031 291.449219 225.855469 291.480469 226.5 291.480469 C 227.148438 291.480469 227.792969 291.449219 228.4375 291.386719 C 229.078125 291.320312 229.71875 291.226562 230.351562 291.101562 C 230.988281 290.976562 231.613281 290.816406 232.234375 290.628906 C 232.851562 290.441406 233.460938 290.226562 234.058594 289.976562 C 234.65625 289.730469 235.238281 289.453125 235.808594 289.148438 C 236.378906 288.84375 236.933594 288.511719 237.472656 288.152344 C 238.007812 287.792969 238.527344 287.410156 239.027344 287 C 239.527344 286.589844 240.007812 286.152344 240.464844 285.695312 C 240.921875 285.238281 241.355469 284.761719 241.765625 284.261719 C 242.175781 283.761719 242.558594 283.242188 242.917969 282.703125 C 243.277344 282.167969 243.609375 281.613281 243.914062 281.042969 C 244.21875 280.472656 244.496094 279.886719 244.742188 279.289062 C 244.992188 278.691406 245.210938 278.085938 245.398438 277.464844 C 245.585938 276.847656 245.742188 276.21875 245.867188 275.585938 C 245.992188 274.953125 246.089844 274.3125 246.152344 273.667969 C 246.214844 273.027344 246.246094 272.378906 246.246094 271.734375 C 246.246094 271.085938 246.214844 270.441406 246.152344 269.796875 C 246.089844 269.15625 245.992188 268.515625 245.867188 267.882812 C 245.742188 267.246094 245.585938 266.621094 245.398438 266 C 245.210938 265.382812 244.992188 264.773438 244.742188 264.175781 C 244.496094 263.578125 244.21875 262.996094 243.914062 262.425781 C 243.609375 261.855469 243.277344 261.300781 242.917969 260.761719 C 242.558594 260.226562 242.175781 259.707031 241.765625 259.207031 C 241.355469 258.707031 240.921875 258.226562 240.464844 257.769531 C 240.007812 257.3125 239.527344 256.878906 239.027344 256.46875 C 238.527344 256.058594 238.007812 255.675781 237.472656 255.316406 C 236.933594 254.957031 236.378906 254.625 235.808594 254.320312 C 235.238281 254.015625 234.65625 253.738281 234.058594 253.492188 C 233.460938 253.242188 232.851562 253.023438 232.234375 252.835938 C 231.613281 252.648438 230.988281 252.492188 230.351562 252.367188 C 229.71875 252.242188 229.078125 252.144531 228.4375 252.082031 C 227.792969 252.019531 227.148438 251.988281 226.5 251.988281 Z M 226.5 251.988281 " fill-opacity="1" fill-rule="nonzero"/><path fill="#ffde4c" d="M 171.734375 138.414062 C 174.132812 138.414062 176.335938 139.070312 178.339844 140.382812 L 188.730469 119.421875 C 187.105469 118.539062 185.425781 117.78125 183.683594 117.160156 C 181.941406 116.539062 180.160156 116.054688 178.34375 115.710938 C 176.527344 115.363281 174.695312 115.164062 172.84375 115.105469 C 170.996094 115.050781 169.15625 115.136719 167.320312 115.367188 C 165.484375 115.597656 163.679688 115.96875 161.902344 116.484375 C 160.125 116.996094 158.398438 117.644531 156.722656 118.429688 C 155.046875 119.214844 153.441406 120.121094 151.910156 121.15625 C 150.378906 122.191406 148.933594 123.339844 147.582031 124.601562 L 163.726562 141.457031 C 164.828125 140.476562 166.070312 139.726562 167.449219 139.199219 C 168.832031 138.675781 170.257812 138.414062 171.734375 138.414062 Z M 177.6875 129.175781 C 178.554688 126.902344 179.664062 124.753906 181.011719 122.726562 C 180.605469 125.128906 179.9375 127.453125 179.007812 129.703125 C 178.140625 131.972656 177.03125 134.125 175.683594 136.148438 C 176.09375 133.75 176.761719 131.425781 177.6875 129.175781 Z M 169.910156 124.601562 C 170.417969 126.382812 170.652344 128.199219 170.621094 130.050781 C 170.652344 131.898438 170.414062 133.714844 169.910156 135.496094 C 169.40625 133.714844 169.167969 131.898438 169.199219 130.050781 C 169.164062 128.199219 169.402344 126.382812 169.910156 124.601562 Z M 153.851562 123.105469 C 155.980469 125.085938 157.90625 127.242188 159.632812 129.582031 C 161.40625 131.878906 162.957031 134.324219 164.273438 136.914062 C 162.144531 134.933594 160.21875 132.777344 158.492188 130.4375 C 156.71875 128.136719 155.171875 125.695312 153.851562 123.105469 Z M 224.691406 168.621094 C 226.015625 170.621094 226.6875 172.816406 226.703125 175.214844 L 249.910156 172.277344 C 249.753906 170.433594 249.449219 168.613281 249.003906 166.820312 C 248.5625 165.023438 247.980469 163.273438 247.261719 161.570312 C 246.542969 159.863281 245.695312 158.226562 244.722656 156.65625 C 243.746094 155.082031 242.65625 153.597656 241.449219 152.195312 C 240.238281 150.792969 238.929688 149.496094 237.519531 148.300781 C 236.109375 147.101562 234.613281 146.023438 233.035156 145.0625 C 231.453125 144.101562 229.808594 143.265625 228.101562 142.5625 C 226.390625 141.855469 224.636719 141.289062 222.835938 140.859375 L 217.722656 163.632812 C 219.152344 164.011719 220.464844 164.628906 221.664062 165.488281 C 222.867188 166.347656 223.875 167.394531 224.691406 168.621094 Z M 235.679688 168.46875 C 238.050781 167.933594 240.457031 167.667969 242.890625 167.675781 C 240.667969 168.664062 238.359375 169.394531 235.972656 169.863281 C 233.597656 170.394531 231.195312 170.660156 228.761719 170.660156 C 230.984375 169.671875 233.292969 168.945312 235.679688 168.46875 Z M 235.1875 159.460938 C 233.984375 160.871094 232.601562 162.070312 231.042969 163.070312 C 229.515625 164.117188 227.875 164.921875 226.109375 165.488281 C 227.316406 164.085938 228.699219 162.882812 230.253906 161.882812 C 231.777344 160.832031 233.421875 160.027344 235.1875 159.460938 Z M 227.550781 145.257812 C 227.078125 148.125 226.347656 150.921875 225.355469 153.652344 C 224.421875 156.40625 223.242188 159.046875 221.8125 161.574219 C 222.28125 158.707031 223.015625 155.910156 224.011719 153.179688 C 224.945312 150.429688 226.125 147.789062 227.550781 145.257812 Z M 140.90625 202.410156 C 142.234375 204.40625 142.90625 206.605469 142.921875 209 L 166.128906 206.0625 C 165.96875 204.222656 165.667969 202.402344 165.222656 200.605469 C 164.777344 198.8125 164.195312 197.0625 163.476562 195.355469 C 162.757812 193.652344 161.914062 192.015625 160.9375 190.441406 C 159.964844 188.871094 158.871094 187.382812 157.664062 185.984375 C 156.457031 184.582031 155.148438 183.285156 153.738281 182.085938 C 152.328125 180.890625 150.832031 179.8125 149.25 178.851562 C 147.671875 177.886719 146.027344 177.054688 144.316406 176.347656 C 142.605469 175.644531 140.851562 175.078125 139.054688 174.648438 L 133.941406 197.421875 C 135.367188 197.800781 136.683594 198.417969 137.882812 199.277344 C 139.082031 200.136719 140.089844 201.179688 140.90625 202.410156 Z M 151.894531 202.257812 C 154.269531 201.722656 156.671875 201.457031 159.105469 201.460938 C 156.882812 202.449219 154.578125 203.179688 152.191406 203.652344 C 149.816406 204.183594 147.410156 204.449219 144.976562 204.445312 C 147.203125 203.460938 149.507812 202.730469 151.894531 202.257812 Z M 151.402344 193.25 C 150.199219 194.65625 148.820312 195.859375 147.257812 196.855469 C 145.734375 197.902344 144.089844 198.710938 142.328125 199.277344 C 143.535156 197.871094 144.914062 196.667969 146.472656 195.667969 C 147.996094 194.621094 149.640625 193.8125 151.402344 193.25 Z M 143.769531 179.046875 C 143.296875 181.910156 142.5625 184.710938 141.570312 187.441406 C 140.640625 190.191406 139.457031 192.832031 138.03125 195.363281 C 138.5 192.496094 139.230469 189.699219 140.226562 186.96875 C 141.164062 184.21875 142.34375 181.578125 143.769531 179.046875 Z M 117.21875 217.921875 C 117.035156 215.257812 117.597656 212.765625 118.902344 210.4375 L 94.835938 200.503906 C 93.976562 202.375 93.265625 204.300781 92.707031 206.28125 C 92.148438 208.261719 91.75 210.277344 91.507812 212.320312 C 91.261719 214.363281 91.179688 216.414062 91.257812 218.472656 C 91.335938 220.527344 91.574219 222.566406 91.96875 224.585938 C 92.367188 226.605469 92.917969 228.582031 93.625 230.515625 C 94.328125 232.453125 95.183594 234.316406 96.179688 236.117188 C 97.179688 237.917969 98.3125 239.628906 99.578125 241.253906 C 100.84375 242.875 102.230469 244.390625 103.730469 245.796875 L 121.214844 226.582031 C 120.039062 225.429688 119.109375 224.109375 118.421875 222.617188 C 117.734375 221.125 117.332031 219.558594 117.21875 217.921875 Z M 106.507812 212.019531 C 103.917969 211.230469 101.445312 210.164062 99.09375 208.820312 C 101.789062 209.089844 104.421875 209.652344 106.992188 210.511719 C 109.582031 211.304688 112.050781 212.371094 114.40625 213.710938 C 111.710938 213.441406 109.078125 212.875 106.507812 212.019531 Z M 102.027344 221.003906 C 103.964844 220.304688 105.960938 219.902344 108.019531 219.796875 C 110.070312 219.625 112.105469 219.75 114.121094 220.171875 C 112.183594 220.867188 110.183594 221.269531 108.128906 221.378906 C 106.074219 221.554688 104.042969 221.429688 102.027344 221.003906 Z M 101.59375 238.949219 C 103.625 236.433594 105.875 234.132812 108.339844 232.035156 C 110.753906 229.886719 113.351562 227.984375 116.125 226.320312 C 114.09375 228.835938 111.84375 231.140625 109.378906 233.234375 C 106.960938 235.378906 104.363281 237.285156 101.59375 238.949219 Z M 199.429688 202.363281 C 197.292969 203.457031 195.035156 203.878906 192.652344 203.625 L 192.964844 227.015625 C 194.8125 227.0625 196.652344 226.96875 198.488281 226.726562 C 200.320312 226.488281 202.125 226.105469 203.898438 225.582031 C 205.675781 225.0625 207.398438 224.402344 209.070312 223.613281 C 210.742188 222.820312 212.339844 221.902344 213.867188 220.859375 C 215.394531 219.816406 216.832031 218.664062 218.179688 217.394531 C 219.527344 216.128906 220.769531 214.765625 221.902344 213.300781 C 223.035156 211.839844 224.046875 210.300781 224.941406 208.679688 C 225.832031 207.058594 226.59375 205.378906 227.222656 203.640625 L 205.167969 196 C 204.632812 197.378906 203.871094 198.613281 202.882812 199.710938 C 201.894531 200.804688 200.742188 201.691406 199.429688 202.363281 Z M 198.34375 213.296875 C 198.609375 215.71875 198.601562 218.136719 198.324219 220.554688 C 197.59375 218.234375 197.125 215.859375 196.925781 213.433594 C 196.664062 211.015625 196.671875 208.597656 196.945312 206.179688 C 197.675781 208.5 198.140625 210.875 198.34375 213.296875 Z M 207.351562 213.820312 C 206.089844 212.46875 205.050781 210.960938 204.234375 209.300781 C 203.363281 207.664062 202.746094 205.941406 202.382812 204.128906 C 203.644531 205.484375 204.683594 206.988281 205.5 208.648438 C 206.371094 210.28125 206.988281 212.007812 207.351562 213.820312 Z M 222.324219 207.832031 C 219.527344 207.039062 216.832031 205.996094 214.230469 204.703125 C 211.597656 203.46875 209.109375 202 206.753906 200.296875 C 209.550781 201.085938 212.25 202.128906 214.847656 203.421875 C 217.476562 204.660156 219.96875 206.128906 222.324219 207.832031 Z M 179.734375 268.105469 C 177.171875 267.222656 175.058594 265.707031 173.398438 263.5625 L 154.542969 282.152344 C 155.953125 283.699219 157.472656 285.125 159.105469 286.4375 C 160.742188 287.746094 162.464844 288.917969 164.285156 289.960938 C 166.101562 291 167.988281 291.890625 169.945312 292.632812 C 171.902344 293.378906 173.90625 293.964844 175.953125 294.394531 C 178 294.824219 180.070312 295.09375 182.164062 295.199219 C 184.253906 295.308594 186.339844 295.25 188.421875 295.03125 C 190.503906 294.808594 192.554688 294.429688 194.578125 293.886719 C 196.601562 293.347656 198.566406 292.652344 200.480469 291.800781 L 189.429688 267.804688 C 187.886719 268.449219 186.28125 268.792969 184.609375 268.84375 C 182.941406 268.898438 181.316406 268.652344 179.734375 268.105469 Z M 169.960938 275.792969 C 168.191406 277.90625 166.210938 279.796875 164.019531 281.464844 C 165.339844 279.046875 166.914062 276.808594 168.738281 274.742188 C 170.507812 272.632812 172.488281 270.742188 174.675781 269.070312 C 173.351562 271.488281 171.78125 273.726562 169.960938 275.792969 Z M 176.589844 283.554688 C 176.707031 281.464844 177.121094 279.433594 177.839844 277.464844 C 178.492188 275.476562 179.417969 273.621094 180.613281 271.902344 C 180.492188 273.992188 180.078125 276.023438 179.363281 277.992188 C 178.714844 279.984375 177.789062 281.839844 176.589844 283.554688 Z M 193.21875 291.085938 C 191.675781 288.183594 190.410156 285.164062 189.425781 282.027344 C 188.375 278.910156 187.621094 275.722656 187.167969 272.46875 C 188.714844 275.367188 189.980469 278.390625 190.960938 281.527344 C 192.007812 284.644531 192.761719 287.832031 193.21875 291.085938 Z M 249.152344 253.84375 C 250.929688 255.519531 252.113281 257.542969 252.695312 259.914062 L 274.929688 251.792969 C 274.335938 250.003906 273.609375 248.269531 272.746094 246.59375 C 271.886719 244.917969 270.898438 243.316406 269.789062 241.792969 C 268.679688 240.269531 267.460938 238.839844 266.128906 237.503906 C 264.796875 236.167969 263.371094 234.945312 261.851562 233.832031 C 260.332031 232.71875 258.734375 231.726562 257.058594 230.859375 C 255.382812 229.996094 253.652344 229.261719 251.863281 228.664062 C 250.078125 228.066406 248.253906 227.609375 246.394531 227.292969 C 244.535156 226.976562 242.664062 226.804688 240.78125 226.78125 L 241.09375 250.472656 C 242.597656 250.527344 244.042969 250.84375 245.429688 251.425781 C 246.816406 252.003906 248.058594 252.8125 249.152344 253.84375 Z M 259.972656 251.222656 C 262.195312 250.160156 264.507812 249.355469 266.910156 248.816406 C 264.945312 250.296875 262.835938 251.535156 260.589844 252.539062 C 258.367188 253.597656 256.054688 254.402344 253.652344 254.945312 C 255.621094 253.46875 257.726562 252.226562 259.972656 251.222656 Z M 257.363281 242.417969 C 256.507812 244.082031 255.425781 245.582031 254.121094 246.917969 C 252.859375 248.300781 251.425781 249.46875 249.816406 250.421875 C 250.675781 248.761719 251.757812 247.261719 253.0625 245.921875 C 254.320312 244.539062 255.753906 243.371094 257.363281 242.417969 Z M 246.472656 230.074219 C 246.683594 233.015625 246.617188 235.949219 246.28125 238.878906 C 246.007812 241.808594 245.464844 244.6875 244.648438 247.515625 C 244.292969 241.601562 244.898438 235.785156 246.472656 230.074219 Z M 220.828125 105.269531 C 222.605469 106.945312 223.785156 108.96875 224.367188 111.339844 L 246.605469 103.21875 C 246.011719 101.429688 245.28125 99.695312 244.421875 98.019531 C 243.558594 96.34375 242.574219 94.742188 241.464844 93.21875 C 240.355469 91.695312 239.132812 90.265625 237.800781 88.929688 C 236.472656 87.59375 235.046875 86.371094 233.523438 85.257812 C 232.003906 84.140625 230.40625 83.152344 228.730469 82.285156 C 227.058594 81.417969 225.328125 80.6875 223.539062 80.089844 C 221.75 79.492188 219.925781 79.035156 218.070312 78.71875 C 216.210938 78.402344 214.339844 78.230469 212.453125 78.207031 L 212.769531 101.894531 C 214.269531 101.949219 215.714844 102.269531 217.105469 102.847656 C 218.492188 103.429688 219.730469 104.238281 220.828125 105.269531 Z M 231.644531 102.648438 C 233.867188 101.585938 236.179688 100.78125 238.582031 100.242188 C 236.617188 101.71875 234.511719 102.960938 232.265625 103.960938 C 230.042969 105.023438 227.730469 105.824219 225.328125 106.371094 C 227.292969 104.894531 229.398438 103.652344 231.644531 102.648438 Z M 229.035156 93.84375 C 228.179688 95.507812 227.097656 97.007812 225.792969 98.34375 C 224.53125 99.722656 223.097656 100.890625 221.492188 101.847656 C 222.351562 100.1875 223.433594 98.6875 224.734375 97.347656 C 225.992188 95.964844 227.429688 94.796875 229.035156 93.84375 Z M 218.148438 81.5 C 218.355469 84.441406 218.292969 87.375 217.953125 90.300781 C 217.683594 93.234375 217.140625 96.113281 216.324219 98.941406 C 216.113281 96 216.175781 93.066406 216.515625 90.136719 C 216.792969 87.207031 217.335938 84.328125 218.148438 81.5 Z M 281.941406 155.726562 C 279.523438 155.359375 277.40625 154.363281 275.578125 152.738281 L 261.882812 172.046875 C 263.386719 173.183594 264.96875 174.199219 266.628906 175.089844 C 268.289062 175.980469 270.011719 176.738281 271.789062 177.363281 C 273.566406 177.988281 275.382812 178.472656 277.238281 178.816406 C 279.089844 179.160156 280.960938 179.359375 282.84375 179.410156 C 284.730469 179.464844 286.605469 179.375 288.476562 179.136719 C 290.347656 178.898438 292.1875 178.519531 294 178 C 295.8125 177.476562 297.570312 176.816406 299.28125 176.023438 C 300.988281 175.226562 302.628906 174.304688 304.195312 173.257812 L 290.488281 153.929688 C 289.21875 154.738281 287.851562 155.296875 286.378906 155.605469 C 284.90625 155.917969 283.425781 155.957031 281.941406 155.726562 Z M 274.519531 164.027344 C 273.292969 166.164062 271.847656 168.136719 270.175781 169.945312 C 270.953125 167.613281 271.984375 165.394531 273.265625 163.296875 C 274.492188 161.160156 275.941406 159.1875 277.609375 157.375 C 276.828125 159.707031 275.796875 161.925781 274.519531 164.027344 Z M 281.664062 169.792969 C 281.425781 167.941406 281.464844 166.089844 281.78125 164.246094 C 282.035156 162.394531 282.554688 160.621094 283.335938 158.921875 C 283.570312 160.777344 283.53125 162.625 283.21875 164.46875 C 282.964844 166.320312 282.449219 168.097656 281.664062 169.792969 Z M 297.636719 173.777344 C 295.796875 171.476562 294.183594 169.023438 292.800781 166.417969 C 291.359375 163.851562 290.171875 161.171875 289.238281 158.382812 C 292.890625 163.046875 295.691406 168.179688 297.636719 173.777344 Z M 118.507812 102.15625 C 116.566406 103.640625 114.375 104.472656 111.941406 104.660156 L 116.328125 127.925781 C 118.191406 127.628906 120.019531 127.195312 121.816406 126.617188 C 123.609375 126.042969 125.347656 125.328125 127.035156 124.484375 C 128.71875 123.636719 130.328125 122.664062 131.859375 121.570312 C 133.394531 120.472656 134.835938 119.265625 136.183594 117.949219 C 137.53125 116.628906 138.765625 115.214844 139.894531 113.703125 C 141.023438 112.191406 142.027344 110.605469 142.910156 108.9375 C 143.789062 107.269531 144.539062 105.546875 145.152344 103.765625 C 145.765625 101.980469 146.242188 100.164062 146.574219 98.308594 L 123.148438 94.757812 C 122.847656 96.230469 122.300781 97.605469 121.5 98.878906 C 120.703125 100.152344 119.703125 101.246094 118.507812 102.15625 Z M 119.328125 113.257812 C 120.015625 115.625 120.429688 118.035156 120.574219 120.496094 C 119.433594 118.316406 118.554688 116.035156 117.933594 113.65625 C 117.246094 111.289062 116.832031 108.875 116.6875 106.417969 C 117.824219 108.597656 118.703125 110.878906 119.328125 113.257812 Z M 128.441406 112.121094 C 126.941406 111.003906 125.636719 109.691406 124.53125 108.1875 C 123.375 106.71875 122.457031 105.113281 121.773438 103.371094 C 123.273438 104.488281 124.578125 105.800781 125.6875 107.304688 C 126.84375 108.773438 127.761719 110.378906 128.441406 112.121094 Z M 142.394531 103.390625 C 139.460938 103.117188 136.574219 102.574219 133.742188 101.765625 C 130.894531 101.019531 128.140625 100.011719 125.484375 98.746094 C 128.421875 99.015625 131.304688 99.558594 134.140625 100.371094 C 136.984375 101.121094 139.738281 102.125 142.394531 103.390625 Z M 142.394531 103.390625 " fill-opacity="1" fill-rule="nonzero"/></svg>